<svg width="680" height="480" viewBox="0 0 680 480" fill="none" xmlns="http://www.w3.org/2000/svg">
<rect width="680" height="480" fill="white"/>
<rect x="9.12122" y="123.81" width="44.3478" height="18.7755" fill="#917777" fill-opacity="0.68"/>
<rect x="9.62122" y="124.31" width="43.3478" height="17.7755" stroke="#917777" stroke-opacity="0.68"/>
<rect x="9.12122" y="84.8979" width="44.3478" height="18.5034" fill="#917777" fill-opacity="0.68"/>
<rect x="9.62122" y="85.3979" width="43.3478" height="17.5034" stroke="#917777" stroke-opacity="0.68"/>
<rect x="9.12122" y="65.3062" width="44.3478" height="18.5034" fill="#917777" fill-opacity="0.68"/>
<rect x="9.62122" y="65.8062" width="43.3478" height="17.5034" stroke="#917777" stroke-opacity="0.68"/>
<rect x="164.496" y="19.3196" width="16.0407" height="68.8435" fill="#917777" fill-opacity="0.68"/>
<rect x="164.996" y="19.8196" width="15.0407" height="67.8435" stroke="#917777" stroke-opacity="0.68"/>
<rect x="164.496" y="91.4285" width="16.0407" height="43.5374" fill="#917777" fill-opacity="0.68"/>
<rect x="164.996" y="91.9285" width="15.0407" height="42.5374" stroke="#917777" stroke-opacity="0.68"/>
<rect x="182.738" y="91.4285" width="16.3552" height="43.5374" fill="#917777" fill-opacity="0.68"/>
<rect id="misa" x="183.238" y="91.9285" width="15.3552" height="42.5374" stroke="#917777" stroke-opacity="0.68"/>
<rect width="9.9996" height="29.4694" transform="matrix(-0.0087234 0.999962 -0.999973 -0.00729556 249.387 124.651)" fill="#917777" fill-opacity="0.68"/>
<rect x="-0.504348" y="0.496333" width="8.9996" height="28.4694" transform="matrix(-0.0087234 0.999962 -0.999973 -0.00729556 249.375 125.655)" stroke="#917777" stroke-opacity="0.68"/>
<path d="M201.61 91.4285H213.201V124.251H218.908V134.422H201.61V91.4285Z" fill="#917777" fill-opacity="0.68"/>
<path d="M213.201 124.751H218.408V133.922H202.11V91.9285H212.701V124.251V124.751H213.201Z" stroke="#917777" stroke-opacity="0.68"/>
<rect x="182.738" y="19.3196" width="16.3552" height="68.8435" fill="#917777" fill-opacity="0.68"/>
<rect x="183.238" y="19.8196" width="15.3552" height="67.8435" stroke="#917777" stroke-opacity="0.68"/>
<rect x="200.98" y="19.3196" width="16.3552" height="68.8435" fill="#917777" fill-opacity="0.68"/>
<rect x="201.48" y="19.8196" width="15.3552" height="67.8435" stroke="#917777" stroke-opacity="0.68"/>
<rect x="219.223" y="19.3196" width="16.3552" height="68.8435" fill="#917777" fill-opacity="0.68"/>
<rect x="219.723" y="19.8196" width="15.3552" height="67.8435" stroke="#917777" stroke-opacity="0.68"/>
<rect x="309.491" y="17.6873" width="13.21" height="41.9048" fill="#917777" fill-opacity="0.68"/>
<rect x="309.991" y="18.1873" width="12.21" height="40.9048" stroke="#917777" stroke-opacity="0.68"/>
<rect x="345.032" y="13.061" width="18.2424" height="45.4422" fill="#917777" fill-opacity="0.68"/>
<rect x="345.532" y="13.561" width="17.2424" height="44.4422" stroke="#917777" stroke-opacity="0.68"/>
<path d="M345.032 59.0476H354.154H363.275V106.667V106.667C357.681 104.068 351.587 102.721 345.419 102.721L345.032 102.721V59.0476Z" fill="#917777" fill-opacity="0.68"/>
<path d="M362.775 105.891C357.346 103.488 351.474 102.237 345.532 102.221V59.5476H354.154H362.775V105.891Z" stroke="#917777" stroke-opacity="0.68"/>
<path d="M389.066 74.0137H406.207H423.349V82.0056L406.207 98.464H402.281V114.051H404.949L415.643 125.068V138.503H413.28C411.089 138.503 408.905 138.245 406.774 137.733V137.733C405.563 137.442 404.396 136.99 403.305 136.388L400.074 134.607L396.614 131.517L389.066 125.068V74.0137Z" fill="#917777" fill-opacity="0.68"/>
<path d="M402.281 114.551H404.738L415.143 125.271V138.003H413.28C411.128 138.003 408.983 137.749 406.891 137.247C405.723 136.966 404.598 136.53 403.547 135.95L400.365 134.197L396.947 131.144L396.947 131.144L396.939 131.137L389.566 124.838V74.5137H406.207H422.849V81.7925L406.006 97.964H402.281H401.781V98.464V114.051V114.551H402.281Z" stroke="#917777" stroke-opacity="0.68"/>
<path d="M363.589 73.1973H376.013H388.436V125.17L384.269 121.218C378.193 115.457 371.205 110.742 363.589 107.265V107.265V90.2313V73.1973Z" fill="#917777" fill-opacity="0.68"/>
<path d="M384.613 120.855C378.575 115.13 371.642 110.431 364.089 106.945V90.2313V73.6973H376.013H387.936V124.007L384.613 120.855Z" stroke="#917777" stroke-opacity="0.68"/>
<rect x="364.218" y="13.061" width="19.5005" height="59.8639" fill="#917777" fill-opacity="0.68"/>
<rect x="364.718" y="13.561" width="18.5005" height="58.8639" stroke="#917777" stroke-opacity="0.68"/>
<rect x="384.348" y="13.061" width="15.7262" height="59.8639" fill="#917777" fill-opacity="0.68"/>
<rect x="384.848" y="13.561" width="14.7262" height="58.8639" stroke="#917777" stroke-opacity="0.68"/>
<rect x="401.646" y="13.061" width="20.7586" height="60.1361" fill="#917777" fill-opacity="0.68"/>
<rect x="402.146" y="13.561" width="19.7586" height="59.1361" stroke="#917777" stroke-opacity="0.68"/>
<rect x="416.429" y="125.714" width="31.4524" height="13.0612" fill="#917777" fill-opacity="0.68"/>
<rect x="416.929" y="126.214" width="30.4524" height="12.0612" stroke="#917777" stroke-opacity="0.68"/>
<rect x="412.655" y="164.354" width="18.2424" height="25.034" fill="#917777" fill-opacity="0.68"/>
<rect x="413.155" y="164.854" width="17.2424" height="24.034" stroke="#917777" stroke-opacity="0.68"/>
<rect x="417.373" y="220.68" width="24.5328" height="21.7687" fill="#917777" fill-opacity="0.68"/>
<rect x="417.873" y="221.18" width="23.5328" height="20.7687" stroke="#917777" stroke-opacity="0.68"/>
<rect x="386.864" y="220.68" width="19.1859" height="21.7687" fill="#917777" fill-opacity="0.68"/>
<rect x="387.364" y="221.18" width="18.1859" height="20.7687" stroke="#917777" stroke-opacity="0.68"/>
<rect x="387.178" y="164.354" width="19.1859" height="35.6463" fill="#917777" fill-opacity="0.68"/>
<rect x="387.678" y="164.854" width="18.1859" height="34.6463" stroke="#917777" stroke-opacity="0.68"/>
<path d="M367.678 201.36H385.92V242.177H367.678V201.36Z" fill="#917777" fill-opacity="0.68"/>
<path d="M368.178 201.86H385.42V241.677H368.178V201.86Z" stroke="#917777" stroke-opacity="0.68"/>
<path d="M345.347 201.36H366.105V242.449H345.347V201.36Z" fill="#917777" fill-opacity="0.68"/>
<path d="M345.847 201.86H365.605V241.949H345.847V201.86Z" stroke="#917777" stroke-opacity="0.68"/>
<path d="M345.032 164.354H366.105V200H345.032V164.354Z" fill="#917777" fill-opacity="0.68"/>
<path d="M345.532 164.854H365.605V199.5H345.532V164.854Z" stroke="#917777" stroke-opacity="0.68"/>
<path d="M367.993 164.082H386.235V200H367.993V164.082Z" fill="#917777" fill-opacity="0.68"/>
<path d="M368.493 164.582H385.735V199.5H368.493V164.582Z" stroke="#917777" stroke-opacity="0.68"/>
<path d="M443.164 200H458.89V242.177H443.164V200Z" fill="#917777" fill-opacity="0.68"/>
<path d="M443.664 200.5H458.39V241.677H443.664V200.5Z" stroke="#917777" stroke-opacity="0.68"/>
<path d="M460.777 200H476.503V242.177H460.777V200Z" fill="#917777" fill-opacity="0.68"/>
<path d="M461.277 200.5H476.003V241.677H461.277V200.5Z" stroke="#917777" stroke-opacity="0.68"/>
<rect x="465.495" y="97.687" width="16.0407" height="41.0884" fill="#917777" fill-opacity="0.68"/>
<rect x="465.995" y="98.187" width="15.0407" height="40.0884" stroke="#917777" stroke-opacity="0.68"/>
<rect x="482.479" y="83.8096" width="15.7262" height="54.6939" fill="#917777" fill-opacity="0.68"/>
<rect x="482.979" y="84.3096" width="14.7262" height="53.6939" stroke="#917777" stroke-opacity="0.68"/>
<rect x="499.149" y="84.0815" width="19.5005" height="54.6939" fill="#917777" fill-opacity="0.68"/>
<rect x="499.649" y="84.5815" width="18.5005" height="53.6939" stroke="#917777" stroke-opacity="0.68"/>
<path d="M498.553 164.626H515.819V205.965V205.965C509.541 207.869 503.499 210.478 497.81 213.744L497.576 213.878L498.553 164.626Z" fill="#917777" fill-opacity="0.68"/>
<path d="M515.319 165.126V205.595C509.327 207.44 503.552 209.925 498.094 213.007L499.044 165.126H515.319Z" stroke="#917777" stroke-opacity="0.68"/>
<path d="M478.548 164.898H496.706V214.286V214.286C489.384 220.399 483.276 227.835 478.702 236.205L477.52 238.367L478.548 164.898Z" fill="#917777" fill-opacity="0.68"/>
<path d="M496.206 165.398V214.052C488.915 220.177 482.83 227.608 478.263 235.965L478.048 236.358L479.041 165.398H496.206Z" stroke="#917777" stroke-opacity="0.68"/>
<path d="M499.149 13.8774H518.649V81.6325H499.149V13.8774Z" fill="#917777" fill-opacity="0.68"/>
<path d="M499.649 14.3774H518.149V81.1325H499.649V14.3774Z" stroke="#917777" stroke-opacity="0.68"/>
<path d="M545.698 44.3535H575.578V86.5304H545.698V44.3535Z" fill="#917777" fill-opacity="0.68"/>
<path d="M546.198 44.8535H575.078V86.0304H546.198V44.8535Z" stroke="#917777" stroke-opacity="0.68"/>
<path d="M545.698 97.687H571.175V118.912H545.698V97.687Z" fill="#917777" fill-opacity="0.68"/>
<path d="M546.198 98.187H570.675V118.412H546.198V98.187Z" stroke="#917777" stroke-opacity="0.68"/>
<path d="M644.144 97.687H669.621V141.497H644.144V97.687Z" fill="#917777" fill-opacity="0.68"/>
<path d="M644.644 98.187H669.121V140.997H644.644V98.187Z" stroke="#917777" stroke-opacity="0.68"/>
<path d="M230.86 408.708L243.756 419.864H249.732L249.732 443.537H230.86V408.708Z" fill="#917777" fill-opacity="0.68"/>
<path d="M243.756 420.364H249.232V443.037H231.36V409.801L243.429 420.242L243.569 420.364H243.756Z" stroke="#917777" stroke-opacity="0.68"/>
<path d="M250.675 420.343H258.593L268.603 410.476V443.537H250.675V420.343Z" fill="#917777" fill-opacity="0.68"/>
<path d="M258.944 420.699L268.103 411.671V443.037H251.175V420.843H258.593H258.798L258.944 420.699Z" stroke="#917777" stroke-opacity="0.68"/>
<path d="M269.232 409.66L275.365 402.993L283.386 394.558H285.745L286.688 443.129L269.232 443.537V409.66Z" fill="#917777" fill-opacity="0.68"/>
<path d="M269.732 443.026V409.855L275.731 403.335L283.6 395.058H285.254L286.179 442.641L269.732 443.026Z" stroke="#917777" stroke-opacity="0.68"/>
<path d="M605.143 292.517H637.539V341.769H605.143V292.517Z" fill="#917777" fill-opacity="0.68"/>
<path d="M605.643 293.017H637.039V341.269H605.643V293.017Z" stroke="#917777" stroke-opacity="0.68"/>
<path d="M306.031 381.497H322.387V410.884V410.884C316.74 411.684 311.444 414.093 307.131 417.824L306.031 418.775V381.497Z" fill="#B4A2A2"/>
<path d="M306.031 381.497H322.387V410.884C316.763 411.681 311.569 413.984 307.54 417.47L306.031 418.775V381.497Z" fill="#B4A2A2"/>
<path d="M306.804 417.446L306.531 417.682V381.997H321.887V410.453C316.339 411.316 311.217 413.628 307.213 417.092L306.804 417.446Z" stroke="#917777" stroke-opacity="0.68"/>
<path d="M271.762 381.769H305.574V419.184L297.225 430.748L287.331 442.177L286.073 394.013H282.928L271.762 381.769Z" fill="#B4A2A2"/>
<path d="M271.762 381.769H305.574V419.184C301.04 420.205 296.786 428.861 293.196 435.085C291.653 437.759 289.59 440.072 287.331 442.177V442.177L286.073 394.013H282.928L271.762 381.769Z" fill="#B4A2A2"/>
<path d="M283.149 393.513L272.895 382.269H305.074V418.801C303.957 419.149 302.892 419.893 301.885 420.864C300.757 421.95 299.665 423.354 298.617 424.903C297.079 427.173 295.602 429.803 294.22 432.263C293.721 433.151 293.235 434.016 292.762 434.835C292.559 435.189 292.345 435.536 292.123 435.877L287.798 440.874L286.573 394L286.56 393.513H286.073H283.149ZM302.579 421.584C303.096 421.086 303.607 420.673 304.112 420.354L296.832 430.437L295.581 431.883C296.815 429.691 298.104 427.444 299.445 425.464C300.475 423.943 301.522 422.602 302.579 421.584Z" stroke="#917777" stroke-opacity="0.68"/>
<path d="M367.678 382.041H383.719V440.816L375.541 432.517L369.408 422.585L367.049 420.272L367.678 382.041Z" fill="#917777" fill-opacity="0.68"/>
<path d="M369.833 422.322L369.801 422.271L369.758 422.228L367.552 420.065L368.17 382.541H383.219V439.596L375.937 432.206L369.833 422.322Z" stroke="#917777" stroke-opacity="0.68"/>
<path d="M384.662 382.041H409.824L416.115 390.884L406.679 402.585V440.816H384.662V382.041Z" fill="#917777" fill-opacity="0.68"/>
<path d="M406.29 402.271L406.179 402.409V402.585V440.316H385.162V382.541H409.566L415.488 390.865L406.29 402.271Z" stroke="#917777" stroke-opacity="0.68"/>
<path d="M416.114 400L420.675 395.102L434.042 409.116V441.088H415.171L416.114 400Z" fill="#917777" fill-opacity="0.68"/>
<path d="M420.679 395.831L433.542 409.316V440.588H415.683L416.61 400.202L420.679 395.831Z" stroke="#917777" stroke-opacity="0.68"/>
<path d="M613.164 373.061H643.515V386.395H623.228L613.164 373.061Z" fill="#917777" fill-opacity="0.68"/>
<path d="M623.477 385.895L614.167 373.561H643.015V385.895H623.477Z" stroke="#917777" stroke-opacity="0.68"/>
<path d="M532.803 352.653L546.197 350.476L562.054 368.707V371.565L553.404 383.537L557.178 386.394H532.803V352.653Z" fill="#917777" fill-opacity="0.68"/>
<path d="M552.999 383.245L552.713 383.641L553.102 383.936L555.69 385.894H533.303V353.078L546.002 351.014L561.554 368.894V371.403L552.999 383.245Z" stroke="#917777" stroke-opacity="0.68"/>
<path d="M501.665 341.224L502.722 342.006C507.029 345.189 511.754 347.764 516.762 349.66V349.66V385.85H501.665V341.224Z" fill="#917777" fill-opacity="0.68"/>
<path d="M502.425 342.408C506.676 345.549 511.331 348.104 516.262 350.004V385.35H502.165V342.216L502.425 342.408Z" stroke="#917777" stroke-opacity="0.68"/>
<path d="M517.077 349.388V349.388C521.747 351.363 526.766 352.381 531.837 352.381H532.174V385.85H517.077V349.388Z" fill="#917777" fill-opacity="0.68"/>
<path d="M517.577 350.134C522.059 351.928 526.842 352.86 531.674 352.881V385.35H517.577V350.134Z" stroke="#917777" stroke-opacity="0.68"/>
<path d="M592.877 292.517H603.885V358.911H599.482L577.937 331.564V331.564C583.871 322.288 588.207 312.081 590.763 301.37L592.877 292.517Z" fill="#917777" fill-opacity="0.68"/>
<path d="M599.724 358.411L578.549 331.534C584.415 322.29 588.707 312.137 591.25 301.486L593.272 293.017H603.385V358.411H599.724Z" stroke="#917777" stroke-opacity="0.68"/>
<path d="M604.829 342.857H638.168V358.367H604.829V342.857Z" fill="#917777" fill-opacity="0.68"/>
<path d="M605.329 343.357H637.668V357.867H605.329V343.357Z" stroke="#917777" stroke-opacity="0.68"/>
<path d="M481.221 387.211H500.721V440H481.221V387.211Z" fill="#917777" fill-opacity="0.68"/>
<path d="M481.721 387.711H500.221V439.5H481.721V387.711Z" stroke="#917777" stroke-opacity="0.68"/>
<path d="M434.986 410.204L442.692 417.415H451.341H460.934L467.697 411.156V440.816H434.986V410.204Z" fill="#917777" fill-opacity="0.68"/>
<path d="M461.274 417.782L467.197 412.301V440.316H435.486V411.357L442.35 417.78L442.494 417.915H442.692H451.341H460.934H461.13L461.274 417.782Z" stroke="#917777" stroke-opacity="0.68"/>
<path d="M501.665 387.211H516.762V440H501.665V387.211Z" fill="#917777" fill-opacity="0.68"/>
<path d="M502.165 387.711H516.262V439.5H502.165V387.711Z" stroke="#917777" stroke-opacity="0.68"/>
<path d="M518.02 387.483H531.23V440.272H518.02V387.483Z" fill="#917777" fill-opacity="0.68"/>
<path d="M518.52 387.983H530.73V439.772H518.52V387.983Z" stroke="#917777" stroke-opacity="0.68"/>
<path d="M532.96 387.483H546.17V440.272H532.96V387.483Z" fill="#917777" fill-opacity="0.68"/>
<path d="M533.46 387.983H545.67V439.772H533.46V387.983Z" stroke="#917777" stroke-opacity="0.68"/>
<path d="M562.997 405.17H577.465V422.585V440H562.997V405.17Z" fill="#917777" fill-opacity="0.68"/>
<path d="M563.497 405.67H576.965V422.585V439.5H563.497V405.67Z" stroke="#917777" stroke-opacity="0.68"/>
<path d="M555.737 387.92L561.57 393.355L561.881 414.498V441.07H547.469V387.92H555.737Z" fill="#B4A2A2" stroke="#B4A2A2"/>
<path d="M578.396 405.714L580.139 389.524L582.969 386.667H586.901L592.865 395.374L588.304 402.78L592.865 407.483L592.865 440.467H578.396V405.714Z" fill="#917777" fill-opacity="0.68"/>
<path d="M587.878 402.518L587.674 402.849L587.945 403.128L592.365 407.686L592.365 439.967H578.896V405.741L580.617 389.751L583.178 387.167H586.637L592.268 395.389L587.878 402.518Z" stroke="#917777" stroke-opacity="0.68"/>
<path d="M593.506 407.619L603.099 417.959H608.288V440.816H593.506V407.619Z" fill="#917777" fill-opacity="0.68"/>
<path d="M603.099 418.459H607.788V440.316H594.006V408.893L602.732 418.299L602.881 418.459H603.099Z" stroke="#917777" stroke-opacity="0.68"/>
<path d="M623.858 386.667H642.572V440.816H609.232V417.823H624.958L632.979 408.435V397.279L626.688 390.34L623.858 386.667Z" fill="#917777" fill-opacity="0.68"/>
<path d="M633.359 408.76L633.479 408.62V408.435V397.279V397.086L633.349 396.943L627.072 390.019L624.874 387.167H642.072V440.316H609.732V418.323H624.958H625.189L625.339 418.148L633.359 408.76Z" stroke="#917777" stroke-opacity="0.68"/>
<path d="M555.897 349.059L565.258 343.381C566.577 342.581 567.778 341.643 568.837 340.586L577.465 331.973L593.506 352.245L574.163 352.653L574.163 357.687L567.243 362.993L555.897 349.059Z" fill="#917777" fill-opacity="0.68"/>
<path d="M573.633 357.457L567.316 362.301L556.64 349.191L565.573 343.772C566.925 342.952 568.156 341.991 569.241 340.907L577.434 332.729L592.521 351.796L574.122 352.184L573.633 352.195L573.633 352.628L573.633 357.457Z" stroke="#917777" stroke-opacity="0.68"/>
<path d="M576.836 176.327H638.483V272.109H592.72V272.109C587.628 254.311 579.211 237.639 567.911 222.976L566.142 220.68L576.836 200.68V176.327Z" fill="#917777" fill-opacity="0.68"/>
<path d="M577.336 200.68V176.827H637.983V271.609H593.096C587.977 253.886 579.568 237.285 568.307 222.671L566.736 220.631L577.277 200.916L577.336 200.806V200.68Z" stroke="#917777" stroke-opacity="0.68"/>
<path d="M545.698 119.728H571.175V140.953H545.698V119.728Z" fill="#917777" fill-opacity="0.68"/>
<path d="M546.198 120.228H570.675V140.453H546.198V120.228Z" stroke="#917777" stroke-opacity="0.68"/>
<path d="M545.541 141.769H575.421V200.408L565.671 219.32L559.052 214.972C557.807 214.154 556.474 213.478 555.079 212.956L545.541 209.388V141.769Z" fill="#917777" fill-opacity="0.68"/>
<path d="M546.041 142.269H574.921V200.287L565.481 218.597L559.326 214.554C558.05 213.716 556.684 213.023 555.254 212.488L546.041 209.041V142.269Z" stroke="#917777" stroke-opacity="0.68"/>
<path d="M545.698 10.6123H607.974V42.7211H545.698V10.6123Z" fill="#917777" fill-opacity="0.68"/>
<path d="M546.198 11.1123H607.474V42.2211H546.198V11.1123Z" stroke="#917777" stroke-opacity="0.68"/>
<path d="M608.603 10.6123H624.644V51.1565L608.603 42.8876V10.6123Z" fill="#917777" fill-opacity="0.68"/>
<path d="M609.103 11.1123H624.144V50.3362L609.103 42.5829V11.1123Z" stroke="#917777" stroke-opacity="0.68"/>
<path d="M624.958 10.6123H640.37V59.0477L624.958 51.0205V10.6123Z" fill="#917777" fill-opacity="0.68"/>
<path d="M625.458 11.1123H639.87V58.2235L625.458 50.7171V11.1123Z" stroke="#917777" stroke-opacity="0.68"/>
<path d="M640.999 10.3401H654.838V58.7755H640.999V10.3401Z" fill="#917777" fill-opacity="0.68"/>
<path d="M641.499 10.8401H654.338V58.2755H641.499V10.8401Z" stroke="#917777" stroke-opacity="0.68"/>
<path d="M655.782 10.3401H671.508V58.7755H655.782V10.3401Z" fill="#917777" fill-opacity="0.68"/>
<path d="M656.282 10.8401H671.008V58.2755H656.282V10.8401Z" stroke="#917777" stroke-opacity="0.68"/>
<path d="M482.479 13.3333H498.52V81.9047H482.479V13.3333Z" fill="#917777" fill-opacity="0.68"/>
<path d="M482.979 13.8333H498.02V81.4047H482.979V13.8333Z" stroke="#917777" stroke-opacity="0.68"/>
<path d="M465.809 13.6055H481.85V62.8572H465.809V13.6055Z" fill="#917777" fill-opacity="0.68"/>
<path d="M466.309 14.1055H481.35V62.3572H466.309V14.1055Z" stroke="#917777" stroke-opacity="0.68"/>
<path d="M460.218 98.0054H464.464V139.094H448.423V126.033H452.984V116.917L448.423 110.522L460.218 98.0054Z" fill="#917777" fill-opacity="0.68"/>
<path d="M460.433 98.5054H463.964V138.594H448.923V126.533H452.984H453.484V126.033V116.917V116.757L453.391 116.627L449.069 110.566L460.433 98.5054Z" stroke="#917777" stroke-opacity="0.68"/>
<path d="M449.14 13.6055H465.18V62.8572H449.14V13.6055Z" fill="#917777" fill-opacity="0.68"/>
<path d="M432.47 13.6055H448.511V62.8572H432.47V13.6055Z" fill="#917777" fill-opacity="0.68"/>
<path d="M449.64 14.1055H464.68V62.3572H449.64V14.1055ZM432.97 14.1055H448.011V62.3572H432.97V14.1055Z" stroke="#917777" stroke-opacity="0.68"/>
<path d="M280.87 17.6873H294.079V59.592H284.172L280.87 55.1687V17.6873Z" fill="#917777" fill-opacity="0.68"/>
<path d="M281.37 18.1873H293.579V59.092H284.423L281.37 55.0027V18.1873Z" stroke="#917777" stroke-opacity="0.68"/>
<path d="M268.289 17.6873H279.926V54.8675L276.781 59.592H268.289V17.6873Z" fill="#917777" fill-opacity="0.68"/>
<path d="M268.789 18.1873H279.426V54.7163L276.513 59.092H268.789V18.1873Z" stroke="#917777" stroke-opacity="0.68"/>
<rect x="295.023" y="17.6873" width="13.21" height="41.9048" fill="#917777" fill-opacity="0.68"/>
<rect x="295.523" y="18.1873" width="12.21" height="40.9048" stroke="#917777" stroke-opacity="0.68"/>
<path d="M295.023 60.6802H322.701V102.303L321.779 102.628C312.171 106.01 303.146 110.861 295.023 117.007V117.007V82.6226L300.405 77.4385L295.023 72.3179V60.6802Z" fill="#917777" fill-opacity="0.68"/>
<path d="M295.523 116.008V82.8352L300.752 77.7986L301.128 77.4363L300.75 77.0762L295.523 72.1035V61.1802H322.201V101.949L321.613 102.156C312.272 105.445 303.478 110.114 295.523 116.008Z" stroke="#917777" stroke-opacity="0.68"/>
<path d="M18.5515 25.8503H53.469V44.6259H9.12122V34.7687L18.5515 25.8503Z" fill="#917777" fill-opacity="0.68"/>
<path d="M9.62122 34.984L18.7505 26.3503H52.969V44.1259H9.62122V34.984Z" stroke="#917777" stroke-opacity="0.68"/>
<rect x="9.12122" y="104.218" width="44.3478" height="18.7755" fill="#917777" fill-opacity="0.68"/>
<rect x="9.62122" y="104.718" width="43.3478" height="17.7755" stroke="#917777" stroke-opacity="0.68"/>
<rect x="9.12122" y="45.7144" width="44.3478" height="18.5034" fill="#917777" fill-opacity="0.68"/>
<rect x="9.62122" y="46.2144" width="43.3478" height="17.5034" stroke="#917777" stroke-opacity="0.68"/>
<rect x="56.6143" y="134.422" width="75.1711" height="7.61905" fill="#917777" fill-opacity="0.68"/>
<rect x="57.1143" y="134.922" width="74.1711" height="6.61905" stroke="#917777" stroke-opacity="0.68"/>
<path d="M91.5264 65.3062H131.785V134.422H91.5264V114.94L115.733 100.792V82.701L91.5264 65.3062Z" fill="#917777" fill-opacity="0.68"/>
<path d="M115.985 101.223L116.233 101.079V100.792V82.701V82.4446L116.025 82.295L93.079 65.8062H131.285V133.922H92.0264V115.226L115.985 101.223Z" stroke="#917777" stroke-opacity="0.68"/>
<path d="M91.5264 28.0271H122.342V41.8593L131.785 51.5094L131.785 64.7618H98.0659L94.8983 62.1099L91.5264 64.7618V28.0271Z" fill="#917777" fill-opacity="0.68"/>
<path d="M94.5892 61.7169L92.0264 63.7325V28.5271H121.842V41.8593V42.0632L121.985 42.209L131.285 51.7133L131.285 64.2618H98.2476L95.2193 61.7265L94.9082 61.466L94.5892 61.7169Z" stroke="#917777" stroke-opacity="0.68"/>
<rect x="77.0582" y="27.2109" width="13.21" height="37.551" fill="#917777" fill-opacity="0.68"/>
<rect x="77.5582" y="27.7109" width="12.21" height="36.551" stroke="#917777" stroke-opacity="0.68"/>
<g filter="url(#filter0_d_305_468)">
<path d="M251.304 124.944C251.304 124.649 251.435 124.369 251.661 124.179L280.31 100.089C280.49 99.9373 280.718 99.8542 280.953 99.8542H289.46C290.012 99.8542 290.46 99.4065 290.46 98.8542V91.4095C290.46 91.1592 290.554 90.9179 290.723 90.7335L292.881 88.381C293.304 87.9205 294.071 88.2225 294.067 88.8474L293.866 117.499C293.865 117.609 293.81 117.711 293.719 117.772V117.772C291.551 119.231 289.526 120.893 287.671 122.734L280.435 129.916C279.669 130.676 278.748 131.261 277.734 131.629L270.074 134.416C270.064 134.42 270.054 134.422 270.044 134.422H252.304C251.752 134.422 251.304 133.974 251.304 133.422V124.944Z" fill="#917777" fill-opacity="0.68" shape-rendering="crispEdges"/>
<path d="M251.804 133.422V124.944C251.804 124.797 251.869 124.657 251.982 124.562L280.632 100.472C280.722 100.396 280.836 100.354 280.953 100.354H289.46C290.288 100.354 290.96 99.6826 290.96 98.8542V91.4095C290.96 91.2843 291.007 91.1637 291.092 91.0715L293.25 88.719C293.363 88.5958 293.568 88.6766 293.567 88.8439L293.366 117.407C291.2 118.872 289.175 120.537 287.319 122.379L280.082 129.562C279.368 130.27 278.509 130.816 277.563 131.16L269.971 133.922H252.304C252.028 133.922 251.804 133.698 251.804 133.422Z" stroke="#917777" stroke-opacity="0.68" shape-rendering="crispEdges"/>
</g>
<path d="M8.49207 166.803H60.3885V201.088H8.49207V166.803Z" fill="#917777" fill-opacity="0.68"/>
<path d="M8.99207 167.303H59.8885V200.588H8.99207V167.303Z" stroke="#917777" stroke-opacity="0.68"/>
<path d="M72.0259 167.075H102.849V178.504H72.0259V167.075Z" fill="#917777" fill-opacity="0.68"/>
<path d="M72.5259 167.575H102.349V178.004H72.5259V167.575Z" stroke="#917777" stroke-opacity="0.68"/>
<path d="M222.054 166.531H238.094V203.265H222.054V166.531Z" fill="#917777" fill-opacity="0.68"/>
<path d="M222.554 167.031H237.594V202.765H222.554V167.031Z" stroke="#917777" stroke-opacity="0.68"/>
<path d="M238.723 166.531H254.764V203.265H238.723V166.531Z" fill="#917777" fill-opacity="0.68"/>
<path d="M239.223 167.031H254.264V202.765H239.223V167.031Z" stroke="#917777" stroke-opacity="0.68"/>
<path d="M255.393 166.531H270.805V203.265H255.393V166.531Z" fill="#917777" fill-opacity="0.68"/>
<path d="M255.893 167.031H270.305V202.765H255.893V167.031Z" stroke="#917777" stroke-opacity="0.68"/>
<path d="M271.748 166.531H287.474V203.265H271.748V166.531Z" fill="#917777" fill-opacity="0.68"/>
<path d="M272.248 167.031H286.974V202.765H272.248V167.031Z" stroke="#917777" stroke-opacity="0.68"/>
<path d="M289.047 166.803H304.773V203.537H289.047V166.803Z" fill="#917777" fill-opacity="0.68"/>
<path d="M289.547 167.303H304.273V203.037H289.547V167.303Z" stroke="#917777" stroke-opacity="0.68"/>
<path d="M305.717 166.803H321.443V203.537H305.717V166.803Z" fill="#917777" fill-opacity="0.68"/>
<path d="M306.217 167.303H320.943V203.037H306.217V167.303Z" stroke="#917777" stroke-opacity="0.68"/>
<path d="M305.402 203.81H322.072V248.435H305.402V203.81Z" fill="#917777" fill-opacity="0.68"/>
<path d="M305.902 204.31H321.572V247.935H305.902V204.31Z" stroke="#917777" stroke-opacity="0.68"/>
<path d="M246.143 268.799H319.37V293.105H246.143V268.799Z" fill="#73C7A4"/>
<path d="M246.143 268.799H319.37V293.105H246.143V268.799Z" fill="#73C7A4"/>
<path d="M246.143 268.799H319.37V293.105H246.143V268.799Z" fill="#73C7A4"/>
<path d="M246.143 268.799H319.37V293.105H246.143V268.799Z" fill="#73C7A4"/>
<path d="M246.143 268.799H319.37V293.105H246.143V268.799Z" stroke="#222B41"/>
<path d="M345.532 268.799H418.76V293.105H345.532V268.799Z" fill="#73C7A4"/>
<path d="M345.532 268.799H418.76V293.105H345.532V268.799Z" fill="#73C7A4"/>
<path d="M345.532 268.799H418.76V293.105H345.532V268.799Z" fill="#73C7A4"/>
<path d="M345.532 268.799H418.76V293.105H345.532V268.799Z" fill="#73C7A4"/>
<path d="M345.532 268.799H418.76V293.105H345.532V268.799Z" stroke="#222B41"/>
<path d="M288.104 203.81H304.773V248.435H288.104V203.81Z" fill="#917777" fill-opacity="0.68"/>
<path d="M288.604 204.31H304.273V247.935H288.604V204.31Z" stroke="#917777" stroke-opacity="0.68"/>
<path d="M270.805 203.81H287.474V248.435H270.805V203.81Z" fill="#917777" fill-opacity="0.68"/>
<path d="M271.305 204.31H286.974V247.935H271.305V204.31Z" stroke="#917777" stroke-opacity="0.68"/>
<path d="M255.393 203.81H270.176V248.435H255.393V203.81Z" fill="#917777" fill-opacity="0.68"/>
<path d="M255.893 204.31H269.676V247.935H255.893V204.31Z" stroke="#917777" stroke-opacity="0.68"/>
<path d="M238.723 203.81H254.764V248.435H238.723V203.81Z" fill="#917777" fill-opacity="0.68"/>
<path d="M239.223 204.31H254.264V247.935H239.223V204.31Z" stroke="#917777" stroke-opacity="0.68"/>
<path d="M221.547 203.946H237.587V248.571L236.914 248.334C231.234 246.336 226.01 243.225 221.547 239.184V239.184V203.946Z" fill="#917777" fill-opacity="0.68"/>
<path d="M237.08 247.863C231.533 245.91 226.425 242.886 222.047 238.961V204.446H237.087V247.865L237.08 247.863Z" stroke="#917777" stroke-opacity="0.68"/>
<path d="M167.641 166.259H187.456V214.694L177.548 213.333H167.641V166.259Z" fill="#917777" fill-opacity="0.68"/>
<path d="M177.548 212.833H168.141V166.759H186.956V214.121L177.617 212.838L177.583 212.833H177.548Z" stroke="#917777" stroke-opacity="0.68"/>
<path d="M187.771 166.395H203.811V220.952V220.952C199.122 218.068 194.01 215.937 188.66 214.638L187.771 214.422V166.395Z" fill="#917777" fill-opacity="0.68"/>
<path d="M203.311 220.066C198.788 217.387 193.89 215.393 188.778 214.152L188.271 214.029V166.895H203.311V220.066Z" stroke="#917777" stroke-opacity="0.68"/>
<path d="M204.44 166.531H221.11V238.775L218.447 235.638C214.148 230.571 209.465 225.844 204.44 221.496V221.496V166.531Z" fill="#917777" fill-opacity="0.68"/>
<path d="M218.828 235.314C214.562 230.287 209.919 225.591 204.94 221.268V167.031H220.61V237.413L218.828 235.314Z" stroke="#917777" stroke-opacity="0.68"/>
<path d="M117.946 237.823H122.664L119.307 252.165L117.946 263.945V237.823Z" fill="#917777" fill-opacity="0.68"/>
<path d="M118.811 252.107L118.446 255.26V238.323H122.034L118.82 252.051L118.814 252.079L118.811 252.107Z" stroke="#917777" stroke-opacity="0.68"/>
<path d="M117.946 202.177H134.302V221.647V221.647C130.016 226.43 126.271 231.674 123.136 237.279V237.279H117.946V202.177Z" fill="#917777" fill-opacity="0.68"/>
<path d="M133.802 202.677V221.456C129.61 226.155 125.935 231.294 122.843 236.779H118.446V202.677H133.802Z" stroke="#917777" stroke-opacity="0.68"/>
<path d="M103.478 167.075H134.302V201.089H118.418L118.418 178.776H103.478V167.075Z" fill="#917777" fill-opacity="0.68"/>
<path d="M118.418 178.276H103.978V167.575H133.802V200.589H118.918L118.918 178.776V178.276H118.418Z" stroke="#917777" stroke-opacity="0.68"/>
<path d="M8.80664 201.905H60.703V220.68H8.80664V201.905Z" fill="#917777" fill-opacity="0.68"/>
<path d="M9.30664 202.405H60.203V220.18H9.30664V202.405Z" stroke="#917777" stroke-opacity="0.68"/>
<path d="M8.80664 221.224H60.703V240H8.80664V221.224Z" fill="#917777" fill-opacity="0.68"/>
<path d="M9.30664 221.724H60.203V239.5H9.30664V221.724Z" stroke="#917777" stroke-opacity="0.68"/>
<path d="M8.80664 240.816H60.703V262.857H8.80664V240.816Z" fill="#917777" fill-opacity="0.68"/>
<path d="M9.30664 241.316H60.203V262.357H9.30664V241.316Z" stroke="#917777" stroke-opacity="0.68"/>
<path d="M8.80664 263.946H117.946V297.959H8.80664V263.946Z" fill="#917777" fill-opacity="0.68"/>
<path d="M9.30664 264.446H117.446V297.459H9.30664V264.446Z" stroke="#917777" stroke-opacity="0.68"/>
<path d="M95.9297 330.068L109.454 337.551L93.4135 362.177L84.2924 355.238L95.9297 330.068Z" fill="#917777" fill-opacity="0.68"/>
<path d="M84.9148 355.083L96.158 330.766L108.742 337.728L93.2882 361.453L84.9148 355.083Z" stroke="#917777" stroke-opacity="0.68"/>
<path d="M39.9447 351.973L63.6912 365.17L79.7319 380.136L69.1953 396.538L31.9248 369.796L39.9447 351.973Z" fill="#917777" fill-opacity="0.68"/>
<path d="M39.9447 351.973L63.6912 365.17L79.7319 380.136L69.1953 396.538L31.9248 369.796L39.9447 351.973Z" fill="#917777" fill-opacity="0.68"/>
<path d="M39.9447 351.973L63.6912 365.17L79.7319 380.136L69.1953 396.538L31.9248 369.796L39.9447 351.973Z" stroke="#917777" stroke-opacity="0.68"/>
<path d="M39.9447 351.973L63.6912 365.17L79.7319 380.136L69.1953 396.538L31.9248 369.796L39.9447 351.973Z" fill="#B4A2A2"/>
<path d="M39.9447 351.973L63.6912 365.17L79.7319 380.136L69.1953 396.538L31.9248 369.796L39.9447 351.973Z" fill="#B4A2A2"/>
<path d="M39.9447 351.973L63.6912 365.17L79.7319 380.136L69.1953 396.538L31.9248 369.796L39.9447 351.973Z" stroke="#917777" stroke-opacity="0.68"/>
<path d="M8.80664 298.503H117.946V329.991L115.466 337.352L76.6055 316.497H59.077L31.296 370.612L8.80664 359.707V298.503Z" fill="#917777" fill-opacity="0.68"/>
<path d="M76.842 316.056L76.7312 315.997H76.6055H59.077H58.7717L58.6322 316.268L31.0744 369.949L9.30664 359.394V299.003H117.446V329.909L115.181 336.632L76.842 316.056Z" stroke="#917777" stroke-opacity="0.68"/>
<path d="M499.865 387.1L480.433 387.199L479.963 317.924L484.286 324.03C488.792 330.395 494.026 336.212 499.882 341.362V341.362L499.865 387.1Z" fill="#B4A2A2"/>
<path d="M499.865 387.1L480.433 387.199L479.963 317.924L487.318 328.313C489.81 331.833 492.776 335.112 496.16 338.089L499.882 341.362L499.865 387.1Z" fill="#B4A2A2"/>
<path d="M499.865 387.1L480.433 387.199L479.963 317.924L487.318 328.313C489.81 331.833 492.776 335.112 496.16 338.089L499.882 341.362L499.865 387.1Z" fill="#B4A2A2"/>
<path d="M480.929 386.696L480.474 319.51L483.878 324.318C483.881 324.322 483.884 324.327 483.887 324.331L486.91 328.601C489.426 332.155 492.418 335.463 495.831 338.464L499.382 341.588L499.365 386.603L480.929 386.696Z" stroke="#917777" stroke-opacity="0.68"/>
<path d="M452.914 310.476H470.213V383.401L452.914 365.85V310.476Z" fill="#917777" fill-opacity="0.68"/>
<path d="M453.414 310.976H469.713V382.182L453.414 365.645V310.976Z" stroke="#917777" stroke-opacity="0.68"/>
<path d="M435.615 310.476H451.656V365.987L448.511 368.027L444.736 364.626L449.297 360.272L439.389 349.116H435.301L435.615 310.476Z" fill="#917777" fill-opacity="0.68"/>
<path d="M448.56 367.399L445.471 364.615L449.642 360.634L449.991 360.301L449.671 359.94L439.763 348.784L439.614 348.616H439.389H435.805L436.111 310.976H451.156V365.715L448.56 367.399Z" stroke="#917777" stroke-opacity="0.68"/>
<path d="M418.945 310.476H434.357V348.572H418.945V310.476Z" fill="#917777" fill-opacity="0.68"/>
<path d="M419.445 310.976H433.857V348.072H419.445V310.976Z" stroke="#917777" stroke-opacity="0.68"/>
<path d="M383.404 310.476H399.445V351.565H383.404V310.476Z" fill="#917777" fill-opacity="0.68"/>
<path d="M383.904 310.976H398.945V351.065H383.904V310.976Z" stroke="#917777" stroke-opacity="0.68"/>
<path d="M366.734 310.476H382.775V351.565H366.734V310.476Z" fill="#917777" fill-opacity="0.68"/>
<path d="M367.234 310.976H382.275V351.065H367.234V310.976Z" stroke="#917777" stroke-opacity="0.68"/>
<path d="M349.436 310.476H365.476V351.565H349.436V310.476Z" fill="#917777" fill-opacity="0.68"/>
<path d="M349.936 310.976H364.976V351.065H349.936V310.976Z" stroke="#917777" stroke-opacity="0.68"/>
<path d="M313.483 310.748H328.265V368.98H313.483V310.748Z" fill="#917777" fill-opacity="0.68"/>
<path d="M313.983 311.248H327.765V368.48H313.983V311.248Z" stroke="#917777" stroke-opacity="0.68"/>
<path d="M293.353 310.476H310.337V368.708H293.353V310.476Z" fill="#917777" fill-opacity="0.68"/>
<path d="M293.853 310.976H309.837V368.208H293.853V310.976Z" stroke="#917777" stroke-opacity="0.68"/>
<path d="M276.054 310.748H292.095V349.66H276.054V310.748Z" fill="#917777" fill-opacity="0.68"/>
<path d="M276.554 311.248H291.595V349.16H276.554V311.248Z" stroke="#917777" stroke-opacity="0.68"/>
<path d="M259.385 310.476H274.482V349.388H259.385V310.476Z" fill="#917777" fill-opacity="0.68"/>
<path d="M259.885 310.976H273.982V348.888H259.885V310.976Z" stroke="#917777" stroke-opacity="0.68"/>
<path d="M208.432 391.021H228.561V441.089H208.432V391.021Z" fill="#917777" fill-opacity="0.68"/>
<path d="M208.932 391.521H228.061V440.589H208.932V391.521Z" stroke="#917777" stroke-opacity="0.68"/>
<path d="M190.818 391.021H207.488V441.089H190.818V391.021Z" fill="#917777" fill-opacity="0.68"/>
<path d="M191.318 391.521H206.988V440.589H191.318V391.521Z" stroke="#917777" stroke-opacity="0.68"/>
<path d="M157.951 350.204L173.834 349.388V391.02H157.164L141.753 362.993L142.192 362.506C146.687 357.518 152.02 353.354 157.951 350.204V350.204Z" fill="#917777" fill-opacity="0.68"/>
<path d="M158.087 350.698L173.334 349.914V390.52H157.46L142.362 363.064L142.563 362.841C146.995 357.923 152.248 353.814 158.087 350.698Z" stroke="#917777" stroke-opacity="0.68"/>
<path d="M174.149 391.021H190.189V441.089H174.149V391.021Z" fill="#917777" fill-opacity="0.68"/>
<path d="M174.649 391.521H189.689V440.589H174.649V391.521Z" stroke="#917777" stroke-opacity="0.68"/>
<path d="M118.478 413.378L126.656 407.483L131.924 414.966L139.866 409.796L145.527 418.367L131.924 428.447L118.478 413.378Z" fill="#917777" fill-opacity="0.68"/>
<path d="M144.846 418.252L131.991 427.777L119.215 413.46L126.534 408.184L131.473 415.199L131.787 415.645L132.252 415.342L139.715 410.484L144.846 418.252Z" stroke="#917777" stroke-opacity="0.68"/>
<path d="M106.526 397.576L114.121 391.752L126.341 407.211L118.006 412.517L106.526 397.576Z" fill="#917777" fill-opacity="0.68"/>
<path d="M118.135 411.856L107.228 397.662L114.027 392.447L125.609 407.097L118.135 411.856Z" stroke="#917777" stroke-opacity="0.68"/>
<path d="M92.4991 411.362L106.338 398.522L135.903 436.209L119.264 447.755L92.4991 411.362Z" fill="#917777" fill-opacity="0.68"/>
<path d="M119.366 447.066L93.1681 411.444L106.298 399.262L135.187 436.087L119.366 447.066Z" stroke="#917777" stroke-opacity="0.68"/>
<path d="M163.612 420.68L163.612 441.632L126.97 462.721L118.876 447.712L163.612 420.68Z" fill="#917777" fill-opacity="0.68"/>
<path d="M119.547 447.885L163.081 421.579L163.081 441.368L127.176 462.033L119.547 447.885Z" stroke="#917777" stroke-opacity="0.68"/>
<path d="M140.809 363.946L148.822 378.937L126.608 392.81L120.522 383.81L140.809 363.946Z" fill="#B4A2A2"/>
<path d="M140.809 363.946L148.822 378.937L126.608 392.81L120.522 383.81L140.809 363.946Z" fill="#B4A2A2"/>
<path d="M140.809 363.946L148.822 378.937L126.608 392.81L120.522 383.81L140.809 363.946Z" stroke="#917777" stroke-opacity="0.68"/>
<path d="M157.479 391.564H173.52V441.632H164.399V401.632L157.479 391.564Z" fill="#917777" fill-opacity="0.68"/>
<path d="M158.429 392.064H173.02V441.132H164.899V401.632V401.477L164.811 401.349L158.429 392.064Z" stroke="#917777" stroke-opacity="0.68"/>
<path d="M245.545 310.476H258.441V349.66H245.545V310.476Z" fill="#917777" fill-opacity="0.68"/>
<path d="M246.045 310.976H257.941V349.16H246.045V310.976Z" stroke="#917777" stroke-opacity="0.68"/>
<path d="M208.432 339.048V339.048C215.796 334.561 222.152 328.6 227.102 321.538L228.561 319.456V390.204H208.432V339.048Z" fill="#917777" fill-opacity="0.68"/>
<path d="M227.511 321.825L228.061 321.04V389.704H208.932V339.328C216.253 334.822 222.576 328.866 227.511 321.825Z" stroke="#917777" stroke-opacity="0.68"/>
<path d="M190.818 346.531V346.531C195.79 345.455 200.465 343.302 204.514 340.222L207.488 337.959V390.204H190.818V346.531Z" fill="#917777" fill-opacity="0.68"/>
<path d="M204.816 340.62L206.988 338.968V389.704H191.318V346.932C196.215 345.814 200.817 343.662 204.816 340.62Z" stroke="#917777" stroke-opacity="0.68"/>
<path d="M174.463 349.588V349.588C178.727 349.588 182.957 348.824 186.951 347.332L190.189 346.123V390.204H174.463V349.588Z" fill="#917777" fill-opacity="0.68"/>
<path d="M187.126 347.8L189.689 346.843V389.704H174.963V350.085C179.117 350.027 183.232 349.255 187.126 347.8Z" stroke="#917777" stroke-opacity="0.68"/>
<path d="M229.505 318.912V318.912C233.167 314.599 238.201 311.676 243.763 310.634L244.602 310.476V349.66H229.505V318.912Z" fill="#917777" fill-opacity="0.68"/>
<path d="M243.855 311.125L244.102 311.079V349.16H230.005V319.096C233.583 314.947 238.466 312.135 243.855 311.125Z" stroke="#917777" stroke-opacity="0.68"/>
<path d="M350.694 382.082H366.734V419.905V419.905C362.206 417.207 357.032 415.782 351.76 415.782H350.694V382.082Z" fill="#917777" fill-opacity="0.68"/>
<path d="M366.234 419.04C361.813 416.578 356.831 415.282 351.76 415.282H351.194V382.582H366.234V419.04Z" stroke="#917777" stroke-opacity="0.68"/>
<path d="M400.703 310.476H416.744V348.844H411.868L408.251 351.565H400.703V310.476Z" fill="#917777" fill-opacity="0.68"/>
<path d="M408.084 351.065H401.203V310.976H416.244V348.344H411.868H411.701L411.568 348.444L408.084 351.065Z" stroke="#917777" stroke-opacity="0.68"/>
<defs>
<filter id="filter0_d_305_468" x="247.304" y="88.1584" width="50.7628" height="54.2632" filterUnits="userSpaceOnUse" color-interpolation-filters="sRGB">
<feFlood flood-opacity="0" result="BackgroundImageFix"/>
<feColorMatrix in="SourceAlpha" type="matrix" values="0 0 0 0 0 0 0 0 0 0 0 0 0 0 0 0 0 0 127 0" result="hardAlpha"/>
<feOffset dy="4"/>
<feGaussianBlur stdDeviation="2"/>
<feComposite in2="hardAlpha" operator="out"/>
<feColorMatrix type="matrix" values="0 0 0 0 0 0 0 0 0 0 0 0 0 0 0 0 0 0 0.25 0"/>
<feBlend mode="normal" in2="BackgroundImageFix" result="effect1_dropShadow_305_468"/>
<feBlend mode="normal" in="SourceGraphic" in2="effect1_dropShadow_305_468" result="shape"/>
</filter>
</defs>
</svg>
