<svg width="4534" height="3593" viewBox="0 0 4534 3593" fill="none" xmlns="http://www.w3.org/2000/svg">
<rect width="4534" height="3593" fill="white"/>
<rect x="61.3168" y="927.266" width="294.696" height="139.543" fill="#ECAAFF" stroke="#ECAAFF"/>
<rect x="61.3168" y="635.996" width="294.696" height="137.506" fill="#ECAAFF" stroke="#ECAAFF"/>
<rect x="61.3168" y="489.344" width="294.696" height="137.506" fill="#ECAAFF" stroke="#ECAAFF"/>
<rect x="1097.3" y="145.116" width="105.954" height="514.323" fill="#ECAAFF" stroke="#ECAAFF"/>
<rect x="1097.3" y="684.881" width="105.954" height="324.896" fill="#ECAAFF" stroke="#ECAAFF"/>
<rect x="1218.93" y="684.881" width="108.051" height="324.896" fill="#ECAAFF" stroke="#ECAAFF"/>
<rect x="-0.503868" y="0.49589" width="73.8506" height="195.493" transform="matrix(-0.00777044 0.99997 -0.999966 -0.00819029 1662.81 934.065)" fill="#ECAAFF" stroke="#ECAAFF"/>
<path   d="M1421.55 930.573H1459.1V1005.7H1344.76V684.881H1421.05V930.073V930.573H1421.55Z" fill="#ECAAFF" stroke="#ECAAFF"/>
<rect x="1218.93" y="145.116" width="108.051" height="514.323" fill="#ECAAFF" stroke="#ECAAFF"/>
<rect x="1340.57" y="145.116" width="108.051" height="514.323" fill="#ECAAFF" stroke="#ECAAFF"/>
<rect x="1462.2" y="145.116" width="108.051" height="514.323" fill="#ECAAFF" stroke="#ECAAFF"/>
<rect x="2064.08" y="132.896" width="87.0796" height="312.675" fill="#ECAAFF" stroke="#ECAAFF"/>
<rect x="2301.05" y="98.2686" width="120.634" height="339.154" fill="#ECAAFF" stroke="#ECAAFF"/>
<path  d="M2301.05 442.496H2361.37H2421.69V797.62L2387.53 779.803C2373.18 772.319 2357.24 768.41 2341.05 768.41L2301.05 768.41V442.496Z" fill="#ECAAFF" stroke="#ECAAFF"/>
<path d="M2682.27 854.219H2699.83L2770.86 936.372V1036.26H2756C2741.18 1036.26 2726.43 1034.3 2712.13 1030.44C2704.26 1028.32 2696.74 1025.06 2689.81 1020.77L2667.87 1007.2L2644.84 984.106L2644.83 984.099L2594.65 935.973V554.522H2708.45H2822.24V613.649L2708.23 736.543H2682.27H2681.77V737.043V853.719V854.219H2682.27Z" fill="#ECAAFF" stroke="#ECAAFF"/>
<path  d="M2424.78 548.412H2507.12H2589.46V935.688L2513.21 854.519C2505.32 846.123 2496.05 839.145 2485.8 833.891L2424.78 802.62V675.419V548.412Z" fill="#ECAAFF" stroke="#ECAAFF"/>
<rect x="2428.98" y="98.2686" width="129.022" height="447.107" fill="#ECAAFF" stroke="#ECAAFF"/>
<rect x="2563.2" y="98.2686" width="103.857" height="447.107" fill="#ECAAFF" stroke="#ECAAFF"/>
<rect x="2678.54" y="98.2686" width="137.411" height="449.143" fill="#ECAAFF" stroke="#ECAAFF"/>
<rect x="2777.1" y="941.523" width="208.713" height="96.7687" fill="#ECAAFF" stroke="#ECAAFF"/>
<rect x="2751.94" y="1230.76" width="120.634" height="186.39" fill="#ECAAFF" stroke="#ECAAFF"/>
<rect x="2783.39" y="1652.38" width="162.576" height="161.948" fill="#ECAAFF" stroke="#ECAAFF"/>
<rect x="2579.97" y="1652.38" width="126.925" height="161.948" fill="#ECAAFF" stroke="#ECAAFF"/>
<rect x="2582.07" y="1230.76" width="126.925" height="265.827" fill="#ECAAFF" stroke="#ECAAFF"/>
<path d="M2452.05 1507.77H2572.68V1812.29H2452.05V1507.77Z" fill="#ECAAFF" stroke="#ECAAFF"/>
<path d="M2303.15 1507.77H2440.56V1814.33H2303.15V1507.77Z" fill="#ECAAFF" stroke="#ECAAFF"/>
<path d="M2301.05 1230.76H2440.56V1496.58H2301.05V1230.76Z" fill="#ECAAFF" stroke="#ECAAFF"/>
<path d="M2454.14 1228.72H2574.78V1496.58H2454.14V1228.72Z" fill="#ECAAFF" stroke="#ECAAFF"/>
<path d="M2955.36 1497.58H3059.22V1812.29H2955.36V1497.58Z" fill="#ECAAFF" stroke="#ECAAFF"/>
<path d="M3072.8 1497.58H3176.66V1812.29H3072.8V1497.58Z" fill="#ECAAFF" stroke="#ECAAFF"/>
<rect x="3104.26" y="731.729" width="105.954" height="306.564" fill="#ECAAFF" stroke="#ECAAFF"/>
<rect id="A1101" x="3217.5" y="627.85" width="103.857" height="408.406" fill="#ECAAFF" stroke="#ECAAFF"/>
<rect x="3328.65" y="629.886" width="129.022" height="408.406" fill="#ECAAFF" stroke="#ECAAFF"/>
<path  d="M3318.18 1600.03L3324.67 1232.79H3438.8V1541.37L3411 1550.84C3387.81 1558.73 3365.68 1569.43 3345.09 1582.7L3318.18 1600.03Z" fill="#ECAAFF" stroke="#ECAAFF"/>
<path d="M3184.46 1782.05L3191.28 1234.83H3311.36V1603.8L3278 1635.07C3251.27 1660.13 3229.34 1689.86 3213.31 1722.79L3184.46 1782.05Z" fill="#ECAAFF" stroke="#ECAAFF"/>
<path  d="M3328.65 104.379H3457.67V610.554H3328.65V104.379Z" fill="#ECAAFF" stroke="#ECAAFF"/>
<path  d="M3639.02 332.506H3837.25V647.217H3639.02V332.506Z" fill="#ECAAFF" stroke="#ECAAFF"/>
<path  d="M3639.02 731.729H3807.89V889.603H3639.02V731.729Z" fill="#ECAAFF" stroke="#ECAAFF"/>
<path d="M4295.43 731.729H4464.29V1058.66H4295.43V731.729Z" fill="#ECAAFF" stroke="#ECAAFF"/>
<path d="M1625.28 3143.36H1664.62L1664.62 3319.56H1539.79V3060.53L1624.93 3143.22L1625.07 3143.36H1625.28Z" fill="#ECAAFF" stroke="#ECAAFF"/>
<path  d="M1724.58 3146.78L1790.45 3073.88V3319.56H1671.91V3146.94H1724.21H1724.43L1724.58 3146.78Z" fill="#ECAAFF" stroke="#ECAAFF"/>
<path  d="M1795.65 3319.55V3066.65L1836.42 3016.9L1836.43 3016.89L1889.75 2953.93H1904.75L1911.03 3316.52L1795.65 3319.55Z" fill="#ECAAFF" stroke="#ECAAFF"/>
<path d="M4035.38 2190.11H4250.39V2557.78H4035.38V2190.11Z" fill="#ECAAFF" stroke="#ECAAFF"/>
<path d="M2149.06 2856.16V3075.21C2148.61 3075.29 2148.17 3075.36 2147.72 3075.44C2110.8 3081.67 2076.74 3098.82 2050.22 3124.58L2049.65 3125.13L2041.01 3133.53V2856.16H2149.06Z" fill="#ECAAFF" stroke="#ECAAFF"/>
<path  d="M1886.7 2948.86L1813.07 2858.2H2036.96V3137.38C2029.13 3139.48 2021.48 3145.31 2014.05 3153.53C2006.49 3161.88 1999.11 3172.76 1991.96 3184.82C1982.31 3201.12 1973.03 3219.66 1964.27 3237.17C1960.06 3245.58 1955.97 3253.75 1952.01 3261.33C1951.55 3262.21 1951.09 3263.07 1950.62 3263.94L1916.29 3308.45L1907.94 2949.34L1907.92 2948.86H1907.44H1886.7ZM2014.79 3154.2C2021.88 3146.36 2029.07 3140.82 2036.33 3138.6L1981.38 3224.04L1954.2 3259.29C1957.77 3252.4 1961.43 3245.08 1965.19 3237.57C1973.94 3220.08 1983.18 3201.6 1992.82 3185.33C1999.96 3173.29 2007.3 3162.48 2014.79 3154.2ZM1922.26 3302.35L1946.76 3270.58C1939.76 3281.97 1931.37 3292.47 1922.26 3302.35Z" fill="#ECAAFF" stroke="#ECAAFF"/>
<path  d="M2463.52 3162.98L2463.49 3162.93L2463.45 3162.89L2447.86 3145.72L2452.04 2860.23H2558V3298.37L2504.39 3237.28L2463.52 3162.98Z" fill="#ECAAFF" stroke="#ECAAFF"/>
<path d="M2711.19 3013.22L2711.09 3013.36V3013.52V3299.19H2565.29V2860.23H2732.29L2773.9 2925.91L2711.19 3013.22Z" fill="#ECAAFF" stroke="#ECAAFF"/>
<path d="M2768.72 3301.23L2775 2994.35L2804.92 2958.28L2893.54 3062.59V3301.23H2768.72Z" fill="#ECAAFF" stroke="#ECAAFF"/>
<path  d="M4155.73 2891.82L4089.3 2793.02H4290.23V2891.82H4155.73Z" fill="#ECAAFF" stroke="#ECAAFF"/>
<path  d="M3689.48 2870.67L3689.25 2871.03L3689.58 2871.32L3713.71 2891.82H3553.04V2640.17L3641.64 2624.01L3747.08 2760.1V2781.17L3689.48 2870.67Z" fill="#ECAAFF" stroke="#ECAAFF"/>
<path  d="M3445.09 2617.68V2887.75H3345.43V2555.27L3361.14 2568.3C3383.59 2586.93 3408.63 2602.19 3435.48 2613.6L3445.09 2617.68Z" fill="#ECAAFF" stroke="#ECAAFF"/>
<path d="M3448.19 2887.75V2616.1C3479.13 2630.66 3512.9 2638.22 3547.11 2638.22H3547.85V2887.75H3448.19Z" fill="#ECAAFF" stroke="#ECAAFF"/>
<path d="M3916.97 2361.9L3953.5 2190.11H4025.99V2686.1H3997.39L3854.07 2481.87L3905.99 2390.75C3911.11 2381.76 3914.82 2372.03 3916.97 2361.9Z" fill="#ECAAFF" stroke="#ECAAFF"/>
<path d="M4033.29 2566.93H4254.58V2682.03H4033.29V2566.93Z" fill="#ECAAFF" stroke="#ECAAFF"/>
<path d="M3209.11 2898.93H3338.13V3293.08H3209.11V2898.93Z" fill="#ECAAFF" stroke="#ECAAFF"/>
<path id="2201" d="M3073.71 3124.87L3117.94 3078.92V3299.19H2900.83V3071.8L2951.35 3124.87L2951.5 3125.03H2951.71H3009.38H3073.35H3073.56L3073.71 3124.87Z" fill="#ECAAFF" stroke="#ECAAFF"/>
<path d="M3345.43 2898.93H3445.09V3293.08H3345.43V2898.93Z" fill="#ECAAFF" stroke="#ECAAFF"/>
<path d="M3454.48 2900.97H3541.56V3295.12H3454.48V2900.97Z" fill="#ECAAFF" stroke="#ECAAFF"/>
<path d="M3554.09 2900.97H3641.17V3295.12H3554.09V2900.97Z" fill="#ECAAFF" stroke="#ECAAFF"/>
<path d="M3754.37 3033.37H3849.83V3163.23V3293.08H3754.37V3033.37Z" fill="#ECAAFF" stroke="#ECAAFF"/>
<path d="M3649.51 2894.86H3708.56L3749.18 2937.34L3751.27 3097.03V3299.19H3649.51V2894.86Z" fill="#ECAAFF" stroke="#ECAAFF"/>
<path d="M3922.17 3014.74L3922 3015.04L3922.23 3015.3L3952.51 3050.37L3952.51 3296.58H3857.04V3036.96L3868.64 2915.96L3887.26 2894.86H3912.97L3952.43 2959.55L3922.17 3014.74Z" fill="#ECAAFF" stroke="#ECAAFF"/>
<path d="M4021.25 3129.1H4055.35V3299.19H3957.79V3052.59L4020.87 3128.92L4021.02 3129.1H4021.25Z" fill="#ECAAFF" stroke="#ECAAFF"/>
<path d="M4160.61 2894.86H4283.94V3299.19H4062.65V3128.08H4167H4167.25L4167.4 3127.88L4220.88 3057.61L4220.98 3057.48V3057.31V2973.8V2973.62L4220.87 2973.48L4178.94 2921.56L4160.61 2894.86Z" fill="#ECAAFF" stroke="#ECAAFF"/>
<path d="M3782.26 2716.42L3707.23 2612.98L3780.46 2563.11C3781.83 2562.18 3783.07 2561.09 3784.17 2559.86L3850.29 2485.76L3956.34 2636.23L3828.3 2639.26L3827.81 2639.27L3827.81 2639.75L3827.81 2677.21L3782.26 2716.42Z" fill="#ECAAFF" stroke="#ECAAFF"/>
<path d="M3846.59 1502.39L3846.64 1502.29V1502.18V1320.38H4256.68V2036.35H3952.43L3909.93 1869.55C3904.11 1846.69 3894.3 1825.04 3880.95 1805.59L3775.41 1651.84L3846.59 1502.39Z" fill="#ECAAFF" stroke="#ECAAFF"/>
<path d="M3639.02 896.713H3807.89V1054.59H3639.02V896.713Z" fill="#ECAAFF" stroke="#ECAAFF"/>
<path d="M3637.98 1061.7H3836.2V1500.03L3771.49 1640.93L3717.29 1600.96C3715.98 1599.99 3714.56 1599.19 3713.06 1598.56L3637.98 1567.02V1061.7Z" fill="#ECAAFF" stroke="#ECAAFF"/>
<path d="M3639.02 79.9375H4053.26V319.286H3639.02V79.9375Z" fill="#ECAAFF" stroke="#ECAAFF"/>
<path d="M4058.45 79.9375H4164.4V382.061L4058.45 320.743V79.9375Z" fill="#ECAAFF" stroke="#ECAAFF"/>
<path d="M4167.5 79.9375H4269.26V441.125L4167.5 381.623V79.9375Z" fill="#ECAAFF" stroke="#ECAAFF"/>
<path d="M4274.46 77.9004H4365.73V439.459H4274.46V77.9004Z" fill="#ECAAFF" stroke="#ECAAFF"/>
<path d="M4373.02 77.9004H4476.88V439.459H4373.02V77.9004Z" fill="#ECAAFF" stroke="#ECAAFF"/>
<path d="M3217.5 100.306H3323.45V612.591H3217.5V100.306Z" fill="#ECAAFF" stroke="#ECAAFF"/>
<path d="M3106.35 102.343H3212.31V470.012H3106.35V102.343Z" fill="#ECAAFF" stroke="#ECAAFF"/>
<path d="M3068.8 734.111H3096.38V1040.68H2990.43V943.907H3020.34H3020.84V943.407V875.172V875.027L3020.76 874.904L2990.55 827.347L3068.8 734.111Z" fill="#ECAAFF" stroke="#ECAAFF"/>
<path d="M2995.2 102.343H3101.16V470.012H2995.2V102.343ZM2884.06 102.343H2990.01V470.012H2884.06V102.343Z" fill="#ECAAFF" stroke="#ECAAFF"/>
<path d="M1873.24 132.896H1960.32V445.57H1895.03L1873.24 412.809V132.896Z" fill="#ECAAFF" stroke="#ECAAFF"/>
<path d="M1789.35 132.896H1865.95V410.568L1845.19 445.57H1789.35V132.896Z" fill="#ECAAFF" stroke="#ECAAFF"/>
<rect  x="1967.61" y="132.896" width="87.0796" height="312.675" fill="#ECAAFF" stroke="#ECAAFF"/>
<path  d="M2003.36 579.999L2003.68 579.658L2003.36 579.318L1967.61 541.132V454.717H2151.16V765.441L2079.41 793.797C2058.99 801.868 2040.04 813.237 2023.31 827.451L1967.61 874.764V618.661L2003.36 579.999Z" fill="#ECAAFF" stroke="#ECAAFF"/>
<path d="M61.3168 260.457L123.911 194.001H356.012V333.543H61.3168V260.457Z" fill="#ECAAFF" stroke="#ECAAFF"/>
<rect x="61.3168" y="780.613" width="294.696" height="139.543" fill="#ECAAFF" stroke="#ECAAFF"/>
<rect x="61.3168" y="342.69" width="294.696" height="137.506" fill="#ECAAFF" stroke="#ECAAFF"/>
<rect x="377.984" y="1006.7" width="500.215" height="56.0317" fill="#ECAAFF" stroke="#ECAAFF"/>
<path d="M771.939 754.886L772.165 754.738V754.468V619.052V618.813L771.979 618.663L611.682 489.344H878.198V1005.7H610.766V860.64L771.939 754.886Z" fill="#ECAAFF" stroke="#ECAAFF"/>
<path d="M632.418 464.544L610.766 483.661V210.295H815.233V313.335V313.522L815.356 313.663L878.198 385.757L878.198 484.269H654.067L633.091 464.554L632.759 464.242L632.418 464.544Z" fill="#ECAAFF" stroke="#ECAAFF"/>
<rect x="514.297" y="204.185" width="87.0796" height="280.085" fill="#ECAAFF" stroke="#ECAAFF"/>
<g filter="url(#filter0_d_259_303)">
<path d="M1675.61 932.207C1675.61 931.932 1675.72 931.669 1675.92 931.48L1870.58 747.724C1870.76 747.548 1871.01 747.451 1871.27 747.451H1935.69C1936.24 747.451 1936.69 747.003 1936.69 746.451V681.682C1936.69 681.451 1936.77 681.228 1936.91 681.049L1959.03 653.984C1959.62 653.254 1960.81 653.68 1960.8 654.623L1959.39 879.719C1959.39 880.425 1959.06 881.089 1958.49 881.515C1943.99 892.478 1930.57 904.81 1918.43 918.34L1870.04 972.26C1864.81 978.085 1858.33 982.649 1851.08 985.609L1800.77 1006.16C1800.7 1006.19 1800.62 1006.2 1800.55 1006.2H1676.61C1676.06 1006.2 1675.61 1005.75 1675.61 1005.2V932.207Z" fill="#ECAAFF"/>
<path d="M1676.11 932.207C1676.11 932.07 1676.17 931.938 1676.27 931.844L1870.92 748.087C1871.01 748 1871.14 747.951 1871.27 747.951H1935.69C1936.51 747.951 1937.19 747.279 1937.19 746.451V681.682C1937.19 681.567 1937.23 681.455 1937.3 681.366L1959.41 654.301C1959.71 653.935 1960.3 654.148 1960.3 654.62L1958.89 879.716C1958.89 880.266 1958.63 880.784 1958.19 881.116C1943.66 892.098 1930.22 904.452 1918.06 918.006L1869.66 971.926C1864.49 977.695 1858.07 982.215 1850.89 985.146L1800.58 1005.7C1800.57 1005.7 1800.56 1005.7 1800.55 1005.7H1676.61C1676.33 1005.7 1676.11 1005.48 1676.11 1005.2V932.207Z" stroke="#ECAAFF"/>
</g>
<mask id="path-92-outside-1_259_303" maskUnits="userSpaceOnUse" x="137.314" y="528.47" width="64" height="26" fill="black">
<rect fill="white" x="137.314" y="528.47" width="64" height="26"/>
<path d="M138.615 552.47V536.106H141.044V538.663H141.257C141.598 537.789 142.148 537.111 142.908 536.628C143.668 536.138 144.581 535.893 145.646 535.893C146.726 535.893 147.624 536.138 148.341 536.628C149.066 537.111 149.63 537.789 150.035 538.663H150.206C150.625 537.818 151.253 537.147 152.091 536.649C152.929 536.145 153.934 535.893 155.106 535.893C156.569 535.893 157.766 536.351 158.696 537.267C159.627 538.176 160.092 539.593 160.092 541.518V552.47H157.578V541.518C157.578 540.311 157.248 539.448 156.587 538.929C155.927 538.411 155.149 538.152 154.254 538.152C153.103 538.152 152.212 538.5 151.58 539.196C150.948 539.884 150.632 540.758 150.632 541.816V552.47H148.075V541.262C148.075 540.332 147.773 539.583 147.169 539.014C146.566 538.439 145.788 538.152 144.836 538.152C144.183 538.152 143.572 538.326 143.004 538.674C142.443 539.022 141.988 539.505 141.64 540.122C141.299 540.733 141.129 541.44 141.129 542.242V552.47H138.615ZM164.689 552.47V536.106H167.203V552.47H164.689ZM165.967 533.379C165.477 533.379 165.055 533.212 164.7 532.878C164.352 532.544 164.178 532.143 164.178 531.674C164.178 531.206 164.352 530.804 164.7 530.47C165.055 530.137 165.477 529.97 165.967 529.97C166.457 529.97 166.876 530.137 167.224 530.47C167.58 530.804 167.757 531.206 167.757 531.674C167.757 532.143 167.58 532.544 167.224 532.878C166.876 533.212 166.457 533.379 165.967 533.379ZM183.399 539.771L181.14 540.41C180.998 540.034 180.789 539.668 180.512 539.313C180.242 538.951 179.873 538.652 179.404 538.418C178.935 538.184 178.335 538.066 177.604 538.066C176.602 538.066 175.768 538.297 175.1 538.759C174.439 539.213 174.109 539.792 174.109 540.495C174.109 541.12 174.337 541.614 174.791 541.976C175.246 542.338 175.956 542.64 176.922 542.882L179.351 543.478C180.814 543.833 181.904 544.377 182.621 545.108C183.339 545.833 183.697 546.767 183.697 547.91C183.697 548.848 183.427 549.686 182.888 550.424C182.355 551.163 181.609 551.745 180.65 552.171C179.692 552.598 178.577 552.811 177.305 552.811C175.636 552.811 174.255 552.448 173.161 551.724C172.067 551 171.375 549.941 171.084 548.549L173.47 547.953C173.697 548.833 174.127 549.494 174.759 549.934C175.398 550.375 176.233 550.595 177.263 550.595C178.435 550.595 179.365 550.346 180.054 549.849C180.75 549.345 181.098 548.741 181.098 548.038C181.098 547.47 180.899 546.994 180.501 546.61C180.104 546.22 179.493 545.929 178.669 545.737L175.942 545.098C174.443 544.742 173.342 544.192 172.639 543.446C171.943 542.693 171.595 541.752 171.595 540.623C171.595 539.7 171.854 538.883 172.373 538.173C172.898 537.463 173.612 536.905 174.514 536.5C175.423 536.095 176.453 535.893 177.604 535.893C179.223 535.893 180.494 536.248 181.417 536.958C182.348 537.669 183.008 538.606 183.399 539.771ZM192.297 552.853C191.26 552.853 190.319 552.658 189.474 552.267C188.629 551.87 187.958 551.298 187.461 550.552C186.963 549.799 186.715 548.89 186.715 547.825C186.715 546.887 186.9 546.127 187.269 545.545C187.638 544.956 188.132 544.494 188.75 544.16C189.368 543.826 190.049 543.578 190.795 543.414C191.548 543.244 192.304 543.109 193.064 543.009C194.059 542.882 194.865 542.786 195.483 542.722C196.108 542.651 196.562 542.534 196.846 542.37C197.137 542.207 197.283 541.923 197.283 541.518V541.433C197.283 540.382 196.995 539.565 196.42 538.983C195.852 538.4 194.989 538.109 193.831 538.109C192.631 538.109 191.69 538.372 191.008 538.897C190.326 539.423 189.847 539.984 189.57 540.581L187.184 539.728C187.61 538.734 188.178 537.96 188.888 537.406C189.606 536.845 190.387 536.454 191.232 536.234C192.084 536.007 192.922 535.893 193.746 535.893C194.272 535.893 194.875 535.957 195.557 536.085C196.246 536.206 196.91 536.458 197.549 536.841C198.196 537.225 198.732 537.804 199.158 538.578C199.584 539.352 199.797 540.389 199.797 541.688V552.47H197.283V550.254H197.155C196.985 550.609 196.701 550.989 196.303 551.394C195.905 551.799 195.376 552.143 194.716 552.427C194.055 552.711 193.249 552.853 192.297 552.853ZM192.681 550.595C193.675 550.595 194.513 550.399 195.195 550.009C195.884 549.618 196.402 549.114 196.75 548.496C197.106 547.878 197.283 547.228 197.283 546.546V544.245C197.177 544.373 196.942 544.49 196.58 544.597C196.225 544.696 195.813 544.785 195.344 544.863C194.882 544.934 194.431 544.998 193.991 545.055C193.558 545.105 193.206 545.147 192.936 545.183C192.283 545.268 191.672 545.407 191.104 545.598C190.543 545.783 190.088 546.063 189.74 546.44C189.4 546.809 189.229 547.313 189.229 547.953C189.229 548.826 189.552 549.487 190.199 549.934C190.852 550.375 191.679 550.595 192.681 550.595Z"/>
</mask>
<path d="M138.615 552.47V536.106H141.044V538.663H141.257C141.598 537.789 142.148 537.111 142.908 536.628C143.668 536.138 144.581 535.893 145.646 535.893C146.726 535.893 147.624 536.138 148.341 536.628C149.066 537.111 149.63 537.789 150.035 538.663H150.206C150.625 537.818 151.253 537.147 152.091 536.649C152.929 536.145 153.934 535.893 155.106 535.893C156.569 535.893 157.766 536.351 158.696 537.267C159.627 538.176 160.092 539.593 160.092 541.518V552.47H157.578V541.518C157.578 540.311 157.248 539.448 156.587 538.929C155.927 538.411 155.149 538.152 154.254 538.152C153.103 538.152 152.212 538.5 151.58 539.196C150.948 539.884 150.632 540.758 150.632 541.816V552.47H148.075V541.262C148.075 540.332 147.773 539.583 147.169 539.014C146.566 538.439 145.788 538.152 144.836 538.152C144.183 538.152 143.572 538.326 143.004 538.674C142.443 539.022 141.988 539.505 141.64 540.122C141.299 540.733 141.129 541.44 141.129 542.242V552.47H138.615ZM164.689 552.47V536.106H167.203V552.47H164.689ZM165.967 533.379C165.477 533.379 165.055 533.212 164.7 532.878C164.352 532.544 164.178 532.143 164.178 531.674C164.178 531.206 164.352 530.804 164.7 530.47C165.055 530.137 165.477 529.97 165.967 529.97C166.457 529.97 166.876 530.137 167.224 530.47C167.58 530.804 167.757 531.206 167.757 531.674C167.757 532.143 167.58 532.544 167.224 532.878C166.876 533.212 166.457 533.379 165.967 533.379ZM183.399 539.771L181.14 540.41C180.998 540.034 180.789 539.668 180.512 539.313C180.242 538.951 179.873 538.652 179.404 538.418C178.935 538.184 178.335 538.066 177.604 538.066C176.602 538.066 175.768 538.297 175.1 538.759C174.439 539.213 174.109 539.792 174.109 540.495C174.109 541.12 174.337 541.614 174.791 541.976C175.246 542.338 175.956 542.64 176.922 542.882L179.351 543.478C180.814 543.833 181.904 544.377 182.621 545.108C183.339 545.833 183.697 546.767 183.697 547.91C183.697 548.848 183.427 549.686 182.888 550.424C182.355 551.163 181.609 551.745 180.65 552.171C179.692 552.598 178.577 552.811 177.305 552.811C175.636 552.811 174.255 552.448 173.161 551.724C172.067 551 171.375 549.941 171.084 548.549L173.47 547.953C173.697 548.833 174.127 549.494 174.759 549.934C175.398 550.375 176.233 550.595 177.263 550.595C178.435 550.595 179.365 550.346 180.054 549.849C180.75 549.345 181.098 548.741 181.098 548.038C181.098 547.47 180.899 546.994 180.501 546.61C180.104 546.22 179.493 545.929 178.669 545.737L175.942 545.098C174.443 544.742 173.342 544.192 172.639 543.446C171.943 542.693 171.595 541.752 171.595 540.623C171.595 539.7 171.854 538.883 172.373 538.173C172.898 537.463 173.612 536.905 174.514 536.5C175.423 536.095 176.453 535.893 177.604 535.893C179.223 535.893 180.494 536.248 181.417 536.958C182.348 537.669 183.008 538.606 183.399 539.771ZM192.297 552.853C191.26 552.853 190.319 552.658 189.474 552.267C188.629 551.87 187.958 551.298 187.461 550.552C186.963 549.799 186.715 548.89 186.715 547.825C186.715 546.887 186.9 546.127 187.269 545.545C187.638 544.956 188.132 544.494 188.75 544.16C189.368 543.826 190.049 543.578 190.795 543.414C191.548 543.244 192.304 543.109 193.064 543.009C194.059 542.882 194.865 542.786 195.483 542.722C196.108 542.651 196.562 542.534 196.846 542.37C197.137 542.207 197.283 541.923 197.283 541.518V541.433C197.283 540.382 196.995 539.565 196.42 538.983C195.852 538.4 194.989 538.109 193.831 538.109C192.631 538.109 191.69 538.372 191.008 538.897C190.326 539.423 189.847 539.984 189.57 540.581L187.184 539.728C187.61 538.734 188.178 537.96 188.888 537.406C189.606 536.845 190.387 536.454 191.232 536.234C192.084 536.007 192.922 535.893 193.746 535.893C194.272 535.893 194.875 535.957 195.557 536.085C196.246 536.206 196.91 536.458 197.549 536.841C198.196 537.225 198.732 537.804 199.158 538.578C199.584 539.352 199.797 540.389 199.797 541.688V552.47H197.283V550.254H197.155C196.985 550.609 196.701 550.989 196.303 551.394C195.905 551.799 195.376 552.143 194.716 552.427C194.055 552.711 193.249 552.853 192.297 552.853ZM192.681 550.595C193.675 550.595 194.513 550.399 195.195 550.009C195.884 549.618 196.402 549.114 196.75 548.496C197.106 547.878 197.283 547.228 197.283 546.546V544.245C197.177 544.373 196.942 544.49 196.58 544.597C196.225 544.696 195.813 544.785 195.344 544.863C194.882 544.934 194.431 544.998 193.991 545.055C193.558 545.105 193.206 545.147 192.936 545.183C192.283 545.268 191.672 545.407 191.104 545.598C190.543 545.783 190.088 546.063 189.74 546.44C189.4 546.809 189.229 547.313 189.229 547.953C189.229 548.826 189.552 549.487 190.199 549.934C190.852 550.375 191.679 550.595 192.681 550.595Z" fill="white"/>
<path d="M138.615 552.47H137.615V553.47H138.615V552.47ZM138.615 536.106V535.106H137.615V536.106H138.615ZM141.044 536.106H142.044V535.106H141.044V536.106ZM141.044 538.663H140.044V539.663H141.044V538.663ZM141.257 538.663V539.663H141.94L142.188 539.026L141.257 538.663ZM142.908 536.628L143.444 537.472L143.45 537.469L142.908 536.628ZM148.341 536.628L147.777 537.454L147.787 537.46L148.341 536.628ZM150.035 538.663L149.128 539.083L149.396 539.663H150.035V538.663ZM150.206 538.663V539.663H150.826L151.102 539.107L150.206 538.663ZM152.091 536.649L152.602 537.509L152.607 537.506L152.091 536.649ZM158.696 537.267L157.995 537.98L157.998 537.983L158.696 537.267ZM160.092 552.47V553.47H161.092V552.47H160.092ZM157.578 552.47H156.578V553.47H157.578V552.47ZM156.587 538.929L155.97 539.716H155.97L156.587 538.929ZM151.58 539.196L152.317 539.872L152.32 539.868L151.58 539.196ZM150.632 552.47V553.47H151.632V552.47H150.632ZM148.075 552.47H147.075V553.47H148.075V552.47ZM147.169 539.014L146.48 539.738L146.484 539.743L147.169 539.014ZM143.004 538.674L142.482 537.821L142.477 537.824L143.004 538.674ZM141.64 540.122L140.769 539.632L140.767 539.635L141.64 540.122ZM141.129 552.47V553.47H142.129V552.47H141.129ZM139.615 552.47V536.106H137.615V552.47H139.615ZM138.615 537.106H141.044V535.106H138.615V537.106ZM140.044 536.106V538.663H142.044V536.106H140.044ZM141.044 539.663H141.257V537.663H141.044V539.663ZM142.188 539.026C142.455 538.342 142.872 537.836 143.444 537.472L142.372 535.784C141.424 536.386 140.74 537.236 140.325 538.299L142.188 539.026ZM143.45 537.469C144.021 537.1 144.738 536.893 145.646 536.893V534.893C144.423 534.893 143.315 535.176 142.366 535.788L143.45 537.469ZM145.646 536.893C146.573 536.893 147.262 537.102 147.777 537.454L148.905 535.802C147.985 535.174 146.878 534.893 145.646 534.893V536.893ZM147.787 537.46C148.342 537.83 148.792 538.359 149.128 539.083L150.943 538.242C150.469 537.22 149.79 536.392 148.896 535.796L147.787 537.46ZM150.035 539.663H150.206V537.663H150.035V539.663ZM151.102 539.107C151.432 538.441 151.924 537.912 152.601 537.509L151.581 535.789C150.583 536.382 149.817 537.195 149.31 538.219L151.102 539.107ZM152.607 537.506C153.261 537.113 154.08 536.893 155.106 536.893V534.893C153.789 534.893 152.598 535.178 151.576 535.793L152.607 537.506ZM155.106 536.893C156.341 536.893 157.275 537.271 157.995 537.98L159.398 536.555C158.257 535.432 156.797 534.893 155.106 534.893V536.893ZM157.998 537.983C158.659 538.629 159.092 539.734 159.092 541.518H161.092C161.092 539.453 160.594 537.723 159.395 536.552L157.998 537.983ZM159.092 541.518V552.47H161.092V541.518H159.092ZM160.092 551.47H157.578V553.47H160.092V551.47ZM158.578 552.47V541.518H156.578V552.47H158.578ZM158.578 541.518C158.578 540.144 158.199 538.923 157.204 538.143L155.97 539.716C156.296 539.972 156.578 540.477 156.578 541.518H158.578ZM157.204 538.143C156.356 537.476 155.357 537.152 154.254 537.152V539.152C154.941 539.152 155.497 539.345 155.97 539.716L157.204 538.143ZM154.254 537.152C152.89 537.152 151.703 537.573 150.84 538.523L152.32 539.868C152.721 539.426 153.317 539.152 154.254 539.152V537.152ZM150.843 538.52C150.019 539.417 149.632 540.543 149.632 541.816H151.632C151.632 540.973 151.876 540.352 152.317 539.872L150.843 538.52ZM149.632 541.816V552.47H151.632V541.816H149.632ZM150.632 551.47H148.075V553.47H150.632V551.47ZM149.075 552.47V541.262H147.075V552.47H149.075ZM149.075 541.262C149.075 540.093 148.685 539.067 147.855 538.286L146.484 539.743C146.861 540.098 147.075 540.57 147.075 541.262H149.075ZM147.859 538.291C147.043 537.513 146.006 537.152 144.836 537.152V539.152C145.57 539.152 146.088 539.366 146.48 539.738L147.859 538.291ZM144.836 537.152C143.995 537.152 143.204 537.379 142.482 537.821L143.526 539.526C143.94 539.273 144.371 539.152 144.836 539.152V537.152ZM142.477 537.824C141.762 538.267 141.193 538.878 140.769 539.632L142.512 540.613C142.783 540.131 143.124 539.776 143.531 539.523L142.477 537.824ZM140.767 539.635C140.331 540.416 140.129 541.295 140.129 542.242H142.129C142.129 541.585 142.267 541.051 142.514 540.61L140.767 539.635ZM140.129 542.242V552.47H142.129V542.242H140.129ZM141.129 551.47H138.615V553.47H141.129V551.47ZM164.689 552.47H163.689V553.47H164.689V552.47ZM164.689 536.106V535.106H163.689V536.106H164.689ZM167.203 536.106H168.203V535.106H167.203V536.106ZM167.203 552.47V553.47H168.203V552.47H167.203ZM164.7 532.878L164.007 533.6L164.015 533.607L164.7 532.878ZM164.7 530.47L164.015 529.742L164.007 529.749L164.7 530.47ZM167.224 530.47L166.532 531.192L166.54 531.199L167.224 530.47ZM167.224 532.878L166.54 532.149L166.532 532.156L167.224 532.878ZM165.689 552.47V536.106H163.689V552.47H165.689ZM164.689 537.106H167.203V535.106H164.689V537.106ZM166.203 536.106V552.47H168.203V536.106H166.203ZM167.203 551.47H164.689V553.47H167.203V551.47ZM165.967 532.379C165.73 532.379 165.553 532.308 165.385 532.149L164.015 533.607C164.556 534.116 165.224 534.379 165.967 534.379V532.379ZM165.392 532.156C165.234 532.005 165.178 531.862 165.178 531.674H163.178C163.178 532.424 163.469 533.083 164.007 533.6L165.392 532.156ZM165.178 531.674C165.178 531.487 165.234 531.343 165.392 531.192L164.007 529.749C163.469 530.265 163.178 530.924 163.178 531.674H165.178ZM165.385 531.199C165.553 531.041 165.73 530.97 165.967 530.97V528.97C165.224 528.97 164.556 529.233 164.015 529.742L165.385 531.199ZM165.967 530.97C166.204 530.97 166.374 531.04 166.532 531.192L167.917 529.749C167.379 529.233 166.711 528.97 165.967 528.97V530.97ZM166.54 531.199C166.703 531.352 166.757 531.494 166.757 531.674H168.757C168.757 530.917 168.457 530.256 167.909 529.742L166.54 531.199ZM166.757 531.674C166.757 531.855 166.703 531.996 166.54 532.149L167.909 533.607C168.457 533.092 168.757 532.431 168.757 531.674H166.757ZM166.532 532.156C166.374 532.308 166.204 532.379 165.967 532.379V534.379C166.711 534.379 167.379 534.115 167.917 533.6L166.532 532.156ZM183.399 539.771L183.671 540.733L184.681 540.447L184.347 539.453L183.399 539.771ZM181.14 540.41L180.205 540.763L180.529 541.622L181.413 541.372L181.14 540.41ZM180.512 539.313L179.71 539.91L179.717 539.919L179.723 539.928L180.512 539.313ZM179.404 538.418L179.851 537.523L179.404 538.418ZM175.1 538.759L175.667 539.583L175.669 539.581L175.1 538.759ZM174.791 541.976L174.168 542.758L174.791 541.976ZM176.922 542.882L176.679 543.852L176.683 543.853L176.922 542.882ZM179.351 543.478L179.112 544.449L179.115 544.45L179.351 543.478ZM182.621 545.108L181.907 545.808L181.911 545.812L182.621 545.108ZM182.888 550.424L182.08 549.834L182.077 549.839L182.888 550.424ZM173.161 551.724L173.713 550.89L173.161 551.724ZM171.084 548.549L170.841 547.579L169.908 547.812L170.105 548.754L171.084 548.549ZM173.47 547.953L174.438 547.703L174.19 546.742L173.227 546.983L173.47 547.953ZM174.759 549.934L174.187 550.755L174.192 550.758L174.759 549.934ZM180.054 549.849L180.639 550.66L180.641 550.659L180.054 549.849ZM180.501 546.61L179.801 547.324L179.807 547.33L180.501 546.61ZM178.669 545.737L178.441 546.71L178.442 546.711L178.669 545.737ZM175.942 545.098L175.711 546.071L175.713 546.071L175.942 545.098ZM172.639 543.446L171.905 544.125L171.911 544.132L172.639 543.446ZM172.373 538.173L171.569 537.578L171.565 537.583L172.373 538.173ZM174.514 536.5L174.107 535.587L174.105 535.588L174.514 536.5ZM181.417 536.958L180.808 537.751L180.811 537.753L181.417 536.958ZM183.127 538.809L180.868 539.448L181.413 541.372L183.671 540.733L183.127 538.809ZM182.076 540.057C181.895 539.576 181.632 539.123 181.3 538.698L179.723 539.928C179.946 540.213 180.102 540.491 180.205 540.763L182.076 540.057ZM181.314 538.715C180.937 538.209 180.437 537.817 179.851 537.523L178.957 539.312C179.308 539.488 179.547 539.692 179.71 539.91L181.314 538.715ZM179.851 537.523C179.2 537.198 178.433 537.066 177.604 537.066V539.066C178.238 539.066 178.671 539.169 178.957 539.312L179.851 537.523ZM177.604 537.066C176.447 537.066 175.402 537.334 174.531 537.936L175.669 539.581C176.134 539.26 176.757 539.066 177.604 539.066V537.066ZM174.533 537.935C173.646 538.546 173.109 539.413 173.109 540.495H175.109C175.109 540.172 175.233 539.881 175.667 539.583L174.533 537.935ZM173.109 540.495C173.109 541.398 173.455 542.19 174.168 542.758L175.414 541.194C175.218 541.037 175.109 540.842 175.109 540.495H173.109ZM174.168 542.758C174.787 543.252 175.66 543.597 176.679 543.852L177.164 541.912C176.252 541.683 175.704 541.425 175.414 541.194L174.168 542.758ZM176.683 543.853L179.112 544.449L179.589 542.507L177.16 541.911L176.683 543.853ZM179.115 544.45C180.476 544.781 181.369 545.259 181.907 545.808L183.335 544.408C182.439 543.494 181.151 542.886 179.587 542.506L179.115 544.45ZM181.911 545.812C182.419 546.326 182.697 546.995 182.697 547.91H184.697C184.697 546.538 184.258 545.34 183.332 544.405L181.911 545.812ZM182.697 547.91C182.697 548.641 182.492 549.271 182.08 549.834L183.695 551.014C184.363 550.1 184.697 549.054 184.697 547.91H182.697ZM182.077 549.839C181.662 550.414 181.066 550.892 180.244 551.258L181.057 553.085C182.152 552.598 183.048 551.912 183.699 551.009L182.077 549.839ZM180.244 551.258C179.437 551.616 178.466 551.811 177.305 551.811V553.811C178.687 553.811 179.946 553.579 181.057 553.085L180.244 551.258ZM177.305 551.811C175.779 551.811 174.604 551.48 173.713 550.89L172.609 552.558C173.906 553.417 175.493 553.811 177.305 553.811V551.811ZM173.713 550.89C172.858 550.324 172.305 549.503 172.062 548.345L170.105 548.754C170.445 550.38 171.276 551.675 172.609 552.558L173.713 550.89ZM171.326 549.519L173.713 548.923L173.227 546.983L170.841 547.579L171.326 549.519ZM172.502 548.203C172.777 549.271 173.325 550.154 174.187 550.755L175.331 549.114C174.929 548.834 174.617 548.396 174.438 547.703L172.502 548.203ZM174.192 550.758C175.045 551.345 176.095 551.595 177.263 551.595V549.595C176.37 549.595 175.752 549.404 175.326 549.111L174.192 550.758ZM177.263 551.595C178.567 551.595 179.726 551.319 180.639 550.66L179.469 549.038C179.004 549.373 178.302 549.595 177.263 549.595V551.595ZM180.641 550.659C181.531 550.013 182.098 549.134 182.098 548.038H180.098C180.098 548.348 179.968 548.676 179.467 549.039L180.641 550.659ZM182.098 548.038C182.098 547.207 181.795 546.468 181.195 545.891L179.807 547.33C180.003 547.519 180.098 547.733 180.098 548.038H182.098ZM181.202 545.897C180.622 545.327 179.813 544.976 178.896 544.763L178.442 546.711C179.173 546.881 179.585 547.112 179.801 547.324L181.202 545.897ZM178.897 544.763L176.17 544.124L175.713 546.071L178.441 546.71L178.897 544.763ZM176.172 544.125C174.774 543.793 173.884 543.309 173.367 542.76L171.911 544.132C172.8 545.075 174.112 545.692 175.711 546.071L176.172 544.125ZM173.373 542.767C172.866 542.219 172.595 541.528 172.595 540.623H170.595C170.595 541.976 171.02 543.168 171.905 544.125L173.373 542.767ZM172.595 540.623C172.595 539.9 172.793 539.293 173.18 538.762L171.565 537.583C170.915 538.474 170.595 539.499 170.595 540.623H172.595ZM173.177 538.768C173.588 538.211 174.159 537.756 174.924 537.413L174.105 535.588C173.065 536.054 172.208 536.714 171.569 537.578L173.177 538.768ZM174.921 537.414C175.683 537.074 176.571 536.893 177.604 536.893V534.893C176.335 534.893 175.163 535.117 174.107 535.587L174.921 537.414ZM177.604 536.893C179.087 536.893 180.116 537.219 180.808 537.751L182.027 536.166C180.872 535.277 179.359 534.893 177.604 534.893V536.893ZM180.811 537.753C181.574 538.336 182.121 539.104 182.451 540.089L184.347 539.453C183.896 538.109 183.122 537.001 182.024 536.163L180.811 537.753ZM189.474 552.267L189.048 553.172L189.055 553.175L189.474 552.267ZM187.461 550.552L186.626 551.103L186.629 551.107L187.461 550.552ZM187.269 545.545L188.113 546.081L188.116 546.076L187.269 545.545ZM188.75 544.16L189.225 545.04L188.75 544.16ZM190.795 543.414L191.009 544.391L191.016 544.39L190.795 543.414ZM193.064 543.009L192.937 542.018L192.935 542.018L193.064 543.009ZM195.483 542.722L195.586 543.717L195.596 543.715L195.483 542.722ZM196.846 542.37L196.357 541.498L196.348 541.503L196.846 542.37ZM196.42 538.983L195.704 539.681L195.709 539.685L196.42 538.983ZM191.008 538.897L191.619 539.689L191.008 538.897ZM189.57 540.581L189.234 541.522L190.093 541.829L190.477 541.002L189.57 540.581ZM187.184 539.728L186.264 539.334L185.845 540.312L186.847 540.67L187.184 539.728ZM188.888 537.406L189.503 538.194L189.504 538.193L188.888 537.406ZM191.232 536.234L191.484 537.202L191.49 537.2L191.232 536.234ZM195.557 536.085L195.373 537.068L195.385 537.07L195.557 536.085ZM197.549 536.841L197.035 537.699L197.039 537.701L197.549 536.841ZM199.158 538.578L198.282 539.06V539.06L199.158 538.578ZM199.797 552.47V553.47H200.797V552.47H199.797ZM197.283 552.47H196.283V553.47H197.283V552.47ZM197.283 550.254H198.283V549.254H197.283V550.254ZM197.155 550.254V549.254H196.526L196.254 549.821L197.155 550.254ZM196.303 551.394L197.016 552.095V552.095L196.303 551.394ZM194.716 552.427L194.32 551.508L194.716 552.427ZM195.195 550.009L194.702 549.139L194.698 549.141L195.195 550.009ZM196.75 548.496L195.883 547.998L195.879 548.005L196.75 548.496ZM197.283 544.245H198.283V541.483L196.515 543.605L197.283 544.245ZM196.58 544.597L196.85 545.56L196.862 545.556L196.58 544.597ZM195.344 544.863L195.496 545.852L195.509 545.85L195.344 544.863ZM193.991 545.055L194.105 546.049L194.119 546.047L193.991 545.055ZM192.936 545.183L193.066 546.174L193.067 546.174L192.936 545.183ZM191.104 545.598L191.417 546.548L191.424 546.546L191.104 545.598ZM189.74 546.44L189.006 545.761L189.006 545.762L189.74 546.44ZM190.199 549.934L189.629 550.756L189.64 550.763L190.199 549.934ZM192.297 551.853C191.389 551.853 190.593 551.683 189.894 551.36L189.055 553.175C190.046 553.633 191.132 553.853 192.297 553.853V551.853ZM189.9 551.362C189.212 551.039 188.684 550.585 188.293 549.997L186.629 551.107C187.231 552.011 188.046 552.7 189.048 553.172L189.9 551.362ZM188.295 550.001C187.924 549.439 187.715 548.73 187.715 547.825H185.715C185.715 549.05 186.003 550.159 186.626 551.103L188.295 550.001ZM187.715 547.825C187.715 547.011 187.876 546.455 188.113 546.081L186.424 545.009C185.923 545.8 185.715 546.764 185.715 547.825H187.715ZM188.116 546.076C188.393 545.634 188.758 545.292 189.225 545.04L188.274 543.28C187.506 543.695 186.883 544.277 186.421 545.014L188.116 546.076ZM189.225 545.04C189.754 544.754 190.347 544.536 191.009 544.391L190.581 542.437C189.752 542.619 188.981 542.898 188.274 543.28L189.225 545.04ZM191.016 544.39C191.739 544.226 192.465 544.096 193.194 544.001L192.935 542.018C192.144 542.121 191.357 542.262 190.574 542.439L191.016 544.39ZM193.192 544.001C194.182 543.874 194.979 543.779 195.586 543.717L195.38 541.727C194.75 541.792 193.935 541.889 192.937 542.018L193.192 544.001ZM195.596 543.715C196.254 543.641 196.877 543.506 197.345 543.237L196.348 541.503C196.247 541.561 195.961 541.661 195.37 541.728L195.596 543.715ZM197.336 543.242C198.014 542.862 198.283 542.194 198.283 541.518H196.283C196.283 541.603 196.268 541.61 196.284 541.579C196.292 541.562 196.305 541.544 196.322 541.527C196.338 541.51 196.352 541.501 196.357 541.498L197.336 543.242ZM198.283 541.518V541.433H196.283V541.518H198.283ZM198.283 541.433C198.283 540.197 197.94 539.098 197.132 538.28L195.709 539.685C196.051 540.031 196.283 540.567 196.283 541.433H198.283ZM197.136 538.284C196.312 537.44 195.143 537.109 193.831 537.109V539.109C194.835 539.109 195.392 539.361 195.704 539.681L197.136 538.284ZM193.831 537.109C192.496 537.109 191.312 537.401 190.398 538.105L191.619 539.689C192.068 539.343 192.767 539.109 193.831 539.109V537.109ZM190.398 538.105C189.627 538.7 189.025 539.379 188.663 540.159L190.477 541.002C190.669 540.589 191.026 540.146 191.619 539.689L190.398 538.105ZM189.906 539.639L187.52 538.787L186.847 540.67L189.234 541.522L189.906 539.639ZM188.103 540.122C188.476 539.252 188.95 538.626 189.503 538.194L188.273 536.617C187.406 537.294 186.744 538.216 186.264 539.334L188.103 540.122ZM189.504 538.193C190.119 537.713 190.777 537.386 191.484 537.202L190.98 535.266C189.997 535.522 189.092 535.976 188.272 536.618L189.504 538.193ZM191.49 537.2C192.264 536.994 193.015 536.893 193.746 536.893V534.893C192.829 534.893 191.905 535.02 190.974 535.268L191.49 537.2ZM193.746 536.893C194.194 536.893 194.734 536.948 195.373 537.068L195.741 535.102C195.017 534.966 194.349 534.893 193.746 534.893V536.893ZM195.385 537.07C195.945 537.168 196.494 537.374 197.035 537.699L198.064 535.984C197.326 535.541 196.547 535.243 195.73 535.1L195.385 537.07ZM197.039 537.701C197.507 537.979 197.927 538.414 198.282 539.06L200.034 538.095C199.537 537.193 198.885 536.471 198.06 535.981L197.039 537.701ZM198.282 539.06C198.597 539.633 198.797 540.484 198.797 541.688H200.797C200.797 540.294 200.571 539.071 200.034 538.095L198.282 539.06ZM198.797 541.688V552.47H200.797V541.688H198.797ZM199.797 551.47H197.283V553.47H199.797V551.47ZM198.283 552.47V550.254H196.283V552.47H198.283ZM197.283 549.254H197.155V551.254H197.283V549.254ZM196.254 549.821C196.147 550.044 195.941 550.335 195.59 550.693L197.016 552.095C197.46 551.643 197.823 551.174 198.057 550.687L196.254 549.821ZM195.59 550.693C195.304 550.984 194.892 551.263 194.32 551.508L195.111 553.346C195.86 553.024 196.507 552.613 197.016 552.095L195.59 550.693ZM194.32 551.508C193.818 551.725 193.155 551.853 192.297 551.853V553.853C193.343 553.853 194.292 553.698 195.111 553.346L194.32 551.508ZM192.681 551.595C193.804 551.595 194.824 551.374 195.692 550.876L194.698 549.141C194.203 549.425 193.546 549.595 192.681 549.595V551.595ZM195.688 550.879C196.516 550.409 197.174 549.781 197.622 548.987L195.879 548.005C195.63 548.447 195.251 548.827 194.702 549.139L195.688 550.879ZM197.617 548.994C198.056 548.232 198.283 547.411 198.283 546.546H196.283C196.283 547.045 196.155 547.524 195.883 547.998L197.617 548.994ZM198.283 546.546V544.245H196.283V546.546H198.283ZM196.515 543.605C196.554 543.558 196.587 543.534 196.596 543.527C196.605 543.52 196.602 543.524 196.58 543.535C196.533 543.558 196.445 543.594 196.298 543.637L196.862 545.556C197.078 545.493 197.287 545.417 197.475 545.323C197.652 545.235 197.874 545.099 198.051 544.885L196.515 543.605ZM196.31 543.634C195.998 543.721 195.623 543.803 195.18 543.877L195.509 545.85C196.003 545.767 196.452 545.671 196.85 545.56L196.31 543.634ZM195.192 543.875C194.738 543.945 194.295 544.007 193.863 544.063L194.119 546.047C194.568 545.989 195.027 545.924 195.496 545.852L195.192 543.875ZM193.877 544.061C193.441 544.111 193.084 544.155 192.806 544.191L193.067 546.174C193.329 546.14 193.675 546.098 194.105 546.048L193.877 544.061ZM192.807 544.191C192.095 544.284 191.42 544.436 190.784 544.651L191.424 546.546C191.924 546.377 192.471 546.252 193.066 546.174L192.807 544.191ZM190.791 544.648C190.094 544.878 189.486 545.242 189.006 545.761L190.475 547.119C190.691 546.885 190.992 546.688 191.417 546.548L190.791 544.648ZM189.006 545.762C188.452 546.362 188.229 547.133 188.229 547.953H190.229C190.229 547.494 190.348 547.257 190.475 547.118L189.006 545.762ZM188.229 547.953C188.229 549.112 188.68 550.099 189.629 550.756L190.768 549.112C190.425 548.874 190.229 548.541 190.229 547.953H188.229ZM189.64 550.763C190.498 551.342 191.534 551.595 192.681 551.595V549.595C191.825 549.595 191.206 549.407 190.757 549.105L189.64 550.763Z" fill="#ECAAFF" mask="url(#path-92-outside-1_259_303)"/>
<path d="M57.1226 1249.09H402.149V1504.73H57.1226V1249.09Z" fill="#ECAAFF" stroke="#ECAAFF"/>
<path d="M480.743 1251.12H685.262V1335.67H480.743V1251.12Z" fill="#ECAAFF" stroke="#ECAAFF"/>
<path d="M1481.08 1247.05H1587.03V1521.03H1481.08V1247.05Z" fill="#ECAAFF" stroke="#ECAAFF"/>
<path d="M1592.22 1247.05H1698.18V1521.03H1592.22V1247.05Z" fill="#ECAAFF" stroke="#ECAAFF"/>
<path d="M1703.37 1247.05H1805.13V1521.03H1703.37V1247.05Z" fill="#ECAAFF" stroke="#ECAAFF"/>
<path d="M1812.42 1247.05H1916.28V1521.03H1812.42V1247.05Z" fill="#ECAAFF" stroke="#ECAAFF"/>
<path d="M1927.76 1249.09H2031.62V1523.06H1927.76V1249.09Z" fill="#ECAAFF" stroke="#ECAAFF"/>
<path d="M2038.91 1249.09H2142.77V1523.06H2038.91V1249.09Z" fill="#ECAAFF" stroke="#ECAAFF"/>
<path d="M2036.82 1526.1H2146.96V1859.14H2036.82V1526.1Z" fill="#ECAAFF" stroke="#ECAAFF"/>
<path d="M1638.36 2008.83H2132.28V2197.26H1638.36V2008.83Z" fill="#978E99"/>
<path d="M1638.36 2008.83H2132.28V2197.26H1638.36V2008.83Z" fill="#978E99"/>
<path d="M1638.36 2008.83H2132.28V2197.26H1638.36V2008.83Z" fill="#978E99"/>
<path d="M1638.36 2008.83H2132.28V2197.26H1638.36V2008.83Z" fill="#978E99"/>
<path d="M1638.36 2008.83H2132.28V2197.26H1638.36V2008.83Z" stroke="#343946"/>
<path d="M2301.05 2008.83H2794.98V2197.26H2301.05V2008.83Z" fill="#978E99"/>
<path d="M2301.05 2008.83H2794.98V2197.26H2301.05V2008.83Z" fill="#978E99"/>
<path d="M2301.05 2008.83H2794.98V2197.26H2301.05V2008.83Z" fill="#978E99"/>
<path d="M2301.05 2008.83H2794.98V2197.26H2301.05V2008.83Z" fill="#978E99"/>
<path d="M2301.05 2008.83H2794.98V2197.26H2301.05V2008.83Z" stroke="#343946"/>
<path d="M1921.47 1526.1H2031.62V1859.14H1921.47V1526.1Z" fill="#ECAAFF" stroke="#ECAAFF"/>
<path d="M1806.13 1526.1H1916.28V1859.14H1806.13V1526.1Z" fill="#ECAAFF" stroke="#ECAAFF"/>
<path d="M1703.37 1526.1H1800.94V1859.14H1703.37V1526.1Z" fill="#ECAAFF" stroke="#ECAAFF"/>
<path d="M1592.22 1526.1H1698.18V1859.14H1592.22V1526.1Z" fill="#ECAAFF" stroke="#ECAAFF"/>
<path d="M1477.7 1527.12H1583.65V1859.93L1581.54 1859.09C1542.66 1843.73 1507.42 1820.39 1478.1 1790.59L1477.7 1790.18V1527.12Z" fill="#ECAAFF" stroke="#ECAAFF"/>
<path d="M1118.27 1245.01H1249.39V1606.49L1199.05 1598.73C1188.95 1597.17 1178.73 1596.39 1168.5 1596.39H1118.27V1245.01Z" fill="#ECAAFF" stroke="#ECAAFF"/>
<path d="M1252.49 1246.03H1358.44V1652.97L1340.14 1640.33C1321.5 1627.45 1300.8 1617.83 1278.94 1611.86L1252.49 1604.65V1246.03Z" fill="#ECAAFF" stroke="#ECAAFF"/>
<path d="M1363.64 1247.05H1473.78V1785.84L1423.09 1718.78C1416.94 1710.64 1410.16 1702.97 1402.84 1695.86L1363.64 1657.78V1247.05Z" fill="#ECAAFF" stroke="#ECAAFF"/>
<path d="M795.001 1887.51L786.925 1966V1780.71H817.267L795.009 1887.46L795.004 1887.48L795.001 1887.51Z" fill="#ECAAFF" stroke="#ECAAFF"/>
<path d="M786.925 1513.88H894.975V1658.95L871.948 1687.8C858.727 1704.37 847.295 1722.28 837.844 1741.25L820.718 1775.63H786.925V1513.88Z" fill="#ECAAFF" stroke="#ECAAFF"/>
<path d="M789.57 1337.71H690.457V1251.12H894.976V1504.73H790.07L790.07 1338.21V1337.71H789.57Z" fill="#ECAAFF" stroke="#ECAAFF"/>
<path d="M59.2197 1511.84H404.247V1651.38H59.2197V1511.84Z" fill="#ECAAFF" stroke="#ECAAFF"/>
<path d="M59.2197 1656.46H404.247V1796H59.2197V1656.46Z" fill="#ECAAFF" stroke="#ECAAFF"/>
<path d="M59.2197 1803.11H404.247V1967.1H59.2197V1803.11Z" fill="#ECAAFF" stroke="#ECAAFF"/>
<path d="M59.2197 1976.24H785.925V2229.85H59.2197V1976.24Z" fill="#ECAAFF" stroke="#ECAAFF"/>
<path d="M562.632 2658.96L639.863 2471.43L729.126 2526.88L622.717 2710.28L562.632 2658.96Z" fill="#ECAAFF" stroke="#ECAAFF"/>
<path d="M213.465 2767.92L266.579 2635.4L424.353 2733.84L531.005 2845.55L461.227 2967.5L213.465 2767.92Z" fill="#ECAAFF" stroke="#ECAAFF"/>
<path d="M213.465 2767.92L266.579 2635.4L424.353 2733.84L531.005 2845.55L461.227 2967.5L213.465 2767.92Z" fill="#ECAAFF" stroke="#ECAAFF"/>
<path d="M785.925 2470.05L769.592 2524.46L511.037 2368.68L510.918 2368.61H510.779H393.905H393.584L393.45 2368.9L208.439 2773.49L59.2197 2692.26V2234.92H785.925V2470.05Z" fill="#ECAAFF" stroke="#ECAAFF"/>
<path d="M3200.73 2381.54L3248.84 2457.82L3261.57 2478.01C3269.75 2490.97 3279.39 2502.96 3290.29 2513.73L3307.87 2531.09L3332.54 2555.45L3332.42 2897.11L3203.85 2897.84L3200.73 2381.54ZM3265.48 2482.18C3272.34 2491.48 3279.62 2500.52 3287.29 2509.27C3279.25 2500.89 3271.95 2491.83 3265.48 2482.18Z" fill="#ECAAFF" stroke="#ECAAFF"/>
<path d="M3020.37 2324.54H3134.71V2868.59L3020.37 2738.35V2324.54Z" fill="#ECAAFF" stroke="#ECAAFF"/>
<path d="M2996.12 2697.13L2996.41 2696.81L2996.15 2696.48L2930.09 2612.97L2929.94 2612.78H2929.69H2902.93L2905.02 2324.54H3010.98V2739.31L2990.56 2754.18L2966.04 2729.37L2996.12 2697.13Z" fill="#ECAAFF" stroke="#ECAAFF"/>
<path d="M2793.88 2324.54H2895.64V2608.7H2793.88V2324.54Z" fill="#ECAAFF" stroke="#ECAAFF"/>
<path d="M2556.9 2324.54H2662.86V2631.11H2556.9V2324.54Z" fill="#ECAAFF" stroke="#ECAAFF"/>
<path d="M2445.76 2324.54H2551.71V2631.11H2445.76V2324.54Z" fill="#ECAAFF" stroke="#ECAAFF"/>
<path d="M2330.41 2324.54H2436.37V2631.11H2330.41V2324.54Z" fill="#ECAAFF" stroke="#ECAAFF"/>
<path d="M2090.69 2326.58H2188.26V2761.47H2090.69V2326.58Z" fill="#ECAAFF" stroke="#ECAAFF"/>
<path d="M1956.48 2324.54H2068.72V2759.43H1956.48V2324.54Z" fill="#ECAAFF" stroke="#ECAAFF"/>
<path d="M1841.13 2326.58H1947.09V2616.85H1841.13V2326.58Z" fill="#ECAAFF" stroke="#ECAAFF"/>
<path d="M1729.98 2324.54H1829.65V2614.81H1729.98V2324.54Z" fill="#ECAAFF" stroke="#ECAAFF"/>
<path d="M1390.25 2927.45H1523.47V3301.23H1390.25V2927.45Z" fill="#ECAAFF" stroke="#ECAAFF"/>
<path d="M1272.81 2927.45H1382.96V3301.23H1272.81V2927.45Z" fill="#ECAAFF" stroke="#ECAAFF"/>
<path d="M1040.09 2629.8L1053.31 2621.92L1158.56 2615.84V2926.45H1048.23L945.746 2717.22L959.934 2699.55C982.281 2671.71 1009.43 2648.09 1040.09 2629.8Z" fill="#ECAAFF" stroke="#ECAAFF"/>
<path d="M1161.66 2927.45H1267.62V3301.23H1161.66V2927.45Z" fill="#ECAAFF" stroke="#ECAAFF"/>
<path d="M969.675 3131.54L879.698 3206.39L790.67 3094.38L844.371 3050.92L879.193 3106.45L879.485 3106.91L879.931 3106.59L932.423 3068.22L969.675 3131.54Z" fill="#ECAAFF" stroke="#ECAAFF"/>
<path d="M786.95 3087.16L710.944 2976.11L760.823 2933.17L841.702 3048.03L786.95 3087.16Z" fill="#ECAAFF" stroke="#ECAAFF"/>
<path d="M795.332 3350.9L617.389 3079.28L708.968 2983.89L905.475 3265.1L795.332 3350.9Z" fill="#ECAAFF" stroke="#ECAAFF"/>
<path d="M793.265 3351.48L1090.4 3149.91L1090.4 3305.54L846.799 3462.93L793.265 3351.48Z" fill="#ECAAFF" stroke="#ECAAFF"/>
<path d="M804.224 2873.04L938.734 2725.18L991.658 2836.34L844.334 2939.63L804.224 2873.04Z" fill="#ECAAFF" stroke="#ECAAFF"/>
<path d="M1050.91 2931.52H1156.47V3305.3H1096.65V3006.39V3006.25L1096.58 3006.13L1050.91 2931.52Z" fill="#ECAAFF" stroke="#ECAAFF"/>
<path d="M1637.71 2324.54H1722.69V2616.85H1637.71V2324.54Z" fill="#ECAAFF" stroke="#ECAAFF"/>
<path d="M1390.25 2920.34V2538.18L1412.64 2522.87C1446.88 2499.44 1475.91 2469.17 1497.89 2433.98L1523.47 2393V2920.34H1390.25Z" fill="#ECAAFF" stroke="#ECAAFF"/>
<path d="M1272.81 2920.34V2594.32C1305.83 2586.24 1336.5 2570.53 1362.35 2548.45L1382.96 2530.85V2920.34H1272.81Z" fill="#ECAAFF" stroke="#ECAAFF"/>
<path d="M1163.76 2617.31C1192.03 2617.25 1220.01 2611.58 1246.09 2600.65L1267.62 2591.62V2920.34H1163.76V2617.31Z" fill="#ECAAFF" stroke="#ECAAFF"/>
<path d="M1530.76 2616.85V2387.35C1555.02 2355.34 1590.03 2333.16 1629.34 2324.89L1630.42 2324.66V2616.85H1530.76Z" fill="#ECAAFF" stroke="#ECAAFF"/>
<path d="M2338.8 2860.54H2444.76V3142.23C2414.76 3122.39 2379.59 3111.8 2343.61 3111.8H2338.8V2860.54Z" fill="#ECAAFF" stroke="#ECAAFF"/>
<path d="M2721.89 2631.11H2672.25V2324.54H2778.2V2610.74H2746.19H2746.01L2745.87 2610.86L2721.89 2631.11Z" fill="#ECAAFF" stroke="#ECAAFF"/>
<defs>
<filter id="filter0_d_259_303" x="1671.61" y="653.615" width="293.192" height="360.587" filterUnits="userSpaceOnUse" color-interpolation-filters="sRGB">
<feFlood flood-opacity="0" result="BackgroundImageFix"/>
<feColorMatrix in="SourceAlpha" type="matrix" values="0 0 0 0 0 0 0 0 0 0 0 0 0 0 0 0 0 0 127 0" result="hardAlpha"/>
<feOffset dy="4"/>
<feGaussianBlur stdDeviation="2"/>
<feComposite in2="hardAlpha" operator="out"/>
<feColorMatrix type="matrix" values="0 0 0 0 0 0 0 0 0 0 0 0 0 0 0 0 0 0 0.25 0"/>
<feBlend mode="normal" in2="BackgroundImageFix" result="effect1_dropShadow_259_303"/>
<feBlend mode="normal" in="SourceGraphic" in2="effect1_dropShadow_259_303" result="shape"/>
</filter>
</defs>
</svg>
