<svg width="680" height="680" viewBox="0 0 680 680" fill="none" xmlns="http://www.w3.org/2000/svg">
<g id="Group 323">
<g id="Group 8">
<path id="Vector" d="M680 0H0V680H680V0Z" fill="white" fill-opacity="0.7"/>
<path id="Vector 41" d="M258.826 464.555H319.781V549.984H258.826V464.555Z" stroke="black" stroke-width="0.5"/>
<path id="Vector 38" d="M492.529 450.219V461.692M492.529 470.173V477.406" stroke="black" stroke-width="0.5"/>
<path id="Vector 31" d="M237.092 345.457L311.287 267.262" stroke="black" stroke-width="0.5"/>
<path id="Vector 30" d="M251.831 358.053L326.027 280.605" stroke="black" stroke-width="0.5"/>
<path id="Vector_2" d="M557.766 464.883H636.821V629.324H557.766V464.883Z" fill="#DCDCDC"/>
<path id="Vector_3" d="M630.989 82.9297H540.389V167.084H630.989V82.9297Z" fill="#DCDCDC"/>
<path id="222034" d="M553.989 573.031H496.189V629.886H553.989V573.031Z" fill="#DCDCDC"/>
<path id="222033" d="M494.004 576.496H451.604V629.515H494.004V576.496Z" fill="#DCDCDC"/>
<path id="222032" d="M447.896 573.586H420.896V630.626H447.896V573.586Z" fill="#DCDCDC"/>
<path id="222031" d="M416.989 572.699H388.189V629.554H416.989V572.699Z" fill="#DCDCDC"/>
<path id="222030" d="M384.389 572.699H339.989V629.554H384.389V572.699Z" fill="#DCDCDC"/>
<path id="222055" d="M451.789 507.984H339.989V551.077H451.789V507.984Z" fill="#DCDCDC"/>
<path id="Vector_4" d="M528.989 396.309H469.189V439.401H528.989V396.309Z" fill="#DCDCDC"/>
<path id="Vector_5" d="M535.089 134.883H444.489V152.481H535.089V134.883Z" fill="#DCDCDC"/>
<path id="Vector 32" d="M444.439 152.652V164.126H436.695V174.477H442.815V186.949L467.048 186.542M541.368 186.542H529.876M467.048 152.652V164.126M467.048 174.477V186.542M467.048 186.542H508.392M482.161 152.652V167.119H498.524V152.652V186.542M529.876 152.652V186.542M529.876 186.542H508.392M508.392 186.542L509.142 152.652" stroke="black" stroke-width="0.5"/>
<path id="Vector 33" d="M443.44 122.59H467.547V134.687M483.66 122.59H502.022V134.687" stroke="black" stroke-width="0.5"/>
<path id="Vector_6" d="M191.539 531.527H139.539V543.259H191.539V531.527Z" fill="#DCDCDC"/>
<path id="Vector_7" d="M204.991 507.898H195.191V543.094H204.991V507.898Z" fill="#DCDCDC"/>
<path id="Vector 39" d="M139.788 532.402V508.707M139.788 466.055V495.612M139.788 495.612H192.499V508.707H185.13M139.788 495.612V508.707M172.889 508.707H162.521M151.28 508.707H139.788" stroke="black" stroke-width="0.5"/>
<path id="Vector 40" d="M192.25 508.831V531.28V495.113V479.523M192.25 465.93V479.523M192.25 479.523H184.631M184.631 465.93V495.113M163.021 495.113V466.927H159.149L151.03 475.034V495.113" stroke="black" stroke-width="0.5"/>
<path id="222029" d="M239.589 572.512H218.389V637.263H239.589V572.512Z" fill="#DCDCDC"/>
<path id="222028" d="M214.59 572.512H193.39V637.263H214.59V572.512Z" fill="#DCDCDC"/>
<path id="222027" d="M189.589 572.512H162.589V637.263H189.589V572.512Z" fill="#DCDCDC"/>
<path id="222026" d="M158.789 572.512H120.189V637.263H158.789V572.512Z" fill="#DCDCDC"/>
<path id="222024" d="M114.389 505.953H37.1895V531.447H114.389V505.953Z" fill="#DCDCDC"/>
<path id="222023" d="M114.389 474.594H37.1895V500.088H114.389V474.594Z" fill="#DCDCDC"/>
<path id="222022" d="M114.389 443.234H37.1895V468.729H114.389V443.234Z" fill="#DCDCDC"/>
<path id="222021" d="M114.389 411.875H37.1895V437.369H114.389V411.875Z" fill="#DCDCDC"/>
<path id="222020" d="M114.389 384.574H37.1895V406.008H114.389V384.574Z" fill="#DCDCDC"/>
<path id="222019" d="M114.389 349.379H37.1895V378.709H114.389V349.379Z" fill="#DCDCDC"/>
<path id="222046" d="M193.389 345.316H137.589V374.646H193.389V345.316Z" fill="#DCDCDC"/>
<path id="222018" d="M92.3584 294.328H36.3584V345.317H92.3584V294.328Z" fill="#DCDCDC"/>
<path id="222017" d="M87.709 237.703H35.709V288.466H87.709V237.703Z" fill="#DCDCDC"/>
<path id="222016" d="M86.4102 180.848H34.4102V231.836H86.4102V180.848Z" fill="#DCDCDC"/>
<path id="222015" d="M86.2588 143.598H34.2588V172.927H86.2588V143.598Z" fill="#DCDCDC"/>
<path id="222014" d="M85.9463 43.6719H33.9463V137.753H85.9463V43.6719Z" fill="#DCDCDC"/>
<path id="222013" d="M120.179 43.6328H89.374V112.281H120.179V43.6328Z" fill="#DCDCDC"/>
<path id="222012" d="M150.989 43.6719H123.989V112.258H150.989V43.6719Z" fill="#DCDCDC"/>
<path id="222011" d="M181.79 43.6719H154.79V112.258H181.79V43.6719Z" fill="#DCDCDC"/>
<path id="222010" d="M212.789 43.6719H185.789V112.258H212.789V43.6719Z" fill="#DCDCDC"/>
<path id="222009" d="M247.389 43.6719H216.589V112.258H247.389V43.6719Z" fill="#DCDCDC"/>
<path id="222008" d="M282.189 43.6719H251.189V112.258H282.189V43.6719Z" fill="#DCDCDC"/>
<path id="222007" d="M310.989 43.6719H285.989V112.258H310.989V43.6719Z" fill="#DCDCDC"/>
<path id="222006" d="M339.99 43.6719H314.79V112.258H339.99V43.6719Z" fill="#DCDCDC"/>
<path id="222005" d="M374.59 43.6719H343.79V112.258H374.59V43.6719Z" fill="#DCDCDC"/>
<path id="222004" d="M405.589 43.6719H378.589V112.258H405.589V43.6719Z" fill="#DCDCDC"/>
<path id="222003" d="M436.389 43.6719H409.389V112.258H436.389V43.6719Z" fill="#DCDCDC"/>
<path id="222038" d="M489.468 313.205V285.68H429.668V313.205H489.468Z" fill="#DCDCDC"/>
<path id="Vector 34" d="M445.214 280.71V267.173H461.319V280.71V259.127M481.419 220.176H503.392V193.996H461.319V211.109M481.419 220.176V211.109H461.319M481.419 220.176H461.319M481.419 220.176V259.127M461.319 211.109V220.176M461.319 220.176V259.127M461.319 259.127H475.177M503.392 259.127H494.528M475.177 259.127V280.71M475.177 259.127H494.528M494.528 259.127V269.919M494.528 280.71V269.919M494.528 269.919H503.392" stroke="black" stroke-width="0.5"/>
<path id="Vector 35" d="M503.146 203.532L509.766 196.922H519.384V203.532M519.384 221.865V203.532M519.384 203.532L526.004 196.922H540.868V219.744" stroke="black" stroke-width="0.5"/>
<path id="Vector 36" d="M535.073 438.387V450.109M535.073 450.109L507.985 438.387M535.073 450.109V477.17M552.57 546.131H535.073M507.985 546.131H463.401V477.17M507.985 546.131H528.333M507.985 546.131V516.451M507.985 438.387H463.401V477.17M507.985 438.387V477.17M507.985 477.17H463.401M507.985 477.17H535.073M507.985 477.17V516.451M535.073 477.17V516.451M535.073 546.131V528.423M535.073 546.131H528.333M535.073 528.423H528.333M535.073 528.423V516.451M528.333 528.423V546.131M528.333 528.423V516.451M528.333 516.451H507.985M528.333 516.451H535.073" stroke="black" stroke-width="0.5"/>
<path id="Vector 37" d="M535.747 489.877H509.641V510.205H524.255M535.122 510.205H524.255M524.255 510.205V516.565M509.641 516.565H498.15M466.548 516.565H491.779M491.779 516.565V510.205M491.779 516.565H498.15M492.404 500.228V493.119M492.404 482.643V477.031M466.548 531.905H498.15V516.565" stroke="black" stroke-width="0.5"/>
<path id="222040" d="M384.346 227.81V129.887H349.55V227.81H384.346Z" fill="#DCDCDC"/>
<path id="222041" d="M347.231 227.81V129.887H316.425V227.81H347.231Z" fill="#DCDCDC"/>
<path id="222042" d="M312.99 229.803V131.887H285.99V229.803H312.99Z" fill="#DCDCDC"/>
<path id="222043" d="M280.189 229.803V131.887H253.189V229.803H280.189Z" fill="#DCDCDC"/>
<path id="222044" d="M249.389 229.803V131.887H222.389V229.803H249.389Z" fill="#DCDCDC"/>
<path id="222045" d="M216.589 131.887V229.803H199.189V167.136H203.056V131.887H216.589Z" fill="#DCDCDC"/>
<path id="222039" d="M386.189 129.883C405.358 120.364 426.932 136.276 426.365 159.514L424.701 227.773H386.189V129.883Z" fill="#DCDCDC"/>
<path id="Vector_8" d="M528.989 221.906V339.451H492.189V280.678H502.842V221.906H528.989Z" fill="#DCDCDC"/>
<path id="222037" d="M488.39 345.319V318.02H428.59V345.319H488.39Z" fill="#DCDCDC"/>
<path id="222002" d="M480.789 43.6719H440.189V112.258H480.789V43.6719Z" fill="#DCDCDC"/>
<path id="222001" d="M484.589 43.6719H515.404L527.741 61.9298C533.456 70.3882 536.291 80.8065 535.745 91.3501L534.664 112.258H484.589V43.6719Z" fill="#DCDCDC"/>
<path id="222049" d="M137.589 435.867H230.929L239.589 465.424H137.589V435.867Z" fill="#DCDCDC"/>
<path id="222047" d="M193.389 380.742H137.589V402.175H193.389V380.742Z" fill="#DCDCDC"/>
<path id="222050" d="M238.59 466.98H196.19V492.475H238.59V466.98Z" fill="#DCDCDC"/>
<path id="222051" d="M192.999 493.863H240.199L237.31 547.785H208.411V505.627H192.999V493.863Z" fill="#DCDCDC"/>
<path id="222048" d="M137.589 408.039H201.123L225.189 431.503H137.589V408.039Z" fill="#DCDCDC"/>
<path id="222025" d="M37.1895 535.285H116.389V637.263H49.7455L37.1895 626.477V535.285Z" fill="#DCDCDC"/>
<path id="222052" d="M339.989 468.805L343.551 464.896C348.799 459.139 355.369 455.078 362.551 453.152L384.389 447.297V505.957H339.989V468.805Z" fill="#DCDCDC"/>
<path id="222054" d="M451.789 392.473H418.989V502.121H451.789V392.473Z" fill="#DCDCDC"/>
<path id="222053" d="M387.581 441.343L393.518 436.735C400.323 431.451 405.496 423.978 408.335 415.332L414.581 396.309V505.958H387.581V474.63V441.343Z" fill="#DCDCDC"/>
<path id="Vector_9" d="M533.79 366.977H636.863L638.79 458.048L554.019 459.026V437.484H533.79V366.977Z" fill="#DCDCDC"/>
<path id="Vector_10" d="M636.789 272.898H534.589V361.113H636.789V272.898Z" fill="#DCDCDC"/>
<path id="Vector_11" d="M552.62 177.41H631.996V266.996H549.092L544.683 263.339V223.117H552.62V177.41Z" fill="#DCDCDC"/>
<path id="Vector 22" d="M148.032 269.383H123.55V307.545H142.491V304.087" stroke="black" stroke-width="0.5"/>
<path id="Vector 24" d="M143.785 168.235V139.925L135.042 131.195H128.796V139.925" stroke="black" stroke-width="0.5"/>
<path id="Vector 28" d="M237.092 345.455L218.23 326.624L219.395 324.646C237.43 294.011 264.331 269.566 296.548 254.539V254.539L311.162 267.26L317.283 261.897L330.773 275.74L326.276 280.604L331.522 285.842L352.132 263.269V263.269C374.913 283.406 391.63 309.495 400.405 338.606L402.47 345.455H386.981M386.981 345.455V313.529H360.876V345.455M386.981 345.455V407.064H375.115V391.35H360.876V345.455M386.981 345.455H360.876" stroke="black" stroke-width="0.5"/>
<path id="Vector 29" d="M237.342 345.582L230.597 352.317L243.962 365.661L251.831 357.804L259.7 365.661L232.72 392.599L250.547 408.336C265.548 421.578 284.529 429.452 304.499 430.717V430.717C322.904 431.883 341.223 427.375 356.984 417.802L374.866 406.941" stroke="black" stroke-width="0.5"/>
</g>
<path id="Vector 21" d="M203.503 130.445H194.632M199.88 234.455L200.596 288.58M200.596 288.58L200.879 310.03H175.141M200.596 288.58H192.383M183.138 288.58H175.141M175.141 288.58V310.03M175.141 288.58H161.398M175.141 310.03H161.398V288.58M161.398 288.58V244.058H154.151V167.984H146.155V196.418H141.282V228.219H148.404V321.753H102.55V130.445H194.632M194.632 130.445V148.404M194.632 166.362V148.404M194.632 148.404H202.878" stroke="black" stroke-width="0.5"/>
<path id="Vector 27" d="M200.627 269.405H161.656M200.627 254.439H161.656M173.397 167.635V130.719" stroke="black" stroke-width="0.5"/>
<path id="Vector 23" d="M146.717 258.013H118.28V239.062H112.293V196.547M112.293 196.547H140.606M112.293 196.547V167.871H145.844" stroke="black" stroke-width="0.5"/>
<path id="Vector 25" d="M128.809 151.195V157.158M128.809 167.593V157.158M128.809 157.158H102.736" stroke="black" stroke-width="0.5"/>
<path id="Vector 26" d="M143.933 139.799L153.307 130.445H160.43V137.304M160.43 144.288V167.734H153.307H178.802V185.319M178.802 185.319H154.306M178.802 185.319V211.009M178.802 211.009H163.93M178.802 211.009H180.302M163.93 211.009L154.306 201.406M163.93 211.009V221.236M199.049 211.009H180.302M180.302 211.009V221.236H163.93M163.93 221.236H199.049" stroke="black" stroke-width="0.5"/>
<path id="Vector 42" d="M140.129 530.012H193.76" stroke="black" stroke-width="0.5"/>
<path id="Vector_12" d="M315.026 265.942L230.106 347.992L245.216 365.365L330.135 283.314L315.026 265.942Z" fill="#ECAAFF"/>
<path id="Vector_13" d="M292.123 310.402L283.626 308.628C283.287 308.557 282.965 308.6 282.74 308.748L268.782 317.861L263.244 316.705C261.912 316.427 260.834 317.058 260.855 318.104L260.953 322.867C260.974 323.912 262.088 325.002 263.419 325.28L271.916 327.054C272.255 327.124 272.577 327.082 272.802 326.934L286.76 317.821L292.298 318.977C293.63 319.255 294.708 318.623 294.687 317.578L294.589 312.814C294.568 311.769 293.454 310.68 292.123 310.402ZM292.259 317.071L286.19 315.804C285.851 315.733 285.529 315.776 285.304 315.924L271.347 325.038L263.38 323.374L263.283 318.61L269.352 319.878C269.691 319.948 270.012 319.906 270.238 319.758L284.196 310.644L292.162 312.308L292.259 317.071Z" fill="black"/>
<path id="Vector_14" d="M528.422 112.306L446.523 115.75L446.333 131.709L528.233 128.265L528.422 112.306Z" fill="#ECAAFF"/>
<path id="Vector_15" d="M496.021 124.817L492.436 119.986C492.293 119.794 492.107 119.668 491.922 119.64L480.479 117.94L478.142 114.792C477.581 114.035 476.73 113.866 476.258 114.417L474.11 116.931C473.638 117.483 473.713 118.56 474.274 119.317L477.86 124.147C478.002 124.34 478.189 124.466 478.374 124.493L489.817 126.194L492.153 129.342C492.715 130.099 493.566 130.268 494.037 129.716L496.186 127.202C496.658 126.651 496.583 125.574 496.021 124.817ZM493.013 128.336L490.452 124.886C490.309 124.693 490.123 124.567 489.938 124.54L478.495 122.84L475.134 118.311L477.283 115.797L479.844 119.248C479.987 119.44 480.173 119.566 480.358 119.593L491.801 121.294L495.162 125.822L493.013 128.336Z" fill="black"/>
<g id="Group">
<path id="Vector_16" d="M550.528 193.992H522.692V221.785H550.528V193.992Z" fill="#77CFFF"/>
</g>
<g id="Group_2">
<g id="Group_3">
<path id="Vector_17" d="M530.389 201.063C530.459 201.063 530.528 201.063 530.598 201.063C530.743 201.063 530.889 201.063 531.034 201.064C531.219 201.066 531.404 201.066 531.589 201.065C531.733 201.065 531.876 201.065 532.02 201.066C532.088 201.066 532.157 201.066 532.225 201.066C532.764 201.065 533.22 201.103 533.655 201.496C533.679 201.518 533.704 201.54 533.729 201.562C534.326 202.164 534.53 203.22 534.794 204.04C534.83 204.151 534.865 204.261 534.901 204.371C534.925 204.448 534.95 204.525 534.975 204.602C535.271 205.52 535.584 206.431 535.897 207.342C535.968 207.547 536.038 207.752 536.108 207.957C536.161 208.11 536.214 208.264 536.267 208.417C536.301 208.515 536.335 208.613 536.368 208.711C536.384 208.755 536.4 208.799 536.416 208.845C536.516 209.14 536.571 209.383 536.491 209.695C536.371 209.968 536.253 210.137 535.998 210.251C535.757 210.337 535.534 210.291 535.311 210.16C535.081 209.98 534.997 209.797 534.895 209.507C534.88 209.465 534.864 209.423 534.849 209.38C534.8 209.245 534.752 209.11 534.705 208.975C534.683 208.909 534.683 208.909 534.659 208.843C534.549 208.526 534.443 208.207 534.337 207.889C534.303 207.79 534.27 207.691 534.237 207.592C534.137 207.293 534.037 206.994 533.938 206.695C533.922 206.647 533.906 206.6 533.89 206.552C533.703 205.991 533.517 205.431 533.332 204.87C533.496 205.878 533.663 206.884 533.837 207.889C533.852 207.977 533.867 208.064 533.882 208.152C533.943 208.506 534.004 208.86 534.066 209.213C534.105 209.435 534.143 209.657 534.181 209.878C534.195 209.961 534.21 210.044 534.224 210.127C534.244 210.242 534.264 210.356 534.284 210.471C534.293 210.521 534.293 210.521 534.302 210.572C534.384 211.06 534.384 211.06 534.289 211.292C534.22 211.391 534.22 211.391 534.099 211.483C534.015 211.493 534.015 211.493 533.92 211.491C533.868 211.491 533.868 211.491 533.816 211.491C533.78 211.49 533.745 211.489 533.708 211.488C533.672 211.488 533.636 211.487 533.599 211.487C533.51 211.486 533.421 211.484 533.332 211.483C533.332 211.516 533.332 211.549 533.332 211.583C533.335 212.387 533.337 213.192 533.338 213.997C533.339 214.386 533.339 214.775 533.341 215.164C533.342 215.503 533.343 215.842 533.343 216.182C533.343 216.361 533.344 216.541 533.344 216.72C533.345 216.889 533.346 217.058 533.345 217.228C533.345 217.319 533.346 217.41 533.347 217.502C533.345 217.96 533.285 218.27 533.001 218.61C532.783 218.84 532.53 218.877 532.241 218.87C531.991 218.821 531.811 218.709 531.635 218.505C531.477 218.251 531.428 218.04 531.428 217.734C531.428 217.651 531.428 217.651 531.428 217.567C531.428 217.506 531.428 217.445 531.428 217.384C531.428 217.32 531.428 217.256 531.428 217.191C531.428 217.017 531.428 216.843 531.429 216.668C531.429 216.486 531.429 216.304 531.429 216.121C531.429 215.776 531.429 215.431 531.43 215.086C531.43 214.693 531.431 214.3 531.431 213.907C531.431 213.099 531.432 212.291 531.433 211.483H531.069C531.069 211.516 531.069 211.549 531.07 211.584C531.074 212.398 531.077 213.213 531.08 214.027C531.081 214.421 531.082 214.815 531.084 215.209C531.086 215.553 531.088 215.896 531.088 216.24C531.088 216.421 531.089 216.603 531.091 216.785C531.092 216.956 531.092 217.127 531.092 217.299C531.092 217.391 531.093 217.483 531.094 217.576C531.092 217.932 531.054 218.211 530.867 218.505C530.661 218.732 530.45 218.865 530.156 218.873C529.856 218.858 529.645 218.767 529.432 218.527C529.207 218.237 529.165 217.97 529.165 217.591C529.165 217.51 529.165 217.51 529.165 217.428C529.165 217.339 529.165 217.339 529.166 217.25C529.166 217.187 529.166 217.124 529.166 217.061C529.166 216.89 529.166 216.72 529.166 216.55C529.166 216.372 529.166 216.193 529.166 216.015C529.167 215.678 529.167 215.341 529.167 215.004C529.168 214.62 529.168 214.236 529.168 213.852C529.169 213.062 529.169 212.272 529.17 211.483C529.096 211.487 529.096 211.487 529.02 211.491C528.954 211.493 528.888 211.495 528.822 211.497C528.773 211.5 528.773 211.5 528.723 211.503C528.561 211.506 528.436 211.5 528.301 211.393C528.166 211.207 528.151 211.08 528.16 210.844C528.18 210.646 528.213 210.453 528.248 210.258C528.263 210.171 528.263 210.171 528.278 210.084C528.305 209.927 528.332 209.771 528.36 209.615C528.389 209.451 528.417 209.287 528.445 209.123C528.499 208.814 528.553 208.504 528.607 208.195C528.669 207.842 528.73 207.489 528.791 207.137C528.917 206.412 529.043 205.687 529.17 204.962C528.824 206.025 528.824 206.025 528.485 207.092C528.445 207.219 528.404 207.347 528.364 207.474C528.303 207.668 528.242 207.862 528.181 208.056C528.131 208.217 528.08 208.378 528.029 208.539C528.01 208.6 527.991 208.66 527.972 208.721C527.946 208.804 527.92 208.888 527.893 208.971C527.878 209.018 527.864 209.065 527.848 209.114C527.742 209.391 527.604 209.572 527.393 209.75C527.17 209.833 526.909 209.849 526.688 209.752C526.488 209.617 526.336 209.457 526.261 209.203C526.191 208.682 526.378 208.223 526.537 207.746C526.566 207.656 526.595 207.567 526.624 207.477C526.686 207.285 526.748 207.094 526.81 206.903C526.96 206.445 527.105 205.984 527.25 205.524C527.331 205.269 527.412 205.014 527.493 204.759C527.594 204.442 527.695 204.125 527.794 203.807C527.841 203.657 527.888 203.506 527.936 203.355C527.957 203.288 527.978 203.22 527.999 203.153C528.217 202.443 528.506 201.637 529.13 201.268C529.55 201.072 529.943 201.059 530.389 201.063Z" fill="black"/>
</g>
<g id="Group_4">
<path id="Vector_18" d="M541.235 201.076C541.298 201.075 541.298 201.075 541.363 201.075C541.502 201.075 541.642 201.075 541.781 201.075C541.878 201.074 541.975 201.074 542.073 201.074C542.276 201.074 542.48 201.074 542.684 201.074C542.944 201.074 543.205 201.073 543.465 201.072C543.666 201.072 543.867 201.072 544.068 201.072C544.164 201.072 544.259 201.071 544.355 201.071C544.49 201.071 544.625 201.071 544.759 201.071C544.798 201.071 544.837 201.071 544.878 201.07C545.456 201.073 545.983 201.228 546.419 201.678C546.885 202.253 546.959 202.924 546.959 203.671C546.959 203.738 546.96 203.805 546.96 203.872C546.961 204.052 546.961 204.233 546.961 204.413C546.962 204.526 546.962 204.639 546.962 204.751C546.963 205.146 546.964 205.54 546.964 205.934C546.964 206.301 546.965 206.668 546.967 207.034C546.968 207.35 546.969 207.666 546.969 207.982C546.969 208.17 546.969 208.358 546.97 208.546C546.971 208.723 546.972 208.9 546.971 209.077C546.971 209.142 546.971 209.206 546.972 209.271C546.975 209.633 546.972 209.927 546.745 210.202C546.496 210.421 546.285 210.467 545.977 210.43C545.764 210.355 545.608 210.239 545.492 210.02C545.351 209.675 545.353 209.334 545.353 208.96C545.353 208.895 545.353 208.831 545.352 208.766C545.351 208.591 545.351 208.417 545.35 208.242C545.35 208.059 545.349 207.876 545.348 207.693C545.346 207.347 545.345 207.001 545.344 206.655C545.343 206.261 545.341 205.867 545.339 205.473C545.336 204.663 545.333 203.853 545.331 203.043C545.231 203.066 545.231 203.066 545.129 203.089C545.128 203.136 545.128 203.136 545.128 203.184C545.126 205.046 545.123 206.907 545.119 208.769C545.119 208.992 545.118 209.216 545.118 209.439C545.118 209.484 545.118 209.528 545.118 209.574C545.116 210.295 545.115 211.015 545.114 211.736C545.113 212.475 545.112 213.215 545.11 213.954C545.109 214.41 545.109 214.867 545.108 215.323C545.108 215.636 545.107 215.948 545.106 216.261C545.106 216.442 545.106 216.622 545.106 216.803C545.106 216.968 545.105 217.134 545.105 217.299C545.104 217.387 545.105 217.475 545.105 217.563C545.102 217.903 545.082 218.179 544.905 218.466C544.671 218.723 544.466 218.824 544.139 218.841C543.865 218.831 543.689 218.729 543.482 218.533C543.223 218.184 543.183 217.872 543.184 217.419C543.184 217.384 543.184 217.35 543.184 217.315C543.184 217.201 543.184 217.088 543.185 216.974C543.185 216.892 543.185 216.81 543.185 216.729C543.185 216.507 543.185 216.285 543.185 216.064C543.185 215.832 543.185 215.6 543.185 215.369C543.186 214.93 543.186 214.491 543.186 214.053C543.187 213.553 543.187 213.054 543.187 212.554C543.188 211.527 543.188 210.5 543.189 209.473H542.866C542.866 209.515 542.866 209.558 542.866 209.602C542.868 210.64 542.869 211.678 542.87 212.716C542.871 213.218 542.871 213.719 542.872 214.221C542.873 214.659 542.873 215.096 542.874 215.534C542.874 215.766 542.874 215.997 542.875 216.229C542.875 216.447 542.875 216.665 542.875 216.883C542.875 216.963 542.875 217.043 542.876 217.123C542.879 218.155 542.879 218.155 542.619 218.511C542.415 218.73 542.189 218.833 541.909 218.844C541.586 218.824 541.344 218.677 541.129 218.41C540.943 218.087 540.944 217.758 540.946 217.383C540.946 217.321 540.946 217.259 540.945 217.197C540.944 217.027 540.945 216.858 540.945 216.688C540.945 216.505 540.944 216.321 540.944 216.138C540.943 215.821 540.942 215.504 540.943 215.187C540.943 214.728 540.942 214.27 540.941 213.811C540.939 213.067 540.938 212.323 540.938 211.579C540.937 210.856 540.936 210.133 540.935 209.411C540.935 209.344 540.935 209.344 540.935 209.276C540.934 209.052 540.934 208.829 540.934 208.605C540.93 206.751 540.928 204.897 540.927 203.043C540.827 203.059 540.827 203.059 540.725 203.089C540.671 203.209 540.679 203.299 540.679 203.434C540.679 203.488 540.678 203.542 540.678 203.598C540.678 203.687 540.678 203.687 540.678 203.778C540.678 203.841 540.678 203.904 540.677 203.968C540.677 204.104 540.676 204.24 540.676 204.376C540.676 204.592 540.675 204.807 540.674 205.023C540.672 205.636 540.669 206.249 540.668 206.863C540.667 207.201 540.666 207.54 540.665 207.878C540.664 208.057 540.663 208.236 540.663 208.415C540.663 208.584 540.662 208.753 540.661 208.921C540.661 209.012 540.661 209.103 540.661 209.194C540.658 209.538 540.65 209.88 540.456 210.162C540.186 210.395 539.977 210.47 539.634 210.43C539.402 210.337 539.248 210.178 539.124 209.939C539.064 209.782 539.053 209.678 539.053 209.508C539.053 209.452 539.053 209.396 539.052 209.339C539.053 209.277 539.053 209.216 539.053 209.154C539.053 209.089 539.053 209.024 539.053 208.959C539.052 208.782 539.053 208.605 539.053 208.429C539.054 208.243 539.054 208.058 539.053 207.872C539.053 207.561 539.054 207.249 539.055 206.937C539.055 206.578 539.056 206.219 539.055 205.86C539.055 205.513 539.055 205.167 539.056 204.82C539.056 204.673 539.056 204.526 539.056 204.38C539.056 204.206 539.056 204.032 539.057 203.859C539.057 203.795 539.057 203.732 539.057 203.669C539.056 202.872 539.154 202.232 539.657 201.638C540.115 201.171 540.64 201.075 541.235 201.076Z" fill="black"/>
</g>
<g id="Group_5">
<path id="Vector_19" d="M537.985 197.712C538.178 197.862 538.338 198.037 538.382 198.302C538.386 198.408 538.387 198.514 538.387 198.62C538.387 198.652 538.387 198.684 538.387 198.718C538.388 198.826 538.388 198.934 538.388 199.042C538.388 199.12 538.388 199.199 538.388 199.277C538.388 199.492 538.388 199.707 538.388 199.923C538.388 200.155 538.389 200.387 538.389 200.619C538.39 201.126 538.39 201.633 538.39 202.141C538.39 202.458 538.39 202.774 538.39 203.091C538.391 203.968 538.391 204.844 538.391 205.721C538.391 205.805 538.391 205.805 538.392 205.891C538.392 205.975 538.392 205.975 538.392 206.061C538.392 206.175 538.392 206.289 538.392 206.403C538.392 206.46 538.392 206.516 538.392 206.575C538.392 207.491 538.392 208.408 538.393 209.324C538.394 210.265 538.395 211.206 538.395 212.146C538.395 212.674 538.395 213.203 538.396 213.731C538.397 214.181 538.397 214.63 538.396 215.08C538.396 215.31 538.396 215.539 538.397 215.769C538.397 215.979 538.397 216.189 538.397 216.399C538.397 216.475 538.397 216.551 538.397 216.627C538.398 216.731 538.397 216.834 538.397 216.937C538.397 216.995 538.397 217.052 538.397 217.111C538.369 217.413 538.265 217.62 538.059 217.82C537.868 217.951 537.67 217.938 537.453 217.911C537.237 217.832 537.113 217.678 537.008 217.455C536.965 217.27 536.963 217.095 536.963 216.905C536.962 216.857 536.962 216.857 536.962 216.808C536.962 216.7 536.962 216.593 536.962 216.485C536.962 216.407 536.962 216.329 536.962 216.252C536.961 216.038 536.961 215.824 536.961 215.61C536.961 215.379 536.961 215.148 536.961 214.917C536.96 214.413 536.96 213.908 536.96 213.403C536.96 213.088 536.959 212.773 536.959 212.458C536.959 211.586 536.958 210.714 536.958 209.842C536.958 209.787 536.958 209.731 536.958 209.673C536.958 209.617 536.958 209.561 536.958 209.504C536.958 209.39 536.958 209.277 536.958 209.164C536.958 209.107 536.958 209.051 536.958 208.993C536.958 208.082 536.957 207.17 536.956 206.259C536.955 205.323 536.955 204.388 536.955 203.452C536.955 202.927 536.955 202.401 536.954 201.876C536.953 201.428 536.953 200.981 536.953 200.534C536.953 200.306 536.953 200.077 536.953 199.849C536.952 199.64 536.952 199.431 536.953 199.222C536.953 199.147 536.953 199.071 536.952 198.995C536.949 198.173 536.949 198.173 537.158 197.889C537.182 197.869 537.206 197.848 537.23 197.826C537.266 197.794 537.266 197.794 537.302 197.761C537.506 197.61 537.763 197.629 537.985 197.712Z" fill="black"/>
</g>
<g id="Group_6">
<path id="Vector_20" d="M532.282 197.298C532.629 197.654 532.866 198.103 532.891 198.641C532.878 199.208 532.719 199.663 532.376 200.078C531.971 200.481 531.511 200.576 530.99 200.545C530.808 200.525 530.661 200.455 530.504 200.354C530.473 200.333 530.441 200.313 530.408 200.292C530.014 200.017 529.764 199.633 529.656 199.123C529.601 198.587 529.64 198.096 529.926 197.648C530.544 196.812 531.498 196.655 532.282 197.298Z" fill="black"/>
</g>
<g id="Group_7">
<path id="Vector_21" d="M543.931 197.207C543.966 197.237 544.001 197.267 544.037 197.298C544.07 197.324 544.103 197.349 544.138 197.375C544.459 197.711 544.643 198.171 544.662 198.663C544.669 199.269 544.494 199.674 544.134 200.113C543.85 200.42 543.461 200.569 543.073 200.588C542.597 200.566 542.252 200.413 541.903 200.054C541.567 199.632 541.417 199.239 541.411 198.666C541.447 198.124 541.655 197.659 542.017 197.298C542.618 196.842 543.302 196.787 543.931 197.207Z" fill="black"/>
</g>
</g>
<g id="Group_8">
<path id="Vector_22" d="M520.372 193.906H492.536V221.699H520.372V193.906Z" fill="#77CFFF"/>
</g>
<g id="Group_9">
<g id="Group_10">
<path id="Vector_23" d="M500.233 200.985C500.303 200.985 500.373 200.985 500.442 200.985C500.588 200.985 500.733 200.985 500.878 200.986C501.063 200.988 501.248 200.987 501.433 200.987C501.577 200.986 501.721 200.987 501.864 200.987C501.933 200.988 502.001 200.988 502.069 200.987C502.608 200.987 503.064 201.025 503.499 201.418C503.524 201.44 503.548 201.462 503.573 201.484C504.17 202.086 504.374 203.141 504.638 203.962C504.674 204.072 504.709 204.183 504.745 204.293C504.77 204.37 504.794 204.447 504.819 204.523C505.115 205.442 505.428 206.353 505.741 207.264C505.812 207.468 505.882 207.674 505.952 207.879C506.005 208.032 506.058 208.185 506.112 208.339C506.145 208.437 506.179 208.535 506.213 208.633C506.228 208.677 506.244 208.721 506.26 208.767C506.36 209.062 506.415 209.304 506.335 209.617C506.215 209.89 506.097 210.058 505.842 210.173C505.601 210.259 505.378 210.213 505.156 210.082C504.925 209.902 504.841 209.719 504.739 209.429C504.724 209.387 504.709 209.345 504.693 209.302C504.644 209.167 504.597 209.032 504.55 208.896C504.527 208.831 504.527 208.831 504.504 208.765C504.394 208.448 504.287 208.129 504.181 207.811C504.148 207.711 504.115 207.612 504.081 207.513C503.981 207.214 503.882 206.915 503.782 206.616C503.766 206.569 503.75 206.522 503.734 206.474C503.548 205.913 503.362 205.353 503.176 204.792C503.34 205.8 503.507 206.806 503.681 207.811C503.696 207.899 503.711 207.986 503.726 208.074C503.787 208.428 503.849 208.781 503.91 209.135C503.949 209.357 503.987 209.578 504.025 209.8C504.04 209.883 504.054 209.966 504.069 210.049C504.089 210.164 504.108 210.278 504.128 210.393C504.137 210.443 504.137 210.443 504.146 210.493C504.229 210.982 504.229 210.982 504.133 211.214C504.065 211.313 504.065 211.313 503.944 211.404C503.859 211.415 503.859 211.415 503.764 211.413C503.712 211.413 503.712 211.413 503.66 211.412C503.624 211.412 503.589 211.411 503.552 211.41C503.516 211.41 503.48 211.409 503.443 211.409C503.354 211.408 503.265 211.406 503.176 211.404C503.176 211.438 503.176 211.471 503.176 211.505C503.179 212.309 503.181 213.114 503.182 213.918C503.183 214.308 503.184 214.697 503.185 215.086C503.186 215.425 503.187 215.764 503.187 216.103C503.187 216.283 503.188 216.462 503.189 216.642C503.19 216.811 503.19 216.98 503.19 217.15C503.19 217.241 503.19 217.332 503.191 217.423C503.19 217.882 503.129 218.192 502.845 218.532C502.628 218.762 502.374 218.799 502.085 218.792C501.835 218.742 501.655 218.631 501.479 218.427C501.321 218.173 501.272 217.962 501.272 217.656C501.272 217.573 501.272 217.573 501.272 217.489C501.272 217.428 501.272 217.367 501.272 217.306C501.272 217.242 501.272 217.178 501.272 217.113C501.272 216.939 501.273 216.765 501.273 216.59C501.273 216.408 501.273 216.226 501.273 216.043C501.273 215.698 501.274 215.353 501.274 215.008C501.275 214.615 501.275 214.222 501.275 213.829C501.275 213.021 501.276 212.213 501.277 211.404H500.913C500.914 211.438 500.914 211.471 500.914 211.506C500.918 212.32 500.922 213.135 500.924 213.949C500.925 214.343 500.926 214.737 500.929 215.131C500.931 215.475 500.932 215.818 500.932 216.161C500.933 216.343 500.933 216.525 500.935 216.707C500.936 216.878 500.937 217.049 500.936 217.221C500.936 217.313 500.937 217.405 500.938 217.498C500.937 217.854 500.898 218.133 500.711 218.427C500.506 218.654 500.294 218.787 500 218.795C499.7 218.78 499.49 218.689 499.276 218.449C499.052 218.159 499.009 217.892 499.01 217.513C499.01 217.432 499.01 217.432 499.009 217.349C499.01 217.261 499.01 217.261 499.01 217.171C499.01 217.109 499.01 217.046 499.01 216.983C499.01 216.812 499.01 216.642 499.01 216.472C499.011 216.294 499.011 216.115 499.011 215.937C499.011 215.6 499.011 215.263 499.012 214.925C499.012 214.542 499.012 214.158 499.012 213.774C499.013 212.984 499.014 212.194 499.014 211.404C498.94 211.408 498.94 211.408 498.864 211.412C498.798 211.415 498.732 211.417 498.666 211.419C498.617 211.422 498.617 211.422 498.567 211.425C498.405 211.428 498.28 211.422 498.145 211.315C498.011 211.129 497.995 211.002 498.004 210.766C498.025 210.568 498.058 210.375 498.093 210.179C498.107 210.093 498.107 210.093 498.122 210.005C498.149 209.849 498.177 209.693 498.204 209.537C498.233 209.373 498.261 209.209 498.29 209.045C498.343 208.736 498.397 208.426 498.451 208.117C498.513 207.764 498.574 207.411 498.635 207.058C498.761 206.333 498.888 205.608 499.014 204.884C498.668 205.947 498.668 205.947 498.329 207.014C498.289 207.141 498.249 207.269 498.209 207.396C498.147 207.59 498.086 207.784 498.026 207.978C497.975 208.139 497.924 208.3 497.873 208.461C497.854 208.522 497.835 208.582 497.816 208.642C497.79 208.726 497.764 208.809 497.737 208.893C497.723 208.94 497.708 208.987 497.693 209.036C497.586 209.313 497.448 209.494 497.237 209.672C497.015 209.755 496.753 209.771 496.533 209.674C496.333 209.539 496.181 209.379 496.106 209.124C496.035 208.604 496.222 208.145 496.381 207.668C496.41 207.578 496.439 207.489 496.468 207.399C496.53 207.207 496.592 207.016 496.654 206.825C496.804 206.366 496.949 205.906 497.094 205.446C497.175 205.191 497.256 204.936 497.338 204.681C497.439 204.364 497.539 204.047 497.638 203.729C497.685 203.579 497.733 203.428 497.78 203.277C497.801 203.21 497.822 203.142 497.843 203.075C498.062 202.365 498.35 201.559 498.974 201.19C499.394 200.994 499.787 200.981 500.233 200.985Z" fill="black"/>
</g>
<g id="Group_11">
<path id="Vector_24" d="M511.079 200.997C511.142 200.997 511.142 200.997 511.207 200.997C511.346 200.997 511.485 200.996 511.625 200.996C511.722 200.996 511.819 200.996 511.916 200.996C512.12 200.996 512.324 200.996 512.528 200.996C512.788 200.996 513.048 200.995 513.309 200.994C513.51 200.994 513.71 200.994 513.911 200.994C514.007 200.994 514.103 200.993 514.199 200.993C514.334 200.993 514.468 200.993 514.603 200.993C514.642 200.993 514.681 200.992 514.721 200.992C515.3 200.995 515.826 201.15 516.263 201.6C516.729 202.175 516.803 202.846 516.803 203.593C516.803 203.66 516.803 203.727 516.804 203.794C516.805 203.974 516.805 204.154 516.805 204.335C516.805 204.448 516.806 204.56 516.806 204.673C516.807 205.068 516.807 205.462 516.808 205.856C516.808 206.223 516.809 206.59 516.811 206.956C516.812 207.272 516.813 207.588 516.813 207.903C516.813 208.092 516.813 208.28 516.814 208.468C516.815 208.645 516.815 208.822 516.815 208.999C516.815 209.063 516.815 209.128 516.816 209.193C516.819 209.555 516.816 209.849 516.588 210.124C516.34 210.343 516.128 210.389 515.821 210.352C515.608 210.277 515.452 210.16 515.336 209.942C515.195 209.597 515.197 209.256 515.197 208.882C515.197 208.817 515.196 208.753 515.196 208.688C515.195 208.513 515.194 208.338 515.194 208.164C515.194 207.981 515.193 207.798 515.192 207.615C515.19 207.269 515.189 206.923 515.188 206.577C515.187 206.183 515.185 205.789 515.183 205.395C515.18 204.585 515.177 203.775 515.174 202.965C515.074 202.987 515.074 202.987 514.972 203.01C514.972 203.058 514.972 203.058 514.972 203.106C514.97 204.967 514.967 206.829 514.963 208.691C514.963 208.914 514.962 209.138 514.962 209.361C514.962 209.406 514.961 209.45 514.961 209.496C514.96 210.217 514.959 210.937 514.958 211.658C514.957 212.397 514.956 213.137 514.954 213.876C514.953 214.332 514.952 214.788 514.952 215.245C514.952 215.557 514.951 215.87 514.95 216.183C514.95 216.364 514.949 216.544 514.949 216.725C514.95 216.89 514.949 217.055 514.948 217.221C514.948 217.309 514.948 217.397 514.949 217.485C514.946 217.825 514.926 218.101 514.748 218.387C514.514 218.645 514.31 218.746 513.982 218.763C513.709 218.753 513.533 218.651 513.326 218.455C513.067 218.106 513.026 217.794 513.028 217.34C513.028 217.306 513.028 217.272 513.028 217.237C513.028 217.123 513.028 217.01 513.028 216.896C513.028 216.814 513.028 216.732 513.028 216.65C513.028 216.429 513.029 216.207 513.029 215.986C513.029 215.754 513.029 215.522 513.029 215.29C513.029 214.852 513.03 214.413 513.03 213.975C513.031 213.475 513.031 212.976 513.031 212.476C513.031 211.449 513.032 210.422 513.033 209.395H512.71C512.71 209.437 512.71 209.48 512.71 209.524C512.712 210.562 512.713 211.6 512.714 212.637C512.714 213.139 512.715 213.641 512.716 214.143C512.717 214.581 512.717 215.018 512.717 215.456C512.717 215.687 512.718 215.919 512.718 216.151C512.719 216.369 512.719 216.587 512.719 216.805C512.719 216.885 512.719 216.965 512.719 217.045C512.723 218.077 512.723 218.077 512.463 218.433C512.259 218.652 512.033 218.755 511.753 218.766C511.43 218.746 511.188 218.599 510.972 218.332C510.787 218.009 510.788 217.679 510.79 217.305C510.79 217.243 510.789 217.181 510.789 217.119C510.788 216.949 510.788 216.779 510.789 216.61C510.789 216.427 510.788 216.243 510.788 216.06C510.787 215.743 510.786 215.426 510.786 215.109C510.786 214.65 510.786 214.191 510.785 213.733C510.783 212.989 510.782 212.245 510.781 211.501C510.781 210.778 510.78 210.055 510.779 209.333C510.779 209.266 510.779 209.266 510.779 209.198C510.778 208.974 510.778 208.75 510.777 208.527C510.774 206.673 510.772 204.819 510.77 202.965C510.671 202.981 510.671 202.981 510.568 203.01C510.515 203.131 510.523 203.221 510.522 203.356C510.522 203.41 510.522 203.464 510.522 203.519C510.522 203.609 510.522 203.609 510.522 203.7C510.521 203.763 510.521 203.826 510.521 203.889C510.521 204.026 510.52 204.162 510.52 204.298C510.52 204.514 510.519 204.729 510.518 204.945C510.515 205.558 510.513 206.171 510.512 206.784C510.511 207.123 510.51 207.462 510.508 207.8C510.507 207.979 510.507 208.158 510.507 208.337C510.507 208.506 510.506 208.675 510.505 208.843C510.504 208.934 510.505 209.025 510.505 209.116C510.502 209.46 510.494 209.802 510.3 210.084C510.029 210.317 509.821 210.392 509.478 210.352C509.246 210.258 509.091 210.1 508.968 209.861C508.908 209.704 508.897 209.6 508.897 209.43C508.897 209.374 508.896 209.318 508.896 209.26C508.896 209.199 508.897 209.138 508.897 209.076C508.897 209.011 508.897 208.946 508.896 208.88C508.896 208.704 508.896 208.527 508.897 208.351C508.897 208.165 508.897 207.98 508.897 207.794C508.897 207.483 508.898 207.171 508.898 206.859C508.899 206.5 508.899 206.141 508.899 205.782C508.899 205.435 508.899 205.089 508.9 204.742C508.9 204.595 508.9 204.448 508.9 204.301C508.9 204.128 508.9 203.954 508.901 203.781C508.901 203.717 508.901 203.654 508.901 203.591C508.899 202.794 508.998 202.154 509.501 201.56C509.959 201.093 510.484 200.997 511.079 200.997Z" fill="black"/>
</g>
<g id="Group_12">
<path id="Vector_25" d="M507.83 197.626C508.022 197.776 508.182 197.951 508.226 198.216C508.23 198.322 508.231 198.428 508.231 198.534C508.232 198.566 508.232 198.599 508.232 198.632C508.232 198.74 508.232 198.848 508.232 198.956C508.232 199.035 508.232 199.113 508.232 199.191C508.232 199.406 508.233 199.621 508.233 199.837C508.233 200.069 508.233 200.301 508.233 200.533C508.234 201.04 508.234 201.548 508.234 202.055C508.234 202.372 508.235 202.688 508.235 203.005C508.235 203.882 508.236 204.758 508.236 205.635C508.236 205.719 508.236 205.719 508.236 205.805C508.236 205.889 508.236 205.889 508.236 205.976C508.236 206.089 508.236 206.203 508.236 206.317C508.236 206.374 508.236 206.431 508.236 206.489C508.236 207.405 508.237 208.322 508.238 209.238C508.239 210.179 508.239 211.12 508.239 212.06C508.239 212.588 508.239 213.117 508.24 213.645C508.241 214.095 508.241 214.545 508.241 214.994C508.241 215.224 508.241 215.453 508.241 215.683C508.242 215.893 508.242 216.103 508.241 216.313C508.241 216.389 508.241 216.465 508.242 216.541C508.242 216.645 508.242 216.748 508.241 216.851C508.241 216.909 508.241 216.966 508.241 217.025C508.213 217.327 508.11 217.534 507.903 217.734C507.712 217.865 507.514 217.852 507.297 217.825C507.081 217.746 506.957 217.592 506.852 217.369C506.809 217.184 506.807 217.009 506.807 216.819C506.807 216.771 506.807 216.771 506.807 216.722C506.806 216.614 506.806 216.507 506.806 216.399C506.806 216.321 506.806 216.243 506.806 216.166C506.806 215.952 506.806 215.738 506.806 215.524C506.806 215.293 506.805 215.062 506.805 214.831C506.804 214.327 506.804 213.822 506.804 213.317C506.804 213.002 506.804 212.687 506.804 212.372C506.803 211.5 506.803 210.628 506.802 209.756C506.802 209.701 506.802 209.645 506.802 209.587C506.802 209.531 506.802 209.475 506.802 209.418C506.802 209.304 506.802 209.191 506.802 209.078C506.802 209.021 506.802 208.965 506.802 208.907C506.802 207.996 506.801 207.084 506.801 206.173C506.8 205.237 506.799 204.302 506.799 203.366C506.799 202.841 506.799 202.315 506.798 201.79C506.797 201.343 506.797 200.895 506.797 200.448C506.798 200.22 506.798 199.991 506.797 199.763C506.797 199.554 506.797 199.345 506.797 199.136C506.797 199.061 506.797 198.985 506.797 198.91C506.793 198.087 506.793 198.087 507.003 197.803C507.026 197.783 507.05 197.762 507.075 197.74C507.11 197.708 507.11 197.708 507.147 197.675C507.35 197.524 507.607 197.543 507.83 197.626Z" fill="black"/>
</g>
<g id="Group_13">
<path id="Vector_26" d="M502.126 197.216C502.473 197.572 502.71 198.021 502.735 198.559C502.722 199.126 502.563 199.581 502.22 199.996C501.816 200.399 501.355 200.494 500.834 200.463C500.653 200.443 500.505 200.373 500.349 200.272C500.317 200.251 500.285 200.231 500.252 200.21C499.858 199.935 499.609 199.551 499.5 199.04C499.445 198.505 499.484 198.014 499.77 197.566C500.388 196.73 501.342 196.573 502.126 197.216Z" fill="black"/>
</g>
<g id="Group_14">
<path id="Vector_27" d="M513.775 197.125C513.81 197.155 513.845 197.185 513.881 197.216C513.914 197.242 513.948 197.267 513.982 197.293C514.303 197.629 514.487 198.089 514.506 198.581C514.513 199.187 514.338 199.592 513.979 200.031C513.695 200.338 513.305 200.487 512.917 200.506C512.441 200.484 512.096 200.331 511.747 199.972C511.411 199.55 511.262 199.157 511.255 198.584C511.291 198.042 511.499 197.577 511.861 197.216C512.462 196.76 513.147 196.705 513.775 197.125Z" fill="black"/>
</g>
</g>
<g id="Group_15">
<path id="Vector_28" d="M140.129 168.238H112.293V196.031H140.129V168.238Z" fill="#77CFFF"/>
</g>
<g id="Group_16">
<g id="Group_17">
<path id="Vector_29" d="M119.99 175.309C120.06 175.309 120.13 175.309 120.199 175.309C120.344 175.309 120.49 175.309 120.635 175.31C120.82 175.312 121.005 175.312 121.19 175.311C121.334 175.311 121.478 175.311 121.621 175.312C121.689 175.312 121.758 175.312 121.826 175.312C122.365 175.311 122.821 175.349 123.256 175.742C123.28 175.764 123.305 175.786 123.33 175.808C123.927 176.411 124.131 177.466 124.395 178.287C124.431 178.397 124.466 178.507 124.502 178.617C124.526 178.694 124.551 178.771 124.576 178.848C124.872 179.766 125.185 180.677 125.498 181.588C125.569 181.793 125.639 181.998 125.709 182.203C125.762 182.356 125.815 182.51 125.869 182.663C125.902 182.761 125.936 182.859 125.969 182.957C125.985 183.001 126.001 183.045 126.017 183.091C126.117 183.386 126.172 183.629 126.092 183.941C125.972 184.214 125.854 184.383 125.599 184.497C125.358 184.583 125.135 184.537 124.912 184.406C124.682 184.226 124.598 184.043 124.496 183.753C124.481 183.711 124.465 183.669 124.45 183.626C124.401 183.491 124.353 183.356 124.306 183.221C124.284 183.155 124.284 183.155 124.26 183.089C124.151 182.772 124.044 182.453 123.938 182.135C123.905 182.036 123.871 181.937 123.838 181.838C123.738 181.539 123.638 181.24 123.539 180.941C123.523 180.893 123.507 180.846 123.491 180.798C123.304 180.238 123.118 179.677 122.933 179.117C123.097 180.124 123.264 181.13 123.438 182.135C123.453 182.223 123.468 182.31 123.483 182.398C123.544 182.752 123.605 183.106 123.667 183.459C123.706 183.681 123.744 183.903 123.782 184.124C123.796 184.207 123.811 184.29 123.825 184.373C123.845 184.488 123.865 184.602 123.885 184.717C123.894 184.767 123.894 184.767 123.903 184.818C123.985 185.306 123.985 185.306 123.89 185.538C123.822 185.637 123.822 185.637 123.7 185.729C123.616 185.739 123.616 185.739 123.521 185.738C123.469 185.737 123.469 185.737 123.417 185.737C123.381 185.736 123.346 185.735 123.309 185.734C123.273 185.734 123.237 185.734 123.2 185.733C123.111 185.732 123.022 185.731 122.933 185.729C122.933 185.762 122.933 185.795 122.933 185.829C122.936 186.633 122.938 187.438 122.939 188.243C122.94 188.632 122.94 189.021 122.942 189.41C122.943 189.749 122.944 190.088 122.944 190.428C122.944 190.607 122.945 190.787 122.946 190.966C122.946 191.135 122.947 191.305 122.946 191.474C122.946 191.565 122.947 191.656 122.948 191.748C122.946 192.206 122.886 192.516 122.602 192.856C122.385 193.086 122.131 193.123 121.842 193.116C121.592 193.067 121.412 192.955 121.236 192.751C121.078 192.497 121.029 192.286 121.029 191.98C121.029 191.897 121.029 191.897 121.029 191.813C121.029 191.752 121.029 191.691 121.029 191.63C121.029 191.566 121.029 191.502 121.029 191.437C121.029 191.263 121.029 191.089 121.03 190.914C121.03 190.732 121.03 190.55 121.03 190.368C121.03 190.022 121.031 189.677 121.031 189.332C121.031 188.939 121.032 188.546 121.032 188.153C121.032 187.345 121.033 186.537 121.034 185.729H120.67C120.67 185.762 120.671 185.796 120.671 185.83C120.675 186.644 120.679 187.459 120.681 188.274C120.682 188.667 120.683 189.061 120.685 189.455C120.687 189.799 120.689 190.142 120.689 190.486C120.689 190.667 120.69 190.849 120.692 191.031C120.693 191.202 120.693 191.374 120.693 191.545C120.693 191.637 120.694 191.729 120.695 191.822C120.694 192.178 120.655 192.457 120.468 192.751C120.262 192.978 120.051 193.111 119.757 193.119C119.457 193.104 119.247 193.013 119.033 192.773C118.808 192.483 118.766 192.216 118.766 191.838C118.766 191.756 118.766 191.756 118.766 191.674C118.766 191.586 118.766 191.586 118.767 191.496C118.767 191.433 118.767 191.37 118.767 191.307C118.767 191.137 118.767 190.966 118.767 190.796C118.767 190.618 118.767 190.44 118.768 190.261C118.768 189.924 118.768 189.587 118.768 189.25C118.769 188.866 118.769 188.482 118.769 188.098C118.77 187.308 118.77 186.518 118.771 185.729C118.697 185.733 118.697 185.733 118.621 185.737C118.555 185.739 118.489 185.741 118.423 185.743C118.374 185.746 118.374 185.746 118.324 185.749C118.162 185.752 118.037 185.746 117.902 185.639C117.767 185.453 117.752 185.326 117.761 185.09C117.781 184.892 117.814 184.699 117.849 184.504C117.864 184.418 117.864 184.418 117.879 184.33C117.906 184.173 117.934 184.017 117.961 183.861C117.99 183.697 118.018 183.533 118.046 183.369C118.1 183.06 118.154 182.75 118.208 182.441C118.27 182.088 118.331 181.735 118.392 181.383C118.518 180.658 118.644 179.933 118.771 179.208C118.425 180.271 118.425 180.271 118.086 181.338C118.046 181.466 118.006 181.593 117.965 181.72C117.904 181.914 117.843 182.108 117.782 182.302C117.732 182.463 117.681 182.624 117.63 182.786C117.611 182.846 117.592 182.906 117.573 182.967C117.547 183.05 117.521 183.134 117.494 183.217C117.479 183.264 117.465 183.311 117.449 183.36C117.343 183.637 117.205 183.818 116.994 183.996C116.772 184.079 116.51 184.095 116.29 183.999C116.09 183.863 115.938 183.703 115.862 183.449C115.792 182.928 115.979 182.469 116.138 181.992C116.167 181.903 116.196 181.813 116.225 181.723C116.287 181.532 116.349 181.34 116.411 181.149C116.561 180.691 116.706 180.23 116.851 179.77C116.932 179.515 117.013 179.26 117.094 179.005C117.195 178.688 117.296 178.371 117.395 178.054C117.442 177.903 117.489 177.752 117.537 177.601C117.558 177.534 117.579 177.466 117.6 177.399C117.818 176.69 118.107 175.883 118.731 175.514C119.151 175.318 119.544 175.305 119.99 175.309Z" fill="black"/>
</g>
<g id="Group_18">
<path id="Vector_30" d="M130.835 175.326C130.899 175.325 130.899 175.325 130.964 175.325C131.103 175.325 131.242 175.325 131.381 175.325C131.479 175.324 131.576 175.324 131.673 175.324C131.877 175.324 132.081 175.324 132.285 175.324C132.545 175.324 132.805 175.323 133.066 175.322C133.266 175.322 133.467 175.322 133.668 175.322C133.764 175.322 133.86 175.321 133.956 175.321C134.091 175.321 134.225 175.321 134.36 175.321C134.399 175.321 134.438 175.321 134.478 175.32C135.057 175.323 135.583 175.478 136.019 175.928C136.485 176.503 136.559 177.174 136.56 177.921C136.56 177.988 136.56 178.055 136.561 178.122C136.561 178.302 136.562 178.483 136.562 178.663C136.562 178.776 136.562 178.889 136.563 179.001C136.564 179.396 136.564 179.79 136.564 180.184C136.565 180.551 136.566 180.918 136.567 181.284C136.569 181.6 136.569 181.916 136.569 182.232C136.57 182.42 136.57 182.608 136.571 182.796C136.572 182.973 136.572 183.15 136.572 183.327C136.571 183.392 136.572 183.456 136.572 183.521C136.576 183.883 136.573 184.177 136.345 184.452C136.097 184.671 135.885 184.717 135.578 184.68C135.364 184.605 135.209 184.489 135.093 184.27C134.951 183.925 134.954 183.584 134.954 183.21C134.954 183.145 134.953 183.081 134.953 183.016C134.952 182.841 134.951 182.667 134.951 182.492C134.951 182.309 134.95 182.126 134.949 181.943C134.947 181.597 134.946 181.251 134.945 180.905C134.944 180.511 134.942 180.117 134.94 179.723C134.936 178.913 134.933 178.103 134.931 177.293C134.831 177.316 134.831 177.316 134.729 177.339C134.729 177.386 134.729 177.386 134.729 177.434C134.727 179.296 134.724 181.157 134.72 183.019C134.719 183.242 134.719 183.466 134.719 183.689C134.718 183.734 134.718 183.778 134.718 183.824C134.717 184.545 134.716 185.265 134.715 185.986C134.714 186.725 134.713 187.465 134.711 188.204C134.71 188.66 134.709 189.117 134.709 189.573C134.709 189.886 134.708 190.198 134.707 190.511C134.706 190.692 134.706 190.872 134.706 191.053C134.706 191.218 134.706 191.384 134.705 191.549C134.705 191.637 134.705 191.725 134.705 191.813C134.703 192.153 134.683 192.429 134.505 192.716C134.271 192.973 134.067 193.074 133.739 193.091C133.465 193.081 133.289 192.979 133.083 192.783C132.824 192.434 132.783 192.122 132.785 191.669C132.785 191.634 132.785 191.6 132.785 191.565C132.785 191.451 132.785 191.338 132.785 191.224C132.785 191.142 132.785 191.06 132.785 190.979C132.785 190.757 132.785 190.535 132.786 190.314C132.786 190.082 132.786 189.85 132.786 189.619C132.786 189.18 132.786 188.741 132.787 188.303C132.787 187.803 132.788 187.304 132.788 186.804C132.788 185.777 132.789 184.75 132.79 183.723H132.467C132.467 183.765 132.467 183.808 132.467 183.852C132.469 184.89 132.47 185.928 132.471 186.966C132.471 187.468 132.472 187.969 132.473 188.471C132.473 188.909 132.474 189.346 132.474 189.784C132.474 190.016 132.475 190.247 132.475 190.479C132.476 190.697 132.476 190.915 132.476 191.133C132.476 191.213 132.476 191.293 132.476 191.373C132.48 192.405 132.48 192.405 132.22 192.761C132.016 192.98 131.79 193.083 131.51 193.094C131.187 193.074 130.944 192.927 130.729 192.66C130.544 192.337 130.545 192.008 130.547 191.633C130.546 191.571 130.546 191.509 130.546 191.447C130.545 191.277 130.545 191.108 130.546 190.938C130.546 190.755 130.545 190.571 130.544 190.388C130.543 190.071 130.543 189.754 130.543 189.437C130.543 188.978 130.542 188.52 130.541 188.061C130.54 187.317 130.539 186.573 130.538 185.829C130.538 185.106 130.537 184.383 130.536 183.661C130.536 183.594 130.536 183.594 130.535 183.526C130.535 183.302 130.535 183.079 130.534 182.855C130.531 181.001 130.529 179.147 130.527 177.293C130.427 177.309 130.427 177.309 130.325 177.339C130.272 177.459 130.28 177.549 130.279 177.684C130.279 177.738 130.279 177.792 130.279 177.848C130.279 177.937 130.279 177.937 130.278 178.028C130.278 178.091 130.278 178.154 130.278 178.218C130.277 178.354 130.277 178.49 130.277 178.626C130.276 178.842 130.276 179.057 130.275 179.273C130.272 179.886 130.27 180.499 130.269 181.113C130.268 181.451 130.267 181.79 130.265 182.128C130.264 182.307 130.264 182.486 130.264 182.665C130.263 182.834 130.263 183.003 130.262 183.171C130.261 183.262 130.261 183.353 130.262 183.444C130.259 183.788 130.251 184.13 130.057 184.412C129.786 184.645 129.578 184.72 129.234 184.68C129.003 184.587 128.848 184.428 128.725 184.189C128.665 184.032 128.654 183.928 128.654 183.758C128.653 183.702 128.653 183.646 128.653 183.589C128.653 183.527 128.653 183.466 128.654 183.404C128.654 183.339 128.654 183.274 128.653 183.209C128.653 183.032 128.653 182.855 128.654 182.679C128.654 182.493 128.654 182.308 128.654 182.122C128.654 181.811 128.654 181.499 128.655 181.187C128.656 180.828 128.656 180.469 128.656 180.11C128.656 179.763 128.656 179.417 128.656 179.07C128.657 178.923 128.657 178.776 128.657 178.63C128.656 178.456 128.657 178.282 128.657 178.109C128.658 178.045 128.658 177.982 128.658 177.919C128.656 177.122 128.754 176.482 129.258 175.888C129.715 175.421 130.241 175.325 130.835 175.326Z" fill="black"/>
</g>
<g id="Group_19">
<path id="Vector_31" d="M127.587 171.962C127.779 172.112 127.939 172.287 127.983 172.552C127.987 172.658 127.988 172.764 127.988 172.87C127.988 172.902 127.988 172.934 127.989 172.968C127.989 173.076 127.989 173.184 127.989 173.292C127.989 173.37 127.989 173.449 127.989 173.527C127.989 173.742 127.989 173.957 127.989 174.173C127.989 174.405 127.99 174.637 127.99 174.869C127.991 175.376 127.991 175.883 127.991 176.391C127.991 176.708 127.991 177.024 127.992 177.341C127.992 178.218 127.992 179.094 127.993 179.971C127.993 180.055 127.993 180.055 127.993 180.141C127.993 180.225 127.993 180.225 127.993 180.311C127.993 180.425 127.993 180.539 127.993 180.653C127.993 180.71 127.993 180.766 127.993 180.825C127.993 181.741 127.994 182.658 127.994 183.574C127.995 184.515 127.996 185.456 127.996 186.396C127.996 186.924 127.996 187.453 127.997 187.981C127.998 188.431 127.998 188.88 127.998 189.33C127.997 189.56 127.997 189.789 127.998 190.019C127.998 190.229 127.998 190.439 127.998 190.649C127.998 190.725 127.998 190.801 127.998 190.877C127.999 190.981 127.998 191.084 127.998 191.187C127.998 191.245 127.998 191.302 127.998 191.361C127.97 191.663 127.867 191.87 127.66 192.07C127.469 192.201 127.271 192.188 127.054 192.161C126.838 192.082 126.714 191.928 126.609 191.705C126.566 191.52 126.564 191.345 126.564 191.155C126.563 191.107 126.563 191.107 126.563 191.058C126.563 190.95 126.563 190.843 126.563 190.735C126.563 190.657 126.563 190.579 126.563 190.502C126.563 190.288 126.562 190.074 126.562 189.86C126.562 189.629 126.562 189.398 126.562 189.167C126.561 188.663 126.561 188.158 126.561 187.653C126.561 187.338 126.561 187.023 126.56 186.708C126.56 185.836 126.559 184.964 126.559 184.092C126.559 184.037 126.559 183.981 126.559 183.923C126.559 183.867 126.559 183.811 126.559 183.754C126.559 183.64 126.559 183.527 126.559 183.414C126.559 183.357 126.559 183.301 126.559 183.243C126.559 182.332 126.558 181.42 126.557 180.509C126.556 179.573 126.556 178.638 126.556 177.702C126.556 177.177 126.556 176.651 126.555 176.126C126.554 175.678 126.554 175.231 126.554 174.784C126.554 174.556 126.554 174.327 126.554 174.099C126.553 173.89 126.553 173.681 126.554 173.472C126.554 173.397 126.554 173.321 126.554 173.245C126.55 172.423 126.55 172.423 126.76 172.139C126.783 172.119 126.807 172.098 126.831 172.076C126.867 172.044 126.867 172.044 126.903 172.011C127.107 171.86 127.364 171.879 127.587 171.962Z" fill="black"/>
</g>
<g id="Group_20">
<path id="Vector_32" d="M121.883 171.545C122.229 171.9 122.466 172.349 122.491 172.887C122.478 173.454 122.32 173.909 121.976 174.324C121.572 174.727 121.111 174.823 120.59 174.791C120.409 174.771 120.261 174.701 120.105 174.6C120.073 174.579 120.041 174.559 120.008 174.538C119.614 174.263 119.365 173.879 119.257 173.369C119.202 172.833 119.241 172.342 119.526 171.894C120.145 171.058 121.098 170.901 121.883 171.545Z" fill="black"/>
</g>
<g id="Group_21">
<path id="Vector_33" d="M133.532 171.453C133.567 171.483 133.602 171.514 133.638 171.545C133.671 171.57 133.705 171.595 133.739 171.622C134.06 171.957 134.244 172.417 134.263 172.909C134.27 173.515 134.095 173.92 133.735 174.359C133.451 174.666 133.062 174.815 132.674 174.834C132.198 174.812 131.853 174.659 131.504 174.301C131.168 173.878 131.019 173.485 131.012 172.913C131.048 172.37 131.256 171.906 131.618 171.545C132.219 171.088 132.903 171.033 133.532 171.453Z" fill="black"/>
</g>
</g>
<g id="Group_22">
<path id="Vector_34" d="M182.162 185.094H154.326V212.887H182.162V185.094Z" fill="#77CFFF"/>
</g>
<g id="Group_23">
<g id="Group_24">
<path id="Vector_35" d="M162.023 192.165C162.092 192.165 162.162 192.164 162.232 192.164C162.377 192.164 162.522 192.165 162.668 192.166C162.853 192.167 163.038 192.167 163.223 192.166C163.367 192.166 163.51 192.167 163.654 192.167C163.722 192.167 163.79 192.167 163.859 192.167C164.398 192.166 164.853 192.205 165.289 192.598C165.313 192.619 165.337 192.641 165.363 192.664C165.959 193.266 166.164 194.321 166.428 195.142C166.463 195.252 166.499 195.362 166.534 195.472C166.559 195.549 166.584 195.626 166.609 195.703C166.904 196.622 167.218 197.532 167.531 198.443C167.602 198.648 167.672 198.853 167.742 199.058C167.794 199.212 167.848 199.365 167.901 199.518C167.935 199.616 167.969 199.714 168.002 199.812C168.018 199.857 168.034 199.901 168.05 199.947C168.15 200.241 168.205 200.484 168.124 200.796C168.004 201.069 167.887 201.238 167.632 201.353C167.39 201.439 167.168 201.392 166.945 201.262C166.715 201.082 166.631 200.899 166.529 200.609C166.513 200.567 166.498 200.525 166.482 200.481C166.434 200.347 166.386 200.211 166.339 200.076C166.316 200.011 166.316 200.011 166.293 199.944C166.183 199.627 166.077 199.309 165.97 198.99C165.937 198.891 165.904 198.792 165.871 198.693C165.771 198.394 165.671 198.095 165.571 197.796C165.556 197.749 165.54 197.702 165.524 197.653C165.337 197.093 165.151 196.533 164.965 195.972C165.13 196.979 165.297 197.986 165.47 198.991C165.486 199.078 165.501 199.166 165.516 199.253C165.577 199.607 165.638 199.961 165.7 200.315C165.738 200.536 165.777 200.758 165.815 200.98C165.829 201.063 165.844 201.146 165.858 201.229C165.878 201.343 165.898 201.458 165.918 201.572C165.926 201.622 165.926 201.622 165.935 201.673C166.018 202.162 166.018 202.162 165.922 202.393C165.854 202.493 165.854 202.493 165.733 202.584C165.649 202.595 165.649 202.595 165.553 202.593C165.502 202.593 165.502 202.593 165.45 202.592C165.414 202.591 165.378 202.591 165.342 202.59C165.306 202.589 165.27 202.589 165.232 202.589C165.143 202.588 165.054 202.586 164.965 202.584C164.966 202.617 164.966 202.65 164.966 202.684C164.968 203.489 164.97 204.293 164.972 205.098C164.972 205.487 164.973 205.876 164.975 206.265C164.976 206.605 164.977 206.944 164.977 207.283C164.977 207.463 164.977 207.642 164.978 207.822C164.979 207.991 164.979 208.16 164.979 208.329C164.979 208.421 164.98 208.512 164.981 208.603C164.979 209.061 164.919 209.372 164.634 209.712C164.417 209.942 164.163 209.979 163.875 209.971C163.625 209.922 163.445 209.81 163.269 209.607C163.111 209.353 163.061 209.141 163.062 208.836C163.062 208.753 163.062 208.753 163.062 208.669C163.062 208.608 163.062 208.547 163.062 208.486C163.062 208.422 163.062 208.357 163.062 208.293C163.062 208.119 163.062 207.944 163.062 207.77C163.063 207.588 163.063 207.405 163.063 207.223C163.063 206.878 163.063 206.533 163.064 206.188C163.064 205.795 163.064 205.402 163.065 205.009C163.065 204.201 163.066 203.392 163.067 202.584H162.703C162.703 202.618 162.703 202.651 162.703 202.685C162.708 203.5 162.711 204.314 162.713 205.129C162.714 205.523 162.716 205.917 162.718 206.311C162.72 206.654 162.721 206.998 162.722 207.341C162.722 207.523 162.723 207.705 162.724 207.886C162.726 208.058 162.726 208.229 162.726 208.4C162.726 208.493 162.727 208.585 162.728 208.677C162.726 209.033 162.688 209.312 162.501 209.607C162.295 209.834 162.084 209.966 161.79 209.974C161.489 209.959 161.279 209.869 161.065 209.628C160.841 209.339 160.799 209.072 160.799 208.693C160.799 208.612 160.799 208.612 160.799 208.529C160.799 208.441 160.799 208.441 160.799 208.351C160.799 208.288 160.799 208.225 160.799 208.162C160.799 207.992 160.8 207.822 160.8 207.651C160.8 207.473 160.8 207.295 160.8 207.117C160.8 206.78 160.801 206.442 160.801 206.105C160.802 205.721 160.802 205.337 160.802 204.953C160.802 204.164 160.803 203.374 160.804 202.584C160.729 202.588 160.729 202.588 160.653 202.592C160.588 202.594 160.522 202.596 160.456 202.598C160.407 202.601 160.407 202.601 160.357 202.604C160.195 202.608 160.07 202.602 159.934 202.495C159.8 202.309 159.784 202.182 159.794 201.946C159.814 201.748 159.847 201.554 159.882 201.359C159.897 201.273 159.897 201.273 159.912 201.185C159.939 201.029 159.966 200.872 159.994 200.716C160.023 200.553 160.051 200.389 160.079 200.225C160.133 199.915 160.187 199.606 160.241 199.296C160.303 198.944 160.364 198.591 160.425 198.238C160.551 197.513 160.677 196.788 160.804 196.063C160.457 197.127 160.457 197.127 160.119 198.194C160.078 198.321 160.038 198.448 159.998 198.576C159.937 198.769 159.876 198.963 159.815 199.157C159.765 199.319 159.714 199.48 159.663 199.641C159.644 199.701 159.625 199.762 159.606 199.822C159.58 199.906 159.553 199.989 159.527 200.072C159.512 200.12 159.497 200.167 159.482 200.215C159.375 200.493 159.237 200.674 159.026 200.851C158.804 200.935 158.543 200.951 158.322 200.854C158.122 200.718 157.97 200.559 157.895 200.304C157.825 199.783 158.012 199.325 158.17 198.848C158.199 198.758 158.229 198.668 158.257 198.578C158.319 198.387 158.382 198.196 158.444 198.005C158.594 197.546 158.738 197.086 158.884 196.625C158.965 196.37 159.046 196.116 159.127 195.861C159.228 195.544 159.329 195.227 159.428 194.909C159.475 194.758 159.522 194.607 159.57 194.457C159.591 194.389 159.612 194.322 159.633 194.254C159.851 193.545 160.14 192.738 160.764 192.37C161.184 192.173 161.577 192.161 162.023 192.165Z" fill="black"/>
</g>
<g id="Group_25">
<path id="Vector_36" d="M172.868 192.177C172.932 192.177 172.932 192.177 172.996 192.177C173.136 192.176 173.275 192.176 173.414 192.176C173.511 192.176 173.609 192.176 173.706 192.176C173.91 192.175 174.113 192.175 174.317 192.175C174.578 192.175 174.838 192.175 175.098 192.174C175.299 192.173 175.5 192.173 175.701 192.173C175.797 192.173 175.893 192.173 175.989 192.173C176.123 192.172 176.258 192.172 176.392 192.173C176.432 192.172 176.471 192.172 176.511 192.172C177.09 192.175 177.616 192.33 178.052 192.779C178.518 193.354 178.592 194.026 178.592 194.773C178.593 194.84 178.593 194.907 178.593 194.973C178.594 195.154 178.595 195.334 178.595 195.514C178.595 195.627 178.595 195.74 178.595 195.853C178.596 196.247 178.597 196.641 178.597 197.036C178.597 197.403 178.598 197.769 178.6 198.136C178.602 198.452 178.602 198.767 178.602 199.083C178.602 199.271 178.603 199.459 178.604 199.648C178.605 199.825 178.605 200.001 178.604 200.178C178.604 200.243 178.604 200.308 178.605 200.372C178.608 200.735 178.606 201.028 178.378 201.304C178.13 201.522 177.918 201.569 177.61 201.532C177.397 201.457 177.242 201.34 177.125 201.121C176.984 200.777 176.986 200.436 176.987 200.062C176.986 199.997 176.986 199.932 176.986 199.867C176.984 199.693 176.984 199.518 176.984 199.344C176.983 199.161 176.982 198.978 176.981 198.795C176.98 198.449 176.978 198.103 176.978 197.757C176.976 197.363 176.975 196.969 176.973 196.575C176.969 195.765 176.966 194.955 176.964 194.145C176.864 194.167 176.864 194.167 176.762 194.19C176.762 194.237 176.762 194.237 176.762 194.285C176.759 196.147 176.756 198.009 176.753 199.87C176.752 200.094 176.752 200.317 176.751 200.541C176.751 200.585 176.751 200.63 176.751 200.676C176.75 201.396 176.749 202.117 176.748 202.838C176.747 203.577 176.745 204.316 176.744 205.056C176.743 205.512 176.742 205.968 176.742 206.424C176.741 206.737 176.741 207.05 176.74 207.363C176.739 207.543 176.739 207.724 176.739 207.904C176.739 208.07 176.739 208.235 176.738 208.4C176.738 208.488 176.738 208.576 176.738 208.664C176.736 209.005 176.715 209.28 176.538 209.567C176.304 209.825 176.1 209.926 175.772 209.942C175.498 209.933 175.322 209.831 175.115 209.635C174.857 209.286 174.816 208.974 174.818 208.52C174.818 208.486 174.818 208.452 174.818 208.417C174.818 208.303 174.818 208.189 174.818 208.076C174.818 207.994 174.818 207.912 174.818 207.83C174.818 207.609 174.818 207.387 174.818 207.165C174.819 206.934 174.819 206.702 174.819 206.47C174.819 206.031 174.819 205.593 174.82 205.154C174.82 204.655 174.82 204.155 174.82 203.656C174.821 202.629 174.822 201.601 174.823 200.574H174.499C174.499 200.617 174.499 200.66 174.5 200.703C174.501 201.741 174.503 202.779 174.504 203.817C174.504 204.319 174.504 204.821 174.505 205.323C174.506 205.76 174.507 206.198 174.507 206.636C174.507 206.867 174.507 207.099 174.508 207.33C174.508 207.549 174.509 207.767 174.508 207.985C174.508 208.065 174.509 208.145 174.509 208.225C174.513 209.257 174.513 209.257 174.252 209.612C174.049 209.831 173.822 209.935 173.542 209.945C173.22 209.926 172.977 209.779 172.762 209.512C172.576 209.189 172.577 208.859 172.579 208.484C172.579 208.422 172.579 208.36 172.579 208.298C172.578 208.129 172.578 207.959 172.578 207.79C172.578 207.606 172.578 207.423 172.577 207.24C172.576 206.923 172.576 206.605 172.576 206.288C172.576 205.83 172.575 205.371 172.574 204.913C172.572 204.168 172.571 203.424 172.571 202.68C172.57 201.958 172.57 201.235 172.568 200.512C172.568 200.446 172.568 200.446 172.568 200.377C172.568 200.154 172.567 199.93 172.567 199.707C172.564 197.853 172.561 195.999 172.56 194.145C172.46 194.16 172.46 194.16 172.358 194.19C172.305 194.311 172.312 194.401 172.312 194.535C172.312 194.589 172.312 194.643 172.311 194.699C172.311 194.788 172.311 194.788 172.311 194.88C172.311 194.943 172.311 195.006 172.311 195.069C172.31 195.205 172.31 195.341 172.31 195.478C172.309 195.693 172.308 195.909 172.307 196.125C172.305 196.738 172.303 197.351 172.301 197.964C172.301 198.303 172.299 198.641 172.298 198.98C172.297 199.159 172.296 199.338 172.296 199.517C172.296 199.686 172.296 199.854 172.294 200.023C172.294 200.114 172.294 200.205 172.294 200.296C172.292 200.64 172.283 200.982 172.089 201.264C171.819 201.497 171.611 201.572 171.267 201.532C171.035 201.438 170.881 201.28 170.757 201.04C170.698 200.883 170.686 200.78 170.686 200.61C170.686 200.554 170.686 200.498 170.686 200.44C170.686 200.379 170.686 200.317 170.686 200.256C170.686 200.191 170.686 200.125 170.686 200.06C170.686 199.884 170.686 199.707 170.687 199.53C170.687 199.345 170.687 199.159 170.687 198.974C170.687 198.662 170.687 198.351 170.688 198.039C170.689 197.68 170.689 197.321 170.689 196.961C170.688 196.615 170.689 196.268 170.689 195.922C170.689 195.775 170.689 195.628 170.689 195.481C170.689 195.307 170.69 195.134 170.69 194.96C170.69 194.897 170.69 194.834 170.69 194.77C170.689 193.973 170.787 193.334 171.29 192.74C171.748 192.272 172.274 192.177 172.868 192.177Z" fill="black"/>
</g>
<g id="Group_26">
<path id="Vector_37" d="M169.619 188.814C169.812 188.964 169.972 189.138 170.016 189.404C170.019 189.51 170.021 189.616 170.021 189.722C170.021 189.754 170.021 189.786 170.021 189.819C170.021 189.927 170.021 190.036 170.021 190.144C170.021 190.222 170.022 190.3 170.022 190.378C170.022 190.594 170.022 190.809 170.022 191.024C170.022 191.256 170.023 191.488 170.023 191.72C170.023 192.228 170.024 192.735 170.024 193.242C170.024 193.559 170.024 193.876 170.024 194.193C170.025 195.069 170.025 195.946 170.025 196.822C170.025 196.907 170.025 196.907 170.025 196.993C170.025 197.077 170.025 197.077 170.025 197.163C170.025 197.277 170.025 197.391 170.025 197.505C170.025 197.562 170.025 197.618 170.025 197.676C170.026 198.593 170.026 199.509 170.027 200.426C170.028 201.367 170.029 202.307 170.029 203.248C170.029 203.776 170.029 204.304 170.03 204.833C170.03 205.282 170.031 205.732 170.03 206.182C170.03 206.411 170.03 206.641 170.031 206.87C170.031 207.081 170.031 207.291 170.031 207.501C170.031 207.577 170.031 207.653 170.031 207.729C170.031 207.832 170.031 207.935 170.031 208.039C170.031 208.096 170.031 208.154 170.031 208.213C170.002 208.515 169.899 208.722 169.692 208.921C169.501 209.052 169.303 209.04 169.086 209.012C168.871 208.934 168.747 208.779 168.642 208.556C168.599 208.372 168.596 208.196 168.596 208.006C168.596 207.958 168.596 207.958 168.596 207.909C168.596 207.802 168.596 207.694 168.596 207.587C168.596 207.509 168.596 207.431 168.596 207.353C168.595 207.139 168.595 206.925 168.595 206.711C168.595 206.48 168.595 206.25 168.594 206.019C168.594 205.514 168.594 205.01 168.594 204.505C168.593 204.19 168.593 203.875 168.593 203.56C168.593 202.688 168.592 201.816 168.592 200.944C168.592 200.888 168.592 200.832 168.592 200.775C168.592 200.719 168.592 200.663 168.592 200.605C168.592 200.492 168.592 200.379 168.592 200.265C168.592 200.209 168.592 200.153 168.592 200.095C168.592 199.183 168.591 198.272 168.59 197.36C168.589 196.425 168.589 195.489 168.589 194.554C168.589 194.028 168.588 193.503 168.588 192.977C168.587 192.53 168.587 192.083 168.587 191.635C168.587 191.407 168.587 191.179 168.587 190.951C168.586 190.742 168.586 190.533 168.587 190.324C168.587 190.248 168.587 190.173 168.586 190.097C168.583 189.274 168.583 189.274 168.792 188.991C168.816 188.97 168.84 188.949 168.864 188.928C168.9 188.896 168.9 188.896 168.936 188.863C169.14 188.712 169.397 188.73 169.619 188.814Z" fill="black"/>
</g>
<g id="Group_27">
<path id="Vector_38" d="M163.915 188.4C164.262 188.756 164.499 189.205 164.524 189.742C164.511 190.31 164.353 190.765 164.009 191.18C163.605 191.583 163.144 191.678 162.623 191.647C162.442 191.627 162.294 191.556 162.138 191.455C162.106 191.435 162.074 191.414 162.041 191.394C161.647 191.119 161.398 190.734 161.289 190.224C161.234 189.689 161.273 189.198 161.559 188.75C162.177 187.914 163.131 187.756 163.915 188.4Z" fill="black"/>
</g>
<g id="Group_28">
<path id="Vector_39" d="M175.565 188.309C175.6 188.339 175.635 188.369 175.671 188.4C175.704 188.425 175.737 188.451 175.772 188.477C176.093 188.812 176.277 189.273 176.296 189.764C176.303 190.371 176.128 190.775 175.768 191.214C175.484 191.521 175.095 191.67 174.707 191.689C174.23 191.667 173.886 191.515 173.537 191.156C173.201 190.733 173.051 190.34 173.044 189.768C173.081 189.225 173.289 188.761 173.65 188.4C174.252 187.944 174.936 187.889 175.565 188.309Z" fill="black"/>
</g>
</g>
<path id="Vector_40" d="M195.059 129.887H167.223V157.68H195.059V129.887Z" fill="#ECAAFF"/>
<path id="Vector_41" d="M191.105 131.621H171.177C169.963 131.621 168.963 132.466 168.963 133.492V154.069C168.963 155.095 169.963 155.94 171.177 155.94H191.105C192.32 155.94 193.32 155.095 193.32 154.069V133.492C193.32 132.466 192.32 131.621 191.105 131.621ZM178.927 145.651H191.105V148.457H178.927V145.651ZM185.57 143.78V140.974H191.105V143.78H185.57ZM191.105 133.492V139.104H184.463C183.855 139.104 183.356 139.526 183.356 140.039V143.78H177.82C177.212 143.78 176.713 144.202 176.713 144.716V148.457H171.177V133.492L191.105 133.492ZM191.105 154.069H171.177V150.328H191.105V154.069Z" fill="black"/>
<path id="Vector_42" d="M195.338 226.051H167.501V253.844H195.338V226.051Z" fill="#ECAAFF"/>
<path id="Vector_43" d="M191.384 227.789H171.455C170.241 227.789 169.241 228.634 169.241 229.66V250.237C169.241 251.263 170.241 252.108 171.455 252.108H191.384C192.598 252.108 193.598 251.263 193.598 250.237V229.66C193.598 228.634 192.598 227.789 191.384 227.789ZM179.205 241.819H191.384V244.625H179.205V241.819ZM185.848 239.948V237.142H191.384V239.948H185.848ZM191.384 229.66V235.272H184.741C184.133 235.272 183.634 235.694 183.634 236.207V239.948H178.098C177.49 239.948 176.991 240.37 176.991 240.884V244.625H171.455V229.66L191.384 229.66ZM191.384 250.237H171.455V246.496H191.384V250.237Z" fill="black"/>
<path id="Vector_44" d="M542.92 490.918H515.083V518.711H542.92V490.918Z" fill="#ECAAFF"/>
<path id="Vector_45" d="M538.966 492.656H519.037C517.823 492.656 516.823 493.501 516.823 494.527V515.104C516.823 516.13 517.823 516.975 519.037 516.975H538.966C540.18 516.975 541.18 516.13 541.18 515.104V494.527C541.18 493.501 540.18 492.656 538.966 492.656ZM526.787 506.686H538.966V509.492H526.787V506.686ZM533.43 504.816V502.01H538.966V504.816H533.43ZM538.966 494.527V500.139H532.323C531.715 500.139 531.216 500.561 531.216 501.074V504.816H525.68C525.072 504.816 524.573 505.237 524.573 505.751V509.492H519.037V494.527H538.966ZM538.966 515.104H519.037V511.363H538.966V515.104Z" fill="black"/>
<path id="Vector_46" d="M530.95 157.398H503.114V185.191H530.95V157.398Z" fill="#ECAAFF"/>
<path id="Vector_47" d="M526.996 159.137H507.068C505.853 159.137 504.854 159.981 504.854 161.007V181.585C504.854 182.611 505.853 183.456 507.068 183.456H526.996C528.211 183.456 529.21 182.611 529.21 181.585V161.007C529.21 159.981 528.211 159.137 526.996 159.137ZM514.818 173.167H526.996V175.973H514.818V173.167ZM521.46 171.296V168.49H526.996V171.296H521.46ZM526.996 161.007V166.619H520.353C519.745 166.619 519.246 167.041 519.246 167.555V171.296H513.711C513.103 171.296 512.603 171.718 512.603 172.231V175.973H507.068V161.007L526.996 161.007ZM526.996 181.585H507.068V177.843H526.996V181.585Z" fill="black"/>
<path id="Vector_48" d="M502.093 252.918H474.257V280.711H502.093V252.918Z" fill="#ECAAFF"/>
<path id="Vector_49" d="M498.139 254.656H478.211C476.996 254.656 475.997 255.501 475.997 256.527V277.104C475.997 278.13 476.996 278.975 478.211 278.975H498.139C499.354 278.975 500.353 278.13 500.353 277.104V256.527C500.353 255.501 499.354 254.656 498.139 254.656ZM485.961 268.686H498.139V271.492H485.961V268.686ZM492.603 266.816V264.01H498.139V266.816H492.603ZM498.139 256.527V262.139H491.496C490.889 262.139 490.389 262.561 490.389 263.074V266.816H484.854C484.246 266.816 483.746 267.237 483.746 267.751V271.492H478.211V256.527H498.139ZM498.139 277.104H478.211V273.363H498.139V277.104Z" fill="black"/>
<path id="Vector_50" d="M542.92 518.336H515.083V546.129H542.92V518.336Z" fill="#ECAAFF"/>
<path id="Vector_51" d="M538.966 520.07H519.037C517.823 520.07 516.823 520.915 516.823 521.941V542.518C516.823 543.545 517.823 544.389 519.037 544.389H538.966C540.18 544.389 541.18 543.545 541.18 542.518V521.941C541.18 520.915 540.18 520.07 538.966 520.07ZM526.787 534.1H538.966V536.906H526.787V534.1ZM533.43 532.23V529.424H538.966V532.23H533.43ZM538.966 521.941V527.553H532.323C531.715 527.553 531.216 527.975 531.216 528.488V532.23H525.68C525.072 532.23 524.573 532.652 524.573 533.165V536.906H519.037V521.941H538.966ZM538.966 542.518H519.037V538.777H538.966V542.518Z" fill="black"/>
<path id="Vector_52" d="M148.201 228.555H120.365V256.348H148.201V228.555Z" fill="#ECAAFF"/>
<path id="Vector_53" d="M144.247 230.293H124.319C123.105 230.293 122.105 231.138 122.105 232.164V252.741C122.105 253.767 123.105 254.612 124.319 254.612H144.247C145.462 254.612 146.462 253.767 146.462 252.741V232.164C146.462 231.138 145.462 230.293 144.247 230.293ZM132.069 244.323H144.247V247.129H132.069V244.323ZM138.712 242.452V239.646H144.247V242.452H138.712ZM144.247 232.164V237.776H137.605C136.997 237.776 136.498 238.198 136.498 238.711V242.452H130.962C130.354 242.452 129.855 242.874 129.855 243.388V247.129H124.319V232.164L144.247 232.164ZM144.247 252.741H124.319V249H144.247V252.741Z" fill="black"/>
<path id="Vector_54" d="M130.387 131.188H102.55V158.98H130.387V131.188Z" fill="#ECAAFF"/>
<g id="Group_29">
<path id="Vector_55" d="M126.617 132.926H106.32C105.206 132.926 104.29 133.841 104.29 134.952V155.218C104.29 156.33 105.206 157.245 106.32 157.245H126.617C127.73 157.245 128.647 156.33 128.647 155.218V134.952C128.647 133.841 127.73 132.926 126.617 132.926ZM122.558 143.059V155.218H117.483V143.059H122.558ZM115.454 155.218H110.379V143.059H115.454V155.218ZM126.617 155.218H124.587V142.045C124.587 141.489 124.13 141.032 123.572 141.032H109.364C108.807 141.032 108.349 141.489 108.349 142.045V155.218H106.32V134.952H126.617V155.218ZM119.513 137.992C119.513 138.548 119.055 139.005 118.498 139.005H114.439C113.882 139.005 113.424 138.548 113.424 137.992C113.424 137.436 113.882 136.979 114.439 136.979H118.498C119.055 136.979 119.513 137.436 119.513 137.992Z" fill="black"/>
</g>
<path id="Vector_56" d="M195.709 277.004H167.873V304.797H195.709V277.004Z" fill="#ECAAFF"/>
<g id="Group_30">
<path id="Vector_57" d="M191.939 278.738H171.642C170.529 278.738 169.612 279.653 169.612 280.765V301.031C169.612 302.142 170.529 303.057 171.642 303.057H191.939C193.053 303.057 193.969 302.142 193.969 301.031V280.765C193.969 279.653 193.053 278.738 191.939 278.738ZM187.88 288.871V301.031H182.806V288.871H187.88ZM180.776 301.031H175.701V288.871H180.776V301.031ZM191.939 301.031H189.91V287.858C189.91 287.302 189.452 286.845 188.895 286.845H174.687C174.129 286.845 173.672 287.302 173.672 287.858V301.031H171.642V280.765H191.939V301.031ZM184.835 283.805C184.835 284.361 184.378 284.818 183.82 284.818H179.761C179.204 284.818 178.746 284.361 178.746 283.805C178.746 283.248 179.204 282.791 179.761 282.791H183.82C184.378 282.791 184.835 283.248 184.835 283.805Z" fill="black"/>
</g>
<path id="Vector_58" d="M471.288 159.164H443.452V186.957H471.288V159.164Z" fill="#ECAAFF"/>
<g id="Group_31">
<path id="Vector_59" d="M467.518 160.902H447.221C446.108 160.902 445.191 161.817 445.191 162.929V183.195C445.191 184.306 446.108 185.221 447.221 185.221H467.518C468.632 185.221 469.548 184.306 469.548 183.195V162.929C469.548 161.817 468.632 160.902 467.518 160.902ZM463.459 171.035V183.195H458.385V171.035H463.459ZM456.355 183.195H451.281V171.035H456.355V183.195ZM467.518 183.195H465.489V170.022C465.489 169.466 465.031 169.009 464.474 169.009H450.266C449.709 169.009 449.251 169.466 449.251 170.022V183.195H447.221V162.929H467.518V183.195ZM460.414 165.969C460.414 166.525 459.957 166.982 459.399 166.982H455.34C454.783 166.982 454.325 166.525 454.325 165.969C454.325 165.412 454.783 164.955 455.34 164.955H459.399C459.957 164.955 460.414 165.412 460.414 165.969Z" fill="black"/>
</g>
<path id="Vector_60" d="M180.863 483.316H153.026V511.109H180.863V483.316Z" fill="#ECAAFF"/>
<g id="Group_32">
<path id="Vector_61" d="M177.093 485.051H156.796C155.683 485.051 154.766 485.966 154.766 487.077V507.343C154.766 508.455 155.683 509.37 156.796 509.37H177.093C178.206 509.37 179.123 508.455 179.123 507.343V487.077C179.123 485.966 178.206 485.051 177.093 485.051ZM173.034 495.184V507.343H167.959V495.184H173.034ZM165.93 507.343H160.855V495.184H165.93V507.343ZM177.093 507.343H175.063V494.17C175.063 493.614 174.606 493.157 174.049 493.157H159.84C159.283 493.157 158.826 493.614 158.826 494.17V507.343H156.796V487.077H177.093V507.343ZM169.989 490.117C169.989 490.673 169.531 491.13 168.974 491.13H164.915C164.358 491.13 163.9 490.673 163.9 490.117C163.9 489.561 164.358 489.104 164.915 489.104H168.974C169.531 489.104 169.989 489.561 169.989 490.117Z" fill="black"/>
</g>
<path id="Vector_62" d="M510.63 497.68H482.793V525.473H510.63V497.68Z" fill="#ECAAFF"/>
<g id="Group_33">
<path id="Vector_63" d="M506.86 499.422H486.563C485.45 499.422 484.533 500.337 484.533 501.448V521.714C484.533 522.826 485.45 523.741 486.563 523.741H506.86C507.974 523.741 508.89 522.826 508.89 521.714V501.448C508.89 500.337 507.974 499.422 506.86 499.422ZM502.801 509.555V521.714H497.726V509.555H502.801ZM495.697 521.714H490.622V509.555H495.697V521.714ZM506.86 521.714H504.83V508.541C504.83 507.985 504.373 507.528 503.816 507.528H489.608C489.05 507.528 488.593 507.985 488.593 508.541V521.714H486.563V501.448H506.86V521.714ZM499.756 504.488C499.756 505.045 499.298 505.502 498.741 505.502H494.682C494.125 505.502 493.667 505.045 493.667 504.488C493.667 503.932 494.125 503.475 494.682 503.475H498.741C499.298 503.475 499.756 503.932 499.756 504.488Z" fill="black"/>
</g>
<path id="Vector_64" d="M510.63 469.426H482.793V497.219H510.63V469.426Z" fill="#ECAAFF"/>
<g id="Group_34">
<path id="Vector_65" d="M506.86 471.164H486.563C485.45 471.164 484.533 472.079 484.533 473.191V493.456C484.533 494.568 485.45 495.483 486.563 495.483H506.86C507.974 495.483 508.89 494.568 508.89 493.456V473.191C508.89 472.079 507.974 471.164 506.86 471.164ZM502.801 481.297V493.456H497.726V481.297H502.801ZM495.697 493.456H490.622V481.297H495.697V493.456ZM506.86 493.456H504.83V480.284C504.83 479.727 504.373 479.27 503.816 479.27H489.608C489.05 479.27 488.593 479.727 488.593 480.284V493.456H486.563V473.191H506.86V493.456ZM499.756 476.23C499.756 476.787 499.298 477.244 498.741 477.244H494.682C494.125 477.244 493.667 476.787 493.667 476.23C493.667 475.674 494.125 475.217 494.682 475.217H498.741C499.298 475.217 499.756 475.674 499.756 476.23Z" fill="black"/>
</g>
<path id="Vector_66" d="M492.536 441.172H464.7V468.965H492.536V441.172Z" fill="#ECAAFF"/>
<g id="Group_35">
<path id="Vector_67" d="M488.766 442.91H468.469C467.356 442.91 466.439 443.825 466.439 444.937V465.202C466.439 466.314 467.356 467.229 468.469 467.229H488.766C489.88 467.229 490.796 466.314 490.796 465.202V444.937C490.796 443.825 489.88 442.91 488.766 442.91ZM484.707 453.043V465.202H479.633V453.043H484.707ZM477.603 465.202H472.529V453.043H477.603V465.202ZM488.766 465.202H486.737V452.03C486.737 451.473 486.279 451.016 485.722 451.016H471.514C470.957 451.016 470.499 451.473 470.499 452.03V465.202H468.469V444.937H488.766V465.202ZM481.662 447.977C481.662 448.533 481.205 448.99 480.648 448.99H476.588C476.031 448.99 475.573 448.533 475.573 447.977C475.573 447.42 476.031 446.963 476.588 446.963H480.648C481.205 446.963 481.662 447.42 481.662 447.977Z" fill="black"/>
</g>
<path id="Vector_68" d="M141.892 263.105H114.056V290.898H141.892V263.105Z" fill="#ECAAFF"/>
<g id="Group_36">
<path id="Vector_69" d="M138.122 264.844H117.825C116.712 264.844 115.795 265.759 115.795 266.87V287.136C115.795 288.248 116.712 289.163 117.825 289.163H138.122C139.236 289.163 140.152 288.248 140.152 287.136V266.87C140.152 265.759 139.236 264.844 138.122 264.844ZM134.063 274.977V287.136H128.989V274.977H134.063ZM126.959 287.136H121.885V274.977H126.959V287.136ZM138.122 287.136H136.093V273.963C136.093 273.407 135.635 272.95 135.078 272.95H120.87C120.313 272.95 119.855 273.407 119.855 273.963V287.136H117.825V266.87H138.122V287.136ZM131.018 269.91C131.018 270.466 130.561 270.923 130.004 270.923H125.944C125.387 270.923 124.929 270.466 124.929 269.91C124.929 269.354 125.387 268.897 125.944 268.897H130.004C130.561 268.897 131.018 269.354 131.018 269.91Z" fill="black"/>
</g>
<path id="Vector_70" d="M142.263 291.551H114.427V319.344H142.263V291.551Z" fill="#ECAAFF"/>
<g id="Group_37">
<path id="Vector_71" d="M138.494 293.289H118.196C117.083 293.289 116.167 294.204 116.167 295.316V315.581C116.167 316.693 117.083 317.608 118.196 317.608H138.494C139.607 317.608 140.523 316.693 140.523 315.581V295.316C140.523 294.204 139.607 293.289 138.494 293.289ZM134.434 303.422V315.581H129.36V303.422H134.434ZM127.33 315.581H122.256V303.422H127.33V315.581ZM138.494 315.581H136.464V302.409C136.464 301.852 136.006 301.395 135.449 301.395H121.241C120.684 301.395 120.226 301.852 120.226 302.409V315.581H118.196V295.316H138.494V315.581ZM131.389 298.355C131.389 298.912 130.932 299.369 130.375 299.369H126.315C125.758 299.369 125.3 298.912 125.3 298.355C125.3 297.799 125.758 297.342 126.315 297.342H130.375C130.932 297.342 131.389 297.799 131.389 298.355Z" fill="black"/>
</g>
</g>
</svg>
