<svg width="6848" height="4480" viewBox="0 0 6848 4480" fill="none" xmlns="http://www.w3.org/2000/svg">
<rect width="6848" height="4480" fill="white"/>
<rect x="91.8556" y="1155.55" width="446.609" height="175.238" fill="#917777" fill-opacity="0.68"/>
<rect x="92.3556" y="1156.05" width="445.609" height="174.238" stroke="#917777" stroke-opacity="0.68"/>
<rect x="91.8556" y="792.38" width="446.609" height="172.698" fill="#917777" fill-opacity="0.68"/>
<rect x="92.3556" y="792.88" width="445.609" height="171.698" stroke="#917777" stroke-opacity="0.68"/>
<rect x="91.8556" y="609.524" width="446.609" height="172.698" fill="#917777" fill-opacity="0.68"/>
<rect x="92.3556" y="610.024" width="445.609" height="171.698" stroke="#917777" stroke-opacity="0.68"/>
<rect x="1656.57" y="180.316" width="161.539" height="642.54" fill="#917777" fill-opacity="0.68"/>
<rect x="1657.07" y="180.816" width="160.539" height="641.54" stroke="#917777" stroke-opacity="0.68"/>
<rect x="1656.57" y="853.333" width="161.539" height="406.349" fill="#917777" fill-opacity="0.68"/>
<rect x="1657.07" y="853.833" width="160.539" height="405.349" stroke="#917777" stroke-opacity="0.68"/>
<rect x="1840.28" y="853.333" width="164.707" height="406.349" fill="#917777" fill-opacity="0.68"/>
<rect x="1840.78" y="853.833" width="163.707" height="405.349" stroke="#917777" stroke-opacity="0.68"/>
<rect width="93.3302" height="296.774" transform="matrix(-0.00941242 0.999956 -0.999977 -0.00676149 2511.47 1163.41)" fill="#917777" fill-opacity="0.68"/>
<rect x="-0.504695" y="0.496597" width="92.3302" height="295.774" transform="matrix(-0.00941242 0.999956 -0.999977 -0.00676149 2511.46 1164.41)" stroke="#917777" stroke-opacity="0.68"/>
<path d="M2030.33 853.333H2147.06V1159.68H2204.54V1254.6H2030.33V853.333Z" fill="#917777" fill-opacity="0.68"/>
<path d="M2147.06 1160.18H2204.04V1254.1H2030.83V853.833H2146.56V1159.68V1160.18H2147.06Z" stroke="#917777" stroke-opacity="0.68"/>
<rect x="1840.28" y="180.316" width="164.707" height="642.54" fill="#917777" fill-opacity="0.68"/>
<rect x="1840.78" y="180.816" width="163.707" height="641.54" stroke="#917777" stroke-opacity="0.68"/>
<rect x="2023.99" y="180.316" width="164.707" height="642.54" fill="#917777" fill-opacity="0.68"/>
<rect x="2024.49" y="180.816" width="163.707" height="641.54" stroke="#917777" stroke-opacity="0.68"/>
<rect x="2207.7" y="180.316" width="164.707" height="642.54" fill="#917777" fill-opacity="0.68"/>
<rect x="2208.2" y="180.816" width="163.707" height="641.54" stroke="#917777" stroke-opacity="0.68"/>
<rect x="3116.76" y="165.081" width="133.032" height="391.111" fill="#917777" fill-opacity="0.68"/>
<rect x="3117.26" y="165.581" width="132.032" height="390.111" stroke="#917777" stroke-opacity="0.68"/>
<rect x="3474.68" y="121.904" width="183.711" height="424.127" fill="#917777" fill-opacity="0.68"/>
<rect x="3475.18" y="122.404" width="182.711" height="423.127" stroke="#917777" stroke-opacity="0.68"/>
<path d="M3474.68 551.111H3566.54H3658.39V995.556L3591.8 966.884C3579.31 961.505 3565.86 958.73 3552.25 958.73L3474.68 958.73V551.111Z" fill="#917777" fill-opacity="0.68"/>
<path d="M3657.89 551.611V994.796L3592 966.424C3579.45 961.019 3565.92 958.23 3552.25 958.23L3475.18 958.23V551.611H3566.54H3657.89Z" stroke="#917777" stroke-opacity="0.68"/>
<path d="M3918.12 690.794H4090.75H4263.37V765.385L4090.75 918.997H4051.21V1064.48H4078.08L4185.77 1167.3V1292.7H4150.75C4136.13 1292.7 4121.55 1291.1 4107.28 1287.92L4090.5 1284.18C4082.25 1282.34 4074.27 1279.47 4066.74 1275.62L4028.98 1256.33L3994.14 1227.49L3918.12 1167.3V690.794Z" fill="#917777" fill-opacity="0.68"/>
<path d="M4051.21 1064.98H4077.88L4185.27 1167.52V1292.2H4150.75C4136.17 1292.2 4121.63 1290.6 4107.39 1287.43L4090.61 1283.69C4082.4 1281.86 4074.46 1279 4066.97 1275.18L4029.26 1255.91L3994.46 1227.11L3994.45 1227.1L3918.62 1167.06V691.294H4090.75H4262.87V765.161L4090.56 918.497H4051.21H4050.71V918.997V1064.48V1064.98H4051.21Z" stroke="#917777" stroke-opacity="0.68"/>
<path d="M3661.56 683.175H3786.67H3911.79V1168.25L3789.55 1060.84C3781.51 1053.76 3772.37 1048.03 3762.51 1043.86L3661.56 1001.14V842.159V683.175Z" fill="#917777" fill-opacity="0.68"/>
<path d="M3911.29 683.675V1167.15L3789.88 1060.46C3781.8 1053.35 3772.62 1047.59 3762.7 1043.4L3662.06 1000.81V842.159V683.675H3786.67H3911.29Z" stroke="#917777" stroke-opacity="0.68"/>
<rect x="3667.89" y="121.904" width="196.381" height="558.73" fill="#917777" fill-opacity="0.68"/>
<rect x="3668.39" y="122.404" width="195.381" height="557.73" stroke="#917777" stroke-opacity="0.68"/>
<rect x="3870.61" y="121.904" width="158.372" height="558.73" fill="#917777" fill-opacity="0.68"/>
<rect x="3871.11" y="122.404" width="157.372" height="557.73" stroke="#917777" stroke-opacity="0.68"/>
<rect x="4044.82" y="121.904" width="209.051" height="561.27" fill="#917777" fill-opacity="0.68"/>
<rect x="4045.32" y="122.404" width="208.051" height="560.27" stroke="#917777" stroke-opacity="0.68"/>
<rect x="4193.69" y="1173.33" width="316.744" height="121.905" fill="#917777" fill-opacity="0.68"/>
<rect x="4194.19" y="1173.83" width="315.744" height="120.905" stroke="#917777" stroke-opacity="0.68"/>
<rect x="4155.68" y="1533.97" width="183.711" height="233.651" fill="#917777" fill-opacity="0.68"/>
<rect x="4156.18" y="1534.47" width="182.711" height="232.651" stroke="#917777" stroke-opacity="0.68"/>
<rect x="4203.19" y="2059.68" width="247.06" height="203.175" fill="#917777" fill-opacity="0.68"/>
<rect x="4203.69" y="2060.18" width="246.06" height="202.175" stroke="#917777" stroke-opacity="0.68"/>
<rect x="3895.95" y="2059.68" width="193.214" height="203.175" fill="#917777" fill-opacity="0.68"/>
<rect x="3896.45" y="2060.18" width="192.214" height="202.175" stroke="#917777" stroke-opacity="0.68"/>
<rect x="3899.12" y="1533.97" width="193.214" height="332.698" fill="#917777" fill-opacity="0.68"/>
<rect x="3899.62" y="1534.47" width="192.214" height="331.698" stroke="#917777" stroke-opacity="0.68"/>
<path d="M3702.73 1879.36H3886.45V2260.32H3702.73V1879.36Z" fill="#917777" fill-opacity="0.68"/>
<path d="M3703.23 1879.86H3885.95V2259.82H3703.23V1879.86Z" stroke="#917777" stroke-opacity="0.68"/>
<path d="M3477.85 1879.36H3686.9V2262.86H3477.85V1879.36Z" fill="#917777" fill-opacity="0.68"/>
<path d="M3478.35 1879.86H3686.4V2262.36H3478.35V1879.86Z" stroke="#917777" stroke-opacity="0.68"/>
<path d="M3474.68 1533.97H3686.9V1866.67H3474.68V1533.97Z" fill="#917777" fill-opacity="0.68"/>
<path d="M3475.18 1534.47H3686.4V1866.17H3475.18V1534.47Z" stroke="#917777" stroke-opacity="0.68"/>
<path d="M3705.9 1531.43H3889.61V1866.67H3705.9V1531.43Z" fill="#917777" fill-opacity="0.68"/>
<path d="M3706.4 1531.93H3889.11V1866.17H3706.4V1531.93Z" stroke="#917777" stroke-opacity="0.68"/>
<path d="M4462.92 1866.67H4621.29V2260.32H4462.92V1866.67Z" fill="#917777" fill-opacity="0.68"/>
<path d="M4463.42 1867.17H4620.79V2259.82H4463.42V1867.17Z" stroke="#917777" stroke-opacity="0.68"/>
<path d="M4640.3 1866.67H4798.67V2260.32H4640.3V1866.67Z" fill="#917777" fill-opacity="0.68"/>
<path d="M4640.8 1867.17H4798.17V2259.82H4640.8V1867.17Z" stroke="#917777" stroke-opacity="0.68"/>
<rect x="4687.81" y="911.746" width="161.539" height="383.492" fill="#917777" fill-opacity="0.68"/>
<rect x="4688.31" y="912.246" width="160.539" height="382.492" stroke="#917777" stroke-opacity="0.68"/>
<rect x="4858.85" y="782.223" width="158.372" height="510.476" fill="#917777" fill-opacity="0.68"/>
<rect x="4859.35" y="782.723" width="157.372" height="509.476" stroke="#917777" stroke-opacity="0.68"/>
<rect x="5026.72" y="784.762" width="196.381" height="510.476" fill="#917777" fill-opacity="0.68"/>
<rect x="5027.22" y="785.262" width="195.381" height="509.476" stroke="#917777" stroke-opacity="0.68"/>
<path d="M5020.73 1536.51H5194.6V1922.34L5130.61 1940.32C5109.9 1946.14 5089.89 1954.17 5070.9 1964.27L5010.89 1996.19L5020.73 1536.51Z" fill="#917777" fill-opacity="0.68"/>
<path d="M5011.4 1995.35L5021.22 1537.01H5194.1V1921.96L5130.47 1939.84C5109.73 1945.67 5089.68 1953.71 5070.67 1963.83L5011.4 1995.35Z" stroke="#917777" stroke-opacity="0.68"/>
<path d="M4819.26 1539.05H5002.12V2000L4936.09 2051.09C4905.99 2074.38 4880.6 2103.19 4861.26 2135.98L4808.91 2224.76L4819.26 1539.05Z" fill="#917777" fill-opacity="0.68"/>
<path d="M4809.44 2222.88L4819.75 1539.55H5001.62V1999.75L4935.78 2050.7C4905.63 2074.03 4880.2 2102.88 4860.83 2135.72L4809.44 2222.88Z" stroke="#917777" stroke-opacity="0.68"/>
<path d="M5026.72 129.523H5223.11V761.904H5026.72V129.523Z" fill="#917777" fill-opacity="0.68"/>
<path d="M5027.22 130.023H5222.61V761.404H5027.22V130.023Z" stroke="#917777" stroke-opacity="0.68"/>
<path d="M5495.51 413.967H5796.41V807.618H5495.51V413.967Z" fill="#917777" fill-opacity="0.68"/>
<path d="M5496.01 414.467H5795.91V807.118H5496.01V414.467Z" stroke="#917777" stroke-opacity="0.68"/>
<path d="M5495.51 911.746H5752.07V1109.84H5495.51V911.746Z" fill="#917777" fill-opacity="0.68"/>
<path d="M5496.01 912.246H5751.57V1109.34H5496.01V912.246Z" stroke="#917777" stroke-opacity="0.68"/>
<path d="M6486.91 911.746H6743.48V1320.63H6486.91V911.746Z" fill="#917777" fill-opacity="0.68"/>
<path d="M6487.41 912.246H6742.98V1320.13H6487.41V912.246Z" stroke="#917777" stroke-opacity="0.68"/>
<path d="M2324.9 3814.6L2454.76 3918.73H2514.94L2514.94 4139.68H2324.9V3814.6Z" fill="#917777" fill-opacity="0.68"/>
<path d="M2454.76 3919.23H2514.44L2514.44 4139.18H2325.4V3815.65L2454.45 3919.12L2454.59 3919.23H2454.76Z" stroke="#917777" stroke-opacity="0.68"/>
<path d="M2524.45 3923.2H2604.19L2704.99 3831.11V4139.68H2524.45V3923.2Z" fill="#917777" fill-opacity="0.68"/>
<path d="M2604.53 3923.57L2704.49 3832.24V4139.18H2524.95V3923.7H2604.19H2604.38L2604.53 3923.57Z" stroke="#917777" stroke-opacity="0.68"/>
<path d="M2711.33 3823.49L2773.09 3761.27L2853.86 3682.54H2877.62L2887.12 4135.87L2711.33 4139.68V3823.49Z" fill="#917777" fill-opacity="0.68"/>
<path d="M2711.83 4139.17V3823.7L2773.44 3761.63L2773.45 3761.62L2854.06 3683.04H2877.13L2886.61 4135.38L2711.83 4139.17Z" stroke="#917777" stroke-opacity="0.68"/>
<path d="M6094.15 2730.16H6420.4V3189.84H6094.15V2730.16Z" fill="#917777" fill-opacity="0.68"/>
<path d="M6094.65 2730.66H6419.9V3189.34H6094.65V2730.66Z" stroke="#917777" stroke-opacity="0.68"/>
<path d="M3081.92 3560.64H3246.62V3834.92L3242.7 3835.44C3188.29 3842.57 3136.88 3864.5 3094.06 3898.83L3081.92 3908.57V3560.64Z" fill="#B4A2A2"/>
<path d="M3081.92 3560.64H3246.62V3834.92C3189.99 3842.35 3137.69 3863.85 3097.11 3896.39L3081.92 3908.57V3560.64Z" fill="#B4A2A2"/>
<path d="M3242.64 3834.94C3212.9 3838.84 3184.06 3847.15 3157.03 3859.48C3135.08 3869.31 3114.79 3881.57 3096.79 3896L3093.75 3898.44L3082.42 3907.53V3561.14H3246.12V3834.48L3242.64 3834.94Z" stroke="#917777" stroke-opacity="0.68"/>
<path d="M2736.81 3563.17H3077.31V3912.38L2993.23 4020.32L2893.6 4126.98L2880.93 3677.46H2849.25L2736.81 3563.17Z" fill="#B4A2A2"/>
<path d="M2736.81 3563.17H3077.31V3912.38C3028.17 3922.64 2982.29 4015.43 2944.51 4073.63C2933.96 4089.88 2920.41 4103.82 2905.76 4116.48L2893.6 4126.98L2880.93 3677.46H2849.25L2736.81 3563.17Z" fill="#B4A2A2"/>
<path d="M2849.46 3676.96L2738 3563.67H3076.81V3911.98C3064.53 3914.65 3052.51 3922.39 3040.8 3933.35C3028.96 3944.44 3017.42 3958.85 3006.24 3974.74C2995.06 3990.63 2984.24 4008.02 2973.86 4025.07C2971.56 4028.84 2969.28 4032.6 2967.03 4036.32C2959.96 4047.98 2953.12 4059.27 2946.51 4069.6L2894.06 4125.75L2881.43 3677.45L2881.41 3676.96H2880.93H2849.46ZM3041.48 3934.08C3052.82 3923.47 3064.36 3915.98 3076.06 3913.17L2992.85 4019.99L2950.21 4065.64C2955.93 4056.55 2961.83 4046.82 2967.89 4036.83C2970.14 4033.11 2972.42 4029.36 2974.72 4025.59C2985.1 4008.54 2995.9 3991.18 3007.06 3975.32C3018.22 3959.45 3029.72 3945.1 3041.48 3934.08ZM2900.34 4120.5L2943.44 4074.36C2933.02 4090.12 2919.76 4103.72 2905.43 4116.1L2900.34 4120.5Z" stroke="#917777" stroke-opacity="0.68"/>
<path d="M3702.73 3565.71H3864.27V4114.28L3781.92 4036.82L3720.16 3944.13L3696.4 3922.54L3702.73 3565.71Z" fill="#917777" fill-opacity="0.68"/>
<path d="M3720.57 3943.85L3720.54 3943.8L3720.49 3943.76L3696.9 3922.32L3703.23 3566.21H3863.77V4113.13L3782.3 4036.5L3720.57 3943.85Z" stroke="#917777" stroke-opacity="0.68"/>
<path d="M3873.78 3565.71H4127.17L4190.52 3648.25L4095.5 3757.46V4114.28H3873.78V3565.71Z" fill="#917777" fill-opacity="0.68"/>
<path d="M4095.12 3757.13L4095 3757.27V3757.46V4113.78H3874.28V3566.21H4126.93L4189.87 3648.23L4095.12 3757.13Z" stroke="#917777" stroke-opacity="0.68"/>
<path d="M4190.52 3733.33L4236.45 3687.62L4371.06 3818.41V4116.83H4181.02L4190.52 3733.33Z" fill="#917777" fill-opacity="0.68"/>
<path d="M4236.45 3688.32L4370.56 3818.63V4116.33H4181.53L4191.01 3733.55L4236.45 3688.32Z" stroke="#917777" stroke-opacity="0.68"/>
<path d="M6174.92 3481.9H6480.58V3606.35H6276.28L6174.92 3481.9Z" fill="#917777" fill-opacity="0.68"/>
<path d="M6276.52 3605.85L6175.97 3482.4H6480.08V3605.85H6276.52Z" stroke="#917777" stroke-opacity="0.68"/>
<path d="M5365.64 3291.43L5500.52 3271.11L5660.21 3441.27V3467.94L5573.11 3579.68L5611.12 3606.35H5365.64V3291.43Z" fill="#917777" fill-opacity="0.68"/>
<path d="M5572.82 3580.09L5609.53 3605.85H5366.14V3291.86L5500.34 3271.64L5659.71 3441.47V3467.76L5572.71 3579.37L5572.39 3579.79L5572.82 3580.09Z" stroke="#917777" stroke-opacity="0.68"/>
<path d="M5052.06 3184.76L5095.33 3214.39C5117.07 3229.28 5140.68 3241.24 5165.54 3249.97L5204.1 3263.49V3601.27H5052.06V3184.76Z" fill="#917777" fill-opacity="0.68"/>
<path d="M5165.38 3250.44L5203.6 3263.85V3600.77H5052.56V3185.71L5095.05 3214.81C5116.82 3229.72 5140.47 3241.7 5165.38 3250.44Z" stroke="#917777" stroke-opacity="0.68"/>
<path d="M5207.27 3260.95L5225.75 3268.2C5260.63 3281.87 5297.77 3288.89 5335.23 3288.89H5359.31V3601.27H5207.27V3260.95Z" fill="#917777" fill-opacity="0.68"/>
<path d="M5358.81 3289.39V3600.77H5207.77V3261.69L5225.56 3268.66C5260.51 3282.36 5297.7 3289.39 5335.23 3289.39H5358.81Z" stroke="#917777" stroke-opacity="0.68"/>
<path d="M5970.62 2730.16H6081.48V3349.84H6037.14L5820.17 3094.6L5900.34 2978.45C5907.02 2968.76 5911.94 2957.98 5914.88 2946.59L5970.62 2730.16Z" fill="#917777" fill-opacity="0.68"/>
<path d="M5915.36 2946.71L5971.01 2730.66H6080.98V3349.34H6037.37L5820.8 3094.57L5900.75 2978.73C5907.46 2969 5912.41 2958.16 5915.36 2946.71Z" stroke="#917777" stroke-opacity="0.68"/>
<path d="M6090.98 3200H6426.73V3344.76H6090.98V3200Z" fill="#917777" fill-opacity="0.68"/>
<path d="M6091.48 3200.5H6426.23V3344.26H6091.48V3200.5Z" stroke="#917777" stroke-opacity="0.68"/>
<path d="M4846.18 3613.97H5042.56V4106.67H4846.18V3613.97Z" fill="#917777" fill-opacity="0.68"/>
<path d="M4846.68 3614.47H5042.06V4106.17H4846.68V3614.47Z" stroke="#917777" stroke-opacity="0.68"/>
<path d="M4380.57 3828.57L4458.17 3895.87H4545.27H4641.88L4709.98 3837.46V4114.29H4380.57V3828.57Z" fill="#917777" fill-opacity="0.68"/>
<path d="M4642.21 3896.25L4709.48 3838.55V4113.79H4381.07V3829.67L4457.84 3896.25L4457.98 3896.37H4458.17H4545.27H4641.88H4642.07L4642.21 3896.25Z" stroke="#917777" stroke-opacity="0.68"/>
<path d="M5052.06 3613.97H5204.1V4106.67H5052.06V3613.97Z" fill="#917777" fill-opacity="0.68"/>
<path d="M5052.56 3614.47H5203.6V4106.17H5052.56V3614.47Z" stroke="#917777" stroke-opacity="0.68"/>
<path d="M5216.77 3616.51H5349.8V4109.21H5216.77V3616.51Z" fill="#917777" fill-opacity="0.68"/>
<path d="M5217.27 3617.01H5349.3V4108.71H5217.27V3617.01Z" stroke="#917777" stroke-opacity="0.68"/>
<path d="M5367.22 3616.51H5500.26V4109.21H5367.22V3616.51Z" fill="#917777" fill-opacity="0.68"/>
<path d="M5367.72 3617.01H5499.76V4108.71H5367.72V3617.01Z" stroke="#917777" stroke-opacity="0.68"/>
<path d="M5669.71 3781.59H5815.42V3944.13V4106.67H5669.71V3781.59Z" fill="#917777" fill-opacity="0.68"/>
<path d="M5670.21 3782.09H5814.92V3944.13V4106.17H5670.21V3782.09Z" stroke="#917777" stroke-opacity="0.68"/>
<path d="M5598.39 3616.42L5659.85 3669.48L5663.01 3868.62V4120.82H5508.81V3616.42H5598.39Z" fill="#B4A2A2" stroke="#B4A2A2"/>
<path d="M5824.8 3786.67L5842.34 3635.56L5870.85 3608.89H5910.44L5970.5 3690.16L5924.57 3759.28L5970.5 3803.18L5970.5 4111.03H5824.8V3786.67Z" fill="#917777" fill-opacity="0.68"/>
<path d="M5924.15 3759L5923.92 3759.35L5924.22 3759.64L5970 3803.39V4110.53H5825.3V3786.7L5842.82 3635.8L5871.05 3609.39H5910.19L5969.89 3690.17L5924.15 3759Z" stroke="#917777" stroke-opacity="0.68"/>
<path d="M5976.96 3804.44L6073.56 3900.95H6125.83V4114.29H5976.96V3804.44Z" fill="#917777" fill-opacity="0.68"/>
<path d="M6073.56 3901.45H6125.33V4113.79H5977.46V3805.65L6073.21 3901.31L6073.36 3901.45H6073.56Z" stroke="#917777" stroke-opacity="0.68"/>
<path d="M6282.61 3608.89H6471.08V4114.29H6135.33V3899.68H6293.7L6374.47 3812.06V3707.94L6311.12 3643.18L6282.61 3608.89Z" fill="#917777" fill-opacity="0.68"/>
<path d="M6374.84 3812.4L6374.97 3812.26V3812.06V3707.94V3707.73L6374.83 3707.59L6311.49 3642.84L6283.68 3609.39H6470.58V4113.79H6135.83V3900.18H6293.7H6293.92L6294.07 3900.02L6374.84 3812.4Z" stroke="#917777" stroke-opacity="0.68"/>
<path d="M5598.21 3257.89L5710.51 3194.76C5711.81 3194.02 5713 3193.16 5714.05 3192.19L5815.41 3098.41L5976.95 3287.62L5782.16 3291.43L5782.16 3338.41L5712.47 3387.94L5598.21 3257.89Z" fill="#917777" fill-opacity="0.68"/>
<path d="M5781.61 3338.18L5712.54 3387.27L5598.98 3258.02L5710.84 3195.14C5712.18 3194.38 5713.39 3193.5 5714.47 3192.51L5815.39 3099.14L5975.94 3287.19L5782.1 3290.98L5781.61 3290.99L5781.61 3291.39L5781.61 3338.18Z" stroke="#917777" stroke-opacity="0.68"/>
<path d="M5809.08 1645.71H6429.9V2539.68H5969.04L5903.21 2326.42C5895.44 2301.23 5882.76 2277.82 5865.9 2257.54L5701.39 2059.68L5809.08 1873.02V1645.71Z" fill="#917777" fill-opacity="0.68"/>
<path d="M5809.51 1873.27L5809.58 1873.15V1873.02V1646.21H6429.4V2539.18H5969.41L5903.69 2326.27C5895.9 2301.01 5883.18 2277.55 5866.28 2257.22L5702 2059.63L5809.51 1873.27Z" stroke="#917777" stroke-opacity="0.68"/>
<path d="M5495.51 1117.46H5752.07V1315.56H5495.51V1117.46Z" fill="#917777" fill-opacity="0.68"/>
<path d="M5496.01 1117.96H5751.57V1315.06H5496.01V1117.96Z" stroke="#917777" stroke-opacity="0.68"/>
<path d="M5493.92 1323.18H5794.83V1870.48L5696.64 2046.99L5612.94 1996.03C5611.73 1995.29 5610.44 1994.69 5609.1 1994.22L5493.92 1954.29V1323.18Z" fill="#917777" fill-opacity="0.68"/>
<path d="M5494.42 1323.68H5794.33V1870.35L5696.45 2046.29L5613.2 1995.61C5611.96 1994.85 5610.64 1994.23 5609.26 1993.75L5494.42 1953.93V1323.68Z" stroke="#917777" stroke-opacity="0.68"/>
<path d="M5495.51 99.0479H6122.66V398.73H5495.51V99.0479Z" fill="#917777" fill-opacity="0.68"/>
<path d="M5496.01 99.5479H6122.16V398.23H5496.01V99.5479Z" stroke="#917777" stroke-opacity="0.68"/>
<path d="M6128.99 99.0479H6290.53V477.461L6128.99 400.284V99.0479Z" fill="#917777" fill-opacity="0.68"/>
<path d="M6129.49 99.5479H6290.03V476.668L6129.49 399.969V99.5479Z" stroke="#917777" stroke-opacity="0.68"/>
<path d="M6293.7 99.0479H6448.9V551.111L6293.7 476.191V99.0479Z" fill="#917777" fill-opacity="0.68"/>
<path d="M6294.2 99.5479H6448.4V550.315L6294.2 475.877V99.5479Z" stroke="#917777" stroke-opacity="0.68"/>
<path d="M6455.24 96.5078H6594.61V548.571H6455.24V96.5078Z" fill="#917777" fill-opacity="0.68"/>
<path d="M6455.74 97.0078H6594.11V548.071H6455.74V97.0078Z" stroke="#917777" stroke-opacity="0.68"/>
<path d="M6604.11 96.5078H6762.48V548.571H6604.11V96.5078Z" fill="#917777" fill-opacity="0.68"/>
<path d="M6604.61 97.0078H6761.98V548.071H6604.61V97.0078Z" stroke="#917777" stroke-opacity="0.68"/>
<path d="M4858.85 124.443H5020.39V764.443H4858.85V124.443Z" fill="#917777" fill-opacity="0.68"/>
<path d="M4859.35 124.943H5019.89V763.943H4859.35V124.943Z" stroke="#917777" stroke-opacity="0.68"/>
<path d="M4690.98 126.985H4852.51V586.668H4690.98V126.985Z" fill="#917777" fill-opacity="0.68"/>
<path d="M4691.48 127.485H4852.01V586.168H4691.48V127.485Z" stroke="#917777" stroke-opacity="0.68"/>
<path d="M4634.66 914.717H4677.42V1298.21H4515.88V1176.3H4561.81V1091.22L4515.88 1031.54L4634.66 914.717Z" fill="#917777" fill-opacity="0.68"/>
<path d="M4634.87 915.217H4676.92V1297.71H4516.38V1176.8H4561.81H4562.31V1176.3V1091.22V1091.05L4562.21 1090.92L4516.55 1031.59L4634.87 915.217Z" stroke="#917777" stroke-opacity="0.68"/>
<path d="M4523.1 126.985H4684.64V586.668H4523.1V126.985Z" fill="#917777" fill-opacity="0.68"/>
<path d="M4355.23 126.985H4516.77V586.668H4355.23V126.985Z" fill="#917777" fill-opacity="0.68"/>
<path d="M4523.6 127.485H4684.14V586.168H4523.6V127.485ZM4355.73 127.485H4516.27V586.168H4355.73V127.485Z" stroke="#917777" stroke-opacity="0.68"/>
<path d="M2828.52 165.081H2961.55V556.192H2861.78L2828.52 514.908V165.081Z" fill="#917777" fill-opacity="0.68"/>
<path d="M2829.02 165.581H2961.05V555.692H2862.02L2829.02 514.732V165.581Z" stroke="#917777" stroke-opacity="0.68"/>
<path d="M2701.82 165.081H2819.02V512.096L2787.35 556.192H2701.82V165.081Z" fill="#917777" fill-opacity="0.68"/>
<path d="M2702.32 165.581H2818.52V511.935L2787.09 555.692H2702.32V165.581Z" stroke="#917777" stroke-opacity="0.68"/>
<rect x="2971.06" y="165.081" width="133.032" height="391.111" fill="#917777" fill-opacity="0.68"/>
<rect x="2971.56" y="165.581" width="132.032" height="390.111" stroke="#917777" stroke-opacity="0.68"/>
<path d="M2971.06 566.349H3249.79V954.828L3122.86 996.245C3104.05 1002.38 3086.26 1011.27 3070.07 1022.63L2971.06 1092.06V771.145L3025.25 722.759L2971.06 674.967V566.349Z" fill="#917777" fill-opacity="0.68"/>
<path d="M3025.59 722.384L2971.56 674.742V566.849H3249.29V954.465L3122.7 995.769C3103.85 1001.92 3086.02 1010.83 3069.78 1022.22L2971.56 1091.1V771.369L3025.59 723.132L3026.01 722.757L3025.59 722.384Z" stroke="#917777" stroke-opacity="0.68"/>
<path d="M186.824 241.271H538.464V416.509H91.8556V324.509L186.824 241.271Z" fill="#917777" fill-opacity="0.68"/>
<path d="M92.3556 324.735L187.012 241.771H537.964V416.009H92.3556V324.735Z" stroke="#917777" stroke-opacity="0.68"/>
<rect x="91.8556" y="972.699" width="446.609" height="175.238" fill="#917777" fill-opacity="0.68"/>
<rect x="92.3556" y="973.199" width="445.609" height="174.238" stroke="#917777" stroke-opacity="0.68"/>
<rect x="91.8556" y="426.667" width="446.609" height="172.698" fill="#917777" fill-opacity="0.68"/>
<rect x="92.3556" y="427.167" width="445.609" height="171.698" stroke="#917777" stroke-opacity="0.68"/>
<rect x="570.139" y="1254.6" width="757.018" height="71.1111" fill="#917777" fill-opacity="0.68"/>
<rect x="570.639" y="1255.1" width="756.018" height="70.1111" stroke="#917777" stroke-opacity="0.68"/>
<path d="M921.724 609.524H1327.16V1254.6H921.724V1072.77L1165.5 940.723V771.877L921.724 609.524Z" fill="#917777" fill-opacity="0.68"/>
<path d="M1165.73 941.163L1166 941.021V940.723V771.877V771.609L1165.77 771.46L923.377 610.024H1326.66V1254.1H922.224V1073.07L1165.73 941.163Z" stroke="#917777" stroke-opacity="0.68"/>
<path d="M921.724 261.587H1232.06V390.687L1327.16 480.755L1327.16 604.444H987.581L955.682 579.693L921.724 604.444V261.587Z" fill="#917777" fill-opacity="0.68"/>
<path d="M955.387 579.289L922.224 603.461V262.087H1231.56V390.687V390.903L1231.71 391.05L1326.66 480.97L1326.66 603.944H987.753L955.988 579.298L955.691 579.067L955.387 579.289Z" stroke="#917777" stroke-opacity="0.68"/>
<rect x="776.022" y="253.969" width="133.032" height="350.476" fill="#917777" fill-opacity="0.68"/>
<rect x="776.522" y="254.469" width="132.032" height="349.476" stroke="#917777" stroke-opacity="0.68"/>
<g filter="url(#filter0_d_293_999)">
<path d="M2530.78 1162.29C2530.78 1161.98 2530.92 1161.69 2531.17 1161.5L2825.42 932.185C2825.6 932.048 2825.82 931.973 2826.04 931.973H2924.1C2924.66 931.973 2925.1 931.526 2925.1 930.973V849.935C2925.1 849.671 2925.21 849.419 2925.39 849.231L2959.82 814.445C2960.46 813.808 2961.54 814.259 2961.54 815.156L2959.4 1096.47C2959.39 1097.6 2958.81 1098.66 2957.84 1099.26V1099.26C2936.06 1112.85 2915.6 1128.43 2896.7 1145.81L2823.97 1212.72C2816.37 1219.71 2807.39 1225.02 2797.6 1228.32L2719.8 1254.55C2719.71 1254.59 2719.61 1254.6 2719.51 1254.6H2531.78C2531.23 1254.6 2530.78 1254.16 2530.78 1253.6V1162.29Z" fill="#917777" fill-opacity="0.68" shape-rendering="crispEdges"/>
<path d="M2531.28 1253.6V1162.29C2531.28 1162.14 2531.35 1161.99 2531.47 1161.9L2825.73 932.579C2825.82 932.511 2825.93 932.473 2826.04 932.473H2924.1C2924.93 932.473 2925.6 931.802 2925.6 930.973V849.935C2925.6 849.803 2925.66 849.677 2925.75 849.583L2960.18 814.797C2960.5 814.478 2961.04 814.704 2961.04 815.153L2958.9 1096.47C2958.9 1097.43 2958.4 1098.32 2957.58 1098.83C2935.77 1112.44 2915.28 1128.04 2896.36 1145.44L2823.63 1212.35C2816.08 1219.29 2807.16 1224.57 2797.44 1227.85L2719.64 1254.08C2719.6 1254.1 2719.55 1254.1 2719.51 1254.1H2531.78C2531.51 1254.1 2531.28 1253.88 2531.28 1253.6Z" stroke="#917777" stroke-opacity="0.68" shape-rendering="crispEdges"/>
</g>
<mask id="path-179-outside-1_293_999" maskUnits="userSpaceOnUse" x="206.883" y="657.698" width="64" height="26" fill="black">
<rect fill="white" x="206.883" y="657.698" width="64" height="26"/>
<path d="M208.184 681.698V665.335H210.613V667.891H210.827C211.167 667.018 211.718 666.34 212.478 665.857C213.238 665.367 214.15 665.122 215.216 665.122C216.295 665.122 217.194 665.367 217.911 665.857C218.635 666.34 219.2 667.018 219.605 667.891H219.775C220.194 667.046 220.823 666.375 221.661 665.878C222.499 665.374 223.504 665.122 224.676 665.122C226.139 665.122 227.336 665.58 228.266 666.496C229.197 667.405 229.662 668.822 229.662 670.747V681.698H227.148V670.747C227.148 669.539 226.817 668.676 226.157 668.158C225.496 667.639 224.719 667.38 223.824 667.38C222.673 667.38 221.782 667.728 221.15 668.424C220.518 669.113 220.202 669.987 220.202 671.045V681.698H217.645V670.491C217.645 669.56 217.343 668.811 216.739 668.243C216.135 667.668 215.358 667.38 214.406 667.38C213.753 667.38 213.142 667.554 212.574 667.902C212.013 668.25 211.558 668.733 211.21 669.351C210.869 669.962 210.699 670.668 210.699 671.471V681.698H208.184ZM234.259 681.698V665.335H236.773V681.698H234.259ZM235.537 662.607C235.047 662.607 234.624 662.44 234.269 662.107C233.921 661.773 233.747 661.372 233.747 660.903C233.747 660.434 233.921 660.033 234.269 659.699C234.624 659.365 235.047 659.198 235.537 659.198C236.027 659.198 236.446 659.365 236.794 659.699C237.149 660.033 237.327 660.434 237.327 660.903C237.327 661.372 237.149 661.773 236.794 662.107C236.446 662.44 236.027 662.607 235.537 662.607ZM252.969 668.999L250.71 669.639C250.568 669.262 250.359 668.896 250.082 668.541C249.812 668.179 249.442 667.881 248.974 667.646C248.505 667.412 247.905 667.295 247.173 667.295C246.172 667.295 245.337 667.526 244.67 667.987C244.009 668.442 243.679 669.021 243.679 669.724C243.679 670.349 243.906 670.842 244.361 671.205C244.815 671.567 245.526 671.869 246.491 672.11L248.92 672.707C250.384 673.062 251.474 673.605 252.191 674.337C252.908 675.061 253.267 675.995 253.267 677.139C253.267 678.076 252.997 678.914 252.457 679.653C251.925 680.391 251.179 680.974 250.22 681.4C249.261 681.826 248.146 682.039 246.875 682.039C245.206 682.039 243.825 681.677 242.731 680.953C241.637 680.228 240.945 679.17 240.653 677.778L243.04 677.181C243.267 678.062 243.697 678.722 244.329 679.163C244.968 679.603 245.803 679.823 246.832 679.823C248.004 679.823 248.935 679.575 249.624 679.078C250.32 678.573 250.668 677.97 250.668 677.266C250.668 676.698 250.469 676.222 250.071 675.839C249.673 675.448 249.062 675.157 248.239 674.965L245.511 674.326C244.013 673.971 242.912 673.421 242.209 672.675C241.513 671.922 241.165 670.981 241.165 669.852C241.165 668.928 241.424 668.112 241.942 667.401C242.468 666.691 243.182 666.134 244.084 665.729C244.993 665.324 246.023 665.122 247.173 665.122C248.793 665.122 250.064 665.477 250.987 666.187C251.918 666.897 252.578 667.835 252.969 668.999ZM261.867 682.082C260.83 682.082 259.889 681.886 259.044 681.496C258.199 681.098 257.528 680.526 257.03 679.781C256.533 679.028 256.285 678.119 256.285 677.053C256.285 676.116 256.469 675.356 256.839 674.774C257.208 674.184 257.702 673.722 258.319 673.389C258.937 673.055 259.619 672.806 260.365 672.643C261.118 672.472 261.874 672.337 262.634 672.238C263.628 672.11 264.434 672.014 265.052 671.95C265.677 671.879 266.132 671.762 266.416 671.599C266.707 671.435 266.853 671.151 266.853 670.747V670.661C266.853 669.61 266.565 668.793 265.99 668.211C265.422 667.629 264.559 667.337 263.401 667.337C262.201 667.337 261.26 667.6 260.578 668.126C259.896 668.651 259.417 669.212 259.14 669.809L256.753 668.957C257.179 667.962 257.748 667.188 258.458 666.634C259.175 666.073 259.956 665.683 260.802 665.462C261.654 665.235 262.492 665.122 263.316 665.122C263.841 665.122 264.445 665.185 265.127 665.313C265.816 665.434 266.48 665.686 267.119 666.07C267.765 666.453 268.302 667.032 268.728 667.806C269.154 668.58 269.367 669.617 269.367 670.917V681.698H266.853V679.482H266.725C266.554 679.837 266.27 680.217 265.873 680.622C265.475 681.027 264.946 681.372 264.285 681.656C263.625 681.94 262.819 682.082 261.867 682.082ZM262.251 679.823C263.245 679.823 264.083 679.628 264.765 679.237C265.454 678.847 265.972 678.342 266.32 677.725C266.675 677.107 266.853 676.457 266.853 675.775V673.474C266.746 673.602 266.512 673.719 266.15 673.825C265.795 673.925 265.383 674.014 264.914 674.092C264.452 674.163 264.001 674.227 263.561 674.283C263.128 674.333 262.776 674.376 262.506 674.411C261.853 674.497 261.242 674.635 260.674 674.827C260.113 675.011 259.658 675.292 259.31 675.668C258.969 676.038 258.799 676.542 258.799 677.181C258.799 678.055 259.122 678.715 259.768 679.163C260.422 679.603 261.249 679.823 262.251 679.823Z"/>
</mask>
<path d="M208.184 681.698V665.335H210.613V667.891H210.827C211.167 667.018 211.718 666.34 212.478 665.857C213.238 665.367 214.15 665.122 215.216 665.122C216.295 665.122 217.194 665.367 217.911 665.857C218.635 666.34 219.2 667.018 219.605 667.891H219.775C220.194 667.046 220.823 666.375 221.661 665.878C222.499 665.374 223.504 665.122 224.676 665.122C226.139 665.122 227.336 665.58 228.266 666.496C229.197 667.405 229.662 668.822 229.662 670.747V681.698H227.148V670.747C227.148 669.539 226.817 668.676 226.157 668.158C225.496 667.639 224.719 667.38 223.824 667.38C222.673 667.38 221.782 667.728 221.15 668.424C220.518 669.113 220.202 669.987 220.202 671.045V681.698H217.645V670.491C217.645 669.56 217.343 668.811 216.739 668.243C216.135 667.668 215.358 667.38 214.406 667.38C213.753 667.38 213.142 667.554 212.574 667.902C212.013 668.25 211.558 668.733 211.21 669.351C210.869 669.962 210.699 670.668 210.699 671.471V681.698H208.184ZM234.259 681.698V665.335H236.773V681.698H234.259ZM235.537 662.607C235.047 662.607 234.624 662.44 234.269 662.107C233.921 661.773 233.747 661.372 233.747 660.903C233.747 660.434 233.921 660.033 234.269 659.699C234.624 659.365 235.047 659.198 235.537 659.198C236.027 659.198 236.446 659.365 236.794 659.699C237.149 660.033 237.327 660.434 237.327 660.903C237.327 661.372 237.149 661.773 236.794 662.107C236.446 662.44 236.027 662.607 235.537 662.607ZM252.969 668.999L250.71 669.639C250.568 669.262 250.359 668.896 250.082 668.541C249.812 668.179 249.442 667.881 248.974 667.646C248.505 667.412 247.905 667.295 247.173 667.295C246.172 667.295 245.337 667.526 244.67 667.987C244.009 668.442 243.679 669.021 243.679 669.724C243.679 670.349 243.906 670.842 244.361 671.205C244.815 671.567 245.526 671.869 246.491 672.11L248.92 672.707C250.384 673.062 251.474 673.605 252.191 674.337C252.908 675.061 253.267 675.995 253.267 677.139C253.267 678.076 252.997 678.914 252.457 679.653C251.925 680.391 251.179 680.974 250.22 681.4C249.261 681.826 248.146 682.039 246.875 682.039C245.206 682.039 243.825 681.677 242.731 680.953C241.637 680.228 240.945 679.17 240.653 677.778L243.04 677.181C243.267 678.062 243.697 678.722 244.329 679.163C244.968 679.603 245.803 679.823 246.832 679.823C248.004 679.823 248.935 679.575 249.624 679.078C250.32 678.573 250.668 677.97 250.668 677.266C250.668 676.698 250.469 676.222 250.071 675.839C249.673 675.448 249.062 675.157 248.239 674.965L245.511 674.326C244.013 673.971 242.912 673.421 242.209 672.675C241.513 671.922 241.165 670.981 241.165 669.852C241.165 668.928 241.424 668.112 241.942 667.401C242.468 666.691 243.182 666.134 244.084 665.729C244.993 665.324 246.023 665.122 247.173 665.122C248.793 665.122 250.064 665.477 250.987 666.187C251.918 666.897 252.578 667.835 252.969 668.999ZM261.867 682.082C260.83 682.082 259.889 681.886 259.044 681.496C258.199 681.098 257.528 680.526 257.03 679.781C256.533 679.028 256.285 678.119 256.285 677.053C256.285 676.116 256.469 675.356 256.839 674.774C257.208 674.184 257.702 673.722 258.319 673.389C258.937 673.055 259.619 672.806 260.365 672.643C261.118 672.472 261.874 672.337 262.634 672.238C263.628 672.11 264.434 672.014 265.052 671.95C265.677 671.879 266.132 671.762 266.416 671.599C266.707 671.435 266.853 671.151 266.853 670.747V670.661C266.853 669.61 266.565 668.793 265.99 668.211C265.422 667.629 264.559 667.337 263.401 667.337C262.201 667.337 261.26 667.6 260.578 668.126C259.896 668.651 259.417 669.212 259.14 669.809L256.753 668.957C257.179 667.962 257.748 667.188 258.458 666.634C259.175 666.073 259.956 665.683 260.802 665.462C261.654 665.235 262.492 665.122 263.316 665.122C263.841 665.122 264.445 665.185 265.127 665.313C265.816 665.434 266.48 665.686 267.119 666.07C267.765 666.453 268.302 667.032 268.728 667.806C269.154 668.58 269.367 669.617 269.367 670.917V681.698H266.853V679.482H266.725C266.554 679.837 266.27 680.217 265.873 680.622C265.475 681.027 264.946 681.372 264.285 681.656C263.625 681.94 262.819 682.082 261.867 682.082ZM262.251 679.823C263.245 679.823 264.083 679.628 264.765 679.237C265.454 678.847 265.972 678.342 266.32 677.725C266.675 677.107 266.853 676.457 266.853 675.775V673.474C266.746 673.602 266.512 673.719 266.15 673.825C265.795 673.925 265.383 674.014 264.914 674.092C264.452 674.163 264.001 674.227 263.561 674.283C263.128 674.333 262.776 674.376 262.506 674.411C261.853 674.497 261.242 674.635 260.674 674.827C260.113 675.011 259.658 675.292 259.31 675.668C258.969 676.038 258.799 676.542 258.799 677.181C258.799 678.055 259.122 678.715 259.768 679.163C260.422 679.603 261.249 679.823 262.251 679.823Z" fill="white"/>
<path d="M208.184 681.698H207.184V682.698H208.184V681.698ZM208.184 665.335V664.335H207.184V665.335H208.184ZM210.613 665.335H211.613V664.335H210.613V665.335ZM210.613 667.891H209.613V668.891H210.613V667.891ZM210.827 667.891V668.891H211.51L211.758 668.255L210.827 667.891ZM212.478 665.857L213.014 666.701L213.02 666.697L212.478 665.857ZM217.911 665.857L217.347 666.682L217.356 666.689L217.911 665.857ZM219.605 667.891L218.698 668.312L218.966 668.891H219.605V667.891ZM219.775 667.891V668.891H220.396L220.671 668.336L219.775 667.891ZM221.661 665.878L222.171 666.738L222.177 666.735L221.661 665.878ZM228.266 666.496L227.564 667.208L227.567 667.211L228.266 666.496ZM229.662 681.698V682.698H230.662V681.698H229.662ZM227.148 681.698H226.148V682.698H227.148V681.698ZM226.157 668.158L225.539 668.944L225.539 668.944L226.157 668.158ZM221.15 668.424L221.887 669.1L221.89 669.096L221.15 668.424ZM220.202 681.698V682.698H221.202V681.698H220.202ZM217.645 681.698H216.645V682.698H217.645V681.698ZM216.739 668.243L216.049 668.967L216.054 668.971L216.739 668.243ZM212.574 667.902L212.051 667.049L212.047 667.052L212.574 667.902ZM211.21 669.351L210.339 668.86L210.337 668.864L211.21 669.351ZM210.699 681.698V682.698H211.699V681.698H210.699ZM209.184 681.698V665.335H207.184V681.698H209.184ZM208.184 666.335H210.613V664.335H208.184V666.335ZM209.613 665.335V667.891H211.613V665.335H209.613ZM210.613 668.891H210.827V666.891H210.613V668.891ZM211.758 668.255C212.025 667.571 212.441 667.065 213.014 666.701L211.941 665.013C210.994 665.615 210.31 666.465 209.895 667.528L211.758 668.255ZM213.02 666.697C213.591 666.329 214.308 666.122 215.216 666.122V664.122C213.993 664.122 212.884 664.405 211.936 665.016L213.02 666.697ZM215.216 666.122C216.143 666.122 216.832 666.331 217.347 666.682L218.475 665.031C217.555 664.402 216.447 664.122 215.216 664.122V666.122ZM217.356 666.689C217.912 667.059 218.362 667.587 218.698 668.312L220.512 667.471C220.038 666.449 219.359 665.62 218.466 665.025L217.356 666.689ZM219.605 668.891H219.775V666.891H219.605V668.891ZM220.671 668.336C221.002 667.669 221.493 667.14 222.171 666.738L221.151 665.018C220.153 665.61 219.387 666.423 218.879 667.447L220.671 668.336ZM222.177 666.735C222.831 666.341 223.65 666.122 224.676 666.122V664.122C223.359 664.122 222.168 664.406 221.145 665.021L222.177 666.735ZM224.676 666.122C225.911 666.122 226.844 666.499 227.564 667.208L228.968 665.783C227.827 664.66 226.367 664.122 224.676 664.122V666.122ZM227.567 667.211C228.229 667.858 228.662 668.962 228.662 670.747H230.662C230.662 668.681 230.164 666.952 228.965 665.781L227.567 667.211ZM228.662 670.747V681.698H230.662V670.747H228.662ZM229.662 680.698H227.148V682.698H229.662V680.698ZM228.148 681.698V670.747H226.148V681.698H228.148ZM228.148 670.747C228.148 669.373 227.769 668.152 226.774 667.371L225.539 668.944C225.866 669.201 226.148 669.706 226.148 670.747H228.148ZM226.774 667.371C225.926 666.705 224.927 666.38 223.824 666.38V668.38C224.51 668.38 225.067 668.574 225.539 668.944L226.774 667.371ZM223.824 666.38C222.459 666.38 221.272 666.801 220.409 667.752L221.89 669.096C222.291 668.655 222.887 668.38 223.824 668.38V666.38ZM220.413 667.748C219.589 668.646 219.202 669.772 219.202 671.045H221.202C221.202 670.201 221.446 669.58 221.887 669.1L220.413 667.748ZM219.202 671.045V681.698H221.202V671.045H219.202ZM220.202 680.698H217.645V682.698H220.202V680.698ZM218.645 681.698V670.491H216.645V681.698H218.645ZM218.645 670.491C218.645 669.322 218.255 668.296 217.425 667.515L216.054 668.971C216.431 669.326 216.645 669.799 216.645 670.491H218.645ZM217.429 667.519C216.613 666.741 215.575 666.38 214.406 666.38V668.38C215.14 668.38 215.658 668.594 216.049 668.967L217.429 667.519ZM214.406 666.38C213.565 666.38 212.773 666.607 212.051 667.049L213.096 668.755C213.51 668.501 213.941 668.38 214.406 668.38V666.38ZM212.047 667.052C211.332 667.496 210.763 668.107 210.339 668.86L212.081 669.842C212.353 669.359 212.693 669.005 213.101 668.752L212.047 667.052ZM210.337 668.864C209.901 669.644 209.699 670.523 209.699 671.471H211.699C211.699 670.814 211.837 670.279 212.083 669.838L210.337 668.864ZM209.699 671.471V681.698H211.699V671.471H209.699ZM210.699 680.698H208.184V682.698H210.699V680.698ZM234.259 681.698H233.259V682.698H234.259V681.698ZM234.259 665.335V664.335H233.259V665.335H234.259ZM236.773 665.335H237.773V664.335H236.773V665.335ZM236.773 681.698V682.698H237.773V681.698H236.773ZM234.269 662.107L233.577 662.828L233.584 662.835L234.269 662.107ZM234.269 659.699L233.584 658.97L233.577 658.977L234.269 659.699ZM236.794 659.699L236.102 660.421L236.109 660.428L236.794 659.699ZM236.794 662.107L236.109 661.378L236.102 661.385L236.794 662.107ZM235.259 681.698V665.335H233.259V681.698H235.259ZM234.259 666.335H236.773V664.335H234.259V666.335ZM235.773 665.335V681.698H237.773V665.335H235.773ZM236.773 680.698H234.259V682.698H236.773V680.698ZM235.537 661.607C235.3 661.607 235.123 661.536 234.954 661.378L233.584 662.835C234.126 663.344 234.794 663.607 235.537 663.607V661.607ZM234.962 661.385C234.804 661.234 234.747 661.09 234.747 660.903H232.747C232.747 661.653 233.039 662.312 233.577 662.828L234.962 661.385ZM234.747 660.903C234.747 660.715 234.804 660.572 234.962 660.421L233.577 658.977C233.039 659.494 232.747 660.153 232.747 660.903H234.747ZM234.954 660.428C235.123 660.269 235.3 660.198 235.537 660.198V658.198C234.794 658.198 234.126 658.461 233.584 658.97L234.954 660.428ZM235.537 660.198C235.774 660.198 235.944 660.269 236.102 660.421L237.486 658.977C236.949 658.462 236.28 658.198 235.537 658.198V660.198ZM236.109 660.428C236.272 660.581 236.327 660.722 236.327 660.903H238.327C238.327 660.146 238.026 659.485 237.479 658.97L236.109 660.428ZM236.327 660.903C236.327 661.083 236.272 661.225 236.109 661.378L237.479 662.835C238.026 662.321 238.327 661.66 238.327 660.903H236.327ZM236.102 661.385C235.944 661.537 235.774 661.607 235.537 661.607V663.607C236.28 663.607 236.949 663.344 237.486 662.828L236.102 661.385ZM252.969 668.999L253.241 669.962L254.25 669.676L253.917 668.681L252.969 668.999ZM250.71 669.639L249.775 669.992L250.099 670.851L250.983 670.601L250.71 669.639ZM250.082 668.541L249.28 669.139L249.286 669.148L249.293 669.156L250.082 668.541ZM248.974 667.646L249.421 666.752L249.421 666.752L248.974 667.646ZM244.67 667.987L245.237 668.811L245.238 668.81L244.67 667.987ZM244.361 671.205L243.738 671.987L243.738 671.987L244.361 671.205ZM246.491 672.11L246.249 673.08L246.253 673.081L246.491 672.11ZM248.92 672.707L248.682 673.678L248.685 673.679L248.92 672.707ZM252.191 674.337L251.477 675.037L251.48 675.04L252.191 674.337ZM252.457 679.653L251.65 679.063L251.646 679.068L252.457 679.653ZM242.731 680.953L243.283 680.119L243.283 680.119L242.731 680.953ZM240.653 677.778L240.411 676.808L239.478 677.041L239.675 677.983L240.653 677.778ZM243.04 677.181L244.008 676.931L243.76 675.97L242.797 676.211L243.04 677.181ZM244.329 679.163L243.757 679.983L243.762 679.986L244.329 679.163ZM249.624 679.078L250.209 679.888L250.21 679.887L249.624 679.078ZM250.071 675.839L249.37 676.552L249.377 676.559L250.071 675.839ZM248.239 674.965L248.01 675.939L248.012 675.939L248.239 674.965ZM245.511 674.326L245.281 675.299L245.283 675.3L245.511 674.326ZM242.209 672.675L241.474 673.354L241.481 673.361L242.209 672.675ZM241.942 667.401L241.139 666.807L241.135 666.812L241.942 667.401ZM244.084 665.729L243.677 664.815L243.674 664.816L244.084 665.729ZM250.987 666.187L250.377 666.98L250.38 666.982L250.987 666.187ZM252.696 668.037L250.438 668.676L250.983 670.601L253.241 669.962L252.696 668.037ZM251.646 669.286C251.464 668.804 251.202 668.351 250.87 667.926L249.293 669.156C249.516 669.441 249.672 669.72 249.775 669.992L251.646 669.286ZM250.884 667.944C250.506 667.438 250.007 667.045 249.421 666.752L248.526 668.541C248.878 668.716 249.117 668.921 249.28 669.139L250.884 667.944ZM249.421 666.752C248.77 666.426 248.002 666.295 247.173 666.295V668.295C247.807 668.295 248.24 668.398 248.526 668.541L249.421 666.752ZM247.173 666.295C246.017 666.295 244.971 666.563 244.101 667.165L245.238 668.81C245.703 668.488 246.327 668.295 247.173 668.295V666.295ZM244.103 667.164C243.215 667.774 242.679 668.641 242.679 669.724H244.679C244.679 669.4 244.803 669.109 245.237 668.811L244.103 667.164ZM242.679 669.724C242.679 670.627 243.025 671.419 243.738 671.987L244.984 670.423C244.787 670.266 244.679 670.071 244.679 669.724H242.679ZM243.738 671.987C244.357 672.48 245.229 672.825 246.249 673.08L246.734 671.14C245.822 670.912 245.274 670.653 244.984 670.423L243.738 671.987ZM246.253 673.081L248.682 673.678L249.159 671.736L246.73 671.139L246.253 673.081ZM248.685 673.679C250.046 674.009 250.938 674.487 251.477 675.037L252.905 673.637C252.009 672.723 250.721 672.115 249.156 671.735L248.685 673.679ZM251.48 675.04C251.989 675.554 252.267 676.224 252.267 677.139H254.267C254.267 675.767 253.828 674.568 252.902 673.633L251.48 675.04ZM252.267 677.139C252.267 677.87 252.061 678.5 251.65 679.063L253.265 680.243C253.933 679.328 254.267 678.283 254.267 677.139H252.267ZM251.646 679.068C251.232 679.642 250.636 680.121 249.814 680.486L250.626 682.314C251.722 681.827 252.617 681.141 253.268 680.238L251.646 679.068ZM249.814 680.486C249.007 680.845 248.035 681.039 246.875 681.039V683.039C248.257 683.039 249.516 682.807 250.626 682.314L249.814 680.486ZM246.875 681.039C245.349 681.039 244.174 680.709 243.283 680.119L242.179 681.786C243.475 682.645 245.063 683.039 246.875 683.039V681.039ZM243.283 680.119C242.428 679.553 241.874 678.731 241.632 677.573L239.675 677.983C240.015 679.608 240.846 680.904 242.179 681.786L243.283 680.119ZM240.896 678.748L243.282 678.151L242.797 676.211L240.411 676.808L240.896 678.748ZM242.071 677.431C242.347 678.499 242.895 679.382 243.757 679.983L244.9 678.342C244.499 678.062 244.187 677.624 244.008 676.931L242.071 677.431ZM243.762 679.986C244.614 680.574 245.665 680.823 246.832 680.823V678.823C245.94 678.823 245.322 678.632 244.896 678.339L243.762 679.986ZM246.832 680.823C248.136 680.823 249.296 680.547 250.209 679.888L249.038 678.267C248.574 678.602 247.872 678.823 246.832 678.823V680.823ZM250.21 679.887C251.101 679.242 251.668 678.363 251.668 677.266H249.668C249.668 677.576 249.538 677.904 249.037 678.268L250.21 679.887ZM251.668 677.266C251.668 676.435 251.364 675.697 250.765 675.119L249.377 676.559C249.573 676.748 249.668 676.961 249.668 677.266H251.668ZM250.772 675.125C250.192 674.556 249.382 674.205 248.465 673.991L248.012 675.939C248.743 676.109 249.155 676.341 249.37 676.552L250.772 675.125ZM248.467 673.992L245.74 673.352L245.283 675.3L248.01 675.939L248.467 673.992ZM245.742 673.353C244.344 673.022 243.454 672.538 242.936 671.989L241.481 673.361C242.37 674.303 243.682 674.92 245.281 675.299L245.742 673.353ZM242.943 671.996C242.436 671.447 242.165 670.757 242.165 669.852H240.165C240.165 671.205 240.59 672.397 241.475 673.354L242.943 671.996ZM242.165 669.852C242.165 669.129 242.363 668.521 242.75 667.991L241.135 666.812C240.485 667.702 240.165 668.728 240.165 669.852H242.165ZM242.746 667.996C243.158 667.44 243.729 666.984 244.493 666.641L243.674 664.816C242.635 665.283 241.778 665.943 241.139 666.807L242.746 667.996ZM244.491 666.642C245.253 666.303 246.141 666.122 247.173 666.122V664.122C245.904 664.122 244.733 664.345 243.677 664.815L244.491 666.642ZM247.173 666.122C248.656 666.122 249.686 666.447 250.377 666.98L251.597 665.394C250.442 664.506 248.929 664.122 247.173 664.122V666.122ZM250.38 666.982C251.144 667.564 251.69 668.332 252.021 669.317L253.917 668.681C253.466 667.337 252.691 666.23 251.594 665.392L250.38 666.982ZM259.044 681.496L258.618 682.401L258.624 682.404L259.044 681.496ZM257.03 679.781L256.196 680.332L256.198 680.335L257.03 679.781ZM256.839 674.774L257.683 675.309L257.686 675.304L256.839 674.774ZM258.319 673.389L258.795 674.268L258.319 673.389ZM260.365 672.643L260.579 673.62L260.586 673.618L260.365 672.643ZM262.634 672.238L262.507 671.246L262.504 671.246L262.634 672.238ZM265.052 671.95L265.155 672.945L265.165 672.944L265.052 671.95ZM266.416 671.599L265.927 670.727L265.918 670.732L266.416 671.599ZM265.99 668.211L265.274 668.909L265.278 668.914L265.99 668.211ZM260.578 668.126L261.188 668.918L261.188 668.918L260.578 668.126ZM259.14 669.809L258.803 670.751L259.663 671.058L260.047 670.23L259.14 669.809ZM256.753 668.957L255.834 668.563L255.415 669.541L256.417 669.899L256.753 668.957ZM258.458 666.634L259.073 667.423L259.074 667.422L258.458 666.634ZM260.802 665.462L261.054 666.43L261.059 666.429L260.802 665.462ZM265.127 665.313L264.943 666.296L264.954 666.298L265.127 665.313ZM267.119 666.07L266.605 666.927L266.609 666.93L267.119 666.07ZM268.728 667.806L267.852 668.288L267.852 668.288L268.728 667.806ZM269.367 681.698V682.698H270.367V681.698H269.367ZM266.853 681.698H265.853V682.698H266.853V681.698ZM266.853 679.482H267.853V678.482H266.853V679.482ZM266.725 679.482V678.482H266.096L265.823 679.05L266.725 679.482ZM265.873 680.622L266.586 681.323L266.586 681.323L265.873 680.622ZM264.285 681.656L263.89 680.737L264.285 681.656ZM264.765 679.237L264.271 678.367L264.268 678.37L264.765 679.237ZM266.32 677.725L265.453 677.226L265.449 677.234L266.32 677.725ZM266.853 673.474H267.853V670.712L266.085 672.834L266.853 673.474ZM266.15 673.825L266.419 674.788L266.432 674.785L266.15 673.825ZM264.914 674.092L265.066 675.08L265.078 675.078L264.914 674.092ZM263.561 674.283L263.675 675.277L263.689 675.275L263.561 674.283ZM262.506 674.411L262.636 675.403L262.637 675.403L262.506 674.411ZM260.674 674.827L260.986 675.777L260.994 675.774L260.674 674.827ZM259.31 675.668L258.576 674.99L258.575 674.99L259.31 675.668ZM259.768 679.163L259.199 679.985L259.209 679.992L259.768 679.163ZM261.867 681.082C260.958 681.082 260.163 680.911 259.463 680.588L258.624 682.404C259.615 682.862 260.702 683.082 261.867 683.082V681.082ZM259.47 680.591C258.782 680.267 258.254 679.814 257.862 679.226L256.198 680.335C256.801 681.239 257.615 681.929 258.618 682.401L259.47 680.591ZM257.865 679.23C257.494 678.668 257.285 677.959 257.285 677.053H255.285C255.285 678.279 255.572 679.388 256.196 680.332L257.865 679.23ZM257.285 677.053C257.285 676.239 257.446 675.683 257.683 675.309L255.994 674.238C255.493 675.028 255.285 675.992 255.285 677.053H257.285ZM257.686 675.304C257.963 674.863 258.327 674.521 258.795 674.268L257.844 672.509C257.076 672.924 256.453 673.505 255.991 674.243L257.686 675.304ZM258.795 674.268C259.324 673.983 259.916 673.765 260.579 673.62L260.151 671.666C259.322 671.848 258.551 672.127 257.844 672.509L258.795 674.268ZM260.586 673.618C261.309 673.454 262.035 673.325 262.764 673.23L262.504 671.246C261.714 671.35 260.927 671.49 260.144 671.668L260.586 673.618ZM262.762 673.23C263.752 673.103 264.549 673.008 265.155 672.945L264.949 670.956C264.32 671.021 263.505 671.118 262.507 671.246L262.762 673.23ZM265.165 672.944C265.824 672.869 266.447 672.734 266.914 672.466L265.918 670.732C265.817 670.79 265.531 670.89 264.939 670.957L265.165 672.944ZM266.905 672.471C267.584 672.09 267.853 671.422 267.853 670.747H265.853C265.853 670.832 265.837 670.839 265.854 670.807C265.862 670.791 265.875 670.772 265.892 670.755C265.908 670.738 265.922 670.729 265.927 670.727L266.905 672.471ZM267.853 670.747V670.661H265.853V670.747H267.853ZM267.853 670.661C267.853 669.425 267.51 668.327 266.701 667.508L265.278 668.914C265.62 669.26 265.853 669.795 265.853 670.661H267.853ZM266.706 667.513C265.882 666.668 264.713 666.337 263.401 666.337V668.337C264.405 668.337 264.962 668.589 265.274 668.909L266.706 667.513ZM263.401 666.337C262.065 666.337 260.882 666.629 259.967 667.334L261.188 668.918C261.638 668.571 262.336 668.337 263.401 668.337V666.337ZM259.967 667.334C259.196 667.928 258.595 668.608 258.233 669.388L260.047 670.23C260.238 669.817 260.596 669.375 261.188 668.918L259.967 667.334ZM259.476 668.867L257.09 668.015L256.417 669.899L258.803 670.751L259.476 668.867ZM257.673 669.351C258.045 668.48 258.52 667.854 259.073 667.423L257.843 665.846C256.975 666.523 256.313 667.445 255.834 668.563L257.673 669.351ZM259.074 667.422C259.688 666.942 260.347 666.614 261.054 666.43L260.55 664.495C259.566 664.751 258.662 665.205 257.842 665.847L259.074 667.422ZM261.059 666.429C261.833 666.222 262.585 666.122 263.316 666.122V664.122C262.399 664.122 261.474 664.248 260.544 664.496L261.059 666.429ZM263.316 666.122C263.764 666.122 264.304 666.176 264.943 666.296L265.311 664.33C264.587 664.195 263.919 664.122 263.316 664.122V666.122ZM264.954 666.298C265.515 666.396 266.064 666.603 266.605 666.927L267.634 665.212C266.896 664.77 266.117 664.472 265.3 664.328L264.954 666.298ZM266.609 666.93C267.077 667.207 267.496 667.643 267.852 668.288L269.604 667.324C269.107 666.421 268.454 665.699 267.629 665.21L266.609 666.93ZM267.852 668.288C268.167 668.861 268.367 669.712 268.367 670.917H270.367C270.367 669.522 270.141 668.299 269.604 667.324L267.852 668.288ZM268.367 670.917V681.698H270.367V670.917H268.367ZM269.367 680.698H266.853V682.698H269.367V680.698ZM267.853 681.698V679.482H265.853V681.698H267.853ZM266.853 678.482H266.725V680.482H266.853V678.482ZM265.823 679.05C265.716 679.272 265.511 679.564 265.159 679.921L266.586 681.323C267.03 680.871 267.393 680.402 267.626 679.915L265.823 679.05ZM265.159 679.921C264.873 680.213 264.462 680.491 263.89 680.737L264.68 682.574C265.43 682.252 266.077 681.842 266.586 681.323L265.159 679.921ZM263.89 680.737C263.388 680.953 262.725 681.082 261.867 681.082V683.082C262.913 683.082 263.862 682.926 264.68 682.574L263.89 680.737ZM262.251 680.823C263.374 680.823 264.394 680.602 265.262 680.105L264.268 678.37C263.772 678.653 263.116 678.823 262.251 678.823V680.823ZM265.258 680.107C266.086 679.638 266.744 679.01 267.191 678.215L265.449 677.234C265.2 677.675 264.821 678.056 264.271 678.367L265.258 680.107ZM267.187 678.223C267.625 677.46 267.853 676.64 267.853 675.775H265.853C265.853 676.274 265.725 676.753 265.453 677.226L267.187 678.223ZM267.853 675.775V673.474H265.853V675.775H267.853ZM266.085 672.834C266.124 672.786 266.156 672.762 266.165 672.756C266.175 672.749 266.172 672.752 266.15 672.763C266.103 672.786 266.014 672.823 265.868 672.866L266.432 674.785C266.647 674.721 266.857 674.646 267.044 674.552C267.222 674.463 267.443 674.327 267.621 674.114L266.085 672.834ZM265.88 672.862C265.568 672.95 265.192 673.032 264.749 673.105L265.078 675.078C265.573 674.996 266.021 674.9 266.419 674.788L265.88 672.862ZM264.762 673.103C264.308 673.173 263.865 673.236 263.433 673.292L263.689 675.275C264.138 675.217 264.597 675.152 265.066 675.08L264.762 673.103ZM263.447 673.29C263.011 673.34 262.653 673.383 262.376 673.42L262.637 675.403C262.899 675.368 263.244 675.326 263.675 675.277L263.447 673.29ZM262.377 673.42C261.665 673.513 260.99 673.665 260.354 673.879L260.994 675.774C261.494 675.605 262.041 675.481 262.636 675.403L262.377 673.42ZM260.361 673.877C259.664 674.106 259.056 674.471 258.576 674.99L260.044 676.347C260.261 676.113 260.562 675.916 260.986 675.777L260.361 673.877ZM258.575 674.99C258.021 675.59 257.799 676.361 257.799 677.181H259.799C259.799 676.722 259.917 676.485 260.045 676.347L258.575 674.99ZM257.799 677.181C257.799 678.34 258.25 679.328 259.199 679.985L260.337 678.341C259.994 678.103 259.799 677.769 259.799 677.181H257.799ZM259.209 679.992C260.068 680.57 261.104 680.823 262.251 680.823V678.823C261.394 678.823 260.776 678.636 260.327 678.333L259.209 679.992Z" fill="#917777" fill-opacity="0.68" mask="url(#path-179-outside-1_293_999)"/>
<path d="M85.5207 1556.83H608.148V1876.83H85.5207V1556.83Z" fill="#917777" fill-opacity="0.68"/>
<path d="M86.0207 1557.33H607.648V1876.33H86.0207V1557.33Z" stroke="#917777" stroke-opacity="0.68"/>
<path d="M725.343 1559.37H1035.75V1666.03H725.343V1559.37Z" fill="#917777" fill-opacity="0.68"/>
<path d="M725.843 1559.87H1035.25V1665.53H725.843V1559.87Z" stroke="#917777" stroke-opacity="0.68"/>
<path d="M2236.21 1554.29H2397.75V1897.14H2236.21V1554.29Z" fill="#917777" fill-opacity="0.68"/>
<path d="M2236.71 1554.79H2397.25V1896.64H2236.71V1554.79Z" stroke="#917777" stroke-opacity="0.68"/>
<path d="M2404.08 1554.29H2565.62V1897.14H2404.08V1554.29Z" fill="#917777" fill-opacity="0.68"/>
<path d="M2404.58 1554.79H2565.12V1896.64H2404.58V1554.79Z" stroke="#917777" stroke-opacity="0.68"/>
<path d="M2571.96 1554.29H2727.16V1897.14H2571.96V1554.29Z" fill="#917777" fill-opacity="0.68"/>
<path d="M2572.46 1554.79H2726.66V1896.64H2572.46V1554.79Z" stroke="#917777" stroke-opacity="0.68"/>
<path d="M2736.67 1554.29H2895.04V1897.14H2736.67V1554.29Z" fill="#917777" fill-opacity="0.68"/>
<path d="M2737.17 1554.79H2894.54V1896.64H2737.17V1554.79Z" stroke="#917777" stroke-opacity="0.68"/>
<path d="M2910.88 1556.83H3069.25V1899.68H2910.88V1556.83Z" fill="#917777" fill-opacity="0.68"/>
<path d="M2911.38 1557.33H3068.75V1899.18H2911.38V1557.33Z" stroke="#917777" stroke-opacity="0.68"/>
<path d="M3078.75 1556.83H3237.12V1899.68H3078.75V1556.83Z" fill="#917777" fill-opacity="0.68"/>
<path d="M3079.25 1557.33H3236.62V1899.18H3079.25V1557.33Z" stroke="#917777" stroke-opacity="0.68"/>
<path d="M3075.58 1902.22H3243.46V2318.73H3075.58V1902.22Z" fill="#917777" fill-opacity="0.68"/>
<path d="M3076.08 1902.72H3242.96V2318.23H3076.08V1902.72Z" stroke="#917777" stroke-opacity="0.68"/>
<path d="M2474.27 2504.63H3220.78V2739.82H2474.27V2504.63Z" fill="#73C7A4"/>
<path d="M2474.27 2504.63H3220.78V2739.82H2474.27V2504.63Z" fill="#73C7A4"/>
<path d="M2474.27 2504.63H3220.78V2739.82H2474.27V2504.63Z" fill="#73C7A4"/>
<path d="M2474.27 2504.63H3220.78V2739.82H2474.27V2504.63Z" fill="#73C7A4"/>
<path d="M2474.27 2504.63H3220.78V2739.82H2474.27V2504.63Z" stroke="#222B41"/>
<path d="M3475.18 2504.63H4221.69V2739.82H3475.18V2504.63Z" fill="#73C7A4"/>
<path d="M3475.18 2504.63H4221.69V2739.82H3475.18V2504.63Z" fill="#73C7A4"/>
<path d="M3475.18 2504.63H4221.69V2739.82H3475.18V2504.63Z" fill="#73C7A4"/>
<path d="M3475.18 2504.63H4221.69V2739.82H3475.18V2504.63Z" fill="#73C7A4"/>
<path d="M3475.18 2504.63H4221.69V2739.82H3475.18V2504.63Z" stroke="#222B41"/>
<path d="M2901.37 1902.22H3069.25V2318.73H2901.37V1902.22Z" fill="#917777" fill-opacity="0.68"/>
<path d="M2901.87 1902.72H3068.75V2318.23H2901.87V1902.72Z" stroke="#917777" stroke-opacity="0.68"/>
<path d="M2727.16 1902.22H2895.04V2318.73H2727.16V1902.22Z" fill="#917777" fill-opacity="0.68"/>
<path d="M2727.66 1902.72H2894.54V2318.23H2727.66V1902.72Z" stroke="#917777" stroke-opacity="0.68"/>
<path d="M2571.96 1902.22H2720.83V2318.73H2571.96V1902.22Z" fill="#917777" fill-opacity="0.68"/>
<path d="M2572.46 1902.72H2720.33V2318.23H2572.46V1902.72Z" stroke="#917777" stroke-opacity="0.68"/>
<path d="M2404.08 1902.22H2565.62V2318.73H2404.08V1902.22Z" fill="#917777" fill-opacity="0.68"/>
<path d="M2404.58 1902.72H2565.12V2318.23H2404.58V1902.72Z" stroke="#917777" stroke-opacity="0.68"/>
<path d="M2231.11 1903.49H2392.65V2320L2354.48 2307.55C2317.97 2295.64 2284.09 2276.84 2254.67 2252.15L2231.11 2232.38V1903.49Z" fill="#917777" fill-opacity="0.68"/>
<path d="M2231.61 1903.99H2392.15V2319.31L2354.64 2307.08C2318.19 2295.19 2284.36 2276.41 2254.99 2251.77L2231.61 2232.15V1903.99Z" stroke="#917777" stroke-opacity="0.68"/>
<path d="M1688.24 1551.75H1887.79V2003.81L1788.02 1991.11H1688.24V1551.75Z" fill="#917777" fill-opacity="0.68"/>
<path d="M1788.02 1990.61H1688.74V1552.25H1887.29V2003.24L1788.08 1990.62L1788.05 1990.61H1788.02Z" stroke="#917777" stroke-opacity="0.68"/>
<path d="M1890.96 1553.01H2052.5V2062.22L2007.21 2036.4C1989.99 2026.58 1971.4 2019.37 1952.06 2015.02L1890.96 2001.27V1553.01Z" fill="#917777" fill-opacity="0.68"/>
<path d="M1891.46 1553.51H2052V2061.36L2007.46 2035.96C1990.19 2026.12 1971.56 2018.9 1952.17 2014.53L1891.46 2000.87V1553.51Z" stroke="#917777" stroke-opacity="0.68"/>
<path d="M2058.83 1554.29H2226.71V2228.57L2145.24 2139.6C2138.33 2132.05 2130.84 2125.04 2122.85 2118.63L2058.83 2067.3V1554.29Z" fill="#917777" fill-opacity="0.68"/>
<path d="M2059.33 1554.79H2226.21V2227.28L2145.61 2139.26C2138.68 2131.69 2131.17 2124.66 2123.16 2118.24L2059.33 2067.06V1554.79Z" stroke="#917777" stroke-opacity="0.68"/>
<path d="M1187.79 2219.68H1235.3L1201.49 2353.54L1187.79 2463.49V2219.68Z" fill="#917777" fill-opacity="0.68"/>
<path d="M1201 2353.48L1188.29 2455.44V2220.18H1234.66L1201.01 2353.42L1201 2353.45L1201 2353.48Z" stroke="#917777" stroke-opacity="0.68"/>
<path d="M1187.79 1886.98H1352.5V2068.71L1311.18 2111.45C1295.49 2127.68 1281.67 2145.63 1270.01 2164.96L1240.05 2214.6H1187.79V1886.98Z" fill="#917777" fill-opacity="0.68"/>
<path d="M1188.29 1887.48H1352V2068.51L1310.82 2111.1C1295.1 2127.36 1281.27 2145.34 1269.58 2164.7L1239.77 2214.1H1188.29V1887.48Z" stroke="#917777" stroke-opacity="0.68"/>
<path d="M1042.09 1559.37H1352.5V1876.83H1192.54L1192.54 1668.57H1042.09V1559.37Z" fill="#917777" fill-opacity="0.68"/>
<path d="M1192.54 1668.07H1042.59V1559.87H1352V1876.33H1193.04L1193.04 1668.57V1668.07H1192.54Z" stroke="#917777" stroke-opacity="0.68"/>
<path d="M88.688 1884.45H611.315V2059.68H88.688V1884.45Z" fill="#917777" fill-opacity="0.68"/>
<path d="M89.188 1884.95H610.815V2059.18H89.188V1884.95Z" stroke="#917777" stroke-opacity="0.68"/>
<path d="M88.688 2064.76H611.315V2240H88.688V2064.76Z" fill="#917777" fill-opacity="0.68"/>
<path d="M89.188 2065.26H610.815V2239.5H89.188V2065.26Z" stroke="#917777" stroke-opacity="0.68"/>
<path d="M88.688 2247.62H611.315V2453.33H88.688V2247.62Z" fill="#917777" fill-opacity="0.68"/>
<path d="M89.188 2248.12H610.815V2452.83H89.188V2248.12Z" stroke="#917777" stroke-opacity="0.68"/>
<path d="M88.688 2463.49H1187.79V2780.95H88.688V2463.49Z" fill="#917777" fill-opacity="0.68"/>
<path d="M89.188 2463.99H1187.29V2780.45H89.188V2463.99Z" stroke="#917777" stroke-opacity="0.68"/>
<path d="M966.069 3080.64L1102.27 3150.48L940.729 3380.32L848.873 3315.56L966.069 3080.64Z" fill="#917777" fill-opacity="0.68"/>
<path d="M849.513 3315.4L966.29 3081.31L1101.53 3150.66L940.608 3379.62L849.513 3315.4Z" stroke="#917777" stroke-opacity="0.68"/>
<path d="M402.266 3285.08L641.408 3408.25L802.947 3547.94L696.838 3701.03L321.501 3451.43L402.266 3285.08Z" fill="#917777" fill-opacity="0.68"/>
<path d="M402.266 3285.08L641.408 3408.25L802.947 3547.94L696.838 3701.03L321.501 3451.43L402.266 3285.08Z" fill="#917777" fill-opacity="0.68"/>
<path d="M402.266 3285.08L641.408 3408.25L802.947 3547.94L696.838 3701.03L321.501 3451.43L402.266 3285.08Z" stroke="#917777" stroke-opacity="0.68"/>
<path d="M402.266 3285.08L641.408 3408.25L802.947 3547.94L696.838 3701.03L321.501 3451.43L402.266 3285.08Z" fill="#B4A2A2"/>
<path d="M402.266 3285.08L641.408 3408.25L802.947 3547.94L696.838 3701.03L321.501 3451.43L402.266 3285.08Z" fill="#B4A2A2"/>
<path d="M402.266 3285.08L641.408 3408.25L802.947 3547.94L696.838 3701.03L321.501 3451.43L402.266 3285.08Z" stroke="#917777" stroke-opacity="0.68"/>
<path d="M88.688 2786.03H1187.79V3079.92L1162.81 3148.62L771.463 2953.97H594.941L315.169 3459.05L88.688 3357.27V2786.03Z" fill="#917777" fill-opacity="0.68"/>
<path d="M771.686 2953.52L771.58 2953.47H771.463H594.941H594.646L594.503 2953.72L314.955 3458.4L89.188 3356.94V2786.53H1187.29V3079.83L1162.53 3147.92L771.686 2953.52Z" stroke="#917777" stroke-opacity="0.68"/>
<path d="M5033.93 3612.93L4838.24 3613.85L4833.51 2967.29L4930.99 3094.9C4940.53 3107.38 4951.5 3118.7 4963.68 3128.63L5034.1 3186.05L5033.93 3612.93Z" fill="#B4A2A2"/>
<path d="M5033.93 3612.93L4838.24 3613.85L4833.51 2967.29L4907.58 3064.25C4932.68 3097.11 4962.55 3127.71 4996.63 3155.5L5034.1 3186.05L5033.93 3612.93Z" fill="#B4A2A2"/>
<path d="M5033.93 3612.93L4838.24 3613.85L4833.51 2967.29L4907.58 3064.25C4932.68 3097.11 4962.55 3127.71 4996.63 3155.5L5034.1 3186.05L5033.93 3612.93Z" fill="#B4A2A2"/>
<path d="M4927.26 3089.19C4940.57 3104.52 4954.96 3119.3 4970.37 3133.44L4963.99 3128.25C4951.84 3118.34 4940.9 3107.05 4931.39 3094.6L4927.26 3089.19ZM4907.19 3064.56C4907.21 3064.58 4907.23 3064.61 4907.25 3064.64L4930.6 3095.2C4940.16 3107.72 4951.15 3119.07 4963.36 3129.02L4996.24 3155.83C4996.27 3155.85 4996.29 3155.86 4996.31 3155.88L5033.6 3186.29L5033.43 3612.44L4838.74 3613.35L4834.02 2968.78L4907.19 3064.56Z" stroke="#917777" stroke-opacity="0.68"/>
<path d="M4561.11 2897.78H4735.32V3578.41L4561.11 3414.6V2897.78Z" fill="#917777" fill-opacity="0.68"/>
<path d="M4561.61 2898.28H4734.82V3577.26L4561.61 3414.39V2898.28Z" stroke="#917777" stroke-opacity="0.68"/>
<path d="M4386.9 2897.78H4548.44V3415.87L4516.77 3434.92L4478.76 3403.18L4524.68 3362.54L4424.91 3258.41H4383.73L4386.9 2897.78Z" fill="#917777" fill-opacity="0.68"/>
<path d="M4516.81 3434.31L4479.52 3403.16L4525.02 3362.91L4525.41 3362.57L4525.05 3362.19L4425.27 3258.07L4425.12 3257.91H4424.91H4384.24L4387.4 2898.28H4547.94V3415.59L4516.81 3434.31Z" stroke="#917777" stroke-opacity="0.68"/>
<path d="M4219.03 2897.78H4374.23V3253.33H4219.03V2897.78Z" fill="#917777" fill-opacity="0.68"/>
<path d="M4219.53 2898.28H4373.73V3252.83H4219.53V2898.28Z" stroke="#917777" stroke-opacity="0.68"/>
<path d="M3861.11 2897.78H4022.65V3281.27H3861.11V2897.78Z" fill="#917777" fill-opacity="0.68"/>
<path d="M3861.61 2898.28H4022.15V3280.77H3861.61V2898.28Z" stroke="#917777" stroke-opacity="0.68"/>
<path d="M3693.23 2897.78H3854.77V3281.27H3693.23V2897.78Z" fill="#917777" fill-opacity="0.68"/>
<path d="M3693.73 2898.28H3854.27V3280.77H3693.73V2898.28Z" stroke="#917777" stroke-opacity="0.68"/>
<path d="M3519.02 2897.78H3680.56V3281.27H3519.02V2897.78Z" fill="#917777" fill-opacity="0.68"/>
<path d="M3519.52 2898.28H3680.06V3280.77H3519.52V2898.28Z" stroke="#917777" stroke-opacity="0.68"/>
<path d="M3156.95 2900.32H3305.82V3443.81H3156.95V2900.32Z" fill="#917777" fill-opacity="0.68"/>
<path d="M3157.45 2900.82H3305.32V3443.31H3157.45V2900.82Z" stroke="#917777" stroke-opacity="0.68"/>
<path d="M2954.24 2897.78H3125.28V3441.27H2954.24V2897.78Z" fill="#917777" fill-opacity="0.68"/>
<path d="M2954.74 2898.28H3124.78V3440.77H2954.74V2898.28Z" stroke="#917777" stroke-opacity="0.68"/>
<path d="M2780.03 2900.32H2941.57V3263.49H2780.03V2900.32Z" fill="#917777" fill-opacity="0.68"/>
<path d="M2780.53 2900.82H2941.07V3262.99H2780.53V2900.82Z" stroke="#917777" stroke-opacity="0.68"/>
<path d="M2612.16 2897.78H2764.19V3260.95H2612.16V2897.78Z" fill="#917777" fill-opacity="0.68"/>
<path d="M2612.66 2898.28H2763.69V3260.45H2612.66V2898.28Z" stroke="#917777" stroke-opacity="0.68"/>
<path d="M2099.03 3649.52H2301.75V4116.83H2099.03V3649.52Z" fill="#917777" fill-opacity="0.68"/>
<path d="M2099.53 3650.02H2301.25V4116.33H2099.53V3650.02Z" stroke="#917777" stroke-opacity="0.68"/>
<path d="M1921.65 3649.52H2089.53V4116.83H1921.65V3649.52Z" fill="#917777" fill-opacity="0.68"/>
<path d="M1922.15 3650.02H2089.03V4116.33H1922.15V3650.02Z" stroke="#917777" stroke-opacity="0.68"/>
<path d="M1590.66 3268.57L1750.61 3260.95V3649.52H1582.74L1427.53 3387.94L1464.28 3350.15C1488.17 3325.57 1516.1 3305.28 1546.85 3290.14L1590.66 3268.57Z" fill="#917777" fill-opacity="0.68"/>
<path d="M1547.07 3290.59L1590.78 3269.07L1750.11 3261.48V3649.02H1583.02L1428.16 3388.01L1464.64 3350.5C1488.49 3325.96 1516.37 3305.7 1547.07 3290.59Z" stroke="#917777" stroke-opacity="0.68"/>
<path d="M1753.78 3649.52H1915.32V4116.83H1753.78V3649.52Z" fill="#917777" fill-opacity="0.68"/>
<path d="M1754.28 3650.02H1914.82V4116.33H1754.28V3650.02Z" stroke="#917777" stroke-opacity="0.68"/>
<path d="M1193.14 3858.19L1275.5 3803.17L1328.56 3873.01L1408.53 3824.76L1465.54 3904.76L1328.56 3998.84L1193.14 3858.19Z" fill="#917777" fill-opacity="0.68"/>
<path d="M1464.84 3904.64L1328.62 3998.2L1193.9 3858.28L1275.38 3803.84L1328.09 3873.23L1328.42 3873.67L1328.9 3873.38L1408.38 3825.42L1464.84 3904.64Z" stroke="#917777" stroke-opacity="0.68"/>
<path d="M1072.78 3710.71L1149.26 3656.35L1272.33 3800.63L1188.39 3850.16L1072.78 3710.71Z" fill="#917777" fill-opacity="0.68"/>
<path d="M1188.52 3849.52L1073.5 3710.8L1149.17 3657.02L1271.57 3800.52L1188.52 3849.52Z" stroke="#917777" stroke-opacity="0.68"/>
<path d="M931.521 3839.38L1070.89 3719.53L1368.63 4071.28L1201.06 4179.05L931.521 3839.38Z" fill="#917777" fill-opacity="0.68"/>
<path d="M1201.15 4178.39L932.21 3839.47L1070.86 3720.24L1367.89 4071.15L1201.15 4178.39Z" stroke="#917777" stroke-opacity="0.68"/>
<path d="M1647.67 3926.35L1647.67 4121.9L1278.66 4318.73L1197.16 4178.64L1647.67 3926.35Z" fill="#917777" fill-opacity="0.68"/>
<path d="M1197.85 4178.82L1647.13 3927.21L1647.12 4121.64L1278.87 4318.07L1197.85 4178.82Z" stroke="#917777" stroke-opacity="0.68"/>
<path d="M1418.03 3396.83L1498.73 3536.75L1275.02 3666.23L1213.73 3582.22L1418.03 3396.83Z" fill="#B4A2A2"/>
<path d="M1418.03 3396.83L1498.73 3536.75L1275.02 3666.23L1213.73 3582.22L1418.03 3396.83Z" fill="#B4A2A2"/>
<path d="M1418.03 3396.83L1498.73 3536.75L1275.02 3666.23L1213.73 3582.22L1418.03 3396.83Z" stroke="#917777" stroke-opacity="0.68"/>
<path d="M1585.91 3654.6H1747.45V4121.9H1655.59V3748.57L1585.91 3654.6Z" fill="#917777" fill-opacity="0.68"/>
<path d="M1586.9 3655.1H1746.95V4121.4H1656.09V3748.57V3748.41L1655.99 3748.27L1586.9 3655.1Z" stroke="#917777" stroke-opacity="0.68"/>
<path d="M2472.79 2897.78H2602.65V3263.49H2472.79V2897.78Z" fill="#917777" fill-opacity="0.68"/>
<path d="M2473.29 2898.28H2602.15V3262.99H2473.29V2898.28Z" stroke="#917777" stroke-opacity="0.68"/>
<path d="M2099.03 3164.44L2157.26 3131.57C2193.02 3111.37 2224.26 3084.05 2249.03 3051.29L2301.75 2981.59V3641.9H2099.03V3164.44Z" fill="#917777" fill-opacity="0.68"/>
<path d="M2249.43 3051.59L2301.25 2983.08V3641.4H2099.53V3164.74L2157.5 3132C2193.33 3111.77 2224.62 3084.41 2249.43 3051.59Z" stroke="#917777" stroke-opacity="0.68"/>
<path d="M1921.65 3234.29L1935.55 3231.5C1976.51 3223.29 2015.31 3206.61 2049.46 3182.54L2089.53 3154.29V3641.91H1921.65V3234.29Z" fill="#917777" fill-opacity="0.68"/>
<path d="M2049.74 3182.95L2089.03 3155.25V3641.41H1922.15V3234.7L1935.65 3231.99C1976.68 3223.77 2015.54 3207.06 2049.74 3182.95Z" stroke="#917777" stroke-opacity="0.68"/>
<path d="M1756.95 3262.82H1771.42C1804.83 3262.82 1837.99 3257.24 1869.56 3246.32L1915.32 3230.48V3641.91H1756.95V3262.82Z" fill="#917777" fill-opacity="0.68"/>
<path d="M1869.72 3246.79L1914.82 3231.18V3641.41H1757.45V3263.32H1771.42C1804.88 3263.32 1838.11 3257.73 1869.72 3246.79Z" stroke="#917777" stroke-opacity="0.68"/>
<path d="M2311.25 2976.51V2976.51C2348.21 2936.17 2397.5 2909.21 2451.41 2899.84L2463.29 2897.78V3263.49H2311.25V2976.51Z" fill="#917777" fill-opacity="0.68"/>
<path d="M2451.5 2900.33L2462.79 2898.37V3262.99H2311.75V2976.7C2348.62 2936.52 2397.76 2909.67 2451.5 2900.33Z" stroke="#917777" stroke-opacity="0.68"/>
<path d="M3531.69 3566.1H3693.23V3919.11L3691.24 3918.01C3646.84 3893.49 3596.94 3880.63 3546.22 3880.63H3531.69V3566.1Z" fill="#917777" fill-opacity="0.68"/>
<path d="M3532.19 3566.6H3692.73V3918.27L3691.48 3917.57C3647.01 3893.02 3597.03 3880.13 3546.22 3880.13H3532.19V3566.6Z" stroke="#917777" stroke-opacity="0.68"/>
<path d="M4035.32 2897.78H4196.86V3255.87H4147.76L4111.33 3281.27H4035.32V2897.78Z" fill="#917777" fill-opacity="0.68"/>
<path d="M4111.18 3280.77H4035.82V2898.28H4196.36V3255.37H4147.76H4147.6L4147.47 3255.46L4111.18 3280.77Z" stroke="#917777" stroke-opacity="0.68"/>
<defs>
<filter id="filter0_d_293_999" x="2526.78" y="814.146" width="438.753" height="448.456" filterUnits="userSpaceOnUse" color-interpolation-filters="sRGB">
<feFlood flood-opacity="0" result="BackgroundImageFix"/>
<feColorMatrix in="SourceAlpha" type="matrix" values="0 0 0 0 0 0 0 0 0 0 0 0 0 0 0 0 0 0 127 0" result="hardAlpha"/>
<feOffset dy="4"/>
<feGaussianBlur stdDeviation="2"/>
<feComposite in2="hardAlpha" operator="out"/>
<feColorMatrix type="matrix" values="0 0 0 0 0 0 0 0 0 0 0 0 0 0 0 0 0 0 0.25 0"/>
<feBlend mode="normal" in2="BackgroundImageFix" result="effect1_dropShadow_293_999"/>
<feBlend mode="normal" in="SourceGraphic" in2="effect1_dropShadow_293_999" result="shape"/>
</filter>
</defs>
</svg>
