<svg width="688" height="688" viewBox="0 0 688 688" fill="none" xmlns="http://www.w3.org/2000/svg">
<g id="Group 358" filter="url(#filter0_d_520_565)">
<path id="Vector" d="M682.96 0H4V680H682.96V0Z" fill="#FFFCFC" fill-opacity="0.7"/>
<path id="Vector_2" d="M24.9717 569.996H124.728L119.04 358.877H91.4758V100.255H344.804V21.9648H18.8463L24.9717 569.996Z" fill="#DCDCDC"/>
<path id="Vector_3" d="M212.688 360.727H151.896L156.707 504.081H206.565V582.354H281.352L270.856 472.86L212.688 393.707V360.727Z" fill="#DCDCDC"/>
<path id="Vector_4" d="M126.459 577.031H57.4279V643.016H126.459V577.031Z" fill="#DCDCDC"/>
<path id="Vector_5" d="M281.352 609.641H132.605V675.53H281.352V609.641Z" fill="#DCDCDC"/>
<path id="Vector_6" d="M433.598 21.9648H352.18V97.6472H433.598V21.9648Z" fill="#DCDCDC"/>
<path id="Vector_7" d="M674.165 177.703H578.846V289.325H674.165V177.703Z" fill="#DCDCDC"/>
<path id="233037" d="M526.837 291.129H466.033V321.649H526.837V291.129Z" fill="#DCDCDC"/>
<path id="233036" d="M526.837 322.789H466.033V353.214H526.837V322.789Z" fill="#DCDCDC"/>
<path id="Vector_8" d="M578.657 291.129H528.066V353.5H578.657V291.129Z" fill="#DCDCDC"/>
<path id="Vector_9" d="M674.165 291.129H581.4V373.847H674.165V291.129Z" fill="#DCDCDC"/>
<path id="Vector 45" d="M290.961 381.32L287.801 378.143M287.801 378.143L250.714 340.848L276.524 288.939L331.645 266.504L366.204 297.737L383.703 276.622L418.262 297.737L437.948 336.449L431.824 388.358L396.389 436.748L331.645 450.385L283.961 432.789L260.776 409.474L287.801 378.143Z" stroke="black" stroke-width="0.5"/>
<path id="Vector 52" d="M266.033 360.209L346.516 279.246M361.825 291.566L280.03 373.849" stroke="black" stroke-width="0.5"/>
<path id="Vector 53" d="M396.435 327.258H423.574V402.37H396.435V327.258Z" stroke="black" stroke-width="0.5"/>
<path id="Vector_10" d="M591.423 408.172H570.903V448.77H591.423V408.172Z" fill="#DCDCDC"/>
<path id="Vector_11" d="M684 518.938H594.544V632.841H684V518.938Z" fill="#DCDCDC"/>
<path id="233033" d="M590.856 577.031H531.565V632.462H590.856V577.031Z" fill="#DCDCDC"/>
<path id="233032" d="M530.052 577.031H486.08V632.842H530.052V577.031Z" fill="#DCDCDC"/>
<path id="233031" d="M480.974 575.32H450.147V632.557H480.974V575.32Z" fill="#DCDCDC"/>
<path id="233030" d="M445.04 575.32H414.402V632.557H445.04V575.32Z" fill="#DCDCDC"/>
<path id="233029" d="M409.201 575.32H364.473V632.557H409.201V575.32Z" fill="#DCDCDC"/>
<path id="Vector_12" d="M569.579 405.508H507.924V451.906H569.579V405.508Z" fill="#DCDCDC"/>
<path id="233055" d="M450.147 521.598H373.173V561.531H450.147V521.598Z" fill="#DCDCDC"/>
<path id="233054" d="M491.092 476.816H453.74V561.626H491.092V476.816Z" fill="#DCDCDC"/>
<path id="233052" d="M437.82 435.528L452.132 419.582V519.604H421.305L422.039 450.024L437.82 435.528Z" fill="#DCDCDC"/>
<path id="233053" d="M491.092 406.078H453.74V474.249H491.092V406.078Z" fill="#DCDCDC"/>
<path id="233051" d="M386.745 467.801L418.657 450.387V519.318H373.173V486.667L373.906 481.225L376.841 476.145L380.876 472.155L386.745 467.801Z" fill="#DCDCDC"/>
<path id="Vector_13" d="M571.754 379.172H681.069V513.993H593.764V405.991H571.754V379.172Z" fill="#DCDCDC"/>
<path id="Vector 43" d="M226.222 122.27H210.04M183.799 122.27H210.04M163.681 122.27H156.246M148.811 122.27H156.246M156.246 122.27V157.457M156.246 176.37V157.457M156.246 157.457H210.04M156.246 157.457H107.262M210.04 157.457V122.27M210.04 157.457V211.558M210.04 253.343V211.558M210.04 211.558H168.492V275.335H210.04V321.078H172.865V292.049M156.246 225.193V233.77M156.246 259.5V242.346V233.77M156.246 233.77H107.262V195.613M127.818 122.27H107.262V157.457M107.262 157.457V195.613M156.246 194.844L107.262 195.613" stroke="black" stroke-width="0.5"/>
<path id="Vector 44" d="M108.113 232.656V274.966H156.246" stroke="black" stroke-width="0.5"/>
<path id="233004" d="M472.085 49.25H440.501V107.343H472.085V49.25Z" fill="#DCDCDC"/>
<path id="Vector_14" d="M517.475 49.25H477.286V121.414H517.475V49.25Z" fill="#DCDCDC"/>
<path id="233002" d="M560.501 49.25H520.123V121.414H560.501V49.25Z" fill="#DCDCDC"/>
<path id="Vector_15" d="M605.891 49.25H565.608V121.414H605.891V49.25Z" fill="#DCDCDC"/>
<path id="Vector_16" d="M666.695 51.0586H615.971V122.708H594.544V172.379H666.695V51.0586Z" fill="#DCDCDC"/>
<path id="Vector_17" d="M517.475 49.25H477.286V121.414H517.475V49.25Z" fill="#DCDCDC"/>
<path id="233003" d="M517.475 49.25H477.286V121.414H517.475V49.25Z" fill="#DCDCDC"/>
<path id="Vector 46" d="M566.096 198.429V181.279M566.096 181.279V164.129H572.653V181.279H566.096ZM574.402 197.109H478.232V145.66H574.402V197.109Z" stroke="black" stroke-width="0.5"/>
<path id="Vector 47" d="M479.461 164.484H502.661M502.661 164.484V195.72M502.661 164.484H518.856M518.856 164.484V176.803M518.856 164.484H535.052M518.856 195.72V176.803M518.856 176.803H535.052V164.484M535.052 164.484V197.48M546.433 164.484V195.72M558.252 207.599H538.992M495.219 290.748V270.951M538.992 207.599H495.219V232.676M538.992 207.599V270.951H495.219M495.219 270.951V232.676M495.219 232.676H560.003M560.003 232.676V207.599L566.131 197.48H576.199V232.676H560.003Z" stroke="black" stroke-width="0.5"/>
<path id="Vector 48" d="M574.892 452.191H577.957M577.957 452.191H589.343V555.497M577.957 452.191V558.134H589.343V555.497M577.957 466.698H503.953V572.608H589.343V555.497" stroke="black" stroke-width="0.5"/>
<path id="Vector 49" d="M504.426 493.93H529.792M577.901 493.93H565.217M565.217 493.93V467.594H548.161V493.93M565.217 493.93H548.161M548.161 493.93H529.792M529.792 493.93V467.594" stroke="black" stroke-width="0.5"/>
<path id="Vector 50" d="M533.056 493.074V503.913M533.056 514.752V527.397M533.056 540.043V549.075H507.924H551.067M576.199 549.075H563.633M551.067 549.075V537.634M551.067 549.075H563.633M551.067 493.074V511.139M551.067 511.139H576.199M551.067 511.139V537.634M551.067 537.634H563.633M576.199 537.634H563.633M563.633 537.634V549.075" stroke="black" stroke-width="0.5"/>
<path id="Vector 51" d="M357.002 482.426H292.7V566.95H357.002V482.426Z" stroke="black" stroke-width="0.5"/>
<g id="237001">
<path id="Vector_18" d="M347.482 279.513L267.343 357.488L281.602 373.998L361.741 296.023L347.482 279.513Z" fill="#73C7A4"/>
<path id="Vector_19" d="M325.869 321.77L317.85 320.084C317.531 320.017 317.227 320.058 317.014 320.198L303.843 328.859L298.616 327.76C297.359 327.496 296.341 328.096 296.362 329.089L296.454 333.616C296.474 334.609 297.525 335.645 298.781 335.909L306.8 337.595C307.12 337.662 307.423 337.621 307.636 337.481L320.809 328.82L326.035 329.919C327.291 330.183 328.309 329.583 328.289 328.59L328.197 324.063C328.177 323.069 327.126 322.034 325.869 321.77ZM325.998 328.108L320.27 326.904C319.951 326.837 319.647 326.877 319.434 327.017L306.263 335.679L298.745 334.098L298.653 329.571L304.38 330.775C304.7 330.842 305.003 330.802 305.216 330.662L318.389 322L325.906 323.581L325.998 328.108Z" fill="black"/>
</g>
<g id="237002">
<path id="Vector_20" d="M542.359 131.279L477.609 133.129L477.286 145.826L542.036 143.976L542.359 131.279Z" fill="#73C7A4"/>
<path id="Vector_21" d="M516.622 140.878L513.841 136.995C513.731 136.841 513.584 136.738 513.439 136.715L504.416 135.238L502.603 132.707C502.168 132.098 501.497 131.954 501.119 132.388L499.394 134.365C499.015 134.799 499.062 135.657 499.498 136.265L502.279 140.148C502.389 140.303 502.535 140.405 502.681 140.429L511.704 141.906L513.517 144.437C513.952 145.045 514.622 145.189 515.001 144.755L516.726 142.778C517.105 142.344 517.058 141.486 516.622 140.878ZM514.207 143.646L512.221 140.873C512.11 140.718 511.964 140.616 511.818 140.592L502.795 139.115L500.188 135.475L501.913 133.498L503.899 136.271C504.01 136.426 504.156 136.528 504.302 136.552L513.325 138.029L515.932 141.669L514.207 143.646Z" fill="black"/>
</g>
<g id="239001">
<g id="Group">
<path id="Vector_22" d="M138.043 163.438H118.043V183.438H138.043V163.438Z" fill="#77CFFF"/>
</g>
<g id="Group_2">
<g id="Group_3">
<path id="Vector_23" d="M123.573 168.528C123.623 168.528 123.673 168.528 123.723 168.528C123.828 168.528 123.932 168.528 124.036 168.529C124.169 168.53 124.302 168.53 124.435 168.529C124.538 168.529 124.642 168.529 124.745 168.53C124.794 168.53 124.843 168.53 124.892 168.53C125.279 168.529 125.607 168.557 125.919 168.839C125.937 168.855 125.954 168.871 125.973 168.887C126.401 169.32 126.548 170.08 126.738 170.67C126.763 170.75 126.789 170.829 126.814 170.908C126.832 170.963 126.85 171.019 126.868 171.074C127.08 171.735 127.305 172.39 127.531 173.046C127.581 173.193 127.631 173.341 127.682 173.489C127.72 173.599 127.758 173.709 127.796 173.82C127.821 173.89 127.845 173.961 127.869 174.031C127.88 174.063 127.892 174.095 127.903 174.128C127.975 174.34 128.015 174.515 127.957 174.739C127.871 174.936 127.786 175.057 127.603 175.14C127.429 175.201 127.27 175.168 127.11 175.074C126.944 174.945 126.884 174.813 126.81 174.604C126.799 174.574 126.788 174.544 126.777 174.512C126.742 174.416 126.708 174.318 126.674 174.221C126.658 174.174 126.658 174.174 126.641 174.126C126.562 173.898 126.486 173.669 126.409 173.44C126.385 173.368 126.362 173.297 126.338 173.226C126.266 173.011 126.194 172.795 126.123 172.58C126.111 172.546 126.1 172.512 126.088 172.477C125.954 172.074 125.821 171.671 125.687 171.268C125.805 171.992 125.925 172.717 126.05 173.44C126.061 173.503 126.072 173.566 126.083 173.629C126.127 173.884 126.17 174.138 126.215 174.393C126.242 174.552 126.27 174.712 126.297 174.871C126.308 174.931 126.318 174.991 126.329 175.05C126.343 175.133 126.357 175.215 126.371 175.298C126.378 175.333 126.378 175.333 126.384 175.37C126.444 175.722 126.444 175.722 126.375 175.888C126.326 175.96 126.326 175.96 126.239 176.026C126.178 176.033 126.178 176.033 126.11 176.032C126.073 176.032 126.073 176.032 126.035 176.032C126.009 176.031 125.984 176.03 125.957 176.03C125.932 176.03 125.906 176.029 125.879 176.029C125.815 176.028 125.751 176.027 125.687 176.026C125.687 176.05 125.687 176.073 125.687 176.098C125.689 176.677 125.691 177.256 125.692 177.835C125.692 178.115 125.693 178.395 125.694 178.675C125.695 178.919 125.695 179.163 125.695 179.407C125.695 179.536 125.696 179.665 125.696 179.795C125.697 179.916 125.697 180.038 125.697 180.16C125.697 180.226 125.698 180.291 125.698 180.357C125.697 180.687 125.654 180.91 125.449 181.155C125.293 181.32 125.111 181.347 124.903 181.342C124.724 181.306 124.595 181.226 124.468 181.079C124.355 180.897 124.319 180.744 124.319 180.524C124.319 180.465 124.319 180.465 124.319 180.404C124.319 180.36 124.319 180.316 124.32 180.273C124.32 180.226 124.32 180.18 124.32 180.134C124.32 180.008 124.32 179.883 124.32 179.757C124.32 179.626 124.32 179.495 124.32 179.364C124.32 179.116 124.32 178.867 124.321 178.619C124.321 178.336 124.321 178.053 124.321 177.771C124.322 177.189 124.322 176.607 124.323 176.026H124.062C124.062 176.05 124.062 176.074 124.062 176.099C124.065 176.685 124.068 177.271 124.069 177.857C124.07 178.14 124.071 178.424 124.073 178.707C124.074 178.955 124.075 179.202 124.075 179.449C124.075 179.58 124.076 179.71 124.077 179.841C124.078 179.965 124.078 180.088 124.078 180.211C124.078 180.278 124.079 180.344 124.08 180.41C124.078 180.667 124.051 180.867 123.916 181.079C123.769 181.243 123.617 181.338 123.405 181.344C123.19 181.333 123.039 181.268 122.885 181.095C122.724 180.886 122.694 180.694 122.694 180.422C122.694 180.363 122.694 180.363 122.694 180.304C122.694 180.24 122.694 180.24 122.694 180.176C122.694 180.13 122.694 180.085 122.694 180.04C122.694 179.917 122.694 179.795 122.694 179.672C122.694 179.544 122.694 179.416 122.695 179.287C122.695 179.045 122.695 178.802 122.695 178.559C122.695 178.283 122.696 178.007 122.696 177.731C122.696 177.162 122.697 176.594 122.697 176.026C122.644 176.029 122.644 176.029 122.589 176.032C122.542 176.033 122.494 176.035 122.447 176.036C122.412 176.038 122.412 176.038 122.376 176.04C122.259 176.043 122.17 176.038 122.072 175.962C121.976 175.828 121.965 175.736 121.972 175.566C121.986 175.424 122.01 175.285 122.035 175.144C122.045 175.082 122.045 175.082 122.056 175.019C122.076 174.906 122.095 174.794 122.115 174.682C122.136 174.564 122.156 174.446 122.176 174.328C122.215 174.105 122.254 173.882 122.293 173.66C122.337 173.406 122.381 173.152 122.425 172.898C122.515 172.377 122.606 171.855 122.697 171.333C122.448 172.099 122.448 172.099 122.205 172.866C122.176 172.958 122.147 173.049 122.118 173.141C122.074 173.281 122.03 173.42 121.987 173.56C121.95 173.676 121.914 173.792 121.877 173.908C121.864 173.951 121.85 173.995 121.836 174.038C121.818 174.098 121.799 174.158 121.78 174.218C121.769 174.252 121.758 174.286 121.747 174.321C121.671 174.521 121.572 174.651 121.42 174.779C121.26 174.839 121.073 174.85 120.914 174.781C120.77 174.683 120.661 174.568 120.607 174.385C120.557 174.01 120.691 173.68 120.805 173.337C120.826 173.272 120.847 173.208 120.868 173.143C120.912 173.005 120.957 172.868 121.002 172.73C121.109 172.4 121.213 172.069 121.318 171.738C121.376 171.554 121.434 171.371 121.492 171.187C121.565 170.959 121.637 170.731 121.708 170.503C121.742 170.394 121.776 170.286 121.81 170.177C121.826 170.129 121.841 170.08 121.856 170.032C122.013 169.521 122.22 168.941 122.668 168.675C122.97 168.534 123.253 168.525 123.573 168.528Z" fill="black"/>
</g>
<g id="Group_4">
<path id="Vector_24" d="M131.365 168.539C131.411 168.539 131.411 168.539 131.457 168.539C131.557 168.538 131.657 168.538 131.758 168.538C131.827 168.538 131.897 168.538 131.967 168.538C132.114 168.538 132.26 168.538 132.406 168.538C132.593 168.538 132.78 168.537 132.967 168.537C133.112 168.536 133.256 168.536 133.401 168.536C133.469 168.536 133.538 168.536 133.607 168.536C133.704 168.535 133.801 168.536 133.897 168.536C133.925 168.536 133.954 168.535 133.983 168.535C134.398 168.537 134.777 168.649 135.09 168.972C135.425 169.386 135.478 169.869 135.478 170.407C135.478 170.455 135.478 170.503 135.479 170.551C135.479 170.681 135.48 170.811 135.48 170.94C135.48 171.022 135.48 171.103 135.48 171.184C135.481 171.468 135.481 171.752 135.481 172.035C135.481 172.299 135.482 172.563 135.484 172.827C135.485 173.054 135.485 173.281 135.485 173.509C135.485 173.644 135.485 173.779 135.486 173.915C135.487 174.042 135.487 174.169 135.487 174.297C135.486 174.343 135.487 174.39 135.487 174.436C135.49 174.697 135.487 174.908 135.324 175.107C135.146 175.264 134.993 175.297 134.772 175.271C134.619 175.216 134.508 175.133 134.424 174.975C134.323 174.727 134.324 174.482 134.324 174.213C134.324 174.166 134.324 174.12 134.323 174.073C134.323 173.947 134.322 173.822 134.322 173.696C134.322 173.564 134.321 173.433 134.321 173.301C134.319 173.052 134.318 172.803 134.318 172.554C134.317 172.271 134.316 171.987 134.314 171.704C134.312 171.121 134.31 170.538 134.308 169.955C134.236 169.971 134.236 169.971 134.163 169.988C134.163 170.021 134.163 170.021 134.163 170.056C134.161 171.396 134.159 172.735 134.156 174.075C134.156 174.236 134.155 174.397 134.155 174.558C134.155 174.59 134.155 174.622 134.155 174.655C134.154 175.173 134.153 175.692 134.153 176.21C134.152 176.742 134.151 177.274 134.15 177.806C134.149 178.135 134.148 178.463 134.148 178.791C134.148 179.016 134.148 179.242 134.147 179.467C134.147 179.597 134.146 179.726 134.146 179.856C134.146 179.975 134.146 180.094 134.146 180.213C134.145 180.277 134.146 180.34 134.146 180.403C134.144 180.648 134.129 180.847 134.002 181.053C133.834 181.238 133.687 181.311 133.452 181.323C133.255 181.316 133.128 181.243 132.98 181.101C132.794 180.851 132.765 180.626 132.766 180.3C132.766 180.275 132.766 180.25 132.766 180.225C132.766 180.143 132.766 180.061 132.766 179.98C132.766 179.921 132.766 179.862 132.766 179.803C132.766 179.643 132.766 179.484 132.766 179.325C132.767 179.158 132.767 178.991 132.767 178.824C132.767 178.509 132.767 178.193 132.767 177.877C132.768 177.518 132.768 177.159 132.768 176.799C132.768 176.06 132.769 175.321 132.769 174.582H132.537C132.537 174.612 132.537 174.643 132.537 174.675C132.539 175.421 132.54 176.168 132.54 176.915C132.54 177.276 132.541 177.638 132.542 177.999C132.542 178.314 132.543 178.628 132.543 178.943C132.543 179.11 132.543 179.277 132.543 179.443C132.544 179.6 132.544 179.757 132.544 179.914C132.544 179.972 132.544 180.029 132.544 180.087C132.547 180.829 132.547 180.829 132.36 181.086C132.213 181.243 132.051 181.318 131.85 181.325C131.618 181.311 131.443 181.205 131.289 181.013C131.156 180.78 131.156 180.543 131.158 180.274C131.158 180.229 131.157 180.184 131.157 180.14C131.157 180.018 131.157 179.896 131.157 179.774C131.157 179.642 131.157 179.51 131.156 179.378C131.155 179.15 131.155 178.922 131.155 178.693C131.155 178.363 131.155 178.033 131.154 177.703C131.153 177.168 131.152 176.633 131.152 176.097C131.151 175.577 131.151 175.057 131.15 174.537C131.15 174.489 131.15 174.489 131.15 174.44C131.149 174.279 131.149 174.118 131.149 173.957C131.146 172.623 131.145 171.289 131.144 169.955C131.072 169.966 131.072 169.966 130.999 169.988C130.96 170.074 130.966 170.139 130.966 170.236C130.965 170.275 130.965 170.314 130.965 170.354C130.965 170.418 130.965 170.418 130.965 170.484C130.965 170.529 130.965 170.575 130.965 170.62C130.964 170.718 130.964 170.816 130.964 170.914C130.964 171.069 130.963 171.224 130.962 171.379C130.961 171.821 130.959 172.262 130.958 172.703C130.957 172.947 130.957 173.191 130.955 173.434C130.955 173.563 130.954 173.692 130.954 173.821C130.954 173.942 130.954 174.063 130.953 174.185C130.953 174.25 130.953 174.316 130.953 174.381C130.951 174.629 130.945 174.875 130.806 175.078C130.611 175.245 130.462 175.299 130.215 175.271C130.048 175.203 129.937 175.089 129.849 174.917C129.806 174.804 129.798 174.729 129.798 174.607C129.797 174.567 129.797 174.527 129.797 174.485C129.797 174.441 129.797 174.397 129.798 174.352C129.798 174.305 129.798 174.259 129.797 174.212C129.797 174.085 129.797 173.957 129.798 173.83C129.798 173.697 129.798 173.563 129.798 173.43C129.798 173.206 129.798 172.981 129.799 172.757C129.799 172.499 129.799 172.24 129.799 171.982C129.799 171.732 129.799 171.483 129.8 171.234C129.8 171.128 129.8 171.022 129.8 170.916C129.8 170.792 129.8 170.667 129.8 170.542C129.8 170.496 129.8 170.451 129.8 170.405C129.8 169.832 129.87 169.371 130.232 168.944C130.561 168.607 130.938 168.539 131.365 168.539Z" fill="black"/>
</g>
<g id="Group_5">
<path id="Vector_25" d="M129.031 166.116C129.169 166.224 129.284 166.35 129.316 166.541C129.318 166.617 129.319 166.693 129.319 166.77C129.32 166.793 129.32 166.816 129.32 166.84C129.32 166.918 129.32 166.995 129.32 167.073C129.32 167.13 129.32 167.186 129.32 167.242C129.32 167.397 129.32 167.552 129.32 167.707C129.32 167.874 129.321 168.041 129.321 168.208C129.321 168.573 129.321 168.938 129.321 169.303C129.322 169.531 129.322 169.759 129.322 169.987C129.322 170.618 129.322 171.249 129.323 171.879C129.323 171.94 129.323 171.94 129.323 172.002C129.323 172.062 129.323 172.062 129.323 172.124C129.323 172.206 129.323 172.288 129.323 172.37C129.323 172.411 129.323 172.452 129.323 172.494C129.323 173.153 129.323 173.813 129.324 174.472C129.325 175.149 129.325 175.826 129.325 176.503C129.325 176.883 129.325 177.263 129.326 177.643C129.326 177.967 129.326 178.291 129.326 178.614C129.326 178.78 129.326 178.945 129.326 179.11C129.327 179.261 129.327 179.412 129.326 179.563C129.326 179.618 129.326 179.673 129.327 179.728C129.327 179.802 129.327 179.876 129.326 179.951C129.326 179.992 129.327 180.033 129.327 180.076C129.306 180.293 129.232 180.442 129.083 180.586C128.946 180.68 128.804 180.671 128.648 180.651C128.493 180.595 128.404 180.484 128.329 180.323C128.298 180.19 128.296 180.064 128.296 179.927C128.296 179.893 128.296 179.893 128.296 179.858C128.296 179.78 128.296 179.703 128.296 179.625C128.296 179.569 128.295 179.513 128.295 179.457C128.295 179.303 128.295 179.149 128.295 178.995C128.295 178.829 128.295 178.663 128.295 178.497C128.294 178.134 128.294 177.771 128.294 177.408C128.294 177.181 128.294 176.954 128.294 176.728C128.293 176.1 128.293 175.473 128.293 174.845C128.293 174.805 128.293 174.765 128.293 174.723C128.293 174.683 128.293 174.643 128.293 174.601C128.293 174.52 128.293 174.438 128.293 174.357C128.293 174.316 128.293 174.276 128.293 174.234C128.293 173.578 128.292 172.922 128.291 172.266C128.291 171.593 128.29 170.92 128.29 170.247C128.29 169.869 128.29 169.49 128.29 169.112C128.289 168.79 128.289 168.469 128.289 168.147C128.289 167.982 128.289 167.818 128.289 167.654C128.289 167.504 128.289 167.353 128.289 167.203C128.289 167.148 128.289 167.094 128.289 167.04C128.286 166.448 128.286 166.448 128.437 166.244C128.454 166.229 128.471 166.214 128.488 166.198C128.514 166.175 128.514 166.175 128.54 166.151C128.686 166.043 128.871 166.056 129.031 166.116Z" fill="black"/>
</g>
<g id="Group_6">
<path id="Vector_26" d="M124.933 165.82C125.182 166.076 125.352 166.399 125.37 166.786C125.361 167.194 125.247 167.522 125 167.821C124.71 168.111 124.379 168.179 124.004 168.156C123.874 168.142 123.768 168.092 123.656 168.019C123.633 168.004 123.61 167.989 123.586 167.974C123.303 167.777 123.124 167.5 123.046 167.133C123.007 166.748 123.035 166.394 123.24 166.072C123.684 165.47 124.369 165.357 124.933 165.82Z" fill="black"/>
</g>
<g id="Group_7">
<path id="Vector_27" d="M133.302 165.752C133.328 165.774 133.353 165.796 133.379 165.818C133.403 165.836 133.427 165.854 133.451 165.873C133.682 166.115 133.814 166.446 133.828 166.8C133.833 167.236 133.707 167.527 133.449 167.843C133.245 168.064 132.965 168.171 132.686 168.185C132.344 168.169 132.096 168.059 131.846 167.801C131.604 167.497 131.497 167.214 131.492 166.802C131.518 166.412 131.668 166.078 131.927 165.818C132.359 165.49 132.851 165.45 133.302 165.752Z" fill="black"/>
</g>
</g>
</g>
<g id="239002">
<g id="Group_8">
<path id="Vector_28" d="M139.839 201.664H119.839V221.664H139.839V201.664Z" fill="#77CFFF"/>
</g>
<g id="Group_9">
<g id="Group_10">
<path id="Vector_29" d="M125.37 206.75C125.42 206.75 125.47 206.75 125.52 206.75C125.624 206.75 125.729 206.751 125.833 206.751C125.966 206.752 126.099 206.752 126.232 206.752C126.335 206.752 126.438 206.752 126.542 206.752C126.591 206.752 126.64 206.752 126.689 206.752C127.076 206.752 127.403 206.779 127.716 207.062C127.734 207.078 127.751 207.093 127.769 207.11C128.198 207.543 128.345 208.302 128.535 208.893C128.56 208.972 128.586 209.051 128.611 209.131C128.629 209.186 128.647 209.241 128.664 209.297C128.877 209.958 129.102 210.613 129.327 211.269C129.378 211.416 129.428 211.564 129.478 211.711C129.516 211.822 129.555 211.932 129.593 212.042C129.617 212.113 129.642 212.183 129.666 212.254C129.677 212.286 129.688 212.318 129.7 212.35C129.772 212.562 129.811 212.737 129.753 212.962C129.667 213.158 129.583 213.28 129.4 213.362C129.226 213.424 129.066 213.391 128.906 213.297C128.741 213.167 128.68 213.036 128.607 212.827C128.596 212.796 128.585 212.766 128.574 212.735C128.539 212.638 128.505 212.541 128.471 212.444C128.454 212.397 128.454 212.397 128.438 212.349C128.359 212.121 128.282 211.892 128.206 211.662C128.182 211.591 128.158 211.52 128.134 211.448C128.062 211.233 127.991 211.018 127.919 210.803C127.908 210.769 127.897 210.735 127.885 210.7C127.751 210.297 127.617 209.894 127.484 209.49C127.602 210.215 127.722 210.939 127.847 211.663C127.858 211.726 127.868 211.789 127.879 211.852C127.923 212.106 127.967 212.361 128.011 212.615C128.039 212.775 128.067 212.934 128.094 213.094C128.104 213.154 128.115 213.213 128.125 213.273C128.14 213.355 128.154 213.438 128.168 213.52C128.174 213.556 128.174 213.556 128.181 213.593C128.24 213.944 128.24 213.944 128.171 214.111C128.122 214.183 128.122 214.183 128.035 214.248C127.975 214.256 127.975 214.256 127.906 214.255C127.869 214.254 127.869 214.254 127.832 214.254C127.806 214.254 127.781 214.253 127.754 214.252C127.728 214.252 127.702 214.252 127.676 214.252C127.612 214.251 127.548 214.25 127.484 214.248C127.484 214.272 127.484 214.296 127.484 214.32C127.486 214.899 127.487 215.478 127.488 216.057C127.489 216.337 127.489 216.617 127.49 216.897C127.491 217.142 127.492 217.386 127.492 217.63C127.492 217.759 127.492 217.888 127.493 218.017C127.494 218.139 127.494 218.261 127.494 218.383C127.494 218.448 127.494 218.514 127.495 218.58C127.494 218.909 127.45 219.133 127.246 219.377C127.09 219.543 126.908 219.57 126.7 219.564C126.52 219.529 126.391 219.448 126.265 219.302C126.151 219.119 126.116 218.967 126.116 218.747C126.116 218.687 126.116 218.687 126.116 218.627C126.116 218.583 126.116 218.539 126.116 218.495C126.116 218.449 126.116 218.403 126.116 218.356C126.116 218.231 126.116 218.106 126.117 217.98C126.117 217.849 126.117 217.718 126.117 217.587C126.117 217.338 126.117 217.09 126.117 216.841C126.118 216.559 126.118 216.276 126.118 215.993C126.118 215.412 126.119 214.83 126.12 214.248H125.858C125.858 214.272 125.859 214.296 125.859 214.321C125.862 214.907 125.864 215.494 125.866 216.08C125.867 216.363 125.868 216.647 125.869 216.93C125.871 217.177 125.872 217.424 125.872 217.672C125.872 217.802 125.873 217.933 125.874 218.064C125.875 218.187 125.875 218.31 125.875 218.434C125.875 218.5 125.875 218.567 125.876 218.633C125.875 218.889 125.847 219.09 125.713 219.302C125.565 219.465 125.413 219.561 125.202 219.566C124.986 219.556 124.835 219.49 124.682 219.317C124.521 219.109 124.49 218.917 124.49 218.644C124.49 218.586 124.49 218.586 124.49 218.526C124.49 218.463 124.49 218.463 124.491 218.398C124.491 218.353 124.491 218.308 124.491 218.263C124.491 218.14 124.491 218.017 124.491 217.895C124.491 217.767 124.491 217.638 124.491 217.51C124.491 217.267 124.492 217.025 124.492 216.782C124.492 216.506 124.492 216.23 124.492 215.953C124.493 215.385 124.493 214.817 124.494 214.248C124.44 214.251 124.44 214.251 124.386 214.254C124.338 214.256 124.291 214.257 124.244 214.259C124.208 214.261 124.208 214.261 124.172 214.263C124.056 214.265 123.967 214.261 123.869 214.184C123.773 214.05 123.761 213.959 123.768 213.789C123.783 213.647 123.806 213.507 123.832 213.367C123.842 213.305 123.842 213.305 123.853 213.242C123.872 213.129 123.892 213.017 123.912 212.904C123.933 212.786 123.953 212.669 123.973 212.551C124.011 212.328 124.05 212.105 124.089 211.882C124.134 211.629 124.178 211.375 124.222 211.121C124.312 210.599 124.403 210.078 124.494 209.556C124.245 210.321 124.245 210.321 124.001 211.089C123.973 211.181 123.944 211.272 123.915 211.364C123.871 211.503 123.827 211.643 123.783 211.782C123.747 211.899 123.711 212.015 123.674 212.13C123.66 212.174 123.647 212.217 123.633 212.261C123.614 212.321 123.595 212.381 123.576 212.441C123.566 212.475 123.555 212.509 123.544 212.544C123.467 212.743 123.368 212.874 123.217 213.001C123.057 213.062 122.869 213.073 122.711 213.003C122.567 212.906 122.458 212.791 122.404 212.608C122.353 212.233 122.488 211.903 122.602 211.56C122.623 211.495 122.643 211.43 122.664 211.366C122.709 211.228 122.753 211.09 122.798 210.953C122.906 210.623 123.01 210.292 123.114 209.96C123.172 209.777 123.231 209.594 123.289 209.41C123.362 209.182 123.434 208.954 123.505 208.725C123.539 208.617 123.573 208.508 123.607 208.4C123.622 208.351 123.637 208.303 123.652 208.254C123.809 207.744 124.017 207.163 124.465 206.898C124.767 206.757 125.049 206.748 125.37 206.75Z" fill="black"/>
</g>
<g id="Group_11">
<path id="Vector_30" d="M133.162 206.762C133.207 206.761 133.207 206.761 133.254 206.761C133.354 206.761 133.454 206.761 133.554 206.761C133.624 206.761 133.694 206.761 133.764 206.761C133.91 206.76 134.057 206.76 134.203 206.76C134.39 206.76 134.577 206.76 134.764 206.759C134.909 206.759 135.053 206.759 135.197 206.759C135.266 206.759 135.335 206.759 135.404 206.758C135.501 206.758 135.597 206.758 135.694 206.758C135.722 206.758 135.75 206.758 135.779 206.758C136.195 206.76 136.573 206.872 136.887 207.195C137.221 207.609 137.274 208.092 137.275 208.629C137.275 208.678 137.275 208.726 137.275 208.774C137.276 208.904 137.276 209.033 137.276 209.163C137.277 209.244 137.277 209.326 137.277 209.407C137.278 209.69 137.278 209.974 137.278 210.258C137.278 210.522 137.279 210.786 137.28 211.05C137.281 211.277 137.282 211.504 137.282 211.731C137.282 211.867 137.282 212.002 137.283 212.137C137.284 212.265 137.284 212.392 137.283 212.519C137.283 212.566 137.283 212.612 137.284 212.659C137.286 212.92 137.284 213.131 137.121 213.329C136.942 213.486 136.79 213.52 136.569 213.493C136.416 213.439 136.304 213.355 136.221 213.198C136.119 212.95 136.121 212.705 136.121 212.435C136.121 212.389 136.121 212.342 136.12 212.296C136.119 212.17 136.119 212.044 136.119 211.919C136.119 211.787 136.118 211.655 136.117 211.524C136.116 211.275 136.115 211.026 136.114 210.777C136.114 210.493 136.112 210.21 136.111 209.926C136.108 209.343 136.106 208.76 136.105 208.177C136.033 208.194 136.033 208.194 135.959 208.21C135.959 208.244 135.959 208.244 135.959 208.279C135.958 209.618 135.956 210.958 135.953 212.298C135.952 212.459 135.952 212.619 135.952 212.78C135.952 212.812 135.952 212.844 135.952 212.877C135.951 213.396 135.95 213.914 135.949 214.433C135.949 214.965 135.948 215.497 135.946 216.029C135.946 216.357 135.945 216.686 135.945 217.014C135.945 217.239 135.944 217.464 135.944 217.689C135.943 217.819 135.943 217.949 135.943 218.079C135.943 218.198 135.943 218.317 135.942 218.436C135.942 218.499 135.942 218.563 135.942 218.626C135.941 218.871 135.926 219.069 135.799 219.276C135.63 219.461 135.484 219.534 135.248 219.546C135.052 219.539 134.925 219.465 134.777 219.324C134.591 219.073 134.561 218.849 134.563 218.522C134.563 218.498 134.563 218.473 134.563 218.448C134.562 218.366 134.563 218.284 134.563 218.202C134.563 218.143 134.563 218.084 134.563 218.026C134.563 217.866 134.563 217.707 134.563 217.547C134.563 217.38 134.563 217.214 134.563 217.047C134.563 216.731 134.564 216.416 134.564 216.1C134.564 215.741 134.564 215.381 134.565 215.022C134.565 214.283 134.565 213.543 134.566 212.804H134.334C134.334 212.835 134.334 212.866 134.334 212.897C134.335 213.644 134.336 214.391 134.337 215.138C134.337 215.499 134.338 215.86 134.338 216.221C134.339 216.536 134.339 216.851 134.339 217.166C134.339 217.333 134.34 217.499 134.34 217.666C134.34 217.823 134.341 217.98 134.34 218.137C134.34 218.194 134.341 218.252 134.341 218.309C134.344 219.052 134.344 219.052 134.156 219.308C134.01 219.466 133.847 219.54 133.646 219.548C133.415 219.534 133.24 219.428 133.086 219.236C132.952 219.003 132.953 218.766 132.954 218.496C132.954 218.452 132.954 218.407 132.954 218.363C132.953 218.24 132.953 218.118 132.954 217.996C132.954 217.864 132.953 217.733 132.953 217.601C132.952 217.373 132.952 217.144 132.952 216.916C132.952 216.586 132.951 216.256 132.951 215.926C132.949 215.391 132.949 214.855 132.948 214.32C132.948 213.8 132.947 213.28 132.947 212.76C132.946 212.712 132.946 212.712 132.946 212.663C132.946 212.502 132.946 212.341 132.945 212.18C132.943 210.846 132.942 209.512 132.941 208.177C132.869 208.189 132.869 208.189 132.795 208.21C132.757 208.297 132.763 208.362 132.762 208.459C132.762 208.498 132.762 208.536 132.762 208.576C132.762 208.641 132.762 208.641 132.762 208.706C132.762 208.752 132.761 208.797 132.761 208.843C132.761 208.941 132.761 209.039 132.761 209.137C132.76 209.292 132.76 209.447 132.759 209.602C132.757 210.043 132.756 210.485 132.755 210.926C132.754 211.17 132.753 211.413 132.752 211.657C132.752 211.786 132.751 211.914 132.751 212.043C132.751 212.165 132.75 212.286 132.75 212.408C132.749 212.473 132.75 212.538 132.75 212.604C132.748 212.851 132.742 213.098 132.602 213.3C132.408 213.468 132.258 213.522 132.012 213.493C131.845 213.426 131.734 213.312 131.645 213.14C131.602 213.027 131.594 212.952 131.594 212.83C131.594 212.79 131.594 212.749 131.594 212.708C131.594 212.664 131.594 212.619 131.594 212.575C131.594 212.528 131.594 212.481 131.594 212.434C131.594 212.307 131.594 212.18 131.594 212.053C131.595 211.919 131.595 211.786 131.595 211.653C131.595 211.428 131.595 211.204 131.595 210.98C131.596 210.721 131.596 210.463 131.596 210.204C131.596 209.955 131.596 209.706 131.596 209.456C131.596 209.351 131.596 209.245 131.596 209.139C131.596 209.014 131.597 208.889 131.597 208.764C131.597 208.719 131.597 208.673 131.597 208.628C131.596 208.054 131.667 207.594 132.028 207.166C132.357 206.83 132.735 206.761 133.162 206.762Z" fill="black"/>
</g>
<g id="Group_12">
<path id="Vector_31" d="M130.828 204.339C130.966 204.447 131.081 204.572 131.112 204.764C131.115 204.84 131.116 204.916 131.116 204.992C131.116 205.015 131.116 205.039 131.116 205.062C131.117 205.14 131.116 205.218 131.116 205.296C131.117 205.352 131.117 205.409 131.117 205.465C131.117 205.62 131.117 205.775 131.117 205.929C131.117 206.096 131.117 206.263 131.117 206.43C131.118 206.795 131.118 207.161 131.118 207.526C131.118 207.754 131.118 207.982 131.118 208.21C131.119 208.84 131.119 209.471 131.119 210.102C131.119 210.163 131.119 210.163 131.119 210.224C131.119 210.285 131.119 210.285 131.119 210.347C131.119 210.429 131.119 210.511 131.119 210.593C131.119 210.634 131.119 210.674 131.119 210.716C131.119 211.376 131.12 212.036 131.121 212.695C131.121 213.372 131.122 214.049 131.122 214.726C131.122 215.106 131.122 215.486 131.122 215.866C131.123 216.19 131.123 216.513 131.123 216.837C131.123 217.002 131.123 217.167 131.123 217.333C131.123 217.484 131.123 217.635 131.123 217.786C131.123 217.841 131.123 217.896 131.123 217.95C131.124 218.025 131.123 218.099 131.123 218.173C131.123 218.215 131.123 218.256 131.123 218.299C131.103 218.516 131.029 218.665 130.88 218.808C130.743 218.903 130.601 218.894 130.445 218.874C130.29 218.817 130.201 218.706 130.125 218.546C130.094 218.413 130.093 218.287 130.093 218.15C130.092 218.115 130.092 218.115 130.092 218.08C130.092 218.003 130.092 217.925 130.092 217.848C130.092 217.792 130.092 217.736 130.092 217.68C130.092 217.526 130.092 217.372 130.092 217.218C130.092 217.052 130.091 216.886 130.091 216.72C130.091 216.357 130.091 215.993 130.091 215.63C130.09 215.404 130.09 215.177 130.09 214.95C130.09 214.323 130.09 213.695 130.089 213.068C130.089 213.028 130.089 212.988 130.089 212.946C130.089 212.906 130.089 212.866 130.089 212.824C130.089 212.743 130.089 212.661 130.089 212.579C130.089 212.539 130.089 212.498 130.089 212.457C130.089 211.801 130.089 211.145 130.088 210.489C130.087 209.816 130.087 209.143 130.087 208.469C130.087 208.091 130.087 207.713 130.086 207.335C130.086 207.013 130.086 206.691 130.086 206.369C130.086 206.205 130.086 206.041 130.086 205.877C130.085 205.726 130.085 205.576 130.086 205.425C130.086 205.371 130.086 205.317 130.085 205.262C130.083 204.67 130.083 204.67 130.233 204.466C130.25 204.451 130.267 204.436 130.285 204.421C130.311 204.398 130.311 204.398 130.337 204.374C130.483 204.265 130.668 204.279 130.828 204.339Z" fill="black"/>
</g>
<g id="Group_13">
<path id="Vector_32" d="M126.73 204.039C126.979 204.295 127.149 204.618 127.167 205.005C127.158 205.413 127.044 205.741 126.797 206.039C126.506 206.329 126.175 206.398 125.801 206.375C125.671 206.361 125.565 206.31 125.452 206.238C125.429 206.223 125.407 206.208 125.383 206.193C125.1 205.995 124.921 205.719 124.843 205.352C124.803 204.966 124.831 204.613 125.037 204.291C125.481 203.689 126.166 203.576 126.73 204.039Z" fill="black"/>
</g>
<g id="Group_14">
<path id="Vector_33" d="M135.099 203.975C135.124 203.997 135.149 204.018 135.175 204.041C135.199 204.059 135.223 204.077 135.248 204.096C135.479 204.337 135.611 204.669 135.624 205.022C135.629 205.459 135.504 205.75 135.245 206.066C135.041 206.287 134.762 206.394 134.483 206.407C134.141 206.392 133.893 206.282 133.642 206.024C133.401 205.719 133.293 205.437 133.288 205.025C133.315 204.634 133.464 204.3 133.724 204.041C134.156 203.712 134.648 203.672 135.099 203.975Z" fill="black"/>
</g>
</g>
</g>
<g id="239003">
<g id="Group_15">
<path id="Vector_34" d="M193.456 170.668H173.456V190.668H193.456V170.668Z" fill="#77CFFF"/>
</g>
<g id="Group_16">
<g id="Group_17">
<path id="Vector_35" d="M178.987 175.754C179.037 175.754 179.087 175.754 179.137 175.754C179.241 175.754 179.346 175.754 179.45 175.755C179.583 175.756 179.716 175.756 179.849 175.756C179.952 175.755 180.055 175.756 180.159 175.756C180.208 175.756 180.257 175.756 180.306 175.756C180.693 175.756 181.02 175.783 181.333 176.066C181.351 176.082 181.368 176.097 181.386 176.114C181.815 176.547 181.962 177.306 182.152 177.897C182.177 177.976 182.203 178.055 182.228 178.135C182.246 178.19 182.264 178.245 182.282 178.301C182.494 178.962 182.719 179.617 182.944 180.272C182.995 180.42 183.045 180.568 183.096 180.715C183.133 180.826 183.172 180.936 183.21 181.046C183.234 181.117 183.259 181.187 183.283 181.258C183.294 181.29 183.305 181.321 183.317 181.354C183.389 181.566 183.428 181.741 183.371 181.966C183.284 182.162 183.2 182.284 183.017 182.366C182.843 182.428 182.683 182.395 182.523 182.301C182.358 182.171 182.297 182.039 182.224 181.831C182.213 181.8 182.202 181.77 182.191 181.739C182.156 181.642 182.122 181.545 182.088 181.447C182.071 181.401 182.071 181.401 182.055 181.353C181.976 181.125 181.899 180.895 181.823 180.666C181.799 180.595 181.775 180.524 181.751 180.452C181.679 180.237 181.608 180.022 181.536 179.807C181.525 179.773 181.514 179.739 181.502 179.704C181.368 179.301 181.234 178.898 181.101 178.494C181.219 179.219 181.339 179.943 181.464 180.667C181.475 180.73 181.485 180.793 181.496 180.856C181.54 181.11 181.584 181.365 181.628 181.619C181.656 181.779 181.684 181.938 181.711 182.098C181.721 182.158 181.732 182.217 181.742 182.277C181.757 182.359 181.771 182.442 181.785 182.524C181.791 182.56 181.791 182.56 181.798 182.597C181.857 182.948 181.857 182.948 181.788 183.115C181.739 183.187 181.739 183.187 181.652 183.252C181.592 183.26 181.592 183.26 181.523 183.259C181.486 183.258 181.486 183.258 181.449 183.258C181.423 183.258 181.398 183.257 181.371 183.256C181.345 183.256 181.319 183.256 181.293 183.256C181.229 183.255 181.165 183.254 181.101 183.252C181.101 183.276 181.101 183.3 181.101 183.324C181.103 183.903 181.104 184.482 181.105 185.061C181.106 185.341 181.106 185.621 181.107 185.901C181.108 186.145 181.109 186.39 181.109 186.634C181.109 186.763 181.109 186.892 181.11 187.021C181.111 187.143 181.111 187.265 181.111 187.386C181.111 187.452 181.111 187.518 181.112 187.584C181.111 187.913 181.067 188.137 180.863 188.381C180.707 188.547 180.525 188.573 180.317 188.568C180.137 188.533 180.008 188.452 179.882 188.306C179.768 188.123 179.733 187.971 179.733 187.751C179.733 187.691 179.733 187.691 179.733 187.631C179.733 187.587 179.733 187.543 179.733 187.499C179.733 187.453 179.733 187.407 179.733 187.36C179.733 187.235 179.733 187.109 179.734 186.984C179.734 186.853 179.734 186.722 179.734 186.59C179.734 186.342 179.734 186.094 179.734 185.845C179.735 185.563 179.735 185.28 179.735 184.997C179.735 184.416 179.736 183.834 179.737 183.252H179.475C179.475 183.276 179.476 183.3 179.476 183.325C179.479 183.911 179.481 184.497 179.483 185.084C179.484 185.367 179.485 185.651 179.486 185.934C179.488 186.181 179.489 186.428 179.489 186.675C179.489 186.806 179.49 186.937 179.491 187.068C179.492 187.191 179.492 187.314 179.492 187.438C179.492 187.504 179.493 187.571 179.493 187.637C179.492 187.893 179.464 188.094 179.33 188.306C179.182 188.469 179.03 188.565 178.819 188.57C178.603 188.56 178.452 188.494 178.299 188.321C178.138 188.113 178.107 187.921 178.107 187.648C178.107 187.59 178.107 187.59 178.107 187.53C178.107 187.467 178.107 187.467 178.108 187.402C178.108 187.357 178.108 187.312 178.108 187.266C178.108 187.144 178.108 187.021 178.108 186.899C178.108 186.77 178.108 186.642 178.108 186.514C178.108 186.271 178.109 186.029 178.109 185.786C178.109 185.51 178.109 185.233 178.109 184.957C178.11 184.389 178.11 183.821 178.111 183.252C178.057 183.255 178.057 183.255 178.003 183.258C177.955 183.26 177.908 183.261 177.861 183.263C177.825 183.265 177.825 183.265 177.789 183.267C177.673 183.269 177.584 183.265 177.486 183.188C177.39 183.054 177.378 182.963 177.385 182.793C177.4 182.651 177.423 182.511 177.449 182.371C177.459 182.309 177.459 182.309 177.47 182.246C177.489 182.133 177.509 182.021 177.529 181.908C177.55 181.79 177.57 181.672 177.59 181.555C177.629 181.332 177.667 181.109 177.706 180.886C177.751 180.633 177.795 180.379 177.839 180.125C177.929 179.603 178.02 179.081 178.111 178.56C177.862 179.325 177.862 179.325 177.618 180.093C177.59 180.184 177.561 180.276 177.532 180.368C177.488 180.507 177.444 180.647 177.4 180.786C177.364 180.902 177.328 181.018 177.291 181.134C177.277 181.178 177.264 181.221 177.25 181.265C177.231 181.325 177.212 181.385 177.193 181.445C177.183 181.479 177.172 181.513 177.161 181.548C177.084 181.747 176.985 181.878 176.834 182.005C176.674 182.065 176.486 182.077 176.328 182.007C176.184 181.91 176.075 181.795 176.021 181.612C175.97 181.237 176.105 180.907 176.219 180.564C176.24 180.499 176.26 180.434 176.281 180.37C176.326 180.232 176.37 180.094 176.415 179.957C176.523 179.627 176.627 179.296 176.731 178.964C176.789 178.781 176.848 178.597 176.906 178.414C176.979 178.186 177.051 177.958 177.122 177.729C177.156 177.621 177.19 177.512 177.224 177.404C177.239 177.355 177.254 177.307 177.269 177.258C177.426 176.748 177.634 176.167 178.082 175.902C178.384 175.761 178.666 175.752 178.987 175.754Z" fill="black"/>
</g>
<g id="Group_18">
<path id="Vector_36" d="M186.779 175.765C186.824 175.765 186.824 175.765 186.871 175.765C186.971 175.765 187.071 175.765 187.171 175.765C187.241 175.765 187.311 175.765 187.381 175.764C187.527 175.764 187.674 175.764 187.82 175.764C188.007 175.764 188.194 175.764 188.381 175.763C188.526 175.763 188.67 175.763 188.814 175.763C188.883 175.763 188.952 175.763 189.021 175.762C189.118 175.762 189.214 175.762 189.311 175.762C189.339 175.762 189.367 175.762 189.396 175.762C189.812 175.764 190.19 175.875 190.504 176.199C190.838 176.613 190.891 177.096 190.892 177.633C190.892 177.682 190.892 177.73 190.892 177.778C190.893 177.908 190.893 178.037 190.893 178.167C190.894 178.248 190.894 178.329 190.894 178.411C190.895 178.694 190.895 178.978 190.895 179.262C190.895 179.526 190.896 179.79 190.897 180.054C190.898 180.281 190.899 180.508 190.899 180.735C190.899 180.871 190.899 181.006 190.9 181.141C190.901 181.269 190.901 181.396 190.9 181.523C190.9 181.57 190.9 181.616 190.901 181.663C190.903 181.924 190.901 182.135 190.738 182.333C190.559 182.49 190.407 182.524 190.186 182.497C190.033 182.443 189.921 182.359 189.838 182.202C189.736 181.954 189.738 181.708 189.738 181.439C189.738 181.393 189.738 181.346 189.737 181.3C189.736 181.174 189.736 181.048 189.736 180.922C189.736 180.791 189.735 180.659 189.734 180.528C189.733 180.279 189.732 180.03 189.731 179.781C189.731 179.497 189.729 179.214 189.728 178.93C189.725 178.347 189.723 177.764 189.722 177.181C189.65 177.198 189.65 177.198 189.576 177.214C189.576 177.248 189.576 177.248 189.576 177.283C189.575 178.622 189.573 179.962 189.57 181.302C189.57 181.463 189.569 181.623 189.569 181.784C189.569 181.816 189.569 181.848 189.569 181.881C189.568 182.4 189.567 182.918 189.566 183.437C189.566 183.969 189.565 184.501 189.563 185.033C189.563 185.361 189.562 185.69 189.562 186.018C189.562 186.243 189.561 186.468 189.561 186.693C189.56 186.823 189.56 186.953 189.56 187.083C189.56 187.202 189.56 187.321 189.559 187.44C189.559 187.503 189.559 187.566 189.559 187.63C189.558 187.875 189.543 188.073 189.416 188.279C189.247 188.465 189.101 188.538 188.865 188.55C188.669 188.543 188.542 188.469 188.394 188.328C188.208 188.077 188.178 187.853 188.18 187.526C188.18 187.501 188.18 187.477 188.18 187.452C188.18 187.37 188.18 187.288 188.18 187.206C188.18 187.147 188.18 187.088 188.18 187.029C188.18 186.87 188.18 186.711 188.18 186.551C188.18 186.384 188.18 186.218 188.18 186.051C188.181 185.735 188.181 185.42 188.181 185.104C188.181 184.745 188.182 184.385 188.182 184.026C188.182 183.287 188.182 182.547 188.183 181.808H187.951C187.951 181.839 187.951 181.87 187.951 181.901C187.952 182.648 187.953 183.395 187.954 184.142C187.954 184.503 187.955 184.864 187.955 185.225C187.956 185.54 187.956 185.855 187.956 186.17C187.956 186.337 187.957 186.503 187.957 186.67C187.957 186.827 187.958 186.984 187.957 187.141C187.957 187.198 187.958 187.256 187.958 187.313C187.961 188.056 187.961 188.056 187.773 188.312C187.627 188.47 187.464 188.544 187.263 188.552C187.032 188.538 186.857 188.432 186.703 188.24C186.569 188.007 186.57 187.77 186.571 187.5C186.571 187.456 186.571 187.411 186.571 187.366C186.57 187.244 186.57 187.122 186.571 187C186.571 186.868 186.57 186.737 186.57 186.605C186.569 186.376 186.569 186.148 186.569 185.92C186.569 185.59 186.568 185.26 186.568 184.93C186.566 184.395 186.566 183.859 186.565 183.324C186.565 182.804 186.564 182.284 186.564 181.764C186.563 181.716 186.563 181.716 186.563 181.666C186.563 181.506 186.563 181.345 186.563 181.184C186.56 179.85 186.559 178.515 186.558 177.181C186.486 177.193 186.486 177.193 186.412 177.214C186.374 177.301 186.38 177.366 186.379 177.463C186.379 177.501 186.379 177.54 186.379 177.58C186.379 177.645 186.379 177.645 186.379 177.71C186.379 177.756 186.378 177.801 186.378 177.847C186.378 177.945 186.378 178.043 186.378 178.141C186.377 178.296 186.377 178.451 186.376 178.606C186.374 179.047 186.373 179.489 186.372 179.93C186.371 180.174 186.37 180.417 186.369 180.661C186.369 180.79 186.368 180.918 186.368 181.047C186.368 181.169 186.368 181.29 186.367 181.411C186.366 181.477 186.367 181.542 186.367 181.608C186.365 181.855 186.359 182.101 186.219 182.304C186.025 182.472 185.875 182.526 185.629 182.497C185.462 182.43 185.351 182.316 185.262 182.144C185.219 182.031 185.211 181.956 185.211 181.834C185.211 181.793 185.211 181.753 185.211 181.712C185.211 181.667 185.211 181.623 185.211 181.579C185.211 181.532 185.211 181.485 185.211 181.438C185.211 181.311 185.211 181.184 185.211 181.057C185.212 180.923 185.212 180.79 185.212 180.657C185.212 180.432 185.212 180.208 185.212 179.984C185.213 179.725 185.213 179.467 185.213 179.208C185.213 178.959 185.213 178.71 185.213 178.46C185.213 178.355 185.213 178.249 185.213 178.143C185.213 178.018 185.214 177.893 185.214 177.768C185.214 177.723 185.214 177.677 185.214 177.632C185.213 177.058 185.284 176.598 185.645 176.17C185.974 175.834 186.352 175.765 186.779 175.765Z" fill="black"/>
</g>
<g id="Group_19">
<path id="Vector_37" d="M184.445 173.343C184.583 173.451 184.698 173.576 184.729 173.767C184.732 173.844 184.733 173.92 184.733 173.996C184.733 174.019 184.733 174.042 184.733 174.066C184.734 174.144 184.733 174.222 184.733 174.3C184.734 174.356 184.734 174.412 184.734 174.469C184.734 174.624 184.734 174.779 184.734 174.933C184.734 175.1 184.734 175.267 184.735 175.434C184.735 175.799 184.735 176.165 184.735 176.53C184.735 176.758 184.735 176.986 184.736 177.213C184.736 177.844 184.736 178.475 184.736 179.106C184.736 179.166 184.736 179.166 184.736 179.228C184.736 179.289 184.736 179.289 184.736 179.351C184.736 179.433 184.736 179.515 184.736 179.597C184.736 179.638 184.736 179.678 184.736 179.72C184.736 180.38 184.737 181.039 184.738 181.699C184.738 182.376 184.739 183.053 184.739 183.73C184.739 184.11 184.739 184.49 184.739 184.87C184.74 185.194 184.74 185.517 184.74 185.841C184.74 186.006 184.74 186.171 184.74 186.336C184.741 186.488 184.74 186.639 184.74 186.79C184.74 186.845 184.74 186.899 184.74 186.954C184.741 187.029 184.741 187.103 184.74 187.177C184.74 187.219 184.74 187.26 184.74 187.302C184.72 187.52 184.646 187.669 184.497 187.812C184.36 187.907 184.218 187.898 184.062 187.878C183.907 187.821 183.818 187.71 183.742 187.55C183.711 187.417 183.71 187.291 183.71 187.154C183.709 187.119 183.709 187.119 183.709 187.084C183.709 187.007 183.709 186.929 183.709 186.852C183.709 186.796 183.709 186.74 183.709 186.684C183.709 186.53 183.709 186.376 183.709 186.222C183.709 186.056 183.708 185.89 183.708 185.724C183.708 185.361 183.708 184.997 183.708 184.634C183.708 184.408 183.707 184.181 183.707 183.954C183.707 183.327 183.707 182.699 183.706 182.072C183.706 182.032 183.706 181.991 183.706 181.95C183.706 181.91 183.706 181.87 183.706 181.828C183.706 181.746 183.706 181.665 183.706 181.583C183.706 181.543 183.706 181.502 183.706 181.461C183.706 180.805 183.706 180.149 183.705 179.493C183.704 178.82 183.704 178.146 183.704 177.473C183.704 177.095 183.704 176.717 183.703 176.339C183.703 176.017 183.703 175.695 183.703 175.373C183.703 175.209 183.703 175.045 183.703 174.88C183.702 174.73 183.702 174.58 183.703 174.429C183.703 174.375 183.703 174.321 183.702 174.266C183.7 173.674 183.7 173.674 183.85 173.47C183.867 173.455 183.884 173.44 183.902 173.425C183.928 173.402 183.928 173.402 183.954 173.378C184.1 173.269 184.285 173.283 184.445 173.343Z" fill="black"/>
</g>
<g id="Group_20">
<path id="Vector_38" d="M180.347 173.043C180.596 173.299 180.766 173.622 180.784 174.009C180.775 174.417 180.661 174.744 180.414 175.043C180.123 175.333 179.792 175.402 179.418 175.379C179.288 175.365 179.182 175.314 179.069 175.241C179.047 175.227 179.024 175.212 179 175.197C178.717 174.999 178.538 174.723 178.46 174.355C178.42 173.97 178.448 173.617 178.654 173.295C179.098 172.693 179.783 172.58 180.347 173.043Z" fill="black"/>
</g>
<g id="Group_21">
<path id="Vector_39" d="M188.716 172.979C188.741 173 188.766 173.022 188.792 173.044C188.816 173.063 188.84 173.081 188.865 173.1C189.096 173.341 189.228 173.673 189.241 174.026C189.247 174.463 189.121 174.754 188.862 175.07C188.658 175.291 188.379 175.398 188.1 175.411C187.758 175.395 187.51 175.286 187.259 175.028C187.018 174.723 186.91 174.441 186.905 174.029C186.932 173.638 187.081 173.304 187.341 173.044C187.773 172.716 188.265 172.676 188.716 172.979Z" fill="black"/>
</g>
</g>
</g>
<g id="239004">
<g id="Group_22">
<path id="Vector_40" d="M559.225 204.988H539.225V224.988H559.225V204.988Z" fill="#77CFFF"/>
</g>
<g id="Group_23">
<g id="Group_24">
<path id="Vector_41" d="M544.755 210.075C544.805 210.075 544.855 210.075 544.905 210.074C545.01 210.074 545.114 210.075 545.218 210.076C545.351 210.076 545.484 210.076 545.617 210.076C545.72 210.076 545.824 210.076 545.927 210.076C545.976 210.077 546.025 210.077 546.074 210.076C546.461 210.076 546.789 210.103 547.101 210.386C547.119 210.402 547.137 210.418 547.155 210.434C547.583 210.867 547.73 211.626 547.92 212.217C547.945 212.296 547.971 212.376 547.996 212.455C548.014 212.51 548.032 212.566 548.05 212.621C548.262 213.282 548.487 213.937 548.713 214.593C548.763 214.74 548.814 214.888 548.864 215.035C548.902 215.146 548.94 215.256 548.979 215.366C549.003 215.437 549.027 215.507 549.051 215.578C549.062 215.61 549.074 215.642 549.085 215.675C549.157 215.887 549.197 216.061 549.139 216.286C549.053 216.482 548.968 216.604 548.785 216.687C548.611 216.748 548.452 216.715 548.292 216.621C548.126 216.491 548.066 216.36 547.992 216.151C547.981 216.121 547.97 216.09 547.959 216.059C547.924 215.962 547.89 215.865 547.856 215.768C547.84 215.721 547.84 215.721 547.823 215.673C547.744 215.445 547.668 215.216 547.591 214.986C547.567 214.915 547.544 214.844 547.52 214.773C547.448 214.557 547.376 214.342 547.305 214.127C547.293 214.093 547.282 214.059 547.27 214.024C547.136 213.621 547.003 213.218 546.869 212.814C546.987 213.539 547.107 214.264 547.232 214.987C547.243 215.05 547.254 215.113 547.265 215.176C547.309 215.43 547.353 215.685 547.397 215.94C547.425 216.099 547.452 216.259 547.479 216.418C547.49 216.478 547.5 216.538 547.511 216.597C547.525 216.68 547.539 216.762 547.553 216.844C547.56 216.88 547.56 216.88 547.566 216.917C547.626 217.269 547.626 217.269 547.557 217.435C547.508 217.507 547.508 217.507 547.421 217.573C547.36 217.58 547.36 217.58 547.292 217.579C547.255 217.579 547.255 217.579 547.217 217.578C547.191 217.578 547.166 217.577 547.139 217.577C547.114 217.576 547.088 217.576 547.061 217.576C546.997 217.575 546.933 217.574 546.869 217.573C546.869 217.596 546.869 217.62 546.869 217.645C546.871 218.224 546.873 218.803 546.874 219.382C546.874 219.662 546.875 219.942 546.876 220.222C546.877 220.466 546.877 220.71 546.877 220.954C546.877 221.083 546.878 221.212 546.878 221.342C546.879 221.463 546.879 221.585 546.879 221.707C546.879 221.773 546.88 221.838 546.88 221.904C546.879 222.234 546.836 222.457 546.631 222.702C546.475 222.867 546.293 222.894 546.085 222.889C545.906 222.853 545.777 222.773 545.65 222.626C545.537 222.443 545.501 222.291 545.501 222.071C545.501 222.012 545.501 222.012 545.501 221.951C545.501 221.907 545.501 221.863 545.502 221.819C545.502 221.773 545.502 221.727 545.502 221.681C545.502 221.555 545.502 221.43 545.502 221.304C545.502 221.173 545.502 221.042 545.502 220.911C545.502 220.662 545.502 220.414 545.503 220.166C545.503 219.883 545.503 219.6 545.503 219.317C545.504 218.736 545.504 218.154 545.505 217.573H545.244C545.244 217.597 545.244 217.621 545.244 217.645C545.247 218.232 545.25 218.818 545.251 219.404C545.252 219.687 545.253 219.971 545.255 220.254C545.256 220.501 545.257 220.749 545.257 220.996C545.257 221.127 545.258 221.257 545.259 221.388C545.26 221.511 545.26 221.635 545.26 221.758C545.26 221.824 545.261 221.891 545.262 221.957C545.26 222.213 545.233 222.414 545.098 222.626C544.951 222.79 544.799 222.885 544.587 222.891C544.372 222.88 544.221 222.815 544.067 222.642C543.906 222.433 543.876 222.241 543.876 221.969C543.876 221.91 543.876 221.91 543.876 221.851C543.876 221.787 543.876 221.787 543.876 221.723C543.876 221.677 543.876 221.632 543.876 221.587C543.876 221.464 543.876 221.342 543.876 221.219C543.877 221.091 543.877 220.963 543.877 220.834C543.877 220.592 543.877 220.349 543.877 220.106C543.877 219.83 543.878 219.554 543.878 219.277C543.878 218.709 543.879 218.141 543.879 217.573C543.826 217.575 543.826 217.575 543.771 217.578C543.724 217.58 543.676 217.581 543.629 217.583C543.594 217.585 543.594 217.585 543.558 217.587C543.441 217.59 543.352 217.585 543.254 217.508C543.158 217.374 543.147 217.283 543.154 217.113C543.168 216.971 543.192 216.831 543.217 216.691C543.227 216.629 543.227 216.629 543.238 216.566C543.258 216.453 543.277 216.341 543.297 216.228C543.318 216.111 543.338 215.993 543.358 215.875C543.397 215.652 543.436 215.429 543.475 215.207C543.519 214.953 543.563 214.699 543.607 214.445C543.697 213.923 543.788 213.402 543.879 212.88C543.63 213.646 543.63 213.646 543.387 214.413C543.358 214.505 543.329 214.596 543.3 214.688C543.256 214.827 543.212 214.967 543.169 215.107C543.132 215.223 543.096 215.339 543.059 215.455C543.046 215.498 543.032 215.542 543.018 215.585C543 215.645 542.981 215.705 542.962 215.765C542.951 215.799 542.94 215.833 542.929 215.868C542.853 216.068 542.754 216.198 542.602 216.326C542.442 216.386 542.255 216.397 542.096 216.328C541.952 216.23 541.843 216.115 541.789 215.932C541.739 215.557 541.873 215.227 541.987 214.884C542.008 214.819 542.029 214.755 542.05 214.69C542.094 214.552 542.139 214.415 542.184 214.277C542.291 213.947 542.395 213.616 542.5 213.285C542.558 213.101 542.616 212.918 542.674 212.734C542.747 212.506 542.819 212.278 542.89 212.05C542.924 211.941 542.958 211.833 542.992 211.724C543.008 211.676 543.023 211.627 543.038 211.578C543.195 211.068 543.402 210.487 543.85 210.222C544.152 210.081 544.435 210.072 544.755 210.075Z" fill="black"/>
</g>
<g id="Group_25">
<path id="Vector_42" d="M552.547 210.086C552.593 210.086 552.593 210.086 552.639 210.085C552.739 210.085 552.839 210.085 552.94 210.085C553.009 210.085 553.079 210.085 553.149 210.085C553.296 210.085 553.442 210.084 553.588 210.084C553.775 210.084 553.962 210.084 554.15 210.083C554.294 210.083 554.438 210.083 554.583 210.083C554.652 210.083 554.72 210.083 554.789 210.083C554.886 210.082 554.983 210.082 555.079 210.083C555.108 210.082 555.136 210.082 555.165 210.082C555.58 210.084 555.959 210.196 556.272 210.519C556.607 210.933 556.66 211.416 556.66 211.954C556.66 212.002 556.66 212.05 556.661 212.098C556.661 212.228 556.662 212.358 556.662 212.487C556.662 212.569 556.662 212.65 556.662 212.731C556.663 213.015 556.663 213.298 556.663 213.582C556.664 213.846 556.664 214.11 556.666 214.374C556.667 214.601 556.667 214.828 556.667 215.055C556.667 215.191 556.667 215.326 556.668 215.462C556.669 215.589 556.669 215.716 556.669 215.844C556.669 215.89 556.669 215.937 556.669 215.983C556.672 216.244 556.669 216.455 556.506 216.653C556.328 216.811 556.175 216.844 555.954 216.818C555.801 216.763 555.69 216.68 555.606 216.522C555.505 216.274 555.506 216.029 555.506 215.76C555.506 215.713 555.506 215.666 555.506 215.62C555.505 215.494 555.504 215.368 555.504 215.243C555.504 215.111 555.503 214.979 555.503 214.848C555.501 214.599 555.5 214.35 555.5 214.101C555.499 213.818 555.498 213.534 555.496 213.25C555.494 212.667 555.492 212.085 555.49 211.502C555.418 211.518 555.418 211.518 555.345 211.534C555.345 211.568 555.345 211.568 555.345 211.603C555.343 212.943 555.341 214.282 555.338 215.622C555.338 215.783 555.338 215.944 555.337 216.105C555.337 216.137 555.337 216.169 555.337 216.202C555.336 216.72 555.335 217.239 555.335 217.757C555.334 218.289 555.333 218.821 555.332 219.353C555.331 219.682 555.331 220.01 555.33 220.338C555.33 220.563 555.33 220.788 555.329 221.014C555.329 221.143 555.328 221.273 555.328 221.403C555.329 221.522 555.328 221.641 555.328 221.76C555.327 221.824 555.328 221.887 555.328 221.95C555.326 222.195 555.311 222.394 555.184 222.6C555.016 222.785 554.869 222.858 554.634 222.87C554.437 222.863 554.31 222.79 554.162 222.648C553.976 222.397 553.947 222.173 553.948 221.846C553.948 221.822 553.948 221.797 553.948 221.772C553.948 221.69 553.948 221.608 553.948 221.526C553.948 221.468 553.948 221.409 553.948 221.35C553.948 221.19 553.948 221.031 553.949 220.871C553.949 220.705 553.949 220.538 553.949 220.371C553.949 220.056 553.949 219.74 553.949 219.424C553.95 219.065 553.95 218.705 553.95 218.346C553.95 217.607 553.951 216.868 553.951 216.128H553.719C553.719 216.159 553.719 216.19 553.719 216.221C553.721 216.968 553.722 217.715 553.722 218.462C553.723 218.823 553.723 219.184 553.724 219.546C553.724 219.86 553.725 220.175 553.725 220.49C553.725 220.657 553.725 220.824 553.725 220.99C553.726 221.147 553.726 221.304 553.726 221.461C553.726 221.519 553.726 221.576 553.726 221.634C553.729 222.376 553.729 222.376 553.542 222.632C553.395 222.79 553.233 222.864 553.032 222.872C552.8 222.858 552.626 222.752 552.471 222.56C552.338 222.327 552.338 222.09 552.34 221.821C552.34 221.776 552.339 221.731 552.339 221.687C552.339 221.565 552.339 221.443 552.339 221.321C552.339 221.189 552.339 221.057 552.338 220.925C552.337 220.697 552.337 220.469 552.337 220.24C552.337 219.91 552.337 219.58 552.336 219.25C552.335 218.715 552.334 218.179 552.334 217.644C552.333 217.124 552.333 216.604 552.332 216.084C552.332 216.036 552.332 216.036 552.332 215.987C552.331 215.826 552.331 215.665 552.331 215.504C552.328 214.17 552.327 212.836 552.326 211.502C552.254 211.513 552.254 211.513 552.181 211.534C552.142 211.621 552.148 211.686 552.148 211.783C552.148 211.822 552.147 211.861 552.147 211.901C552.147 211.965 552.147 211.965 552.147 212.031C552.147 212.076 552.147 212.121 552.147 212.167C552.146 212.265 552.146 212.363 552.146 212.461C552.146 212.616 552.145 212.771 552.144 212.926C552.143 213.368 552.141 213.809 552.14 214.25C552.14 214.494 552.139 214.737 552.138 214.981C552.137 215.11 552.136 215.239 552.136 215.368C552.136 215.489 552.136 215.61 552.135 215.732C552.135 215.797 552.135 215.863 552.135 215.928C552.133 216.176 552.127 216.422 551.988 216.625C551.793 216.792 551.644 216.846 551.397 216.818C551.23 216.75 551.12 216.636 551.031 216.464C550.988 216.351 550.98 216.276 550.98 216.154C550.98 216.114 550.979 216.073 550.979 216.032C550.979 215.988 550.98 215.943 550.98 215.899C550.98 215.852 550.98 215.805 550.979 215.759C550.979 215.631 550.979 215.504 550.98 215.377C550.98 215.244 550.98 215.11 550.98 214.977C550.98 214.753 550.98 214.528 550.981 214.304C550.981 214.046 550.982 213.787 550.981 213.529C550.981 213.279 550.981 213.03 550.982 212.781C550.982 212.675 550.982 212.569 550.982 212.463C550.982 212.338 550.982 212.214 550.982 212.089C550.983 212.043 550.983 211.997 550.982 211.952C550.982 211.378 551.052 210.918 551.414 210.491C551.743 210.154 552.12 210.086 552.547 210.086Z" fill="black"/>
</g>
<g id="Group_26">
<path id="Vector_43" d="M550.213 207.663C550.351 207.771 550.466 207.896 550.498 208.088C550.5 208.164 550.501 208.24 550.502 208.316C550.502 208.34 550.502 208.363 550.502 208.387C550.502 208.464 550.502 208.542 550.502 208.62C550.502 208.676 550.502 208.733 550.502 208.789C550.502 208.944 550.502 209.099 550.502 209.254C550.502 209.421 550.503 209.588 550.503 209.755C550.503 210.12 550.503 210.485 550.504 210.85C550.504 211.078 550.504 211.306 550.504 211.534C550.504 212.165 550.505 212.795 550.505 213.426C550.505 213.487 550.505 213.487 550.505 213.549C550.505 213.609 550.505 213.609 550.505 213.671C550.505 213.753 550.505 213.835 550.505 213.917C550.505 213.958 550.505 213.999 550.505 214.041C550.505 214.7 550.505 215.36 550.506 216.019C550.507 216.696 550.507 217.373 550.507 218.05C550.507 218.43 550.507 218.81 550.508 219.19C550.508 219.514 550.508 219.838 550.508 220.161C550.508 220.326 550.508 220.492 550.508 220.657C550.509 220.808 550.509 220.959 550.508 221.11C550.508 221.165 550.508 221.22 550.509 221.275C550.509 221.349 550.509 221.423 550.508 221.498C550.509 221.539 550.509 221.58 550.509 221.623C550.488 221.84 550.414 221.989 550.265 222.132C550.128 222.227 549.986 222.218 549.83 222.198C549.675 222.142 549.586 222.031 549.511 221.87C549.48 221.737 549.478 221.611 549.478 221.474C549.478 221.44 549.478 221.44 549.478 221.404C549.478 221.327 549.478 221.25 549.478 221.172C549.478 221.116 549.477 221.06 549.477 221.004C549.477 220.85 549.477 220.696 549.477 220.542C549.477 220.376 549.477 220.21 549.477 220.044C549.476 219.681 549.476 219.318 549.476 218.955C549.476 218.728 549.476 218.501 549.476 218.275C549.475 217.647 549.475 217.02 549.475 216.392C549.475 216.352 549.475 216.312 549.475 216.27C549.475 216.23 549.475 216.19 549.475 216.148C549.475 216.067 549.475 215.985 549.475 215.904C549.475 215.863 549.475 215.823 549.475 215.781C549.475 215.125 549.474 214.469 549.473 213.813C549.473 213.14 549.472 212.467 549.472 211.793C549.472 211.415 549.472 211.037 549.472 210.659C549.471 210.337 549.471 210.015 549.471 209.694C549.471 209.529 549.471 209.365 549.471 209.201C549.471 209.05 549.471 208.9 549.471 208.75C549.471 208.695 549.471 208.641 549.471 208.587C549.468 207.994 549.468 207.994 549.619 207.79C549.636 207.776 549.653 207.761 549.67 207.745C549.696 207.722 549.696 207.722 549.722 207.698C549.868 207.59 550.053 207.603 550.213 207.663Z" fill="black"/>
</g>
<g id="Group_27">
<path id="Vector_44" d="M546.115 207.363C546.364 207.619 546.534 207.942 546.552 208.329C546.543 208.737 546.429 209.065 546.182 209.363C545.892 209.654 545.561 209.722 545.186 209.699C545.056 209.685 544.95 209.635 544.838 209.562C544.815 209.547 544.792 209.532 544.768 209.517C544.485 209.32 544.306 209.043 544.228 208.676C544.189 208.291 544.217 207.937 544.422 207.615C544.866 207.013 545.551 206.9 546.115 207.363Z" fill="black"/>
</g>
<g id="Group_28">
<path id="Vector_45" d="M554.484 207.299C554.51 207.321 554.535 207.342 554.561 207.365C554.585 207.383 554.609 207.401 554.633 207.42C554.864 207.662 554.996 207.993 555.01 208.347C555.015 208.783 554.889 209.074 554.631 209.39C554.427 209.611 554.147 209.718 553.868 209.732C553.526 209.716 553.278 209.606 553.028 209.348C552.786 209.044 552.679 208.761 552.674 208.349C552.7 207.959 552.85 207.625 553.109 207.365C553.541 207.036 554.033 206.997 554.484 207.299Z" fill="black"/>
</g>
</g>
</g>
<g id="Group 228">
<path id="Vector_46" d="M193.362 126.457H173.362V146.457H193.362V126.457Z" fill="#ECAAFF"/>
<path id="Vector_47" d="M190.521 127.707H176.203C175.33 127.707 174.612 128.315 174.612 129.053V143.861C174.612 144.599 175.33 145.207 176.203 145.207H190.521C191.393 145.207 192.112 144.599 192.112 143.861V129.053C192.112 128.315 191.393 127.707 190.521 127.707ZM181.771 137.803H190.521V139.822H181.771V137.803ZM186.544 136.457V134.438H190.521V136.457H186.544ZM190.521 129.053V133.092H185.748C185.311 133.092 184.953 133.395 184.953 133.765V136.457H180.975C180.539 136.457 180.18 136.761 180.18 137.13V139.822H176.203V129.053H190.521ZM190.521 143.861H176.203V141.169H190.521V143.861Z" fill="black"/>
</g>
<g id="Group 234">
<path id="Vector_48" d="M518 251H498V271H518V251Z" fill="#ECAAFF"/>
<path id="Vector_49" d="M515.159 252.25H500.841C499.968 252.25 499.25 252.858 499.25 253.596V268.404C499.25 269.142 499.968 269.75 500.841 269.75H515.159C516.032 269.75 516.75 269.142 516.75 268.404V253.596C516.75 252.858 516.032 252.25 515.159 252.25ZM506.409 262.346H515.159V264.365H506.409V262.346ZM511.182 261V258.981H515.159V261H511.182ZM515.159 253.596V257.635H510.386C509.95 257.635 509.591 257.938 509.591 258.308V261H505.614C505.177 261 504.818 261.304 504.818 261.673V264.365H500.841V253.596H515.159ZM515.159 268.404H500.841V265.712H515.159V268.404Z" fill="black"/>
</g>
<g id="Group 238">
<path id="Vector_50" d="M576 517H556V537H576V517Z" fill="#ECAAFF"/>
<path id="Vector_51" d="M573.159 518.25H558.841C557.968 518.25 557.25 518.858 557.25 519.596V534.404C557.25 535.142 557.968 535.75 558.841 535.75H573.159C574.032 535.75 574.75 535.142 574.75 534.404V519.596C574.75 518.858 574.032 518.25 573.159 518.25ZM564.409 528.346H573.159V530.365H564.409V528.346ZM569.182 527V524.981H573.159V527H569.182ZM573.159 519.596V523.635H568.386C567.95 523.635 567.591 523.938 567.591 524.308V527H563.614C563.177 527 562.818 527.304 562.818 527.673V530.365H558.841V519.596H573.159ZM573.159 534.404H558.841V531.712H573.159V534.404Z" fill="black"/>
</g>
<g id="Group 233">
<path id="Vector_52" d="M198.374 233.512H178.374V253.512H198.374V233.512Z" fill="#ECAAFF"/>
<path id="Vector_53" d="M195.533 234.762H181.214C180.342 234.762 179.624 235.37 179.624 236.108V250.916C179.624 251.654 180.342 252.262 181.214 252.262H195.533C196.405 252.262 197.124 251.654 197.124 250.916V236.108C197.124 235.37 196.405 234.762 195.533 234.762ZM186.783 244.858H195.533V246.877H186.783V244.858ZM191.555 243.512V241.492H195.533V243.512H191.555ZM195.533 236.108V240.146H190.76C190.323 240.146 189.964 240.45 189.964 240.819V243.512H185.987C185.55 243.512 185.192 243.815 185.192 244.185V246.877H181.214V236.108H195.533ZM195.533 250.916H181.214V248.223H195.533V250.916Z" fill="black"/>
</g>
<g id="Group 237">
<path id="Vector_54" d="M557.239 168.289H537.239V188.289H557.239V168.289Z" fill="#ECAAFF"/>
<path id="Vector_55" d="M554.398 169.539H540.08C539.207 169.539 538.489 170.147 538.489 170.885V185.693C538.489 186.431 539.207 187.039 540.08 187.039H554.398C555.27 187.039 555.989 186.431 555.989 185.693V170.885C555.989 170.147 555.27 169.539 554.398 169.539ZM545.648 179.635H554.398V181.654H545.648V179.635ZM550.421 178.289V176.27H554.398V178.289H550.421ZM554.398 170.885V174.924H549.625C549.188 174.924 548.83 175.227 548.83 175.597V178.289H544.852C544.416 178.289 544.057 178.593 544.057 178.962V181.654H540.08V170.885H554.398ZM554.398 185.693H540.08V183.001H554.398V185.693Z" fill="black"/>
</g>
<g id="Group 230">
<path id="Vector_56" d="M140.879 239.883H120.879V259.883H140.879V239.883Z" fill="#ECAAFF"/>
<path id="Vector_57" d="M138.039 241.133H123.72C122.848 241.133 122.129 241.741 122.129 242.479V257.287C122.129 258.025 122.848 258.633 123.72 258.633H138.039C138.911 258.633 139.629 258.025 139.629 257.287V242.479C139.629 241.741 138.911 241.133 138.039 241.133ZM129.289 251.229H138.039V253.248H129.289V251.229ZM134.061 249.883V247.864H138.039V249.883H134.061ZM138.039 242.479V246.517H133.266C132.829 246.517 132.47 246.821 132.47 247.191V249.883H128.493C128.056 249.883 127.698 250.186 127.698 250.556V253.248H123.72V242.479H138.039ZM138.039 257.287H123.72V254.594H138.039V257.287Z" fill="black"/>
</g>
<g id="238002">
<path id="Vector_58" d="M203 290H183V310H203V290Z" fill="#73C7A4"/>
<g id="Group_29">
<path id="Vector_59" d="M200.292 291.246H185.708C184.908 291.246 184.25 291.905 184.25 292.704V307.288C184.25 308.088 184.908 308.746 185.708 308.746H200.292C201.092 308.746 201.75 308.088 201.75 307.288V292.704C201.75 291.905 201.092 291.246 200.292 291.246ZM197.375 298.538V307.288H193.729V298.538H197.375ZM192.271 307.288H188.625V298.538H192.271V307.288ZM200.292 307.288H198.833V297.809C198.833 297.408 198.504 297.079 198.104 297.079H187.896C187.496 297.079 187.167 297.408 187.167 297.809V307.288H185.708V292.704H200.292V307.288ZM195.188 294.892C195.188 295.292 194.859 295.621 194.458 295.621H191.542C191.141 295.621 190.812 295.292 190.812 294.892C190.812 294.492 191.141 294.163 191.542 294.163H194.458C194.859 294.163 195.188 294.492 195.188 294.892Z" fill="black"/>
</g>
</g>
<g id="238001">
<path id="Vector_60" d="M136.057 126.457H116.057V146.457H136.057V126.457Z" fill="#73C7A4"/>
<g id="Group_30">
<path id="Vector_61" d="M133.348 127.703H118.765C117.965 127.703 117.307 128.362 117.307 129.161V143.745C117.307 144.545 117.965 145.203 118.765 145.203H133.348C134.148 145.203 134.807 144.545 134.807 143.745V129.161C134.807 128.362 134.148 127.703 133.348 127.703ZM130.432 134.995V143.745H126.786V134.995H130.432ZM125.328 143.745H121.682V134.995H125.328V143.745ZM133.348 143.745H131.89V134.266C131.89 133.865 131.561 133.536 131.161 133.536H120.953C120.552 133.536 120.223 133.865 120.223 134.266V143.745H118.765V129.161H133.348V143.745ZM128.244 131.349C128.244 131.749 127.915 132.078 127.515 132.078H124.598C124.198 132.078 123.869 131.749 123.869 131.349C123.869 130.949 124.198 130.62 124.598 130.62H127.515C127.915 130.62 128.244 130.949 128.244 131.349Z" fill="black"/>
</g>
</g>
<g id="238003">
<path id="Vector_62" d="M498.232 168.289H478.232V188.289H498.232V168.289Z" fill="#73C7A4"/>
<g id="Group_31">
<path id="Vector_63" d="M495.523 169.543H480.94C480.14 169.543 479.482 170.201 479.482 171.001V185.585C479.482 186.385 480.14 187.043 480.94 187.043H495.523C496.323 187.043 496.982 186.385 496.982 185.585V171.001C496.982 170.201 496.323 169.543 495.523 169.543ZM492.607 176.835V185.585H488.961V176.835H492.607ZM487.503 185.585H483.857V176.835H487.503V185.585ZM495.523 185.585H494.065V176.105C494.065 175.705 493.736 175.376 493.336 175.376H483.128C482.727 175.376 482.398 175.705 482.398 176.105V185.585H480.94V171.001H495.523V185.585ZM490.419 173.189C490.419 173.589 490.09 173.918 489.69 173.918H486.773C486.373 173.918 486.044 173.589 486.044 173.189C486.044 172.788 486.373 172.46 486.773 172.46H489.69C490.09 172.46 490.419 172.788 490.419 173.189Z" fill="black"/>
</g>
</g>
<g id="238007">
<path id="Vector_64" d="M525 472H505V492H525V472Z" fill="#73C7A4"/>
<g id="Group_32">
<path id="Vector_65" d="M522.292 473.246H507.708C506.908 473.246 506.25 473.905 506.25 474.704V489.288C506.25 490.088 506.908 490.746 507.708 490.746H522.292C523.092 490.746 523.75 490.088 523.75 489.288V474.704C523.75 473.905 523.092 473.246 522.292 473.246ZM519.375 480.538V489.288H515.729V480.538H519.375ZM514.271 489.288H510.625V480.538H514.271V489.288ZM522.292 489.288H520.833V479.809C520.833 479.408 520.504 479.079 520.104 479.079H509.896C509.496 479.079 509.167 479.408 509.167 479.809V489.288H507.708V474.704H522.292V489.288ZM517.188 476.892C517.188 477.292 516.859 477.621 516.458 477.621H513.542C513.141 477.621 512.812 477.292 512.812 476.892C512.812 476.492 513.141 476.163 513.542 476.163H516.458C516.859 476.163 517.188 476.492 517.188 476.892Z" fill="black"/>
</g>
</g>
<g id="238005">
<path id="Vector_66" d="M416.435 373.848H396.435V393.848H416.435V373.848Z" fill="#73C7A4"/>
<g id="Group_33">
<path id="Vector_67" d="M413.727 375.102H399.143C398.343 375.102 397.685 375.76 397.685 376.56V391.143C397.685 391.943 398.343 392.602 399.143 392.602H413.727C414.527 392.602 415.185 391.943 415.185 391.143V376.56C415.185 375.76 414.527 375.102 413.727 375.102ZM410.81 382.393V391.143H407.164V382.393H410.81ZM405.706 391.143H402.06V382.393H405.706V391.143ZM413.727 391.143H412.268V381.664C412.268 381.264 411.939 380.935 411.539 380.935H401.331C400.931 380.935 400.602 381.264 400.602 381.664V391.143H399.143V376.56H413.727V391.143ZM408.622 378.747C408.622 379.148 408.294 379.477 407.893 379.477H404.977C404.576 379.477 404.247 379.148 404.247 378.747C404.247 378.347 404.576 378.018 404.977 378.018H407.893C408.294 378.018 408.622 378.347 408.622 378.747Z" fill="black"/>
</g>
</g>
<g id="238006">
<path id="Vector_68" d="M189.674 527.305H169.674V547.305H189.674V527.305Z" fill="#73C7A4"/>
<g id="Group_34">
<path id="Vector_69" d="M186.965 528.559H172.382C171.582 528.559 170.924 529.217 170.924 530.017V544.6C170.924 545.4 171.582 546.059 172.382 546.059H186.965C187.765 546.059 188.424 545.4 188.424 544.6V530.017C188.424 529.217 187.765 528.559 186.965 528.559ZM184.049 535.85V544.6H180.403V535.85H184.049ZM178.945 544.6H175.299V535.85H178.945V544.6ZM186.965 544.6H185.507V535.121C185.507 534.721 185.178 534.392 184.778 534.392H174.57C174.169 534.392 173.84 534.721 173.84 535.121V544.6H172.382V530.017H186.965V544.6ZM181.861 532.204C181.861 532.605 181.532 532.934 181.132 532.934H178.215C177.815 532.934 177.486 532.605 177.486 532.204C177.486 531.804 177.815 531.475 178.215 531.475H181.132C181.532 531.475 181.861 531.804 181.861 532.204Z" fill="black"/>
</g>
</g>
<path id="Vector 288" d="M157.286 504.246V557.252M206.648 582.971H157.286V570.896" stroke="black" stroke-width="0.5"/>
<g id="238004">
<path id="Vector_70" d="M416 345H396V365H416V345Z" fill="#73C7A4"/>
<g id="Group_35">
<path id="Vector_71" d="M413.292 346.254H398.708C397.908 346.254 397.25 346.912 397.25 347.712V362.296C397.25 363.095 397.908 363.754 398.708 363.754H413.292C414.092 363.754 414.75 363.095 414.75 362.296V347.712C414.75 346.912 414.092 346.254 413.292 346.254ZM410.375 353.546V362.296H406.729V353.546H410.375ZM405.271 362.296H401.625V353.546H405.271V362.296ZM413.292 362.296H411.833V352.816C411.833 352.416 411.504 352.087 411.104 352.087H400.896C400.496 352.087 400.167 352.416 400.167 352.816V362.296H398.708V347.712H413.292V362.296ZM408.188 349.9C408.188 350.3 407.859 350.629 407.458 350.629H404.542C404.141 350.629 403.812 350.3 403.812 349.9C403.812 349.499 404.141 349.171 404.542 349.171H407.458C407.859 349.171 408.188 349.499 408.188 349.9Z" fill="black"/>
</g>
</g>
<g id="238008">
<path id="Vector_72" d="M525 501H505V521H525V501Z" fill="#73C7A4"/>
<g id="Group_36">
<path id="Vector_73" d="M522.292 502.254H507.708C506.908 502.254 506.25 502.912 506.25 503.712V518.296C506.25 519.095 506.908 519.754 507.708 519.754H522.292C523.092 519.754 523.75 519.095 523.75 518.296V503.712C523.75 502.912 523.092 502.254 522.292 502.254ZM519.375 509.546V518.296H515.729V509.546H519.375ZM514.271 518.296H510.625V509.546H514.271V518.296ZM522.292 518.296H520.833V508.816C520.833 508.416 520.504 508.087 520.104 508.087H509.896C509.496 508.087 509.167 508.416 509.167 508.816V518.296H507.708V503.712H522.292V518.296ZM517.188 505.9C517.188 506.3 516.859 506.629 516.458 506.629H513.542C513.141 506.629 512.812 506.3 512.812 505.9C512.812 505.499 513.141 505.171 513.542 505.171H516.458C516.859 505.171 517.188 505.499 517.188 505.9Z" fill="black"/>
</g>
</g>
<g id="238009">
<path id="Vector_74" d="M526 528H506V548H526V528Z" fill="#73C7A4"/>
<g id="Group_37">
<path id="Vector_75" d="M523.292 529.246H508.708C507.908 529.246 507.25 529.905 507.25 530.704V545.288C507.25 546.088 507.908 546.746 508.708 546.746H523.292C524.092 546.746 524.75 546.088 524.75 545.288V530.704C524.75 529.905 524.092 529.246 523.292 529.246ZM520.375 536.538V545.288H516.729V536.538H520.375ZM515.271 545.288H511.625V536.538H515.271V545.288ZM523.292 545.288H521.833V535.809C521.833 535.408 521.504 535.079 521.104 535.079H510.896C510.496 535.079 510.167 535.408 510.167 535.809V545.288H508.708V530.704H523.292V545.288ZM518.188 532.892C518.188 533.292 517.859 533.621 517.458 533.621H514.542C514.141 533.621 513.812 533.292 513.812 532.892C513.812 532.492 514.141 532.163 514.542 532.163H517.458C517.859 532.163 518.188 532.492 518.188 532.892Z" fill="black"/>
</g>
</g>
<path id="Vector 287" d="M226.08 122.367H411.896L436.766 151.984V234.322H212.322" stroke="black" stroke-width="0.5"/>
</g>
<defs>
<filter id="filter0_d_520_565" x="0" y="0" width="688" height="688" filterUnits="userSpaceOnUse" color-interpolation-filters="sRGB">
<feFlood flood-opacity="0" result="BackgroundImageFix"/>
<feColorMatrix in="SourceAlpha" type="matrix" values="0 0 0 0 0 0 0 0 0 0 0 0 0 0 0 0 0 0 127 0" result="hardAlpha"/>
<feOffset dy="4"/>
<feGaussianBlur stdDeviation="2"/>
<feComposite in2="hardAlpha" operator="out"/>
<feColorMatrix type="matrix" values="0 0 0 0 0 0 0 0 0 0 0 0 0 0 0 0 0 0 0.25 0"/>
<feBlend mode="normal" in2="BackgroundImageFix" result="effect1_dropShadow_520_565"/>
<feBlend mode="normal" in="SourceGraphic" in2="effect1_dropShadow_520_565" result="shape"/>
</filter>
</defs>
</svg>
