<svg width="30" height="30" viewBox="0 0 30 30" fill="none" xmlns="http://www.w3.org/2000/svg">
<path d="M30 0H0V30H30V0Z" fill="#73C7A1"/>
<path d="M25.563 3H3.68692C2.48692 3 1.5 3.98701 1.5 5.18701V27.063C1.5 28.2615 2.48692 29.25 3.68692 29.25H25.563C26.763 29.25 27.75 28.2615 27.75 27.063V5.18701C27.75 3.98701 26.763 3 25.563 3ZM21.1875 13.938V27.063H15.7185V13.938H21.1875ZM13.5315 27.063H8.0625V13.938H13.5315V27.063ZM25.563 27.063H23.3744V12.843C23.3744 12.243 22.8825 11.7495 22.281 11.7495H6.96899C6.36899 11.7495 5.87549 12.243 5.87549 12.843V27.063H3.68692V5.18701H25.563V27.063ZM17.907 8.46899C17.907 9.06899 17.4134 9.5625 16.8119 9.5625H12.438C11.8365 9.5625 11.3445 9.06899 11.3445 8.46899C11.3445 7.86749 11.8365 7.37551 12.438 7.37551H16.8119C17.4134 7.37551 17.907 7.86749 17.907 8.46899Z" fill="black"/>
</svg>
