<svg width="16" height="83" viewBox="0 0 16 83" fill="none" xmlns="http://www.w3.org/2000/svg">
<path d="M0 0L1.11329 69.45L14 70L12.8868 0.550885L0 0Z" fill="#74C2A1"/>
<path d="M7.42251 25.1026L5.05139 27.6746C4.9573 27.7771 4.90378 27.9254 4.90576 28.083L5.02564 37.8516L3.48054 39.5287C3.10912 39.9314 3.09427 40.6529 3.44687 41.1255L5.05732 43.2827C5.41091 43.7554 6.00718 43.8131 6.37959 43.4104L8.7507 40.8384C8.8448 40.7359 8.89825 40.5877 8.89627 40.4292L8.77646 30.6605L10.3216 28.9844C10.693 28.5807 10.7078 27.8602 10.3552 27.3866L8.74478 25.2303C8.39119 24.7568 7.79492 24.699 7.42251 25.1026ZM9.67774 28.1211L7.98411 29.9585C7.88903 30.0611 7.8365 30.2093 7.83848 30.3668L7.95836 40.1365L5.7348 42.5472L4.1243 40.3909L5.81799 38.5536C5.91307 38.4511 5.96554 38.3028 5.96356 38.1452L5.84471 28.3756L8.06729 25.9649L9.67774 28.1211Z" fill="black"/>
</svg>
