<svg width="30" height="30" viewBox="0 0 30 30" fill="none" xmlns="http://www.w3.org/2000/svg">
<path d="M30 0H0V30H30V0Z" fill="#77CFFF"/>
<path d="M16.114 3.06914C16.321 3.23114 16.4936 3.41861 16.5416 3.70511C16.5446 3.81911 16.5461 3.93462 16.5461 4.04862C16.5476 4.08312 16.5476 4.11763 16.5476 4.15363C16.5476 4.27063 16.5476 4.38764 16.5476 4.50464C16.5476 4.58864 16.5476 4.6726 16.5476 4.7581C16.5476 4.9891 16.5476 5.22163 16.5476 5.45413C16.5476 5.70463 16.5491 5.9551 16.5491 6.2056C16.5491 6.7531 16.5491 7.30061 16.5491 7.84961C16.5506 8.19011 16.5506 8.53213 16.5506 8.87413C16.5506 9.82063 16.5505 10.7671 16.552 11.7136C16.552 11.8036 16.552 11.8036 16.552 11.8966C16.552 11.9881 16.552 11.9881 16.552 12.0811C16.552 12.2041 16.552 12.3271 16.552 12.4501C16.552 12.5116 16.552 12.5716 16.552 12.6346C16.552 13.6246 16.5521 14.6131 16.5536 15.6031C16.5551 16.6186 16.5551 17.6341 16.5551 18.6481C16.5551 19.2196 16.555 19.7896 16.5565 20.3596C16.5565 20.8441 16.5565 21.3301 16.5565 21.8161C16.5565 22.0636 16.5565 22.3111 16.5565 22.5586C16.558 22.7866 16.558 23.0131 16.5565 23.2396C16.5565 23.3221 16.5566 23.4031 16.5581 23.4856C16.5581 23.5966 16.558 23.7091 16.5565 23.8201C16.5565 23.8816 16.5581 23.9446 16.5581 24.0076C16.5266 24.3346 16.4156 24.5581 16.1921 24.7726C15.9866 24.9136 15.7736 24.9016 15.5396 24.8716C15.3071 24.7861 15.1736 24.6196 15.0611 24.3781C15.0146 24.1801 15.0116 23.9911 15.0116 23.7856C15.0116 23.7331 15.0116 23.7331 15.0116 23.6806C15.0116 23.5636 15.0116 23.4481 15.0116 23.3326C15.0116 23.2486 15.0101 23.1646 15.0101 23.0806C15.0101 22.8496 15.0101 22.6186 15.0101 22.3876C15.0101 22.1386 15.0101 21.8896 15.0101 21.6391C15.0086 21.0946 15.0085 20.5501 15.0085 20.0056C15.0085 19.6651 15.0085 19.3261 15.0085 18.9856C15.007 18.0451 15.0071 17.1031 15.0071 16.1626C15.0071 16.1011 15.0071 16.0411 15.0071 15.9796C15.0071 15.9196 15.0071 15.8581 15.0071 15.7966C15.0071 15.6736 15.0071 15.5521 15.0071 15.4291C15.0071 15.3691 15.0071 15.3076 15.0071 15.2461C15.0071 14.2621 15.0056 13.2781 15.0041 12.2941C15.0041 11.2846 15.0026 10.2736 15.0026 9.2641C15.0026 8.6971 15.0026 8.1301 15.0026 7.5631C15.0011 7.0801 15.001 6.59714 15.001 6.11414C15.001 5.86814 15.001 5.62212 15.001 5.37462C15.001 5.14962 15.001 4.92464 15.001 4.69814C15.001 4.61714 15.001 4.5346 15.001 4.4536C14.9965 3.5656 14.9966 3.56562 15.2231 3.25962C15.2486 3.23712 15.2741 3.21464 15.2996 3.19214C15.3386 3.15614 15.3386 3.1561 15.3776 3.1216C15.5966 2.9581 15.874 2.97914 16.114 3.06914Z" fill="black"/>
<path d="M7.4641 7.48819C7.5391 7.48819 7.6156 7.48819 7.6906 7.48819C7.8466 7.48819 8.00258 7.48821 8.16008 7.48971C8.35958 7.49121 8.55915 7.49121 8.75865 7.48971C8.91315 7.48971 9.06759 7.49122 9.22209 7.49122C9.29559 7.49122 9.36914 7.49122 9.44264 7.49122C10.0246 7.48972 10.5151 7.53171 10.9846 7.95621C11.0101 7.97871 11.0371 8.00271 11.0641 8.02671C11.7076 8.67771 11.9281 9.8162 12.2116 10.7027C12.2506 10.8212 12.2881 10.9397 12.3271 11.0597C12.3541 11.1422 12.3796 11.2247 12.4066 11.3072C12.7261 12.2987 13.0636 13.2827 13.4011 14.2652C13.4776 14.4872 13.5526 14.7077 13.6276 14.9297C13.6846 15.0947 13.7431 15.2612 13.8001 15.4262C13.8361 15.5312 13.8721 15.6377 13.9096 15.7427C13.9261 15.7907 13.9426 15.8387 13.9606 15.8882C14.0686 16.2062 14.1271 16.4687 14.0401 16.8062C13.9111 17.1002 13.7836 17.2832 13.5091 17.4062C13.2496 17.4992 13.0096 17.4482 12.7696 17.3087C12.5221 17.1137 12.4307 16.9157 12.3212 16.6022C12.3047 16.5572 12.2881 16.5122 12.2716 16.4657C12.2191 16.3202 12.1666 16.1747 12.1171 16.0277C12.0916 15.9572 12.0916 15.9572 12.0676 15.8867C11.9491 15.5432 11.8337 15.1997 11.7197 14.8562C11.6837 14.7497 11.6476 14.6417 11.6116 14.5352C11.5036 14.2127 11.3971 13.8902 11.2891 13.5677C11.2726 13.5167 11.2546 13.4657 11.2381 13.4132C11.0371 12.8087 10.8361 12.2027 10.6366 11.5982C10.8136 12.6857 10.9936 13.7717 11.1796 14.8562C11.1961 14.9507 11.2126 15.0452 11.2291 15.1397C11.2951 15.5222 11.3611 15.9047 11.4271 16.2857C11.4691 16.5257 11.5112 16.7642 11.5517 17.0042C11.5667 17.0927 11.5831 17.1827 11.5981 17.2727C11.6191 17.3957 11.6416 17.5202 11.6626 17.6432C11.6716 17.6972 11.6716 17.6972 11.6821 17.7527C11.7706 18.2792 11.7706 18.2792 11.6671 18.5297C11.5936 18.6377 11.5936 18.6377 11.4631 18.7352C11.3731 18.7472 11.3731 18.7472 11.2696 18.7457C11.2141 18.7442 11.2142 18.7442 11.1572 18.7442C11.1197 18.7427 11.0806 18.7427 11.0416 18.7412C11.0026 18.7412 10.9636 18.7412 10.9231 18.7397C10.8271 18.7397 10.7326 18.7367 10.6366 18.7352C10.6366 18.7712 10.6366 18.8072 10.6366 18.8432C10.6396 19.7117 10.6411 20.5802 10.6426 21.4487C10.6441 21.8687 10.6441 22.2887 10.6456 22.7087C10.6471 23.0747 10.6486 23.4407 10.6486 23.8082C10.6486 24.0017 10.6486 24.1952 10.6501 24.3887C10.6501 24.5717 10.6516 24.7547 10.6501 24.9362C10.6501 25.0352 10.6516 25.1342 10.6516 25.2317C10.6501 25.7267 10.5856 26.0612 10.2796 26.4287C10.0456 26.6777 9.77109 26.7167 9.46059 26.7092C9.19059 26.6567 8.99713 26.5352 8.80663 26.3162C8.63713 26.0417 8.58461 25.8137 8.58461 25.4837C8.58461 25.3937 8.58461 25.3937 8.58461 25.3022C8.58461 25.2377 8.58461 25.1717 8.58461 25.1057C8.58461 25.0367 8.58461 24.9662 8.58461 24.8972C8.58461 24.7097 8.58461 24.5207 8.58461 24.3332C8.58611 24.1367 8.58608 23.9387 8.58608 23.7422C8.58608 23.3702 8.58608 22.9982 8.58608 22.6247C8.58758 22.2002 8.58763 21.7772 8.58763 21.3527C8.58763 20.4797 8.5891 19.6082 8.5891 18.7352H8.19762C8.19762 18.7712 8.19762 18.8072 8.19762 18.8447C8.20362 19.7237 8.20661 20.6027 8.20961 21.4817C8.20961 21.9077 8.2111 22.3322 8.2141 22.7582C8.2156 23.1287 8.21708 23.4992 8.21858 23.8697C8.21858 24.0662 8.21864 24.2627 8.22014 24.4592C8.22164 24.6437 8.22311 24.8282 8.22161 25.0142C8.22161 25.1132 8.22313 25.2122 8.22463 25.3127C8.22313 25.6967 8.18109 25.9982 7.98009 26.3162C7.75809 26.5607 7.53011 26.7032 7.21361 26.7122C6.88961 26.6957 6.66312 26.5982 6.43212 26.3387C6.19062 26.0267 6.14565 25.7387 6.14565 25.3292C6.14565 25.2422 6.14565 25.2422 6.14565 25.1522C6.14565 25.0577 6.14565 25.0577 6.14565 24.9602C6.14565 24.8927 6.14565 24.8252 6.14565 24.7562C6.14565 24.5732 6.14711 24.3887 6.14711 24.2057C6.14711 24.0122 6.14711 23.8202 6.14711 23.6282C6.14711 23.2637 6.14708 22.9007 6.14858 22.5362C6.14858 22.1222 6.14858 21.7067 6.14858 21.2927C6.15008 20.4407 6.1501 19.5872 6.1516 18.7352C6.0706 18.7397 6.07064 18.7397 5.98964 18.7442C5.91764 18.7457 5.84713 18.7487 5.77513 18.7502C5.72263 18.7532 5.72257 18.7532 5.66857 18.7577C5.49457 18.7607 5.3596 18.7547 5.2141 18.6392C5.0686 18.4382 5.05208 18.3017 5.06258 18.0467C5.08358 17.8322 5.11965 17.6237 5.15715 17.4137C5.17365 17.3207 5.17361 17.3207 5.19011 17.2247C5.21861 17.0567 5.24864 16.8872 5.27864 16.7192C5.30864 16.5422 5.3401 16.3652 5.3701 16.1882C5.4271 15.8552 5.48565 15.5207 5.54415 15.1862C5.61165 14.8052 5.67608 14.4257 5.74208 14.0447C5.87858 13.2617 6.0136 12.4787 6.1516 11.6972C5.7781 12.8447 5.77813 12.8447 5.41213 13.9967C5.36863 14.1332 5.32663 14.2712 5.28313 14.4092C5.21713 14.6177 5.1511 14.8277 5.0851 15.0362C5.0311 15.2102 4.97559 15.3842 4.92159 15.5582C4.90059 15.6242 4.87966 15.6887 4.86016 15.7547C4.83166 15.8447 4.80314 15.9347 4.77464 16.0247C4.75814 16.0757 4.74308 16.1252 4.72658 16.1777C4.61108 16.4777 4.46258 16.6742 4.23458 16.8647C3.99608 16.9547 3.71407 16.9727 3.47707 16.8677C3.26107 16.7207 3.09765 16.5497 3.01665 16.2737C2.94015 15.7127 3.14259 15.2177 3.31209 14.7017C3.34359 14.6057 3.37507 14.5082 3.40657 14.4122C3.47257 14.2052 3.54012 13.9982 3.60762 13.7927C3.76812 13.2977 3.92559 12.7997 4.08159 12.3032C4.16859 12.0287 4.25707 11.7527 4.34407 11.4782C4.45207 11.1362 4.56158 10.7942 4.66808 10.4507C4.71908 10.2887 4.77015 10.1252 4.82115 9.96319C4.84365 9.88969 4.86613 9.81769 4.88863 9.74419C5.12413 8.97919 5.43461 8.10771 6.10811 7.71021C6.55961 7.49721 6.9841 7.48369 7.4641 7.48819Z" fill="black"/>
<path d="M20.6552 7.49867C20.7242 7.49867 20.7242 7.49867 20.7932 7.49867C20.9432 7.49867 21.0933 7.49867 21.2433 7.49867C21.3483 7.49867 21.4532 7.49716 21.5582 7.49716C21.7772 7.49716 21.9977 7.49716 22.2167 7.49716C22.4972 7.49716 22.7777 7.49715 23.0582 7.49565C23.2757 7.49565 23.4917 7.49565 23.7077 7.49565C23.8112 7.49565 23.9147 7.49564 24.0182 7.49414C24.1637 7.49414 24.3092 7.49414 24.4532 7.49414C24.4952 7.49414 24.5372 7.49414 24.5807 7.49414C25.2047 7.49714 25.7717 7.66366 26.2427 8.14966C26.7437 8.77066 26.8247 9.49514 26.8247 10.3006C26.8247 10.3726 26.8247 10.4462 26.8262 10.5182C26.8262 10.7117 26.8262 10.9066 26.8277 11.1016C26.8277 11.2231 26.8277 11.3447 26.8277 11.4677C26.8292 11.8922 26.8293 12.3181 26.8293 12.7441C26.8293 13.1401 26.8307 13.5362 26.8322 13.9307C26.8337 14.2727 26.8352 14.6132 26.8352 14.9537C26.8352 15.1562 26.8352 15.3601 26.8367 15.5626C26.8382 15.7546 26.8382 15.9452 26.8367 16.1357C26.8367 16.2062 26.8382 16.2751 26.8382 16.3456C26.8412 16.7356 26.8382 17.0537 26.5937 17.3507C26.3252 17.5862 26.0972 17.6372 25.7657 17.5967C25.5362 17.5157 25.3682 17.3896 25.2437 17.1541C25.0907 16.7821 25.0937 16.4131 25.0937 16.0096C25.0937 15.9406 25.0937 15.8702 25.0922 15.7997C25.0922 15.6122 25.0908 15.4231 25.0908 15.2341C25.0908 15.0376 25.0892 14.8397 25.0877 14.6417C25.0862 14.2697 25.0847 13.8962 25.0847 13.5227C25.0832 13.0967 25.0817 12.6721 25.0787 12.2461C25.0757 11.3716 25.0712 10.4972 25.0697 9.62265C24.9617 9.64665 24.9617 9.64663 24.8522 9.67213C24.8522 9.72313 24.8522 9.72313 24.8522 9.77563C24.8492 11.7841 24.8462 13.7942 24.8417 15.8042C24.8417 16.0442 24.8402 16.2856 24.8402 16.5271C24.8402 16.5751 24.8402 16.6232 24.8402 16.6727C24.8387 17.4512 24.8372 18.2282 24.8357 19.0067C24.8357 19.8047 24.8342 20.6026 24.8327 21.4006C24.8312 21.8926 24.8297 22.3862 24.8297 22.8782C24.8297 23.2157 24.8282 23.5531 24.8282 23.8906C24.8267 24.0856 24.8267 24.2807 24.8267 24.4757C24.8267 24.6542 24.8268 24.8327 24.8253 25.0112C24.8253 25.1057 24.8252 25.2002 24.8267 25.2962C24.8237 25.6637 24.8012 25.9606 24.6107 26.2696C24.3587 26.5486 24.1382 26.6582 23.7842 26.6747C23.4902 26.6657 23.2997 26.5547 23.0777 26.3432C22.7987 25.9667 22.7552 25.6292 22.7567 25.1402C22.7567 25.1027 22.7567 25.0666 22.7567 25.0291C22.7567 24.9061 22.7567 24.7831 22.7567 24.6601C22.7567 24.5716 22.7567 24.4831 22.7567 24.3946C22.7567 24.1561 22.7567 23.9176 22.7567 23.6776C22.7567 23.4271 22.7567 23.1781 22.7582 22.9276C22.7582 22.4536 22.7582 21.9812 22.7582 21.5072C22.7582 20.9672 22.7597 20.4287 22.7597 19.8902C22.7597 18.7802 22.7612 17.6717 22.7612 16.5632H22.4132C22.4132 16.6097 22.4132 16.6547 22.4132 16.7027C22.4147 17.8232 22.4162 18.9436 22.4177 20.0641C22.4177 20.6056 22.4193 21.1472 22.4193 21.6887C22.4208 22.1612 22.4207 22.6337 22.4207 23.1062C22.4222 23.3567 22.4222 23.6057 22.4222 23.8562C22.4237 24.0917 22.4237 24.3271 22.4237 24.5626C22.4237 24.6481 22.4237 24.7351 22.4237 24.8206C22.4282 25.9351 22.4282 25.9352 22.1477 26.3192C21.9272 26.5562 21.6842 26.6672 21.3812 26.6792C21.0347 26.6582 20.7722 26.4991 20.5412 26.2111C20.3402 25.8616 20.3418 25.5062 20.3448 25.1012C20.3433 25.0352 20.3432 24.9676 20.3432 24.9001C20.3417 24.7171 20.3432 24.5342 20.3432 24.3512C20.3432 24.1532 20.3417 23.9552 20.3417 23.7587C20.3402 23.4152 20.3402 23.0732 20.3402 22.7312C20.3402 22.2362 20.3387 21.7411 20.3387 21.2461C20.3372 20.4436 20.3357 19.6397 20.3357 18.8372C20.3342 18.0572 20.3342 17.2772 20.3327 16.4972C20.3327 16.4237 20.3327 16.4237 20.3327 16.3502C20.3312 16.1087 20.3312 15.8686 20.3312 15.6271C20.3267 13.6261 20.3252 11.6237 20.3237 9.62265C20.2157 9.64065 20.2157 9.64063 20.1062 9.67213C20.0477 9.80263 20.0567 9.89866 20.0552 10.0442C20.0552 10.1027 20.0552 10.1611 20.0552 10.2211C20.0552 10.3186 20.0552 10.3186 20.0552 10.4161C20.0552 10.4851 20.0552 10.5527 20.0537 10.6217C20.0537 10.7687 20.0537 10.9156 20.0537 11.0626C20.0522 11.2951 20.0522 11.5276 20.0507 11.7601C20.0477 12.4216 20.0462 13.0846 20.0447 13.7461C20.0432 14.1106 20.0418 14.4767 20.0403 14.8427C20.0403 15.0347 20.0387 15.2281 20.0387 15.4216C20.0387 15.6046 20.0387 15.7862 20.0372 15.9677C20.0372 16.0667 20.0372 16.1642 20.0372 16.2632C20.0342 16.6337 20.0252 17.0027 19.8167 17.3072C19.5242 17.5592 19.3007 17.6402 18.9302 17.5967C18.6797 17.4962 18.5133 17.3252 18.3798 17.0657C18.3168 16.8962 18.3032 16.7852 18.3032 16.6022C18.3032 16.5407 18.3032 16.4807 18.3032 16.4192C18.3032 16.3517 18.3032 16.2857 18.3047 16.2197C18.3032 16.1492 18.3032 16.0786 18.3032 16.0081C18.3032 15.8176 18.3032 15.6272 18.3047 15.4367C18.3047 15.2357 18.3047 15.0362 18.3047 14.8352C18.3047 14.4992 18.3047 14.1632 18.3062 13.8272C18.3062 13.4387 18.3062 13.0517 18.3062 12.6632C18.3062 12.2897 18.3062 11.9161 18.3062 11.5411C18.3077 11.3821 18.3077 11.2247 18.3077 11.0657C18.3062 10.8782 18.3077 10.6907 18.3077 10.5032C18.3077 10.4357 18.3077 10.3666 18.3077 10.2991C18.3062 9.43813 18.4127 8.74817 18.9557 8.10617C19.4477 7.60217 20.0147 7.49867 20.6552 7.49867Z" fill="black"/>
<path d="M9.50865 3.42761C9.88215 3.81011 10.1386 4.29612 10.1656 4.87662C10.1506 5.48862 9.97958 5.97911 9.60908 6.42761C9.17408 6.86261 8.67759 6.96461 8.11659 6.93161C7.92009 6.91061 7.76109 6.83411 7.59309 6.72461C7.55859 6.70361 7.52414 6.6811 7.48964 6.6586C7.06364 6.3616 6.79508 5.94613 6.67958 5.39563C6.61958 4.81813 6.66157 4.28863 6.96907 3.80413C7.63657 2.90263 8.66415 2.73311 9.50865 3.42761Z" fill="black"/>
<path d="M23.5637 3.32567C23.6012 3.35717 23.6387 3.39017 23.6777 3.42317C23.7137 3.45167 23.7497 3.47867 23.7872 3.50717C24.1322 3.86867 24.3302 4.36516 24.3512 4.89616C24.3587 5.55166 24.1712 5.98816 23.7827 6.46066C23.4767 6.79216 23.0567 6.95418 22.6397 6.97368C22.1252 6.94968 21.7547 6.78618 21.3782 6.39918C21.0152 5.94168 20.8547 5.51865 20.8472 4.90065C20.8862 4.31415 21.1112 3.81317 21.5012 3.42317C22.1492 2.93117 22.8857 2.87117 23.5637 3.32567Z" fill="black"/>
</svg>
